  0
SECTION
  2
HEADER
  9
$ACADVER
  1
AC1014
  9
$HANDSEED
  5
FFFF
  9
$MEASUREMENT
 70
     1
  0
ENDSEC
  0
SECTION
  2
TABLES
  0
TABLE
  2
VPORT
  5
8
330
0
100
AcDbSymbolTable
 70
     4
  0
VPORT
  5
2E
330
8
100
AcDbSymbolTableRecord
100
AcDbViewportTableRecord
  2
*ACTIVE
 70
     0
 10
0.0
 20
0.0
 11
1.0
 21
1.0
 12
210.0
 22
148.5
 13
0.0
 23
0.0
 14
10.0
 24
10.0
 15
10.0
 25
10.0
 16
0.0
 26
0.0
 36
1.0
 17
0.0
 27
0.0
 37
0.0
 40
341.0
 41
1.24
 42
50.0
 43
0.0
 44
0.0
 50
0.0
 51
0.0
 71
     0
 72
   100
 73
     1
 74
     3
 75
     0
 76
     0
 77
     0
 78
     0
  0
ENDTAB
  0
TABLE
  2
LTYPE
  5
5
330
0
100
AcDbSymbolTable
 70
     1
  0
LTYPE
  5
14
330
5
100
AcDbSymbolTableRecord
100
AcDbLinetypeTableRecord
  2
BYBLOCK
 70
     0
  3

 72
    65
 73
     0
 40
0.0
  0
LTYPE
  5
15
330
5
100
AcDbSymbolTableRecord
100
AcDbLinetypeTableRecord
  2
BYLAYER
 70
     0
  3

 72
    65
 73
     0
 40
0.0
  0
LTYPE
  5
16
330
5
100
AcDbSymbolTableRecord
100
AcDbLinetypeTableRecord
  2
CONTINUOUS
 70
     0
  3
Solid line
 72
    65
 73
     0
 40
0.0
  0
ENDTAB
  0
TABLE
  2
LAYER
  5
2
100
AcDbSymbolTable
 70
2
  0
LAYER
  5
50
100
AcDbSymbolTableRecord
100
AcDbLayerTableRecord
  2
0
 70
0
  6
CONTINUOUS
  0
LAYER
  5
51
100
AcDbSymbolTableRecord
100
AcDbLayerTableRecord
  2
Layer_1
 70
0
  6
CONTINUOUS
  0
ENDTAB
  0
TABLE
  2
STYLE
  5
3
330
0
100
AcDbSymbolTable
 70
     1
  0
STYLE
  5
11
330
3
100
AcDbSymbolTableRecord
100
AcDbTextStyleTableRecord
  2
STANDARD
 70
     0
 40
0.0
 41
1.0
 50
0.0
 71
     0
 42
2.5
  3
txt
  4

  0
ENDTAB
  0
TABLE
  2
VIEW
  5
6
330
0
100
AcDbSymbolTable
 70
     0
  0
ENDTAB
  0
TABLE
  2
UCS
  5
7
330
0
100
AcDbSymbolTable
 70
     0
  0
ENDTAB
  0
TABLE
  2
APPID
  5
9
330
0
100
AcDbSymbolTable
 70
     2
  0
APPID
  5
12
330
9
100
AcDbSymbolTableRecord
100
AcDbRegAppTableRecord
  2
ACAD
 70
     0
  0
ENDTAB
  0
TABLE
  2
DIMSTYLE
  5
A
330
0
100
AcDbSymbolTable
 70
     1
  0
DIMSTYLE
105
27
330
A
100
AcDbSymbolTableRecord
100
AcDbDimStyleTableRecord
  2
ISO-25
 70
     0
  3

  4

  5

  6

  7

 40
1.0
 41
2.5
 42
0.625
 43
3.75
 44
1.25
 45
0.0
 46
0.0
 47
0.0
 48
0.0
140
2.5
141
2.5
142
0.0
143
0.03937007874016
144
1.0
145
0.0
146
1.0
147
0.625
 71
     0
 72
     0
 73
     0
 74
     0
 75
     0
 76
     0
 77
     1
 78
     8
170
     0
171
     3
172
     1
173
     0
174
     0
175
     0
176
     0
177
     0
178
     0
270
     2
271
     2
272
     2
273
     2
274
     3
340
11
275
     0
280
     0
281
     0
282
     0
283
     0
284
     8
285
     0
286
     0
287
     3
288
     0
  0
ENDTAB
  0
TABLE
  2
BLOCK_RECORD
  5
1
330
0
100
AcDbSymbolTable
 70
     1
  0
BLOCK_RECORD
  5
1F
330
1
100
AcDbSymbolTableRecord
100
AcDbBlockTableRecord
  2
*MODEL_SPACE
  0
BLOCK_RECORD
  5
1B
330
1
100
AcDbSymbolTableRecord
100
AcDbBlockTableRecord
  2
*PAPER_SPACE
  0
ENDTAB
  0
ENDSEC
  0
SECTION
  2
BLOCKS
  0
BLOCK
  5
20
330
1F
100
AcDbEntity
  8
0
100
AcDbBlockBegin
  2
*MODEL_SPACE
 70
     0
 10
0.0
 20
0.0
 30
0.0
  3
*MODEL_SPACE
  1

  0
ENDBLK
  5
21
330
1F
100
AcDbEntity
  8
0
100
AcDbBlockEnd
  0
BLOCK
  5
1C
330
1B
100
AcDbEntity
 67
     1
  8
0
100
AcDbBlockBegin
  2
*PAPER_SPACE
  1

  0
ENDBLK
  5
1D
330
1B
100
AcDbEntity
 67
     1
  8
0
100
AcDbBlockEnd
  0
ENDSEC
  0
SECTION
  2
ENTITIES
  0
LINE
  5
100
100
AcDbEntity
  8
Layer_1
 62
1
100
AcDbLine
 10
8.835897
 20
292.113706
 30
0.0
 11
8.835897
 21
291.859450
 31
0.0
  0
LINE
  5
101
100
AcDbEntity
  8
Layer_1
 62
1
100
AcDbLine
 10
8.835897
 20
291.859450
 30
0.0
 11
8.835897
 21
290.939644
 31
0.0
  0
LINE
  5
102
100
AcDbEntity
  8
Layer_1
 62
1
100
AcDbLine
 10
8.835897
 20
290.939644
 30
0.0
 11
8.835897
 21
290.655476
 31
0.0
  0
SPLINE
  5
103
100
AcDbEntity
  8
Layer_1
 62
1
100
AcDbSpline
 70
0
 71
3
 72
181
 73
177
 74
175
 40
0.000000
 40
0.000000
 40
0.000000
 40
0.000000
 40
0.022922
 40
0.055125
 40
0.110862
 40
0.152072
 40
0.210330
 40
0.260744
 40
0.300201
 40
0.341844
 40
0.380394
 40
0.405638
 40
0.428316
 40
0.455176
 40
0.540517
 40
0.625800
 40
0.709552
 40
1.307254
 40
1.907600
 40
2.506000
 40
2.647974
 40
2.790180
 40
2.932329
 40
3.001647
 40
3.073011
 40
3.141855
 40
3.186513
 40
3.244145
 40
3.283939
 40
3.307579
 40
3.335582
 40
3.366780
 40
3.403636
 40
3.440484
 40
3.479878
 40
3.597495
 40
3.720454
 40
3.839062
 40
3.966608
 40
4.099408
 40
4.228159
 40
4.255001
 40
4.277711
 40
4.302953
 40
4.339124
 40
4.378114
 40
4.415125
 40
4.511220
 40
4.600537
 40
4.699438
 40
4.729525
 40
4.754167
 40
4.781730
 40
4.844052
 40
4.912239
 40
4.976161
 40
5.015620
 40
5.057261
 40
5.095810
 40
5.118858
 40
5.139519
 40
5.163115
 40
5.266597
 40
5.379809
 40
5.484791
 40
5.516896
 40
5.543996
 40
5.574562
 40
5.655429
 40
5.739616
 40
5.821339
 40
5.950690
 40
6.081264
 40
6.210200
 40
6.258034
 40
6.304732
 40
6.337503
 40
6.348356
 40
6.363730
 40
6.383486
 40
6.400817
 40
6.417074
 40
6.429779
 40
6.470834
 40
6.522976
 40
6.579611
 40
6.709362
 40
6.845058
 40
6.976269
 40
7.040187
 40
7.108384
 40
7.170700
 40
7.214080
 40
7.253960
 40
7.283636
 40
7.292737
 40
7.306029
 40
7.322288
 40
7.337675
 40
7.350470
 40
7.360946
 40
7.392211
 40
7.433808
 40
7.473715
 40
7.597568
 40
7.735153
 40
7.862576
 40
8.156882
 40
8.451020
 40
8.745027
 40
8.926611
 40
9.109928
 40
9.290929
 40
9.333520
 40
9.371734
 40
9.418261
 40
9.453605
 40
9.482721
 40
9.515633
 40
9.652112
 40
9.796522
 40
9.934407
 40
9.965091
 40
9.989356
 40
10.016669
 40
10.059458
 40
10.107024
 40
10.151274
 40
10.252102
 40
10.359578
 40
10.458079
 40
10.514821
 40
10.556403
 40
10.614093
 40
10.660948
 40
10.703999
 40
10.756934
 40
10.776243
 40
10.795527
 40
10.816759
 40
10.839097
 40
10.859187
 40
10.884066
 40
10.907067
 40
10.927607
 40
10.951721
 40
11.070185
 40
11.192315
 40
11.310821
 40
11.362981
 40
11.415165
 40
11.468057
 40
11.503861
 40
11.535455
 40
11.572786
 40
11.617558
 40
11.655838
 40
11.700131
 40
11.751707
 40
11.806842
 40
11.857171
 40
11.886180
 40
11.913856
 40
11.946958
 40
11.977232
 40
11.994550
 40
12.005740
 40
12.026940
 40
12.046284
 40
12.066799
 40
12.076477
 40
12.090733
 40
12.115722
 40
12.147716
 40
12.186560
 40
12.220437
 40
12.220437
 40
12.220437
 40
12.220437
 10
1.327803
 20
290.453583
 30
0.0
 10
1.334261
 20
290.457655
 30
0.0
 10
1.349794
 20
290.467449
 30
0.0
 10
1.379199
 20
290.490340
 30
0.0
 10
1.400076
 20
290.530595
 30
0.0
 10
1.404103
 20
290.582452
 30
0.0
 10
1.403500
 20
290.632376
 30
0.0
 10
1.402399
 20
290.681752
 30
0.0
 10
1.402621
 20
290.725589
 30
0.0
 10
1.402564
 20
290.765473
 30
0.0
 10
1.402579
 20
290.800618
 30
0.0
 10
1.402572
 20
290.829442
 30
0.0
 10
1.402589
 20
290.854369
 30
0.0
 10
1.402459
 20
290.899330
 30
0.0
 10
1.404125
 20
290.965153
 30
0.0
 10
1.408625
 20
291.049834
 30
0.0
 10
1.412914
 20
291.305397
 30
0.0
 10
1.424674
 20
291.732610
 30
0.0
 10
1.468866
 20
292.329879
 30
0.0
 10
1.484582
 20
292.776687
 30
0.0
 10
1.485671
 20
293.070887
 30
0.0
 10
1.489064
 20
293.212960
 30
0.0
 10
1.491431
 20
293.330830
 30
0.0
 10
1.494955
 20
293.425044
 30
0.0
 10
1.498616
 20
293.494794
 30
0.0
 10
1.500020
 20
293.556407
 30
0.0
 10
1.499909
 20
293.613465
 30
0.0
 10
1.499380
 20
293.660776
 30
0.0
 10
1.500854
 20
293.701256
 30
0.0
 10
1.497606
 20
293.731463
 30
0.0
 10
1.497813
 20
293.759714
 30
0.0
 10
1.516370
 20
293.788353
 30
0.0
 10
1.550702
 20
293.802304
 30
0.0
 10
1.588616
 20
293.799051
 30
0.0
 10
1.652909
 20
293.793663
 30
0.0
 10
1.746417
 20
293.798838
 30
0.0
 10
1.866154
 20
293.800017
 30
0.0
 10
1.988909
 20
293.790705
 30
0.0
 10
2.114947
 20
293.781234
 30
0.0
 10
2.244724
 20
293.783951
 30
0.0
 10
2.340844
 20
293.782896
 30
0.0
 10
2.400253
 20
293.780739
 30
0.0
 10
2.425186
 20
293.781141
 30
0.0
 10
2.453225
 20
293.781408
 30
0.0
 10
2.486694
 20
293.781303
 30
0.0
 10
2.524084
 20
293.781338
 30
0.0
 10
2.581450
 20
293.781312
 30
0.0
 10
2.655585
 20
293.781465
 30
0.0
 10
2.750377
 20
293.780247
 30
0.0
 10
2.823005
 20
293.775772
 30
0.0
 10
2.874163
 20
293.772943
 30
0.0
 10
2.901599
 20
293.773534
 30
0.0
 10
2.939768
 20
293.774068
 30
0.0
 10
2.992463
 20
293.773766
 30
0.0
 10
3.057272
 20
293.773872
 30
0.0
 10
3.114461
 20
293.773847
 30
0.0
 10
3.162802
 20
293.773851
 30
0.0
 10
3.202685
 20
293.773850
 30
0.0
 10
3.237098
 20
293.773850
 30
0.0
 10
3.264517
 20
293.773851
 30
0.0
 10
3.286952
 20
293.773849
 30
0.0
 10
3.336198
 20
293.773860
 30
0.0
 10
3.416291
 20
293.773666
 30
0.0
 10
3.523532
 20
293.772445
 30
0.0
 10
3.606860
 20
293.768406
 30
0.0
 10
3.661532
 20
293.765369
 30
0.0
 10
3.691462
 20
293.766042
 30
0.0
 10
3.737631
 20
293.766640
 30
0.0
 10
3.802843
 20
293.766269
 30
0.0
 10
3.885100
 20
293.766396
 30
0.0
 10
3.983522
 20
293.766365
 30
0.0
 10
4.097398
 20
293.766342
 30
0.0
 10
4.227044
 20
293.766492
 30
0.0
 10
4.329416
 20
293.766042
 30
0.0
 10
4.404030
 20
293.766778
 30
0.0
 10
4.446169
 20
293.765720
 30
0.0
 10
4.476898
 20
293.765475
 30
0.0
 10
4.495243
 20
293.758187
 30
0.0
 10
4.510041
 20
293.753868
 30
0.0
 10
4.527838
 20
293.754124
 30
0.0
 10
4.545142
 20
293.758363
 30
0.0
 10
4.559892
 20
293.762860
 30
0.0
 10
4.582481
 20
293.768906
 30
0.0
 10
4.618036
 20
293.770191
 30
0.0
 10
4.667833
 20
293.771848
 30
0.0
 10
4.747310
 20
293.775515
 30
0.0
 10
4.854406
 20
293.782794
 30
0.0
 10
4.986575
 20
293.787391
 30
0.0
 10
5.096844
 20
293.788952
 30
0.0
 10
5.184618
 20
293.788799
 30
0.0
 10
5.249437
 20
293.788696
 30
0.0
 10
5.307374
 20
293.789145
 30
0.0
 10
5.355969
 20
293.787967
 30
0.0
 10
5.393282
 20
293.783839
 30
0.0
 10
5.419573
 20
293.780463
 30
0.0
 10
5.435664
 20
293.773880
 30
0.0
 10
5.447918
 20
293.769791
 30
0.0
 10
5.463002
 20
293.768258
 30
0.0
 10
5.477786
 20
293.770545
 30
0.0
 10
5.489927
 20
293.774887
 30
0.0
 10
5.507200
 20
293.780659
 30
0.0
 10
5.535065
 20
293.783286
 30
0.0
 10
5.572344
 20
293.787510
 30
0.0
 10
5.640832
 20
293.789948
 30
0.0
 10
5.741256
 20
293.788679
 30
0.0
 10
5.870885
 20
293.788985
 30
0.0
 10
6.057320
 20
293.788825
 30
0.0
 10
6.295943
 20
293.787284
 30
0.0
 10
6.590060
 20
293.782856
 30
0.0
 10
6.846634
 20
293.781114
 30
0.0
 10
7.066273
 20
293.781296
 30
0.0
 10
7.248231
 20
293.781600
 30
0.0
 10
7.383893
 20
293.780590
 30
0.0
 10
7.471130
 20
293.781860
 30
0.0
 10
7.513624
 20
293.781998
 30
0.0
 10
7.553430
 20
293.777431
 30
0.0
 10
7.590226
 20
293.773233
 30
0.0
 10
7.622722
 20
293.773417
 30
0.0
 10
7.688865
 20
293.774405
 30
0.0
 10
7.793486
 20
293.773604
 30
0.0
 10
7.933070
 20
293.773906
 30
0.0
 10
8.037397
 20
293.773838
 30
0.0
 10
8.101675
 20
293.773841
 30
0.0
 10
8.129096
 20
293.773841
 30
0.0
 10
8.160552
 20
293.773842
 30
0.0
 10
8.199774
 20
293.773833
 30
0.0
 10
8.244643
 20
293.773873
 30
0.0
 10
8.308859
 20
293.773673
 30
0.0
 10
8.393029
 20
293.775455
 30
0.0
 10
8.495264
 20
293.778820
 30
0.0
 10
8.582935
 20
293.771087
 30
0.0
 10
8.647768
 20
293.767855
 30
0.0
 10
8.699904
 20
293.746874
 30
0.0
 10
8.711578
 20
293.694231
 30
0.0
 10
8.719557
 20
293.646893
 30
0.0
 10
8.723379
 20
293.599080
 30
0.0
 10
8.723706
 20
293.560717
 30
0.0
 10
8.723773
 20
293.530201
 30
0.0
 10
8.723734
 20
293.510260
 30
0.0
 10
8.723757
 20
293.489309
 30
0.0
 10
8.723602
 20
293.468089
 30
0.0
 10
8.723431
 20
293.445654
 30
0.0
 10
8.723598
 20
293.422997
 30
0.0
 10
8.725024
 20
293.400206
 30
0.0
 10
8.728462
 20
293.377905
 30
0.0
 10
8.733597
 20
293.323757
 30
0.0
 10
8.736310
 20
293.235507
 30
0.0
 10
8.739022
 20
293.115845
 30
0.0
 10
8.737689
 20
293.018232
 30
0.0
 10
8.740177
 20
292.943961
 30
0.0
 10
8.744601
 20
292.891733
 30
0.0
 10
8.746606
 20
292.844777
 30
0.0
 10
8.745691
 20
292.804686
 30
0.0
 10
8.744967
 20
292.769775
 30
0.0
 10
8.746733
 20
292.731891
 30
0.0
 10
8.750092
 20
292.691909
 30
0.0
 10
8.753150
 20
292.649558
 30
0.0
 10
8.753795
 20
292.604830
 30
0.0
 10
8.753614
 20
292.554499
 30
0.0
 10
8.753547
 20
292.502154
 30
0.0
 10
8.753922
 20
292.457321
 30
0.0
 10
8.753067
 20
292.421669
 30
0.0
 10
8.752105
 20
292.391718
 30
0.0
 10
8.753509
 20
292.361487
 30
0.0
 10
8.757205
 20
292.334393
 30
0.0
 10
8.767414
 20
292.317112
 30
0.0
 10
8.779822
 20
292.306047
 30
0.0
 10
8.790791
 20
292.292688
 30
0.0
 10
8.805910
 20
292.278964
 30
0.0
 10
8.816077
 20
292.265926
 30
0.0
 10
8.825984
 20
292.254848
 30
0.0
 10
8.833057
 20
292.239832
 30
0.0
 10
8.836172
 20
292.216051
 30
0.0
 10
8.836701
 20
292.184152
 30
0.0
 10
8.836267
 20
292.149234
 30
0.0
 10
8.836014
 20
292.124996
 30
0.0
 10
8.835897
 20
292.113706
 30
0.0
 11
1.327803
 21
290.453583
 31
0.0
 11
1.347022
 21
290.466075
 31
0.0
 11
1.371735
 21
290.486722
 31
0.0
 11
1.398076
 21
290.535842
 31
0.0
 11
1.403149
 21
290.576738
 31
0.0
 11
1.403362
 21
290.634996
 31
0.0
 11
1.402576
 21
290.685404
 31
0.0
 11
1.402576
 21
290.724861
 31
0.0
 11
1.402576
 21
290.766503
 31
0.0
 11
1.402576
 21
290.805053
 31
0.0
 11
1.402576
 21
290.830297
 31
0.0
 11
1.402576
 21
290.852975
 31
0.0
 11
1.402576
 21
290.879835
 31
0.0
 11
1.404520
 21
290.965155
 31
0.0
 11
1.408131
 21
291.050361
 31
0.0
 11
1.410076
 21
291.134091
 31
0.0
 11
1.429250
 21
291.731484
 31
0.0
 11
1.465042
 21
292.330763
 31
0.0
 11
1.484860
 21
292.928835
 31
0.0
 11
1.486148
 21
293.070803
 31
0.0
 11
1.488974
 21
293.212980
 31
0.0
 11
1.492470
 21
293.355086
 31
0.0
 11
1.495101
 21
293.424355
 31
0.0
 11
1.498301
 21
293.495647
 31
0.0
 11
1.499860
 21
293.564473
 31
0.0
 11
1.499858
 21
293.609131
 31
0.0
 11
1.499856
 21
293.666763
 31
0.0
 11
1.499860
 21
293.706557
 31
0.0
 11
1.498172
 21
293.730136
 31
0.0
 11
1.500331
 21
293.758057
 31
0.0
 11
1.517195
 21
293.784304
 31
0.0
 11
1.550851
 21
293.799324
 31
0.0
 11
1.587699
 21
293.799141
 31
0.0
 11
1.626989
 21
293.796294
 31
0.0
 11
1.744597
 21
293.797865
 31
0.0
 11
1.867555
 21
293.798247
 31
0.0
 11
1.985938
 21
293.790944
 31
0.0
 11
2.113258
 21
293.783363
 31
0.0
 11
2.246058
 21
293.783262
 31
0.0
 11
2.374799
 21
293.781624
 31
0.0
 11
2.401632
 21
293.780943
 31
0.0
 11
2.424342
 21
293.781104
 31
0.0
 11
2.449583
 21
293.781330
 31
0.0
 11
2.485753
 21
293.781330
 31
0.0
 11
2.524744
 21
293.781330
 31
0.0
 11
2.561754
 21
293.781330
 31
0.0
 11
2.657849
 21
293.781222
 31
0.0
 11
2.747151
 21
293.779601
 31
0.0
 11
2.845922
 21
293.774520
 31
0.0
 11
2.875983
 21
293.773266
 31
0.0
 11
2.900624
 21
293.773484
 31
0.0
 11
2.928184
 21
293.773850
 31
0.0
 11
2.990507
 21
293.773850
 31
0.0
 11
3.058694
 21
293.773850
 31
0.0
 11
3.122615
 21
293.773850
 31
0.0
 11
3.162075
 21
293.773850
 31
0.0
 11
3.203716
 21
293.773850
 31
0.0
 11
3.242265
 21
293.773850
 31
0.0
 11
3.265312
 21
293.773850
 31
0.0
 11
3.285973
 21
293.773850
 31
0.0
 11
3.309570
 21
293.773850
 31
0.0
 11
3.413051
 21
293.773526
 31
0.0
 11
3.526248
 21
293.771689
 31
0.0
 11
3.631128
 21
293.767040
 31
0.0
 11
3.663205
 21
293.765729
 31
0.0
 11
3.690305
 21
293.765976
 31
0.0
 11
3.720868
 21
293.766371
 31
0.0
 11
3.801735
 21
293.766371
 31
0.0
 11
3.885922
 21
293.766371
 31
0.0
 11
3.967645
 21
293.766371
 31
0.0
 11
4.096996
 21
293.766371
 31
0.0
 11
4.227570
 21
293.766371
 31
0.0
 11
4.356506
 21
293.766371
 31
0.0
 11
4.404340
 21
293.766501
 31
0.0
 11
4.451032
 21
293.765758
 31
0.0
 11
4.483634
 21
293.762441
 31
0.0
 11
4.493886
 21
293.758878
 31
0.0
 11
4.508748
 21
293.754944
 31
0.0
 11
4.528504
 21
293.754921
 31
0.0
 11
4.545439
 21
293.758607
 31
0.0
 11
4.561060
 21
293.763107
 31
0.0
 11
4.573374
 21
293.766235
 31
0.0
 11
4.614253
 21
293.770037
 31
0.0
 11
4.666361
 21
293.771906
 31
0.0
 11
4.722936
 21
293.774515
 31
0.0
 11
4.852474
 21
293.781961
 31
0.0
 11
4.988077
 21
293.786969
 31
0.0
 11
5.119275
 21
293.788802
 31
0.0
 11
5.183193
 21
293.788803
 31
0.0
 11
5.251390
 21
293.788804
 31
0.0
 11
5.313706
 21
293.788802
 31
0.0
 11
5.357060
 21
293.787296
 31
0.0
 11
5.396741
 21
293.783320
 31
0.0
 11
5.425877
 21
293.777683
 31
0.0
 11
5.434398
 21
293.774486
 31
0.0
 11
5.447089
 21
293.770533
 31
0.0
 11
5.463269
 21
293.768943
 31
0.0
 11
5.478492
 21
293.771190
 31
0.0
 11
5.490675
 21
293.775102
 31
0.0
 11
5.500661
 21
293.778263
 31
0.0
 11
5.531560
 21
293.783040
 31
0.0
 11
5.572965
 21
293.787030
 31
0.0
 11
5.612832
 21
293.788795
 31
0.0
 11
5.736686
 21
293.789030
 31
0.0
 11
5.874271
 21
293.788916
 31
0.0
 11
6.001694
 21
293.788801
 31
0.0
 11
6.295993
 21
293.786862
 31
0.0
 11
6.590109
 21
293.783260
 31
0.0
 11
6.884109
 21
293.781321
 31
0.0
 11
7.065694
 21
293.781321
 31
0.0
 11
7.249010
 21
293.781321
 31
0.0
 11
7.430012
 21
293.781321
 31
0.0
 11
7.472600
 21
293.781797
 31
0.0
 11
7.510811
 21
293.781315
 31
0.0
 11
7.557139
 21
293.777011
 31
0.0
 11
7.592333
 21
293.773767
 31
0.0
 11
7.621448
 21
293.773452
 31
0.0
 11
7.654358
 21
293.773841
 31
0.0
 11
7.790837
 21
293.773841
 31
0.0
 11
7.935246
 21
293.773841
 31
0.0
 11
8.073131
 21
293.773841
 31
0.0
 11
8.103815
 21
293.773841
 31
0.0
 11
8.128080
 21
293.773841
 31
0.0
 11
8.155393
 21
293.773841
 31
0.0
 11
8.198182
 21
293.773841
 31
0.0
 11
8.245748
 21
293.773841
 31
0.0
 11
8.289998
 21
293.773841
 31
0.0
 11
8.390811
 21
293.775599
 31
0.0
 11
8.498282
 21
293.776653
 31
0.0
 11
8.596600
 21
293.770671
 31
0.0
 11
8.652918
 21
293.763740
 31
0.0
 11
8.690092
 21
293.745108
 31
0.0
 11
8.711621
 21
293.691586
 31
0.0
 11
8.719096
 21
293.645331
 31
0.0
 11
8.722653
 21
293.602427
 31
0.0
 11
8.723720
 21
293.549502
 31
0.0
 11
8.723760
 21
293.530193
 31
0.0
 11
8.723744
 21
293.510910
 31
0.0
 11
8.723727
 21
293.489677
 31
0.0
 11
8.723595
 21
293.467340
 31
0.0
 11
8.723488
 21
293.447250
 31
0.0
 11
8.723840
 21
293.422374
 31
0.0
 11
8.725439
 21
293.399428
 31
0.0
 11
8.728098
 21
293.379062
 31
0.0
 11
8.730540
 21
293.355071
 31
0.0
 11
8.736115
 21
293.236738
 31
0.0
 11
8.738299
 21
293.114628
 31
0.0
 11
8.738680
 21
292.996122
 31
0.0
 11
8.740620
 21
292.943998
 31
0.0
 11
8.744221
 21
292.891939
 31
0.0
 11
8.746160
 21
292.839082
 31
0.0
 11
8.745672
 21
292.803282
 31
0.0
 11
8.745331
 21
292.771690
 31
0.0
 11
8.746827
 21
292.734388
 31
0.0
 11
8.750180
 21
292.689742
 31
0.0
 11
8.752665
 21
292.651543
 31
0.0
 11
8.753637
 21
292.607260
 31
0.0
 11
8.753637
 21
292.555685
 31
0.0
 11
8.753637
 21
292.500550
 31
0.0
 11
8.753637
 21
292.450221
 31
0.0
 11
8.753016
 21
292.421218
 31
0.0
 11
8.752492
 21
292.393548
 31
0.0
 11
8.754078
 21
292.360483
 31
0.0
 11
8.760261
 21
292.330848
 31
0.0
 11
8.769277
 21
292.316061
 31
0.0
 11
8.777178
 21
292.308137
 31
0.0
 11
8.791579
 21
292.292580
 31
0.0
 11
8.805223
 21
292.278866
 31
0.0
 11
8.818547
 21
292.263268
 31
0.0
 11
8.824657
 21
292.255763
 31
0.0
 11
8.830983
 21
292.242986
 31
0.0
 11
8.835447
 21
292.218399
 31
0.0
 11
8.836524
 21
292.186424
 31
0.0
 11
8.836260
 21
292.147581
 31
0.0
 11
8.835897
 21
292.113706
 31
0.0
  0
LINE
  5
104
100
AcDbEntity
  8
Layer_1
 62
1
100
AcDbLine
 10
5.650188
 20
286.377836
 30
0.0
 11
5.298728
 21
286.377836
 31
0.0
  0
LINE
  5
105
100
AcDbEntity
  8
Layer_1
 62
1
100
AcDbLine
 10
5.298728
 20
286.377836
 30
0.0
 11
4.438747
 21
286.377836
 31
0.0
  0
SPLINE
  5
106
100
AcDbEntity
  8
Layer_1
 62
1
100
AcDbSpline
 70
0
 71
3
 72
118
 73
114
 74
112
 40
0.000000
 40
0.000000
 40
0.000000
 40
0.000000
 40
0.031448
 40
0.069137
 40
0.097260
 40
0.142872
 40
0.168953
 40
0.190773
 40
0.201299
 40
0.216530
 40
0.242018
 40
0.282932
 40
0.333601
 40
0.376957
 40
0.489127
 40
0.601302
 40
0.713472
 40
1.119921
 40
1.526403
 40
1.932427
 40
2.496501
 40
3.059784
 40
3.623197
 40
3.663517
 40
3.700787
 40
3.735647
 40
3.753488
 40
3.769436
 40
3.787998
 40
3.810725
 40
3.831372
 40
3.855660
 40
3.920296
 40
3.986637
 40
4.050466
 40
4.084873
 40
4.121147
 40
4.156310
 40
4.188136
 40
4.218591
 40
4.254930
 40
4.294475
 40
4.344512
 40
4.382058
 40
4.411985
 40
4.443710
 40
4.479308
 40
4.509370
 40
4.535181
 40
4.562100
 40
4.600052
 40
4.637823
 40
4.674310
 40
4.699380
 40
4.721817
 40
4.749393
 40
4.802592
 40
4.853744
 40
4.899046
 40
4.913336
 40
4.928508
 40
4.944808
 40
4.968849
 40
4.990716
 40
5.014428
 40
5.046389
 40
5.085206
 40
5.119159
 40
5.205605
 40
5.295686
 40
5.380893
 40
5.423477
 40
5.459256
 40
5.508078
 40
5.545761
 40
5.586609
 40
5.628257
 40
5.726616
 40
5.840266
 40
5.942432
 40
5.979410
 40
6.019179
 40
6.054603
 40
6.090967
 40
6.126761
 40
6.152084
 40
6.160836
 40
6.172926
 40
6.190229
 40
6.205195
 40
6.218840
 40
6.228808
 40
6.260805
 40
6.299889
 40
6.341541
 40
6.438252
 40
6.547115
 40
6.648264
 40
6.688267
 40
6.724104
 40
6.767949
 40
6.818445
 40
6.878891
 40
6.917596
 40
6.964743
 40
6.991829
 40
7.013028
 40
7.022736
 40
7.036977
 40
7.061966
 40
7.102890
 40
7.153165
 40
7.196596
 40
7.196596
 40
7.196596
 40
7.196596
 10
8.835897
 20
290.655476
 30
0.0
 10
8.836008
 20
290.645000
 30
0.0
 10
8.836252
 20
290.621968
 30
0.0
 10
8.836643
 20
290.589451
 30
0.0
 10
8.835258
 20
290.552654
 30
0.0
 10
8.827422
 20
290.518124
 30
0.0
 10
8.803404
 20
290.497057
 30
0.0
 10
8.787129
 20
290.486379
 30
0.0
 10
8.776006
 20
290.474987
 30
0.0
 10
8.766348
 20
290.460607
 30
0.0
 10
8.760753
 20
290.433467
 30
0.0
 10
8.757583
 20
290.394735
 30
0.0
 10
8.754714
 20
290.349780
 30
0.0
 10
8.752891
 20
290.281081
 30
0.0
 10
8.753543
 20
290.191829
 30
0.0
 10
8.753454
 20
290.079664
 30
0.0
 10
8.753906
 20
289.869397
 30
0.0
 10
8.752025
 20
289.561033
 30
0.0
 10
8.747533
 20
289.154736
 30
0.0
 10
8.746225
 20
288.695883
 30
0.0
 10
8.742721
 20
288.184726
 30
0.0
 10
8.724204
 20
287.621433
 30
0.0
 10
8.712608
 20
287.232548
 30
0.0
 10
8.699120
 20
287.019278
 30
0.0
 10
8.695405
 20
286.981979
 30
0.0
 10
8.693674
 20
286.952014
 30
0.0
 10
8.693796
 20
286.929127
 30
0.0
 10
8.693951
 20
286.911678
 30
0.0
 10
8.693854
 20
286.892597
 30
0.0
 10
8.692478
 20
286.871970
 30
0.0
 10
8.689092
 20
286.849663
 30
0.0
 10
8.685532
 20
286.813296
 30
0.0
 10
8.683929
 20
286.761543
 30
0.0
 10
8.682269
 20
286.696608
 30
0.0
 10
8.676428
 20
286.642008
 30
0.0
 10
8.672579
 20
286.597383
 30
0.0
 10
8.668702
 20
286.562167
 30
0.0
 10
8.653859
 20
286.529957
 30
0.0
 10
8.626732
 20
286.509320
 30
0.0
 10
8.593476
 20
286.504759
 30
0.0
 10
8.558159
 20
286.505317
 30
0.0
 10
8.516144
 20
286.504849
 30
0.0
 10
8.473782
 20
286.505146
 30
0.0
 10
8.434607
 20
286.504912
 30
0.0
 10
8.401547
 20
286.505754
 30
0.0
 10
8.369165
 20
286.507246
 30
0.0
 10
8.336693
 20
286.507702
 30
0.0
 10
8.306209
 20
286.505703
 30
0.0
 10
8.278997
 20
286.501047
 30
0.0
 10
8.248965
 20
286.497330
 30
0.0
 10
8.214690
 20
286.497108
 30
0.0
 10
8.177321
 20
286.498006
 30
0.0
 10
8.144161
 20
286.497152
 30
0.0
 10
8.116384
 20
286.493563
 30
0.0
 10
8.091507
 20
286.490683
 30
0.0
 10
8.057086
 20
286.489901
 30
0.0
 10
8.013109
 20
286.489194
 30
0.0
 10
7.963305
 20
286.488541
 30
0.0
 10
7.926176
 20
286.489160
 30
0.0
 10
7.901746
 20
286.494316
 30
0.0
 10
7.887089
 20
286.498534
 30
0.0
 10
7.868662
 20
286.501270
 30
0.0
 10
7.847724
 20
286.497987
 30
0.0
 10
7.826571
 20
286.488370
 30
0.0
 10
7.801302
 20
286.481897
 30
0.0
 10
7.769635
 20
286.482059
 30
0.0
 10
7.734782
 20
286.482148
 30
0.0
 10
7.681696
 20
286.482978
 30
0.0
 10
7.611544
 20
286.482463
 30
0.0
 10
7.524296
 20
286.482807
 30
0.0
 10
7.451675
 20
286.482234
 30
0.0
 10
7.397147
 20
286.483270
 30
0.0
 10
7.354831
 20
286.485764
 30
0.0
 10
7.314027
 20
286.486822
 30
0.0
 10
7.271658
 20
286.483360
 30
0.0
 10
7.232057
 20
286.477128
 30
0.0
 10
7.171792
 20
286.473861
 30
0.0
 10
7.087239
 20
286.473899
 30
0.0
 10
6.982587
 20
286.469532
 30
0.0
 10
6.898337
 20
286.467542
 30
0.0
 10
6.838700
 20
286.467522
 30
0.0
 10
6.801305
 20
286.467582
 30
0.0
 10
6.764134
 20
286.467554
 30
0.0
 10
6.728221
 20
286.467828
 30
0.0
 10
6.695924
 20
286.469747
 30
0.0
 10
6.672350
 20
286.471042
 30
0.0
 10
6.657897
 20
286.476446
 30
0.0
 10
6.645493
 20
286.479524
 30
0.0
 10
6.630525
 20
286.479370
 30
0.0
 10
6.615469
 20
286.476445
 30
0.0
 10
6.603157
 20
286.472717
 30
0.0
 10
6.585454
 20
286.467167
 30
0.0
 10
6.558495
 20
286.463788
 30
0.0
 10
6.521079
 20
286.460720
 30
0.0
 10
6.461891
 20
286.459867
 30
0.0
 10
6.379509
 20
286.460079
 30
0.0
 10
6.277245
 20
286.458605
 30
0.0
 10
6.194025
 20
286.454381
 30
0.0
 10
6.135081
 20
286.451281
 30
0.0
 10
6.095180
 20
286.452270
 30
0.0
 10
6.051792
 20
286.452660
 30
0.0
 10
6.000205
 20
286.453082
 30
0.0
 10
5.950286
 20
286.452926
 30
0.0
 10
5.901622
 20
286.452238
 30
0.0
 10
5.864161
 20
286.438485
 30
0.0
 10
5.843714
 20
286.413566
 30
0.0
 10
5.832866
 20
286.397439
 30
0.0
 10
5.821151
 20
286.387808
 30
0.0
 10
5.806277
 20
286.380598
 30
0.0
 10
5.779434
 20
286.377271
 30
0.0
 10
5.740800
 20
286.376772
 30
0.0
 10
5.695891
 20
286.377340
 30
0.0
 10
5.664662
 20
286.377679
 30
0.0
 10
5.650188
 20
286.377836
 30
0.0
 11
8.835897
 21
290.655476
 31
0.0
 11
8.836237
 21
290.624030
 31
0.0
 11
8.836326
 21
290.586341
 31
0.0
 11
8.834767
 21
290.558261
 31
0.0
 11
8.820713
 21
290.514869
 31
0.0
 11
8.802001
 21
290.496701
 31
0.0
 11
8.784642
 21
290.483480
 31
0.0
 11
8.777301
 21
290.475937
 31
0.0
 11
8.768964
 21
290.463189
 31
0.0
 11
8.762216
 21
290.438611
 31
0.0
 11
8.757953
 21
290.397920
 31
0.0
 11
8.754898
 21
290.347343
 31
0.0
 11
8.753636
 21
290.304006
 31
0.0
 11
8.753391
 21
290.191836
 31
0.0
 11
8.753509
 21
290.079661
 31
0.0
 11
8.753628
 21
289.967491
 31
0.0
 11
8.751689
 21
289.561047
 31
0.0
 11
8.748088
 21
289.154581
 31
0.0
 11
8.746148
 21
288.748561
 31
0.0
 11
8.740273
 21
288.184518
 31
0.0
 11
8.724492
 21
287.621455
 31
0.0
 11
8.701571
 21
287.058510
 31
0.0
 11
8.698805
 21
287.018285
 31
0.0
 11
8.695591
 21
286.981153
 31
0.0
 11
8.693831
 21
286.946338
 31
0.0
 11
8.693811
 21
286.928497
 31
0.0
 11
8.693909
 21
286.912549
 31
0.0
 11
8.693690
 21
286.893988
 31
0.0
 11
8.692101
 21
286.871317
 31
0.0
 11
8.689441
 21
286.850842
 31
0.0
 11
8.686990
 21
286.826678
 31
0.0
 11
8.684004
 21
286.762111
 31
0.0
 11
8.681336
 21
286.695824
 31
0.0
 11
8.675669
 21
286.632247
 31
0.0
 11
8.672498
 21
286.597986
 31
0.0
 11
8.666688
 21
286.562180
 31
0.0
 11
8.650894
 21
286.530764
 31
0.0
 11
8.625394
 21
286.511722
 31
0.0
 11
8.595530
 21
286.505746
 31
0.0
 11
8.559197
 21
286.505144
 31
0.0
 11
8.519652
 21
286.504994
 31
0.0
 11
8.469615
 21
286.505052
 31
0.0
 11
8.432069
 21
286.505116
 31
0.0
 11
8.402150
 21
286.505838
 31
0.0
 11
8.370448
 21
286.507027
 31
0.0
 11
8.334850
 21
286.507216
 31
0.0
 11
8.304866
 21
286.505054
 31
0.0
 11
8.279330
 21
286.501302
 31
0.0
 11
8.252588
 21
286.498216
 31
0.0
 11
8.214647
 21
286.497301
 31
0.0
 11
8.176878
 21
286.497697
 31
0.0
 11
8.140417
 21
286.496316
 31
0.0
 11
8.115505
 21
286.493509
 31
0.0
 11
8.093188
 21
286.491190
 31
0.0
 11
8.065633
 21
286.490116
 31
0.0
 11
8.012442
 21
286.489210
 31
0.0
 11
7.961291
 21
286.488785
 31
0.0
 11
7.916071
 21
286.491516
 31
0.0
 11
7.902079
 21
286.494416
 31
0.0
 11
7.887365
 21
286.498116
 31
0.0
 11
7.871201
 21
286.500216
 31
0.0
 11
7.847405
 21
286.496798
 31
0.0
 11
7.826901
 21
286.489198
 31
0.0
 11
7.803896
 21
286.483446
 31
0.0
 11
7.771967
 21
286.482035
 31
0.0
 11
7.733150
 21
286.482242
 31
0.0
 11
7.699199
 21
286.482631
 31
0.0
 11
7.612754
 21
286.482631
 31
0.0
 11
7.522673
 21
286.482631
 31
0.0
 11
7.437465
 21
286.482631
 31
0.0
 11
7.394894
 21
286.483620
 31
0.0
 11
7.359156
 21
286.485342
 31
0.0
 11
7.310337
 21
286.485931
 31
0.0
 11
7.272768
 21
286.483000
 31
0.0
 11
7.232246
 21
286.477853
 31
0.0
 11
7.190688
 21
286.475111
 31
0.0
 11
7.092347
 21
286.473255
 31
0.0
 11
6.978751
 21
286.469733
 31
0.0
 11
6.876607
 21
286.467611
 31
0.0
 11
6.839630
 21
286.467534
 31
0.0
 11
6.799860
 21
286.467568
 31
0.0
 11
6.764436
 21
286.467603
 31
0.0
 11
6.728076
 21
286.468144
 31
0.0
 11
6.692327
 21
286.469929
 31
0.0
 11
6.667217
 21
286.473203
 31
0.0
 11
6.658897
 21
286.475922
 31
0.0
 11
6.647128
 21
286.478684
 31
0.0
 11
6.629825
 21
286.478803
 31
0.0
 11
6.615105
 21
286.476103
 31
0.0
 11
6.601989
 21
286.472336
 31
0.0
 11
6.592433
 21
286.469503
 31
0.0
 11
6.560862
 21
286.464292
 31
0.0
 11
6.521900
 21
286.461214
 31
0.0
 11
6.480261
 21
286.460203
 31
0.0
 11
6.383550
 21
286.459811
 31
0.0
 11
6.274704
 21
286.457886
 31
0.0
 11
6.173660
 21
286.453303
 31
0.0
 11
6.133686
 21
286.451752
 31
0.0
 11
6.097852
 21
286.452119
 31
0.0
 11
6.054009
 21
286.452635
 31
0.0
 11
6.003514
 21
286.452968
 31
0.0
 11
5.943069
 21
286.452768
 31
0.0
 11
5.904447
 21
286.450235
 31
0.0
 11
5.861024
 21
286.431869
 31
0.0
 11
5.842866
 21
286.411771
 31
0.0
 11
5.829663
 21
286.395185
 31
0.0
 11
5.822152
 21
286.389035
 31
0.0
 11
5.809383
 21
286.382729
 31
0.0
 11
5.784793
 21
286.378285
 31
0.0
 11
5.743890
 21
286.376969
 31
0.0
 11
5.693616
 21
286.377352
 31
0.0
 11
5.650188
 21
286.377836
 31
0.0
  0
SPLINE
  5
107
100
AcDbEntity
  8
Layer_1
 62
1
100
AcDbSpline
 70
0
 71
3
 72
100
 73
96
 74
94
 40
0.000000
 40
0.000000
 40
0.000000
 40
0.000000
 40
0.141654
 40
0.285256
 40
0.426259
 40
0.466946
 40
0.487474
 40
0.500040
 40
0.525812
 40
0.556478
 40
0.603764
 40
0.622970
 40
0.643214
 40
0.663843
 40
0.680872
 40
0.699344
 40
0.718327
 40
0.735911
 40
0.748969
 40
0.757855
 40
0.785788
 40
0.827910
 40
0.870417
 40
0.999493
 40
1.138395
 40
1.251942
 40
1.286481
 40
1.314823
 40
1.348618
 40
1.368783
 40
1.382355
 40
1.389744
 40
1.414443
 40
1.452718
 40
1.506952
 40
1.560128
 40
1.592533
 40
1.612613
 40
1.618656
 40
1.628163
 40
1.642867
 40
1.656659
 40
1.666758
 40
1.672996
 40
1.692863
 40
1.722725
 40
1.753126
 40
1.788235
 40
1.821177
 40
1.858070
 40
1.922909
 40
2.011841
 40
2.096546
 40
2.118145
 40
2.139573
 40
2.163851
 40
2.221883
 40
2.282897
 40
2.329139
 40
2.345382
 40
2.367541
 40
2.390450
 40
2.411638
 40
2.432038
 40
2.451432
 40
2.497028
 40
2.539057
 40
2.586083
 40
2.613391
 40
2.637659
 40
2.668345
 40
2.758558
 40
2.857123
 40
2.945040
 40
2.968076
 40
2.988831
 40
3.012708
 40
3.042304
 40
3.067908
 40
3.094997
 40
3.110404
 40
3.124489
 40
3.139867
 40
3.170546
 40
3.200639
 40
3.229930
 40
3.258847
 40
3.293509
 40
3.328258
 40
3.371185
 40
3.417211
 40
3.448293
 40
3.492694
 40
3.523698
 40
3.551384
 40
3.551384
 40
3.551384
 40
3.551384
 10
4.438747
 20
286.377836
 30
0.0
 10
4.391545
 20
286.377656
 30
0.0
 10
4.296491
 20
286.377293
 30
0.0
 10
4.154176
 20
286.376526
 30
0.0
 10
4.046404
 20
286.376656
 30
0.0
 10
3.978164
 20
286.378843
 30
0.0
 10
3.955325
 20
286.389914
 30
0.0
 10
3.942138
 20
286.404651
 30
0.0
 10
3.928260
 20
286.422781
 30
0.0
 10
3.905340
 20
286.449692
 30
0.0
 10
3.872155
 20
286.458706
 30
0.0
 10
3.843469
 20
286.460781
 30
0.0
 10
3.823437
 20
286.461041
 30
0.0
 10
3.804085
 20
286.462960
 30
0.0
 10
3.786417
 20
286.469374
 30
0.0
 10
3.769545
 20
286.476069
 30
0.0
 10
3.751263
 20
286.479405
 30
0.0
 10
3.734554
 20
286.477106
 30
0.0
 10
3.722452
 20
286.471782
 30
0.0
 10
3.707933
 20
286.463426
 30
0.0
 10
3.680678
 20
286.462672
 30
0.0
 10
3.643689
 20
286.460024
 30
0.0
 10
3.572224
 20
286.460028
 30
0.0
 10
3.468895
 20
286.457972
 30
0.0
 10
3.341711
 20
286.454859
 30
0.0
 10
3.245968
 20
286.458470
 30
0.0
 10
3.187510
 20
286.464523
 30
0.0
 10
3.156160
 20
286.474603
 30
0.0
 10
3.136152
 20
286.494502
 30
0.0
 10
3.123063
 20
286.512899
 30
0.0
 10
3.117838
 20
286.525665
 30
0.0
 10
3.113543
 20
286.540279
 30
0.0
 10
3.110164
 20
286.563496
 30
0.0
 10
3.097876
 20
286.601325
 30
0.0
 10
3.063978
 20
286.637897
 30
0.0
 10
3.024359
 20
286.663556
 30
0.0
 10
2.989861
 20
286.672721
 30
0.0
 10
2.969839
 20
286.671619
 30
0.0
 10
2.958817
 20
286.676256
 30
0.0
 10
2.949053
 20
286.678863
 30
0.0
 10
2.936428
 20
286.680345
 30
0.0
 10
2.923322
 20
286.678662
 30
0.0
 10
2.914673
 20
286.673038
 30
0.0
 10
2.907068
 20
286.663374
 30
0.0
 10
2.906405
 20
286.643623
 30
0.0
 10
2.905577
 20
286.617490
 30
0.0
 10
2.904903
 20
286.585412
 30
0.0
 10
2.909721
 20
286.553125
 30
0.0
 10
2.915122
 20
286.517759
 30
0.0
 10
2.891168
 20
286.474552
 30
0.0
 10
2.823041
 20
286.461966
 30
0.0
 10
2.745415
 20
286.463732
 30
0.0
 10
2.679963
 20
286.467680
 30
0.0
 10
2.637409
 20
286.467426
 30
0.0
 10
2.614970
 20
286.467487
 30
0.0
 10
2.580395
 20
286.467296
 30
0.0
 10
2.532589
 20
286.469005
 30
0.0
 10
2.477829
 20
286.474155
 30
0.0
 10
2.436629
 20
286.478332
 30
0.0
 10
2.409640
 20
286.486712
 30
0.0
 10
2.389946
 20
286.492081
 30
0.0
 10
2.367870
 20
286.495317
 30
0.0
 10
2.346390
 20
286.492050
 30
0.0
 10
2.326972
 20
286.486069
 30
0.0
 10
2.298888
 20
286.480901
 30
0.0
 10
2.263062
 20
286.480902
 30
0.0
 10
2.218232
 20
286.481675
 30
0.0
 10
2.179438
 20
286.482524
 30
0.0
 10
2.146572
 20
286.482392
 30
0.0
 10
2.119151
 20
286.482413
 30
0.0
 10
2.070762
 20
286.482443
 30
0.0
 10
1.997607
 20
286.481930
 30
0.0
 10
1.905383
 20
286.481846
 30
0.0
 10
1.835525
 20
286.481162
 30
0.0
 10
1.791653
 20
286.483706
 30
0.0
 10
1.769342
 20
286.487106
 30
0.0
 10
1.744734
 20
286.489785
 30
0.0
 10
1.718366
 20
286.490743
 30
0.0
 10
1.690939
 20
286.490323
 30
0.0
 10
1.668242
 20
286.489958
 30
0.0
 10
1.649381
 20
286.489961
 30
0.0
 10
1.634425
 20
286.489917
 30
0.0
 10
1.614375
 20
286.489897
 30
0.0
 10
1.589016
 20
286.491591
 30
0.0
 10
1.559232
 20
286.495316
 30
0.0
 10
1.529894
 20
286.497995
 30
0.0
 10
1.498836
 20
286.497105
 30
0.0
 10
1.466430
 20
286.499613
 30
0.0
 10
1.428370
 20
286.509748
 30
0.0
 10
1.406287
 20
286.549299
 30
0.0
 10
1.403820
 20
286.588722
 30
0.0
 10
1.400494
 20
286.630318
 30
0.0
 10
1.374664
 20
286.657567
 30
0.0
 10
1.349656
 20
286.680555
 30
0.0
 10
1.334827
 20
286.693381
 30
0.0
 10
1.327831
 20
286.699432
 30
0.0
 11
4.438747
 21
286.377836
 31
0.0
 11
4.297095
 21
286.377258
 31
0.0
 11
4.153494
 21
286.376680
 31
0.0
 11
4.012495
 21
286.377836
 31
0.0
 11
3.972115
 21
286.382826
 31
0.0
 11
3.953949
 21
286.392386
 31
0.0
 11
3.945190
 21
286.401396
 31
0.0
 11
3.929011
 21
286.421456
 31
0.0
 11
3.907557
 21
286.443369
 31
0.0
 11
3.862928
 21
286.458996
 31
0.0
 11
3.843787
 21
286.460573
 31
0.0
 11
3.823558
 21
286.461328
 31
0.0
 11
3.803101
 21
286.463996
 31
0.0
 11
3.786913
 21
286.469280
 31
0.0
 11
3.769499
 21
286.475439
 31
0.0
 11
3.750754
 21
286.478436
 31
0.0
 11
3.733338
 21
286.476005
 31
0.0
 11
3.721291
 21
286.470965
 31
0.0
 11
3.713361
 21
286.466956
 31
0.0
 11
3.685763
 21
286.462652
 31
0.0
 11
3.643693
 21
286.460526
 31
0.0
 11
3.601190
 21
286.459956
 31
0.0
 11
3.472130
 21
286.457941
 31
0.0
 11
3.333239
 21
286.456237
 31
0.0
 11
3.219808
 21
286.461356
 31
0.0
 11
3.185590
 21
286.466063
 31
0.0
 11
3.158978
 21
286.475812
 31
0.0
 11
3.133882
 21
286.498446
 31
0.0
 11
3.122590
 21
286.515153
 31
0.0
 11
3.117342
 21
286.527669
 31
0.0
 11
3.115250
 21
286.534756
 31
0.0
 11
3.110266
 21
286.558946
 31
0.0
 11
3.097525
 21
286.595038
 31
0.0
 11
3.062344
 21
286.636314
 31
0.0
 11
3.017048
 21
286.664170
 31
0.0
 11
2.985525
 21
286.671678
 31
0.0
 11
2.965543
 21
286.673654
 31
0.0
 11
2.959857
 21
286.675702
 31
0.0
 11
2.950695
 21
286.678239
 31
0.0
 11
2.936069
 21
286.679754
 31
0.0
 11
2.922486
 21
286.677362
 31
0.0
 11
2.914046
 21
286.671816
 31
0.0
 11
2.910227
 21
286.666884
 31
0.0
 11
2.906536
 21
286.647363
 31
0.0
 11
2.905631
 21
286.617515
 31
0.0
 11
2.905727
 21
286.587114
 31
0.0
 11
2.909873
 21
286.552250
 31
0.0
 11
2.911355
 21
286.519342
 31
0.0
 11
2.893738
 21
286.486927
 31
0.0
 11
2.832519
 21
286.465564
 31
0.0
 11
2.743596
 21
286.464347
 31
0.0
 11
2.658948
 21
286.467457
 31
0.0
 11
2.637349
 21
286.467457
 31
0.0
 11
2.615921
 21
286.467457
 31
0.0
 11
2.591643
 21
286.467457
 31
0.0
 11
2.533647
 21
286.469513
 31
0.0
 11
2.472855
 21
286.474707
 31
0.0
 11
2.427125
 21
286.481577
 31
0.0
 11
2.411510
 21
286.486047
 31
0.0
 11
2.390057
 21
286.491593
 31
0.0
 11
2.367298
 21
286.494217
 31
0.0
 11
2.346286
 21
286.491498
 31
0.0
 11
2.326542
 21
286.486363
 31
0.0
 11
2.307471
 21
286.482837
 31
0.0
 11
2.261911
 21
286.481038
 31
0.0
 11
2.219887
 21
286.481677
 31
0.0
 11
2.172866
 21
286.482411
 31
0.0
 11
2.145558
 21
286.482411
 31
0.0
 11
2.121291
 21
286.482411
 31
0.0
 11
2.090604
 21
286.482411
 31
0.0
 11
2.000392
 21
286.482037
 31
0.0
 11
1.901828
 21
286.481689
 31
0.0
 11
1.813914
 21
286.482523
 31
0.0
 11
1.790934
 21
286.484125
 31
0.0
 11
1.770354
 21
286.486813
 31
0.0
 11
1.746609
 21
286.489323
 31
0.0
 11
1.717037
 21
286.490518
 31
0.0
 11
1.691434
 21
286.490327
 31
0.0
 11
1.664347
 21
286.489989
 31
0.0
 11
1.648941
 21
286.489953
 31
0.0
 11
1.634856
 21
286.489922
 31
0.0
 11
1.619477
 21
286.490018
 31
0.0
 11
1.588857
 21
286.491900
 31
0.0
 11
1.558943
 21
286.495181
 31
0.0
 11
1.529737
 21
286.497418
 31
0.0
 11
1.500822
 21
286.497622
 31
0.0
 11
1.466299
 21
286.500731
 31
0.0
 11
1.433632
 21
286.512578
 31
0.0
 11
1.410112
 21
286.548489
 31
0.0
 11
1.403325
 21
286.594012
 31
0.0
 11
1.398104
 21
286.624652
 31
0.0
 11
1.371414
 21
286.660135
 31
0.0
 11
1.348686
 21
286.681222
 31
0.0
 11
1.327831
 21
286.699432
 31
0.0
  0
LINE
  5
108
100
AcDbEntity
  8
Layer_1
 62
1
100
AcDbLine
 10
4.513456
 20
293.743828
 30
0.0
 11
4.513456
 21
293.720194
 31
0.0
  0
LINE
  5
109
100
AcDbEntity
  8
Layer_1
 62
1
100
AcDbLine
 10
4.513456
 20
293.720194
 30
0.0
 11
4.509166
 21
293.654091
 31
0.0
  0
LINE
  5
10a
100
AcDbEntity
  8
Layer_1
 62
1
100
AcDbLine
 10
4.509166
 20
293.654091
 30
0.0
 11
4.491038
 21
293.512007
 31
0.0
  0
SPLINE
  5
10b
100
AcDbEntity
  8
Layer_1
 62
1
100
AcDbSpline
 70
0
 71
3
 72
19
 73
15
 74
13
 40
0.000000
 40
0.000000
 40
0.000000
 40
0.000000
 40
0.004814
 40
0.015791
 40
0.030268
 40
0.050161
 40
0.065868
 40
0.090157
 40
0.130434
 40
0.173062
 40
0.211468
 40
0.243475
 40
0.272356
 40
0.300311
 40
0.300311
 40
0.300311
 40
0.300311
 10
5.455742
 20
293.758755
 30
0.0
 10
5.455784
 20
293.757150
 30
0.0
 10
5.455921
 20
293.751889
 30
0.0
 10
5.455901
 20
293.741796
 30
0.0
 10
5.455101
 20
293.726694
 30
0.0
 10
5.453245
 20
293.710096
 30
0.0
 10
5.450242
 20
293.690357
 30
0.0
 10
5.447697
 20
293.663711
 30
0.0
 10
5.444472
 20
293.628126
 30
0.0
 10
5.439072
 20
293.588038
 30
0.0
 10
5.430864
 20
293.551138
 30
0.0
 10
5.418785
 20
293.520239
 30
0.0
 10
5.406307
 20
293.493383
 30
0.0
 10
5.399310
 20
293.475771
 30
0.0
 10
5.395869
 20
293.467109
 30
0.0
 11
5.455742
 21
293.758755
 31
0.0
 11
5.455854
 21
293.753942
 31
0.0
 11
5.455823
 21
293.742965
 31
0.0
 11
5.455078
 21
293.728507
 31
0.0
 11
5.452944
 21
293.708729
 31
0.0
 11
5.450786
 21
293.693171
 31
0.0
 11
5.448218
 21
293.669017
 31
0.0
 11
5.444260
 21
293.628936
 31
0.0
 11
5.438254
 21
293.586734
 31
0.0
 11
5.429372
 21
293.549368
 31
0.0
 11
5.418089
 21
293.519416
 31
0.0
 11
5.406431
 21
293.492992
 31
0.0
 11
5.395869
 21
293.467109
 31
0.0
  0
LINE
  5
10c
100
AcDbEntity
  8
Layer_1
 62
1
100
AcDbLine
 10
4.962162
 20
293.534441
 30
0.0
 11
4.954662
 21
293.497050
 31
0.0
  0
SPLINE
  5
10d
100
AcDbEntity
  8
Layer_1
 62
1
100
AcDbSpline
 70
0
 71
3
 72
10
 73
6
 74
4
 40
0.000000
 40
0.000000
 40
0.000000
 40
0.000000
 40
0.099563
 40
0.230705
 40
0.337861
 40
0.337861
 40
0.337861
 40
0.337861
 10
3.623582
 20
293.541919
 30
0.0
 10
3.639259
 20
293.512665
 30
0.0
 10
3.675586
 20
293.444880
 30
0.0
 10
3.725093
 20
293.343688
 30
0.0
 10
3.763398
 20
293.274091
 30
0.0
 10
3.780622
 20
293.242795
 30
0.0
 11
3.623582
 21
293.541919
 31
0.0
 11
3.670144
 21
293.453914
 31
0.0
 11
3.729633
 21
293.337042
 31
0.0
 11
3.780622
 21
293.242795
 31
0.0
  0
SPLINE
  5
10e
100
AcDbEntity
  8
Layer_1
 62
1
100
AcDbSpline
 70
0
 71
3
 72
10
 73
6
 74
4
 40
0.000000
 40
0.000000
 40
0.000000
 40
0.000000
 40
0.045490
 40
0.086831
 40
0.123842
 40
0.123842
 40
0.123842
 40
0.123842
 10
4.049811
 20
293.504530
 30
0.0
 10
4.055448
 20
293.490444
 30
0.0
 10
4.066209
 20
293.463556
 30
0.0
 10
4.085058
 20
293.426796
 30
0.0
 10
4.096673
 20
293.403407
 30
0.0
 10
4.102159
 20
293.392358
 30
0.0
 11
4.049811
 21
293.504530
 31
0.0
 11
4.067397
 21
293.462577
 31
0.0
 11
4.085631
 21
293.425474
 31
0.0
 11
4.102159
 21
293.392358
 31
0.0
  0
SPLINE
  5
10f
100
AcDbEntity
  8
Layer_1
 62
1
100
AcDbSpline
 70
0
 71
3
 72
10
 73
6
 74
4
 40
0.000000
 40
0.000000
 40
0.000000
 40
0.000000
 40
0.103873
 40
0.221039
 40
0.321190
 40
0.321190
 40
0.321190
 40
0.321190
 10
6.338111
 20
293.504528
 30
0.0
 10
6.321739
 20
293.474016
 30
0.0
 10
6.286900
 20
293.409086
 30
0.0
 10
6.241660
 20
293.311946
 30
0.0
 10
6.205304
 20
293.249253
 30
0.0
 10
6.188549
 20
293.220361
 30
0.0
 11
6.338111
 21
293.504528
 31
0.0
 11
6.289814
 21
293.412566
 31
0.0
 11
6.237593
 21
293.307682
 31
0.0
 11
6.188549
 21
293.220361
 31
0.0
  0
SPLINE
  5
110
100
AcDbEntity
  8
Layer_1
 62
1
100
AcDbSpline
 70
0
 71
3
 72
10
 73
6
 74
4
 40
0.000000
 40
0.000000
 40
0.000000
 40
0.000000
 40
0.028054
 40
0.050844
 40
0.077003
 40
0.077003
 40
0.077003
 40
0.077003
 10
5.859513
 20
293.437226
 30
0.0
 10
5.854777
 20
293.429162
 30
0.0
 10
5.846192
 20
293.414548
 30
0.0
 10
5.833777
 20
293.392080
 30
0.0
 10
5.826181
 20
293.377639
 30
0.0
 10
5.822121
 20
293.369922
 30
0.0
 11
5.859513
 21
293.437226
 31
0.0
 11
5.845421
 21
293.412968
 31
0.0
 11
5.834384
 21
293.393028
 31
0.0
 11
5.822121
 21
293.369922
 31
0.0
  0
LINE
  5
111
100
AcDbEntity
  8
Layer_1
 62
1
100
AcDbLine
 10
3.429130
 20
293.168014
 30
0.0
 11
3.488957
 21
293.100711
 31
0.0
  0
SPLINE
  5
112
100
AcDbEntity
  8
Layer_1
 62
1
100
AcDbSpline
 70
0
 71
3
 72
10
 73
6
 74
4
 40
0.000000
 40
0.000000
 40
0.000000
 40
0.000000
 40
0.167309
 40
0.326421
 40
0.483752
 40
0.483752
 40
0.483752
 40
0.483752
 10
2.845838
 20
293.182970
 30
0.0
 10
2.887464
 20
293.145779
 30
0.0
 10
2.968678
 20
293.073219
 30
0.0
 10
3.101785
 20
292.981581
 30
0.0
 10
3.180571
 20
292.911307
 30
0.0
 10
3.219743
 20
292.876368
 30
0.0
 11
2.845838
 21
293.182970
 31
0.0
 11
2.972978
 21
293.074215
 31
0.0
 11
3.100181
 21
292.978632
 31
0.0
 11
3.219743
 21
292.876368
 31
0.0
  0
SPLINE
  5
113
100
AcDbEntity
  8
Layer_1
 62
1
100
AcDbSpline
 70
0
 71
3
 72
10
 73
6
 74
4
 40
0.000000
 40
0.000000
 40
0.000000
 40
0.000000
 40
0.054651
 40
0.097927
 40
0.154195
 40
0.154195
 40
0.154195
 40
0.154195
 10
6.622281
 20
293.070799
 30
0.0
 10
6.608449
 20
293.058943
 30
0.0
 10
6.583665
 20
293.037700
 30
0.0
 10
6.543940
 20
293.005072
 30
0.0
 10
6.517549
 20
292.984955
 30
0.0
 10
6.502631
 20
292.973584
 30
0.0
 11
6.622281
 21
293.070799
 31
0.0
 11
6.580648
 21
293.035394
 31
0.0
 11
6.547146
 21
293.008000
 31
0.0
 11
6.502631
 21
292.973584
 31
0.0
  0
SPLINE
  5
114
100
AcDbEntity
  8
Layer_1
 62
1
100
AcDbSpline
 70
0
 71
3
 72
13
 73
9
 74
7
 40
0.000000
 40
0.000000
 40
0.000000
 40
0.000000
 40
0.055227
 40
0.109122
 40
0.165071
 40
0.246974
 40
0.311925
 40
0.388356
 40
0.388356
 40
0.388356
 40
0.388356
 10
7.085923
 20
292.824022
 30
0.0
 10
7.071800
 20
292.812204
 30
0.0
 10
7.043896
 20
292.788855
 30
0.0
 10
6.998859
 20
292.757112
 30
0.0
 10
6.943990
 20
292.724292
 30
0.0
 10
6.885062
 20
292.691135
 30
0.0
 10
6.822748
 20
292.650331
 30
0.0
 10
6.784851
 20
292.622307
 30
0.0
 10
6.764364
 20
292.607158
 30
0.0
 11
7.085923
 21
292.824022
 31
0.0
 11
7.043077
 21
292.789176
 31
0.0
 11
6.999067
 21
292.758066
 31
0.0
 11
6.951317
 21
292.728909
 31
0.0
 11
6.880661
 21
292.687484
 31
0.0
 11
6.826281
 21
292.651967
 31
0.0
 11
6.764364
 21
292.607158
 31
0.0
  0
SPLINE
  5
115
100
AcDbEntity
  8
Layer_1
 62
1
100
AcDbSpline
 70
0
 71
3
 72
10
 73
6
 74
4
 40
0.000000
 40
0.000000
 40
0.000000
 40
0.000000
 40
0.063718
 40
0.113158
 40
0.157807
 40
0.157807
 40
0.157807
 40
0.157807
 10
2.793493
 20
292.666981
 30
0.0
 10
2.811184
 20
292.655223
 30
0.0
 10
2.842601
 20
292.634341
 30
0.0
 10
2.887684
 20
292.607205
 30
0.0
 10
2.915092
 20
292.591957
 30
0.0
 10
2.928099
 20
292.584722
 30
0.0
 11
2.793493
 21
292.666981
 31
0.0
 11
2.846853
 21
292.632157
 31
0.0
 11
2.889198
 21
292.606638
 31
0.0
 11
2.928099
 21
292.584722
 31
0.0
  0
SPLINE
  5
116
100
AcDbEntity
  8
Layer_1
 62
1
100
AcDbSpline
 70
0
 71
3
 72
13
 73
9
 74
7
 40
0.000000
 40
0.000000
 40
0.000000
 40
0.000000
 40
0.073731
 40
0.154387
 40
0.233152
 40
0.286256
 40
0.334430
 40
0.386642
 40
0.386642
 40
0.386642
 40
0.386642
 10
2.404631
 20
292.405248
 30
0.0
 10
2.423973
 20
292.390062
 30
0.0
 10
2.464474
 20
292.358265
 30
0.0
 10
2.530253
 20
292.316679
 30
0.0
 10
2.591512
 20
292.281118
 30
0.0
 10
2.643995
 20
292.252003
 30
0.0
 10
2.688740
 20
292.227191
 30
0.0
 10
2.718296
 20
292.211500
 30
0.0
 10
2.733669
 20
292.203339
 30
0.0
 11
2.404631
 21
292.405248
 31
0.0
 11
2.463355
 21
292.360663
 31
0.0
 11
2.531036
 21
292.316792
 31
0.0
 11
2.599062
 21
292.277088
 31
0.0
 11
2.645432
 21
292.251207
 31
0.0
 11
2.687630
 21
292.227968
 31
0.0
 11
2.733669
 21
292.203339
 31
0.0
  0
LINE
  5
117
100
AcDbEntity
  8
Layer_1
 62
1
100
AcDbLine
 10
7.011141
 20
291.911693
 30
0.0
 11
7.257919
 21
291.911424
 31
0.0
  0
LINE
  5
118
100
AcDbEntity
  8
Layer_1
 62
1
100
AcDbLine
 10
7.257919
 20
291.911424
 30
0.0
 11
7.325224
 21
291.904214
 31
0.0
  0
LINE
  5
119
100
AcDbEntity
  8
Layer_1
 62
1
100
AcDbLine
 10
2.509327
 20
291.874302
 30
0.0
 11
2.621498
 21
291.851868
 31
0.0
  0
LINE
  5
11a
100
AcDbEntity
  8
Layer_1
 62
1
100
AcDbLine
 10
7.003665
 20
291.492919
 30
0.0
 11
7.041057
 21
291.500399
 31
0.0
  0
LINE
  5
11b
100
AcDbEntity
  8
Layer_1
 62
1
100
AcDbLine
 10
2.195247
 20
291.433096
 30
0.0
 11
2.576631
 21
291.440576
 31
0.0
  0
SPLINE
  5
11c
100
AcDbEntity
  8
Layer_1
 62
1
100
AcDbSpline
 70
0
 71
3
 72
10
 73
6
 74
4
 40
0.000000
 40
0.000000
 40
0.000000
 40
0.000000
 40
0.038850
 40
0.078920
 40
0.122742
 40
0.122742
 40
0.122742
 40
0.122742
 10
7.026098
 20
292.337945
 30
0.0
 10
7.016422
 20
292.329324
 30
0.0
 10
6.996767
 20
292.311811
 30
0.0
 10
6.963470
 20
292.287962
 30
0.0
 10
6.940748
 20
292.271672
 30
0.0
 10
6.928879
 20
292.263163
 30
0.0
 11
7.026098
 21
292.337945
 31
0.0
 11
6.996646
 21
292.312610
 31
0.0
 11
6.964496
 21
292.288693
 31
0.0
 11
6.928879
 21
292.263163
 31
0.0
  0
SPLINE
  5
11d
100
AcDbEntity
  8
Layer_1
 62
1
100
AcDbSpline
 70
0
 71
3
 72
10
 73
6
 74
4
 40
0.000000
 40
0.000000
 40
0.000000
 40
0.000000
 40
0.101853
 40
0.204012
 40
0.295921
 40
0.295921
 40
0.295921
 40
0.295921
 10
6.943841
 20
291.171364
 30
0.0
 10
6.976635
 20
291.162590
 30
0.0
 10
7.042322
 20
291.145014
 30
0.0
 10
7.137752
 20
291.119863
 30
0.0
 10
7.199002
 20
291.098991
 30
0.0
 10
7.228009
 20
291.089106
 30
0.0
 11
6.943841
 21
291.171364
 31
0.0
 11
7.042250
 21
291.145099
 31
0.0
 11
7.140687
 21
291.117779
 31
0.0
 11
7.228009
 21
291.089106
 31
0.0
  0
LINE
  5
11e
100
AcDbEntity
  8
Layer_1
 62
1
100
AcDbLine
 10
6.809240
 20
290.842324
 30
0.0
 11
6.884024
 21
290.789978
 31
0.0
  0
SPLINE
  5
11f
100
AcDbEntity
  8
Layer_1
 62
1
100
AcDbSpline
 70
0
 71
3
 72
10
 73
6
 74
4
 40
0.000000
 40
0.000000
 40
0.000000
 40
0.000000
 40
0.036763
 40
0.065938
 40
0.100071
 40
0.100071
 40
0.100071
 40
0.100071
 10
2.554196
 20
290.976930
 30
0.0
 10
2.565833
 20
290.980759
 30
0.0
 10
2.586705
 20
290.987625
 30
0.0
 10
2.619026
 20
290.996243
 30
0.0
 10
2.640069
 20
290.998271
 30
0.0
 10
2.651415
 20
290.999365
 30
0.0
 11
2.554196
 21
290.976930
 31
0.0
 11
2.589239
 21
290.988046
 31
0.0
 11
2.617551
 21
290.995089
 31
0.0
 11
2.651415
 21
290.999365
 31
0.0
  0
LINE
  5
120
100
AcDbEntity
  8
Layer_1
 62
1
100
AcDbLine
 10
6.652202
 20
290.520766
 30
0.0
 11
6.771852
 21
290.416079
 31
0.0
  0
LINE
  5
121
100
AcDbEntity
  8
Layer_1
 62
1
100
AcDbLine
 10
6.771852
 20
290.416079
 30
0.0
 11
6.830993
 21
290.368040
 31
0.0
  0
LINE
  5
122
100
AcDbEntity
  8
Layer_1
 62
1
100
AcDbLine
 10
6.830993
 20
290.368040
 30
0.0
 11
6.876538
 21
290.326335
 31
0.0
  0
SPLINE
  5
123
100
AcDbEntity
  8
Layer_1
 62
1
100
AcDbSpline
 70
0
 71
3
 72
10
 73
6
 74
4
 40
0.000000
 40
0.000000
 40
0.000000
 40
0.000000
 40
0.140267
 40
0.289553
 40
0.430930
 40
0.430930
 40
0.430930
 40
0.430930
 10
2.486901
 20
290.416072
 30
0.0
 10
2.523747
 20
290.444891
 30
0.0
 10
2.599807
 20
290.504380
 30
0.0
 10
2.722735
 20
290.579563
 30
0.0
 10
2.810594
 20
290.620502
 30
0.0
 10
2.853328
 20
290.640415
 30
0.0
 11
2.486901
 21
290.416072
 31
0.0
 11
2.598972
 21
290.500422
 31
0.0
 11
2.726295
 21
290.578365
 31
0.0
 11
2.853328
 21
290.640415
 31
0.0
  0
LINE
  5
124
100
AcDbEntity
  8
Layer_1
 62
1
100
AcDbLine
 10
2.958008
 20
290.326345
 30
0.0
 11
2.883224
 21
290.273999
 31
0.0
  0
LINE
  5
125
100
AcDbEntity
  8
Layer_1
 62
1
100
AcDbLine
 10
6.390453
 20
290.251565
 30
0.0
 11
6.450280
 21
290.199219
 31
0.0
  0
SPLINE
  5
126
100
AcDbEntity
  8
Layer_1
 62
1
100
AcDbSpline
 70
0
 71
3
 72
106
 73
102
 74
100
 40
0.000000
 40
0.000000
 40
0.000000
 40
0.000000
 40
0.046700
 40
0.099165
 40
0.151915
 40
0.183282
 40
0.223456
 40
0.252091
 40
0.271077
 40
0.291830
 40
0.312801
 40
0.348291
 40
0.377683
 40
0.423239
 40
0.481218
 40
0.538523
 40
0.594472
 40
0.664322
 40
0.734268
 40
0.807537
 40
0.859160
 40
0.911681
 40
0.955766
 40
0.985388
 40
1.014225
 40
1.047201
 40
1.162678
 40
1.280572
 40
1.396462
 40
1.444222
 40
1.491005
 40
1.537016
 40
1.570219
 40
1.602730
 40
1.636218
 40
1.714067
 40
1.794857
 40
1.871683
 40
1.916859
 40
1.965260
 40
2.006757
 40
2.044917
 40
2.078576
 40
2.117656
 40
2.162127
 40
2.199115
 40
2.239538
 40
2.292439
 40
2.348682
 40
2.397717
 40
2.426959
 40
2.454867
 40
2.486032
 40
2.624070
 40
2.765931
 40
2.905122
 40
2.963831
 40
3.025399
 40
3.082406
 40
3.131925
 40
3.183469
 40
3.235968
 40
3.294556
 40
3.357155
 40
3.414445
 40
3.442013
 40
3.468049
 40
3.496091
 40
3.540693
 40
3.584509
 40
3.627338
 40
3.659343
 40
3.682771
 40
3.719001
 40
3.777126
 40
3.840182
 40
3.898213
 40
4.062192
 40
4.227625
 40
4.392797
 40
4.827626
 40
5.264123
 40
5.699168
 40
5.782128
 40
5.865295
 40
5.948258
 40
5.968279
 40
5.988055
 40
6.008123
 40
6.031475
 40
6.052115
 40
6.075741
 40
6.113478
 40
6.153949
 40
6.187913
 40
6.213510
 40
6.230760
 40
6.255023
 40
6.274503
 40
6.286526
 40
6.292593
 40
6.292593
 40
6.292593
 40
6.292593
 10
7.377571
 20
288.853149
 30
0.0
 10
7.371892
 20
288.867644
 30
0.0
 10
7.359833
 20
288.898424
 30
0.0
 10
7.342404
 20
288.945956
 30
0.0
 10
7.325296
 20
288.988214
 30
0.0
 10
7.314240
 20
289.028186
 30
0.0
 10
7.306547
 20
289.060671
 30
0.0
 10
7.300566
 20
289.089344
 30
0.0
 10
7.295468
 20
289.111502
 30
0.0
 10
7.292022
 20
289.131677
 30
0.0
 10
7.296890
 20
289.157358
 30
0.0
 10
7.311374
 20
289.183162
 30
0.0
 10
7.340535
 20
289.206033
 30
0.0
 10
7.372165
 20
289.237081
 30
0.0
 10
7.407377
 20
289.277555
 30
0.0
 10
7.445803
 20
289.319751
 30
0.0
 10
7.486522
 20
289.365223
 30
0.0
 10
7.530922
 20
289.413037
 30
0.0
 10
7.579609
 20
289.464747
 30
0.0
 10
7.623124
 20
289.512961
 30
0.0
 10
7.660959
 20
289.558480
 30
0.0
 10
7.688857
 20
289.599326
 30
0.0
 10
7.702217
 20
289.640922
 30
0.0
 10
7.695643
 20
289.675292
 30
0.0
 10
7.682165
 20
289.702843
 30
0.0
 10
7.646634
 20
289.750237
 30
0.0
 10
7.589840
 20
289.818415
 30
0.0
 10
7.514018
 20
289.906767
 30
0.0
 10
7.453338
 20
289.978411
 30
0.0
 10
7.412976
 20
290.035966
 30
0.0
 10
7.392903
 20
290.078625
 30
0.0
 10
7.383557
 20
290.120048
 30
0.0
 10
7.384180
 20
290.157527
 30
0.0
 10
7.390523
 20
290.190090
 30
0.0
 10
7.404650
 20
290.235956
 30
0.0
 10
7.432534
 20
290.294215
 30
0.0
 10
7.479206
 20
290.357389
 30
0.0
 10
7.525027
 20
290.408094
 30
0.0
 10
7.574461
 20
290.437299
 30
0.0
 10
7.617855
 20
290.450466
 30
0.0
 10
7.660548
 20
290.455461
 30
0.0
 10
7.698769
 20
290.446479
 30
0.0
 10
7.726634
 20
290.420224
 30
0.0
 10
7.743753
 20
290.384839
 30
0.0
 10
7.757133
 20
290.346509
 30
0.0
 10
7.757819
 20
290.305439
 30
0.0
 10
7.752237
 20
290.262384
 30
0.0
 10
7.744451
 20
290.213104
 30
0.0
 10
7.736783
 20
290.161042
 30
0.0
 10
7.738507
 20
290.115296
 30
0.0
 10
7.752559
 20
290.082356
 30
0.0
 10
7.769002
 20
290.057853
 30
0.0
 10
7.811041
 20
290.007319
 30
0.0
 10
7.876092
 20
289.926609
 30
0.0
 10
7.963343
 20
289.817461
 30
0.0
 10
8.030655
 20
289.726412
 30
0.0
 10
8.085073
 20
289.659053
 30
0.0
 10
8.120104
 20
289.611778
 30
0.0
 10
8.145058
 20
289.559560
 30
0.0
 10
8.138083
 20
289.504594
 30
0.0
 10
8.109402
 20
289.461327
 30
0.0
 10
8.074554
 20
289.419965
 30
0.0
 10
8.037203
 20
289.375675
 30
0.0
 10
7.997659
 20
289.331236
 30
0.0
 10
7.965362
 20
289.294182
 30
0.0
 10
7.940495
 20
289.266825
 30
0.0
 10
7.921509
 20
289.247326
 30
0.0
 10
7.899153
 20
289.223180
 30
0.0
 10
7.874852
 20
289.192871
 30
0.0
 10
7.851276
 20
289.155703
 30
0.0
 10
7.837832
 20
289.118323
 30
0.0
 10
7.827524
 20
289.087284
 30
0.0
 10
7.822132
 20
289.056862
 30
0.0
 10
7.829616
 20
289.017743
 30
0.0
 10
7.842185
 20
288.967012
 30
0.0
 10
7.860921
 20
288.910181
 30
0.0
 10
7.889294
 20
288.819523
 30
0.0
 10
7.922783
 20
288.694739
 30
0.0
 10
7.965194
 20
288.535431
 30
0.0
 10
8.023372
 20
288.286983
 30
0.0
 10
8.106513
 20
287.951639
 30
0.0
 10
8.217149
 20
287.530422
 30
0.0
 10
8.282455
 20
287.218838
 30
0.0
 10
8.317644
 20
287.021566
 30
0.0
 10
8.330600
 20
286.939531
 30
0.0
 10
8.335009
 20
286.877483
 30
0.0
 10
8.334630
 20
286.836565
 30
0.0
 10
8.334639
 20
286.816607
 30
0.0
 10
8.335846
 20
286.795557
 30
0.0
 10
8.338567
 20
286.774374
 30
0.0
 10
8.341434
 20
286.752007
 30
0.0
 10
8.342539
 20
286.724668
 30
0.0
 10
8.342358
 20
286.690726
 30
0.0
 10
8.342345
 20
286.653335
 30
0.0
 10
8.342219
 20
286.619991
 30
0.0
 10
8.342241
 20
286.594388
 30
0.0
 10
8.342237
 20
286.572018
 30
0.0
 10
8.342238
 20
286.551686
 30
0.0
 10
8.342238
 20
286.533098
 30
0.0
 10
8.342238
 20
286.520574
 30
0.0
 10
8.342238
 20
286.514544
 30
0.0
 10
8.342238
 20
286.512522
 30
0.0
 11
7.377571
 21
288.853149
 31
0.0
 11
7.360685
 21
288.896689
 31
0.0
 11
7.342161
 21
288.945775
 31
0.0
 11
7.323819
 21
288.995234
 31
0.0
 11
7.315190
 21
289.025391
 31
0.0
 11
7.305864
 21
289.064467
 31
0.0
 11
7.299798
 21
289.092453
 31
0.0
 11
7.295761
 21
289.111004
 31
0.0
 11
7.293271
 21
289.131607
 31
0.0
 11
7.296798
 21
289.152280
 31
0.0
 11
7.314253
 21
289.183180
 31
0.0
 11
7.335966
 21
289.202991
 31
0.0
 11
7.368828
 21
289.234542
 31
0.0
 11
7.407685
 21
289.277573
 31
0.0
 11
7.446049
 21
289.320141
 31
0.0
 11
7.483541
 21
289.361670
 31
0.0
 11
7.530959
 21
289.412958
 31
0.0
 11
7.578673
 21
289.464103
 31
0.0
 11
7.627525
 21
289.518709
 31
0.0
 11
7.660127
 21
289.558735
 31
0.0
 11
7.688093
 21
289.603192
 31
0.0
 11
7.699266
 21
289.645837
 31
0.0
 11
7.694342
 21
289.675047
 31
0.0
 11
7.682062
 21
289.701138
 31
0.0
 11
7.663074
 21
289.728099
 31
0.0
 11
7.590134
 21
289.817625
 31
0.0
 11
7.513676
 21
289.907363
 31
0.0
 11
7.440601
 21
289.997311
 31
0.0
 11
7.413971
 21
290.036957
 31
0.0
 11
7.394412
 21
290.079455
 31
0.0
 11
7.384738
 21
290.124438
 31
0.0
 11
7.385163
 21
290.157638
 31
0.0
 11
7.391009
 21
290.189619
 31
0.0
 11
7.400766
 21
290.221654
 31
0.0
 11
7.434135
 21
290.291989
 31
0.0
 11
7.481141
 21
290.357696
 31
0.0
 11
7.535282
 21
290.412203
 31
0.0
 11
7.574205
 21
290.435135
 31
0.0
 11
7.620389
 21
290.449615
 31
0.0
 11
7.661745
 21
290.453034
 31
0.0
 11
7.698543
 21
290.442929
 31
0.0
 11
7.723634
 21
290.420492
 31
0.0
 11
7.742325
 21
290.386172
 31
0.0
 11
7.755405
 21
290.343669
 31
0.0
 11
7.756943
 21
290.306713
 31
0.0
 11
7.752610
 21
290.266522
 31
0.0
 11
7.744717
 21
290.214214
 31
0.0
 11
7.738275
 21
290.158341
 31
0.0
 11
7.742432
 21
290.109482
 31
0.0
 11
7.753541
 21
290.082432
 31
0.0
 11
7.768753
 21
290.059034
 31
0.0
 11
7.788224
 21
290.034700
 31
0.0
 11
7.875229
 21
289.927534
 31
0.0
 11
7.963177
 21
289.816226
 31
0.0
 11
8.047737
 21
289.705664
 31
0.0
 11
8.084126
 21
289.659593
 31
0.0
 11
8.119434
 21
289.609156
 31
0.0
 11
8.140295
 21
289.556102
 31
0.0
 11
8.134711
 21
289.506899
 31
0.0
 11
8.108878
 21
289.462297
 31
0.0
 11
8.075840
 21
289.421497
 31
0.0
 11
8.037881
 21
289.376868
 31
0.0
 11
7.996566
 21
289.329839
 31
0.0
 11
7.958650
 21
289.286891
 31
0.0
 11
7.940034
 21
289.266559
 31
0.0
 11
7.922051
 21
289.247732
 31
0.0
 11
7.903098
 21
289.227064
 31
0.0
 11
7.875341
 21
289.192151
 31
0.0
 11
7.852568
 21
289.154717
 31
0.0
 11
7.836811
 21
289.114892
 31
0.0
 11
7.827475
 21
289.084279
 31
0.0
 11
7.824010
 21
289.061108
 31
0.0
 11
7.828451
 21
289.025152
 31
0.0
 11
7.842480
 21
288.968745
 31
0.0
 11
7.861282
 21
288.908558
 31
0.0
 11
7.878550
 21
288.853155
 31
0.0
 11
7.922601
 21
288.695204
 31
0.0
 11
7.964410
 21
288.535142
 31
0.0
 11
8.003067
 21
288.374557
 31
0.0
 11
8.107350
 21
287.952418
 31
0.0
 11
8.213715
 21
287.529079
 31
0.0
 11
8.302932
 21
287.103280
 31
0.0
 11
8.317362
 21
287.021585
 31
0.0
 11
8.329431
 21
286.939298
 31
0.0
 11
8.334710
 21
286.856503
 31
0.0
 11
8.334662
 21
286.836483
 31
0.0
 11
8.334825
 21
286.816707
 31
0.0
 11
8.336000
 21
286.796673
 31
0.0
 11
8.338682
 21
286.773476
 31
0.0
 11
8.341029
 21
286.752970
 31
0.0
 11
8.342210
 21
286.729373
 31
0.0
 11
8.342393
 21
286.691636
 31
0.0
 11
8.342319
 21
286.651166
 31
0.0
 11
8.342238
 21
286.617202
 31
0.0
 11
8.342238
 21
286.591605
 31
0.0
 11
8.342238
 21
286.574355
 31
0.0
 11
8.342238
 21
286.550092
 31
0.0
 11
8.342238
 21
286.530612
 31
0.0
 11
8.342238
 21
286.518589
 31
0.0
 11
8.342238
 21
286.512522
 31
0.0
  0
SPLINE
  5
127
100
AcDbEntity
  8
Layer_1
 62
1
100
AcDbSpline
 70
0
 71
3
 72
10
 73
6
 74
4
 40
0.000000
 40
0.000000
 40
0.000000
 40
0.000000
 40
0.103690
 40
0.228410
 40
0.329557
 40
0.329557
 40
0.329557
 40
0.329557
 10
3.309478
 20
290.049656
 30
0.0
 10
3.282555
 20
290.027990
 30
0.0
 10
3.223247
 20
289.980261
 30
0.0
 10
3.134513
 20
289.915211
 30
0.0
 10
3.079748
 20
289.863449
 30
0.0
 10
3.055223
 20
289.840269
 30
0.0
 11
3.309478
 21
290.049656
 31
0.0
 11
3.228256
 21
289.985201
 31
0.0
 11
3.130010
 21
289.908369
 31
0.0
 11
3.055223
 21
289.840269
 31
0.0
  0
LINE
  5
128
100
AcDbEntity
  8
Layer_1
 62
1
100
AcDbLine
 10
3.541307
 20
289.900091
 30
0.0
 11
3.429136
 21
289.795394
 31
0.0
  0
SPLINE
  5
129
100
AcDbEntity
  8
Layer_1
 62
1
100
AcDbSpline
 70
0
 71
3
 72
13
 73
9
 74
7
 40
0.000000
 40
0.000000
 40
0.000000
 40
0.000000
 40
0.041460
 40
0.082754
 40
0.123749
 40
0.200696
 40
0.271948
 40
0.355039
 40
0.355039
 40
0.355039
 40
0.355039
 10
6.151156
 20
290.034699
 30
0.0
 10
6.160956
 20
290.024955
 30
0.0
 10
6.180516
 20
290.005506
 30
0.0
 10
6.209409
 20
289.976053
 30
0.0
 10
6.244430
 20
289.936123
 30
0.0
 10
6.283081
 20
289.886305
 30
0.0
 10
6.332399
 20
289.826882
 30
0.0
 10
6.370142
 20
289.791833
 30
0.0
 10
6.390461
 20
289.772964
 30
0.0
 11
6.151156
 21
290.034699
 31
0.0
 11
6.180495
 21
290.005405
 31
0.0
 11
6.209198
 21
289.975718
 31
0.0
 11
6.236300
 21
289.944959
 31
0.0
 11
6.284602
 21
289.885061
 31
0.0
 11
6.330905
 21
289.830905
 31
0.0
 11
6.390461
 21
289.772964
 31
0.0
  0
SPLINE
  5
12a
100
AcDbEntity
  8
Layer_1
 62
1
100
AcDbSpline
 70
0
 71
3
 72
106
 73
102
 74
100
 40
0.000000
 40
0.000000
 40
0.000000
 40
0.000000
 40
0.034848
 40
0.057695
 40
0.083741
 40
0.103782
 40
0.129130
 40
0.152207
 40
0.207364
 40
0.263824
 40
0.321027
 40
0.424208
 40
0.526378
 40
0.629136
 40
0.657902
 40
0.682892
 40
0.711401
 40
1.033181
 40
1.361978
 40
1.682356
 40
1.760396
 40
1.836529
 40
1.908574
 40
1.931548
 40
1.954606
 40
1.976961
 40
2.009768
 40
2.043520
 40
2.091851
 40
2.123490
 40
2.153688
 40
2.185045
 40
2.326783
 40
2.474173
 40
2.619159
 40
2.649111
 40
2.679934
 40
2.709588
 40
2.730175
 40
2.752530
 40
2.772757
 40
2.792957
 40
2.808096
 40
2.825513
 40
2.868225
 40
2.929739
 40
2.980825
 40
3.074897
 40
3.168913
 40
3.262000
 40
3.326837
 40
3.392806
 40
3.457101
 40
3.504341
 40
3.542143
 40
3.583648
 40
3.606995
 40
3.628883
 40
3.652139
 40
3.695783
 40
3.740340
 40
3.779727
 40
3.819733
 40
3.864416
 40
3.907321
 40
3.969346
 40
4.033592
 40
4.103282
 40
4.177292
 40
4.244328
 40
4.308934
 40
4.362776
 40
4.424811
 40
4.481612
 40
4.633064
 40
4.785079
 40
4.937813
 40
4.996925
 40
5.064765
 40
5.114763
 40
5.139804
 40
5.164079
 40
5.198432
 40
5.333847
 40
5.484701
 40
5.612662
 40
5.635808
 40
5.661452
 40
5.682078
 40
5.708632
 40
5.724732
 40
5.745614
 40
5.775434
 40
5.821765
 40
5.865280
 40
5.897452
 40
5.926157
 40
5.956437
 40
6.044548
 40
6.136401
 40
6.203598
 40
6.203598
 40
6.203598
 40
6.203598
 10
2.359767
 20
286.505030
 30
0.0
 10
2.358141
 20
286.516540
 30
0.0
 10
2.355447
 20
286.535597
 30
0.0
 10
2.348957
 20
286.562761
 30
0.0
 10
2.344405
 20
286.585291
 30
0.0
 10
2.340722
 20
286.608818
 30
0.0
 10
2.336865
 20
286.631315
 30
0.0
 10
2.329618
 20
286.665082
 30
0.0
 10
2.318199
 20
286.708514
 30
0.0
 10
2.305686
 20
286.763382
 30
0.0
 10
2.290309
 20
286.834014
 30
0.0
 10
2.276748
 20
286.920579
 30
0.0
 10
2.269227
 20
287.023128
 30
0.0
 10
2.269542
 20
287.101060
 30
0.0
 10
2.270296
 20
287.153227
 30
0.0
 10
2.269759
 20
287.180647
 30
0.0
 10
2.271103
 20
287.305743
 30
0.0
 10
2.299988
 20
287.531760
 30
0.0
 10
2.389596
 20
287.843633
 30
0.0
 10
2.489318
 20
288.065911
 30
0.0
 10
2.569454
 20
288.202274
 30
0.0
 10
2.606587
 20
288.267967
 30
0.0
 10
2.627699
 20
288.321312
 30
0.0
 10
2.637747
 20
288.359346
 30
0.0
 10
2.642299
 20
288.381791
 30
0.0
 10
2.641627
 20
288.408040
 30
0.0
 10
2.630511
 20
288.437057
 30
0.0
 10
2.599250
 20
288.460829
 30
0.0
 10
2.566481
 20
288.479396
 30
0.0
 10
2.534644
 20
288.497805
 30
0.0
 10
2.507063
 20
288.512092
 30
0.0
 10
2.446439
 20
288.542375
 30
0.0
 10
2.352484
 20
288.593303
 30
0.0
 10
2.228116
 20
288.667366
 30
0.0
 10
2.137819
 20
288.725554
 30
0.0
 10
2.079980
 20
288.762481
 30
0.0
 10
2.055551
 20
288.780089
 30
0.0
 10
2.035667
 20
288.798918
 30
0.0
 10
2.023927
 20
288.820327
 30
0.0
 10
2.016852
 20
288.840211
 30
0.0
 10
2.011893
 20
288.860544
 30
0.0
 10
2.009275
 20
288.879019
 30
0.0
 10
2.010933
 20
288.896608
 30
0.0
 10
2.015353
 20
288.921295
 30
0.0
 10
2.023837
 20
288.960963
 30
0.0
 10
2.036533
 20
289.011172
 30
0.0
 10
2.058818
 20
289.076516
 30
0.0
 10
2.096201
 20
289.147169
 30
0.0
 10
2.135749
 20
289.232094
 30
0.0
 10
2.170683
 20
289.308494
 30
0.0
 10
2.203790
 20
289.375353
 30
0.0
 10
2.232445
 20
289.433839
 30
0.0
 10
2.250995
 20
289.490186
 30
0.0
 10
2.257468
 20
289.540337
 30
0.0
 10
2.246719
 20
289.582086
 30
0.0
 10
2.228094
 20
289.611101
 30
0.0
 10
2.211366
 20
289.634630
 30
0.0
 10
2.199169
 20
289.654000
 30
0.0
 10
2.188534
 20
289.681946
 30
0.0
 10
2.188575
 20
289.720183
 30
0.0
 10
2.201509
 20
289.761092
 30
0.0
 10
2.224268
 20
289.796566
 30
0.0
 10
2.258476
 20
289.820854
 30
0.0
 10
2.296164
 20
289.840503
 30
0.0
 10
2.342922
 20
289.858419
 30
0.0
 10
2.399296
 20
289.866918
 30
0.0
 10
2.464702
 20
289.862596
 30
0.0
 10
2.533251
 20
289.851942
 30
0.0
 10
2.602180
 20
289.839563
 30
0.0
 10
2.667558
 20
289.812834
 30
0.0
 10
2.703023
 20
289.754894
 30
0.0
 10
2.693919
 20
289.693185
 30
0.0
 10
2.673204
 20
289.639732
 30
0.0
 10
2.637420
 20
289.556948
 30
0.0
 10
2.588177
 20
289.447409
 30
0.0
 10
2.517621
 20
289.312686
 30
0.0
 10
2.462534
 20
289.204495
 30
0.0
 10
2.431142
 20
289.116304
 30
0.0
 10
2.417307
 20
289.059591
 30
0.0
 10
2.415999
 20
289.009254
 30
0.0
 10
2.435478
 20
288.981217
 30
0.0
 10
2.457821
 20
288.964030
 30
0.0
 10
2.518468
 20
288.940420
 30
0.0
 10
2.618185
 20
288.902864
 30
0.0
 10
2.748391
 20
288.856587
 30
0.0
 10
2.842220
 20
288.820013
 30
0.0
 10
2.898680
 20
288.803038
 30
0.0
 10
2.921305
 20
288.798144
 30
0.0
 10
2.944918
 20
288.792494
 30
0.0
 10
2.965723
 20
288.788969
 30
0.0
 10
2.985414
 20
288.779776
 30
0.0
 10
2.998142
 20
288.760082
 30
0.0
 10
3.002327
 20
288.727668
 30
0.0
 10
3.005143
 20
288.688011
 30
0.0
 10
3.008625
 20
288.647441
 30
0.0
 10
3.013350
 20
288.612962
 30
0.0
 10
3.017495
 20
288.582874
 30
0.0
 10
3.028182
 20
288.534793
 30
0.0
 10
3.066446
 20
288.473896
 30
0.0
 10
3.123711
 20
288.414590
 30
0.0
 10
3.164921
 20
288.381157
 30
0.0
 10
3.182331
 20
288.367032
 30
0.0
 11
2.359767
 21
286.505030
 31
0.0
 11
2.354238
 21
286.539437
 31
0.0
 11
2.349328
 21
286.561750
 31
0.0
 11
2.344221
 21
286.587290
 31
0.0
 11
2.340953
 21
286.607063
 31
0.0
 11
2.336556
 21
286.632027
 31
0.0
 11
2.331761
 21
286.654600
 31
0.0
 11
2.318600
 21
286.708164
 31
0.0
 11
2.305831
 21
286.763161
 31
0.0
 11
2.293962
 21
286.819119
 31
0.0
 11
2.278108
 21
286.921074
 31
0.0
 11
2.270554
 21
287.022965
 31
0.0
 11
2.269920
 21
287.125721
 31
0.0
 11
2.270140
 21
287.154486
 31
0.0
 11
2.269900
 21
287.179475
 31
0.0
 11
2.270143
 21
287.207983
 31
0.0
 11
2.307608
 21
287.527575
 31
0.0
 11
2.397840
 21
287.843748
 31
0.0
 11
2.530726
 21
288.135268
 31
0.0
 11
2.569589
 21
288.202942
 31
0.0
 11
2.605662
 21
288.269987
 31
0.0
 11
2.631662
 21
288.337176
 31
0.0
 11
2.637528
 21
288.359389
 31
0.0
 11
2.641466
 21
288.382108
 31
0.0
 11
2.640662
 21
288.404449
 31
0.0
 11
2.628251
 21
288.434817
 31
0.0
 11
2.602994
 21
288.457207
 31
0.0
 11
2.561646
 21
288.482233
 31
0.0
 11
2.534115
 21
288.497822
 31
0.0
 11
2.507373
 21
288.511850
 31
0.0
 11
2.479384
 21
288.525989
 31
0.0
 11
2.354605
 21
288.593218
 31
0.0
 11
2.227899
 21
288.668513
 31
0.0
 11
2.105478
 21
288.746193
 31
0.0
 11
2.080387
 21
288.762550
 31
0.0
 11
2.055626
 21
288.780907
 31
0.0
 11
2.034905
 21
288.802120
 31
0.0
 11
2.024703
 21
288.820002
 31
0.0
 11
2.017001
 21
288.840988
 31
0.0
 11
2.012213
 21
288.860640
 31
0.0
 11
2.009943
 21
288.880712
 31
0.0
 11
2.011053
 21
288.895810
 31
0.0
 11
2.013923
 21
288.912989
 31
0.0
 11
2.022736
 21
288.954782
 31
0.0
 11
2.038262
 21
289.014305
 31
0.0
 11
2.055054
 21
289.062551
 31
0.0
 11
2.095473
 21
289.147497
 31
0.0
 11
2.135786
 21
289.232432
 31
0.0
 11
2.175106
 21
289.316807
 31
0.0
 11
2.203591
 21
289.375052
 31
0.0
 11
2.231276
 21
289.434931
 31
0.0
 11
2.250511
 21
289.496281
 31
0.0
 11
2.254511
 21
289.543352
 31
0.0
 11
2.245295
 21
289.580012
 31
0.0
 11
2.224497
 21
289.615931
 31
0.0
 11
2.211263
 21
289.635165
 31
0.0
 11
2.200031
 21
289.653952
 31
0.0
 11
2.191948
 21
289.675758
 31
0.0
 11
2.190756
 21
289.719385
 31
0.0
 11
2.203978
 21
289.761935
 31
0.0
 11
2.225954
 21
289.794622
 31
0.0
 11
2.257558
 21
289.819149
 31
0.0
 11
2.297080
 21
289.839996
 31
0.0
 11
2.337309
 21
289.854910
 31
0.0
 11
2.398572
 21
289.864604
 31
0.0
 11
2.462758
 21
289.861817
 31
0.0
 11
2.531741
 21
289.851910
 31
0.0
 11
2.604105
 21
289.836387
 31
0.0
 11
2.664005
 21
289.806291
 31
0.0
 11
2.696566
 21
289.750491
 31
0.0
 11
2.692593
 21
289.696796
 31
0.0
 11
2.672173
 21
289.638217
 31
0.0
 11
2.649885
 21
289.585973
 31
0.0
 11
2.586895
 21
289.448240
 31
0.0
 11
2.517980
 21
289.312744
 31
0.0
 11
2.452672
 21
289.174678
 31
0.0
 11
2.433059
 21
289.118914
 31
0.0
 11
2.418608
 21
289.052631
 31
0.0
 11
2.422609
 21
289.002793
 31
0.0
 11
2.436529
 21
288.981978
 31
0.0
 11
2.455587
 21
288.966942
 31
0.0
 11
2.486871
 21
288.952748
 31
0.0
 11
2.613596
 21
288.905020
 31
0.0
 11
2.755293
 21
288.853262
 31
0.0
 11
2.875732
 21
288.810036
 31
0.0
 11
2.897953
 21
288.803559
 31
0.0
 11
2.922916
 21
288.797689
 31
0.0
 11
2.943037
 21
288.793151
 31
0.0
 11
2.968848
 21
288.786916
 31
0.0
 11
2.983095
 21
288.779416
 31
0.0
 11
2.995171
 21
288.762380
 31
0.0
 11
3.001386
 21
288.733214
 31
0.0
 11
3.005328
 21
288.687052
 31
0.0
 11
3.009367
 21
288.643725
 31
0.0
 11
3.013511
 21
288.611820
 31
0.0
 11
3.017803
 21
288.583438
 31
0.0
 11
3.024827
 21
288.553985
 31
0.0
 11
3.067909
 21
288.477124
 31
0.0
 11
3.130877
 21
288.410252
 31
0.0
 11
3.182331
 21
288.367032
 31
0.0
  0
SPLINE
  5
12b
100
AcDbEntity
  8
Layer_1
 62
1
100
AcDbSpline
 70
0
 71
3
 72
10
 73
6
 74
4
 40
0.000000
 40
0.000000
 40
0.000000
 40
0.000000
 40
0.039331
 40
0.071112
 40
0.104190
 40
0.104190
 40
0.104190
 40
0.104190
 10
5.762282
 20
289.810305
 30
0.0
 10
5.767283
 20
289.798186
 30
0.0
 10
5.776325
 20
289.776276
 30
0.0
 10
5.789243
 20
289.744027
 30
0.0
 10
5.796151
 20
289.723536
 30
0.0
 10
5.799673
 20
289.713086
 30
0.0
 11
5.762282
 21
289.810305
 31
0.0
 11
5.777216
 21
289.773919
 31
0.0
 11
5.788810
 21
289.744329
 31
0.0
 11
5.799673
 21
289.713086
 31
0.0
  0
LINE
  5
12c
100
AcDbEntity
  8
Layer_1
 62
1
100
AcDbLine
 10
5.328549
 20
289.690630
 30
0.0
 11
5.388376
 21
289.458809
 31
0.0
  0
SPLINE
  5
12d
100
AcDbEntity
  8
Layer_1
 62
1
100
AcDbSpline
 70
0
 71
3
 72
10
 73
6
 74
4
 40
0.000000
 40
0.000000
 40
0.000000
 40
0.000000
 40
0.087470
 40
0.189034
 40
0.279218
 40
0.279218
 40
0.279218
 40
0.279218
 10
3.892758
 20
289.705586
 30
0.0
 10
3.883062
 20
289.678088
 30
0.0
 10
3.862106
 20
289.618661
 30
0.0
 10
3.829210
 20
289.531590
 30
0.0
 10
3.806310
 20
289.471918
 30
0.0
 10
3.795539
 20
289.443853
 30
0.0
 11
3.892758
 21
289.705586
 31
0.0
 11
3.863387
 21
289.623195
 31
0.0
 11
3.827782
 21
289.528075
 31
0.0
 11
3.795539
 21
289.443853
 31
0.0
  0
LINE
  5
12e
100
AcDbEntity
  8
Layer_1
 62
1
100
AcDbLine
 10
1.320288
 20
289.623327
 30
0.0
 11
1.372208
 21
289.570968
 31
0.0
  0
LINE
  5
12f
100
AcDbEntity
  8
Layer_1
 62
1
100
AcDbLine
 10
1.372208
 20
289.570968
 30
0.0
 11
1.400172
 21
289.526119
 31
0.0
  0
LINE
  5
130
100
AcDbEntity
  8
Layer_1
 62
1
100
AcDbLine
 10
1.400172
 20
289.526119
 30
0.0
 11
1.402532
 21
289.369079
 31
0.0
  0
LINE
  5
131
100
AcDbEntity
  8
Layer_1
 62
1
100
AcDbLine
 10
1.402532
 20
289.369079
 30
0.0
 11
1.410032
 21
288.965261
 31
0.0
  0
LINE
  5
132
100
AcDbEntity
  8
Layer_1
 62
1
100
AcDbLine
 10
1.410032
 20
288.965261
 30
0.0
 11
1.410032
 21
287.477120
 31
0.0
  0
LINE
  5
133
100
AcDbEntity
  8
Layer_1
 62
1
100
AcDbLine
 10
1.410032
 20
287.477120
 30
0.0
 11
1.410032
 21
287.006000
 31
0.0
  0
LINE
  5
134
100
AcDbEntity
  8
Layer_1
 62
1
100
AcDbLine
 10
1.410032
 20
287.006000
 30
0.0
 11
1.407672
 21
286.878872
 31
0.0
  0
LINE
  5
135
100
AcDbEntity
  8
Layer_1
 62
1
100
AcDbLine
 10
1.407672
 20
286.878872
 30
0.0
 11
1.379708
 21
286.834022
 31
0.0
  0
LINE
  5
136
100
AcDbEntity
  8
Layer_1
 62
1
100
AcDbLine
 10
1.379708
 20
286.834022
 30
0.0
 11
1.327788
 21
286.781662
 31
0.0
  0
SPLINE
  5
137
100
AcDbEntity
  8
Layer_1
 62
1
100
AcDbSpline
 70
0
 71
3
 72
10
 73
6
 74
4
 40
0.000000
 40
0.000000
 40
0.000000
 40
0.000000
 40
0.076447
 40
0.167806
 40
0.254111
 40
0.254111
 40
0.254111
 40
0.254111
 10
4.670479
 20
289.630806
 30
0.0
 10
4.664973
 20
289.605913
 30
0.0
 10
4.652887
 20
289.551273
 30
0.0
 10
4.625124
 20
289.470969
 30
0.0
 10
4.615384
 20
289.412454
 30
0.0
 10
4.610652
 20
289.384028
 30
0.0
 11
4.670479
 21
289.630806
 31
0.0
 11
4.652665
 21
289.556463
 31
0.0
 11
4.627129
 21
289.468745
 31
0.0
 11
4.610652
 21
289.384028
 31
0.0
  0
LINE
  5
138
100
AcDbEntity
  8
Layer_1
 62
1
100
AcDbLine
 10
4.939710
 20
289.608385
 30
0.0
 11
4.939710
 21
289.570993
 31
0.0
  0
SPLINE
  5
139
100
AcDbEntity
  8
Layer_1
 62
1
100
AcDbSpline
 70
0
 71
3
 72
10
 73
6
 74
4
 40
0.000000
 40
0.000000
 40
0.000000
 40
0.000000
 40
0.023228
 40
0.045308
 40
0.073657
 40
0.073657
 40
0.073657
 40
0.073657
 10
4.259204
 20
289.623342
 30
0.0
 10
4.256141
 20
289.616231
 30
0.0
 10
4.250165
 20
289.602359
 30
0.0
 10
4.239581
 20
289.580200
 30
0.0
 10
4.232993
 20
289.564732
 30
0.0
 10
4.229290
 20
289.556037
 30
0.0
 11
4.259204
 21
289.623342
 31
0.0
 11
4.249873
 21
289.602071
 31
0.0
 11
4.240608
 21
289.582029
 31
0.0
 11
4.229290
 21
289.556037
 31
0.0
  0
SPLINE
  5
13a
100
AcDbEntity
  8
Layer_1
 62
1
100
AcDbSpline
 70
0
 71
3
 72
10
 73
6
 74
4
 40
0.000000
 40
0.000000
 40
0.000000
 40
0.000000
 40
0.050076
 40
0.110661
 40
0.170879
 40
0.170879
 40
0.170879
 40
0.170879
 10
8.476852
 20
289.271870
 30
0.0
 10
8.483971
 20
289.256767
 30
0.0
 10
8.499702
 20
289.223392
 30
0.0
 10
8.520484
 20
289.170331
 30
0.0
 10
8.536281
 20
289.133292
 30
0.0
 10
8.544155
 20
289.114829
 30
0.0
 11
8.476852
 21
289.271869
 31
0.0
 11
8.497743
 21
289.226359
 31
0.0
 11
8.520807
 21
289.170336
 31
0.0
 11
8.544155
 21
289.114829
 31
0.0
  0
SPLINE
  5
13b
100
AcDbEntity
  8
Layer_1
 62
1
100
AcDbSpline
 70
0
 71
3
 72
40
 73
36
 74
34
 40
0.000000
 40
0.000000
 40
0.000000
 40
0.000000
 40
0.087529
 40
0.183681
 40
0.279347
 40
0.317744
 40
0.361165
 40
0.398583
 40
0.423162
 40
0.444068
 40
0.459512
 40
0.499106
 40
0.550403
 40
0.602193
 40
0.622577
 40
0.642786
 40
0.663361
 40
0.694729
 40
0.725302
 40
0.756975
 40
0.828802
 40
0.901750
 40
0.975033
 40
1.025284
 40
1.074076
 40
1.123302
 40
1.203174
 40
1.266314
 40
1.334053
 40
1.377963
 40
1.420965
 40
1.458104
 40
1.483492
 40
1.504936
 40
1.528150
 40
1.528150
 40
1.528150
 40
1.528150
 10
6.891496
 20
288.546493
 30
0.0
 10
6.862599
 20
288.551327
 30
0.0
 10
6.801958
 20
288.561469
 30
0.0
 10
6.716681
 20
288.600488
 30
0.0
 10
6.647934
 20
288.634445
 30
0.0
 10
6.592151
 20
288.654454
 30
0.0
 10
6.555299
 20
288.668896
 30
0.0
 10
6.526206
 20
288.691641
 30
0.0
 10
6.517062
 20
288.718533
 30
0.0
 10
6.514537
 20
288.738650
 30
0.0
 10
6.512648
 20
288.763905
 30
0.0
 10
6.511030
 20
288.799358
 30
0.0
 10
6.514832
 20
288.846864
 30
0.0
 10
6.520251
 20
288.887669
 30
0.0
 10
6.525676
 20
288.917986
 30
0.0
 10
6.529622
 20
288.937993
 30
0.0
 10
6.535386
 20
288.961355
 30
0.0
 10
6.544681
 20
288.987350
 30
0.0
 10
6.559635
 20
289.014867
 30
0.0
 10
6.585846
 20
289.051150
 30
0.0
 10
6.626471
 20
289.094084
 30
0.0
 10
6.684239
 20
289.138676
 30
0.0
 10
6.742017
 20
289.170068
 30
0.0
 10
6.795146
 20
289.191946
 30
0.0
 10
6.842540
 20
289.206698
 30
0.0
 10
6.901692
 20
289.213241
 30
0.0
 10
6.965525
 20
289.216571
 30
0.0
 10
7.036101
 20
289.219766
 30
0.0
 10
7.093405
 20
289.206789
 30
0.0
 10
7.142836
 20
289.192404
 30
0.0
 10
7.182925
 20
289.182195
 30
0.0
 10
7.216835
 20
289.172821
 30
0.0
 10
7.243507
 20
289.164332
 30
0.0
 10
7.265848
 20
289.157521
 30
0.0
 10
7.280314
 20
289.153999
 30
0.0
 10
7.287834
 20
289.152168
 30
0.0
 11
6.891496
 21
288.546493
 31
0.0
 11
6.805842
 21
288.564516
 31
0.0
 11
6.716853
 21
288.600933
 31
0.0
 11
6.629763
 21
288.640519
 31
0.0
 11
6.593824
 21
288.654039
 31
0.0
 11
6.554216
 21
288.671830
 31
0.0
 11
6.526405
 21
288.696864
 31
0.0
 11
6.517572
 21
288.719802
 31
0.0
 11
6.514510
 21
288.740482
 31
0.0
 11
6.513291
 21
288.755877
 31
0.0
 11
6.511930
 21
288.795448
 31
0.0
 11
6.515259
 21
288.846637
 31
0.0
 11
6.522181
 21
288.897962
 31
0.0
 11
6.525746
 21
288.918032
 31
0.0
 11
6.529753
 21
288.937840
 31
0.0
 11
6.534791
 21
288.957789
 31
0.0
 11
6.545519
 21
288.987265
 31
0.0
 11
6.559996
 21
289.014193
 31
0.0
 11
6.578333
 21
289.040019
 31
0.0
 11
6.627449
 21
289.092427
 31
0.0
 11
6.685211
 21
289.136980
 31
0.0
 11
6.749409
 21
289.172322
 31
0.0
 11
6.795885
 21
289.191431
 31
0.0
 11
6.842714
 21
289.205132
 31
0.0
 11
6.891493
 21
289.211749
 31
0.0
 11
6.971207
 21
289.216764
 31
0.0
 11
7.034347
 21
289.216973
 31
0.0
 11
7.100880
 21
289.204249
 31
0.0
 11
7.143205
 21
289.192558
 31
0.0
 11
7.184777
 21
289.181562
 31
0.0
 11
7.220529
 21
289.171507
 31
0.0
 11
7.244778
 21
289.163986
 31
0.0
 11
7.265335
 21
289.157882
 31
0.0
 11
7.287834
 21
289.152168
 31
0.0
  0
LINE
  5
13c
100
AcDbEntity
  8
Layer_1
 62
1
100
AcDbLine
 10
5.612741
 20
289.107286
 30
0.0
 11
5.523001
 21
289.039982
 31
0.0
  0
SPLINE
  5
13d
100
AcDbEntity
  8
Layer_1
 62
1
100
AcDbSpline
 70
0
 71
3
 72
61
 73
57
 74
55
 40
0.000000
 40
0.000000
 40
0.000000
 40
0.000000
 40
0.027419
 40
0.068587
 40
0.132146
 40
0.151932
 40
0.170473
 40
0.189926
 40
0.219325
 40
0.253587
 40
0.280775
 40
0.332888
 40
0.386023
 40
0.441219
 40
0.520481
 40
0.579149
 40
0.630678
 40
0.676378
 40
0.725630
 40
0.764485
 40
0.806216
 40
0.845029
 40
0.891096
 40
0.917283
 40
0.936806
 40
0.953368
 40
0.986037
 40
1.032981
 40
1.073224
 40
1.136077
 40
1.209625
 40
1.274264
 40
1.302604
 40
1.331665
 40
1.360258
 40
1.394802
 40
1.425354
 40
1.459576
 40
1.497226
 40
1.540805
 40
1.580455
 40
1.687967
 40
1.803939
 40
1.908670
 40
1.948491
 40
1.998086
 40
2.029264
 40
2.042084
 40
2.059651
 40
2.081897
 40
2.105576
 40
2.128945
 40
2.151607
 40
2.202364
 40
2.261005
 40
2.316483
 40
2.316483
 40
2.316483
 40
2.316483
 10
4.872410
 20
288.860521
 30
0.0
 10
4.863969
 20
288.864037
 30
0.0
 10
4.842854
 20
288.872832
 30
0.0
 10
4.799868
 20
288.883655
 30
0.0
 10
4.764680
 20
288.907436
 30
0.0
 10
4.739806
 20
288.930765
 30
0.0
 10
4.729527
 20
288.947238
 30
0.0
 10
4.720722
 20
288.968082
 30
0.0
 10
4.718139
 20
288.996068
 30
0.0
 10
4.720049
 20
289.026265
 30
0.0
 10
4.728143
 20
289.063711
 30
0.0
 10
4.756851
 20
289.099661
 30
0.0
 10
4.802878
 20
289.128688
 30
0.0
 10
4.865349
 20
289.140356
 30
0.0
 10
4.930604
 20
289.135297
 30
0.0
 10
4.989403
 20
289.106030
 30
0.0
 10
5.016668
 20
289.057631
 30
0.0
 10
5.013281
 20
289.007416
 30
0.0
 10
4.998908
 20
288.965260
 30
0.0
 10
4.980386
 20
288.925527
 30
0.0
 10
4.949188
 20
288.898690
 30
0.0
 10
4.909628
 20
288.883367
 30
0.0
 10
4.881343
 20
288.857763
 30
0.0
 10
4.865828
 20
288.830907
 30
0.0
 10
4.861234
 20
288.810518
 30
0.0
 10
4.858006
 20
288.787815
 30
0.0
 10
4.847337
 20
288.757406
 30
0.0
 10
4.834801
 20
288.719550
 30
0.0
 10
4.814547
 20
288.673587
 30
0.0
 10
4.780308
 20
288.625395
 30
0.0
 10
4.742108
 20
288.570427
 30
0.0
 10
4.708711
 20
288.526048
 30
0.0
 10
4.683767
 20
288.493924
 30
0.0
 10
4.664415
 20
288.472650
 30
0.0
 10
4.639716
 20
288.454018
 30
0.0
 10
4.609375
 20
288.443193
 30
0.0
 10
4.575955
 20
288.445687
 30
0.0
 10
4.542315
 20
288.450970
 30
0.0
 10
4.503950
 20
288.454504
 30
0.0
 10
4.464003
 20
288.459805
 30
0.0
 10
4.401412
 20
288.471120
 30
0.0
 10
4.316226
 20
288.492172
 30
0.0
 10
4.209298
 20
288.515332
 30
0.0
 10
4.123695
 20
288.530313
 30
0.0
 10
4.059397
 20
288.537795
 30
0.0
 10
4.019662
 20
288.543735
 30
0.0
 10
3.988437
 20
288.546016
 30
0.0
 10
3.968478
 20
288.550880
 30
0.0
 10
3.951293
 20
288.554460
 30
0.0
 10
3.929689
 20
288.553947
 30
0.0
 10
3.908219
 20
288.542595
 30
0.0
 10
3.895593
 20
288.522446
 30
0.0
 10
3.882843
 20
288.492924
 30
0.0
 10
3.862233
 20
288.453906
 30
0.0
 10
3.834675
 20
288.406354
 30
0.0
 10
3.813389
 20
288.374810
 30
0.0
 10
3.803041
 20
288.359476
 30
0.0
 11
4.872410
 21
288.860521
 31
0.0
 11
4.846896
 21
288.870561
 31
0.0
 11
4.807842
 21
288.883587
 31
0.0
 11
4.754174
 21
288.917637
 31
0.0
 11
4.740179
 21
288.931623
 31
0.0
 11
4.730117
 21
288.947197
 31
0.0
 11
4.722793
 21
288.965218
 31
0.0
 11
4.718998
 21
288.994372
 31
0.0
 11
4.721158
 21
289.028566
 31
0.0
 11
4.727723
 21
289.054948
 31
0.0
 11
4.758439
 21
289.097048
 31
0.0
 11
4.803489
 21
289.125221
 31
0.0
 11
4.857446
 21
289.136856
 31
0.0
 11
4.936308
 21
289.128915
 31
0.0
 11
4.987387
 21
289.100056
 31
0.0
 11
5.012280
 21
289.054937
 31
0.0
 11
5.011509
 21
289.009244
 31
0.0
 11
4.996821
 21
288.962233
 31
0.0
 11
4.978574
 21
288.927929
 31
0.0
 11
4.947320
 21
288.900278
 31
0.0
 11
4.912921
 21
288.882302
 31
0.0
 11
4.878795
 21
288.851356
 31
0.0
 11
4.866131
 21
288.828434
 31
0.0
 11
4.861299
 21
288.809519
 31
0.0
 11
4.858406
 21
288.793211
 31
0.0
 11
4.849006
 21
288.761924
 31
0.0
 11
4.833332
 21
288.717674
 31
0.0
 11
4.816675
 21
288.681040
 31
0.0
 11
4.782491
 21
288.628296
 31
0.0
 11
4.740002
 21
288.568262
 31
0.0
 11
4.701259
 21
288.516522
 31
0.0
 11
4.683626
 21
288.494336
 31
0.0
 11
4.663682
 21
288.473198
 31
0.0
 11
4.640586
 21
288.456342
 31
0.0
 11
4.607851
 21
288.445310
 31
0.0
 11
4.577306
 21
288.445976
 31
0.0
 11
4.543378
 21
288.450451
 31
0.0
 11
4.505952
 21
288.454554
 31
0.0
 11
4.462758
 21
288.460330
 31
0.0
 11
4.423728
 21
288.467315
 31
0.0
 11
4.318858
 21
288.491007
 31
0.0
 11
4.205466
 21
288.515329
 31
0.0
 11
4.102170
 21
288.532606
 31
0.0
 11
4.062664
 21
288.537608
 31
0.0
 11
4.013468
 21
288.543885
 31
0.0
 11
3.982521
 21
288.547670
 31
0.0
 11
3.970004
 21
288.550446
 31
0.0
 11
3.952714
 21
288.553552
 31
0.0
 11
3.930505
 21
288.552280
 31
0.0
 11
3.909657
 21
288.541052
 31
0.0
 11
3.896051
 21
288.522053
 31
0.0
 11
3.886374
 21
288.501560
 31
0.0
 11
3.863202
 21
288.456401
 31
0.0
 11
3.833562
 21
288.405803
 31
0.0
 11
3.803041
 21
288.359476
 31
0.0
  0
SPLINE
  5
13e
100
AcDbEntity
  8
Layer_1
 62
1
100
AcDbSpline
 70
0
 71
3
 72
13
 73
9
 74
7
 40
0.000000
 40
0.000000
 40
0.000000
 40
0.000000
 40
0.072406
 40
0.150115
 40
0.239238
 40
0.296686
 40
0.355671
 40
0.413288
 40
0.413288
 40
0.413288
 40
0.413288
 10
8.304855
 20
289.107286
 30
0.0
 10
8.316690
 20
289.086202
 30
0.0
 10
8.341226
 20
289.042488
 30
0.0
 10
8.367082
 20
288.966664
 30
0.0
 10
8.383387
 20
288.893548
 30
0.0
 10
8.391391
 20
288.825480
 30
0.0
 10
8.396289
 20
288.767570
 30
0.0
 10
8.405166
 20
288.729673
 30
0.0
 10
8.409552
 20
288.710947
 30
0.0
 11
8.304855
 21
289.107286
 31
0.0
 11
8.338426
 21
289.043133
 31
0.0
 11
8.364568
 21
288.969953
 31
0.0
 11
8.383860
 21
288.882943
 31
0.0
 11
8.391025
 21
288.825944
 31
0.0
 11
8.397759
 21
288.767345
 31
0.0
 11
8.409552
 21
288.710947
 31
0.0
  0
SPLINE
  5
13f
100
AcDbEntity
  8
Layer_1
 62
1
100
AcDbSpline
 70
0
 71
3
 72
49
 73
45
 74
43
 40
0.000000
 40
0.000000
 40
0.000000
 40
0.000000
 40
0.038180
 40
0.069041
 40
0.113485
 40
0.162476
 40
0.226889
 40
0.284375
 40
0.333935
 40
0.386079
 40
0.424298
 40
0.452583
 40
0.483849
 40
0.530269
 40
0.558586
 40
0.576593
 40
0.590555
 40
0.616882
 40
0.651314
 40
0.692433
 40
0.777863
 40
0.872453
 40
0.955262
 40
0.997396
 40
1.049978
 40
1.089334
 40
1.107737
 40
1.121730
 40
1.134674
 40
1.154580
 40
1.178826
 40
1.203606
 40
1.265421
 40
1.327676
 40
1.389583
 40
1.539076
 40
1.691181
 40
1.836157
 40
1.874960
 40
1.916361
 40
1.950953
 40
1.982115
 40
2.001348
 40
2.016107
 40
2.016107
 40
2.016107
 40
2.016107
 10
5.029447
 20
289.047456
 30
0.0
 10
5.041767
 20
289.051010
 30
0.0
 10
5.064045
 20
289.057438
 30
0.0
 10
5.102231
 20
289.055678
 30
0.0
 10
5.143036
 20
289.049102
 30
0.0
 10
5.195418
 20
289.042644
 30
0.0
 10
5.250641
 20
289.030689
 30
0.0
 10
5.306671
 20
289.011231
 30
0.0
 10
5.339113
 20
288.966801
 30
0.0
 10
5.357867
 20
288.924179
 30
0.0
 10
5.369044
 20
288.886160
 30
0.0
 10
5.377841
 20
288.854789
 30
0.0
 10
5.383030
 20
288.819615
 30
0.0
 10
5.379472
 20
288.784204
 30
0.0
 10
5.375757
 20
288.753586
 30
0.0
 10
5.375498
 20
288.733338
 30
0.0
 10
5.380055
 20
288.714333
 30
0.0
 10
5.389378
 20
288.691189
 30
0.0
 10
5.404674
 20
288.660794
 30
0.0
 10
5.434790
 20
288.616266
 30
0.0
 10
5.480022
 20
288.558078
 30
0.0
 10
5.533177
 20
288.488390
 30
0.0
 10
5.577197
 20
288.430052
 30
0.0
 10
5.613564
 20
288.383114
 30
0.0
 10
5.643078
 20
288.350368
 30
0.0
 10
5.672435
 20
288.325161
 30
0.0
 10
5.696915
 20
288.322869
 30
0.0
 10
5.711892
 20
288.324935
 30
0.0
 10
5.727122
 20
288.328435
 30
0.0
 10
5.745958
 20
288.331234
 30
0.0
 10
5.768437
 20
288.336053
 30
0.0
 10
5.804206
 20
288.345376
 30
0.0
 10
5.850856
 20
288.362578
 30
0.0
 10
5.907667
 20
288.387367
 30
0.0
 10
5.990775
 20
288.424980
 30
0.0
 10
6.101371
 20
288.474473
 30
0.0
 10
6.236215
 20
288.537577
 30
0.0
 10
6.335998
 20
288.588393
 30
0.0
 10
6.403804
 20
288.620589
 30
0.0
 10
6.438973
 20
288.635728
 30
0.0
 10
6.471730
 20
288.649819
 30
0.0
 10
6.497240
 20
288.662601
 30
0.0
 10
6.513858
 20
288.676772
 30
0.0
 10
6.521652
 20
288.684993
 30
0.0
 10
6.525036
 20
288.688563
 30
0.0
 11
5.029447
 21
289.047456
 31
0.0
 11
5.066699
 21
289.055826
 31
0.0
 11
5.097556
 21
289.055415
 31
0.0
 11
5.141618
 21
289.049596
 31
0.0
 11
5.190116
 21
289.042660
 31
0.0
 11
5.253003
 21
289.028723
 31
0.0
 11
5.305464
 21
289.005219
 31
0.0
 11
5.336902
 21
288.966906
 31
0.0
 11
5.358535
 21
288.919462
 31
0.0
 11
5.369887
 21
288.882967
 31
0.0
 11
5.377022
 21
288.855597
 31
0.0
 11
5.381250
 21
288.824618
 31
0.0
 11
5.378677
 21
288.778270
 31
0.0
 11
5.375963
 21
288.750083
 31
0.0
 11
5.376317
 21
288.732080
 31
0.0
 11
5.379314
 21
288.718443
 31
0.0
 11
5.388656
 21
288.693829
 31
0.0
 11
5.404250
 21
288.663130
 31
0.0
 11
5.426734
 21
288.628703
 31
0.0
 11
5.478055
 21
288.560407
 31
0.0
 11
5.535472
 21
288.485237
 31
0.0
 11
5.585591
 21
288.419316
 31
0.0
 11
5.611710
 21
288.386255
 31
0.0
 11
5.647370
 21
288.347613
 31
0.0
 11
5.680024
 21
288.325644
 31
0.0
 11
5.698306
 21
288.323538
 31
0.0
 11
5.712201
 21
288.325195
 31
0.0
 11
5.724883
 21
288.327784
 31
0.0
 11
5.744492
 21
288.331209
 31
0.0
 11
5.768222
 21
288.336186
 31
0.0
 11
5.792188
 21
288.342484
 31
0.0
 11
5.850474
 21
288.363073
 31
0.0
 11
5.907717
 21
288.387543
 31
0.0
 11
5.964185
 21
288.412918
 31
0.0
 11
6.100406
 21
288.474499
 31
0.0
 11
6.237988
 21
288.539362
 31
0.0
 11
6.368002
 21
288.603505
 31
0.0
 11
6.403121
 21
288.620009
 31
0.0
 11
6.441044
 21
288.636617
 31
0.0
 11
6.472677
 21
288.650614
 31
0.0
 11
6.499952
 21
288.665688
 31
0.0
 11
6.514719
 21
288.678010
 31
0.0
 11
6.525036
 21
288.688563
 31
0.0
  0
LINE
  5
140
100
AcDbEntity
  8
Layer_1
 62
1
100
AcDbLine
 10
4.393775
 20
289.010119
 30
0.0
 11
4.416210
 21
289.010119
 31
0.0
  0
SPLINE
  5
141
100
AcDbEntity
  8
Layer_1
 62
1
100
AcDbSpline
 70
0
 71
3
 72
34
 73
30
 74
28
 40
0.000000
 40
0.000000
 40
0.000000
 40
0.000000
 40
0.039128
 40
0.085071
 40
0.153682
 40
0.218251
 40
0.287179
 40
0.355956
 40
0.404572
 40
0.452533
 40
0.502209
 40
0.526003
 40
0.546684
 40
0.569705
 40
0.623471
 40
0.680930
 40
0.735782
 40
0.787421
 40
0.842039
 40
0.894848
 40
0.968786
 40
1.035235
 40
1.105226
 40
1.138098
 40
1.172891
 40
1.203926
 40
1.242117
 40
1.270773
 40
1.301161
 40
1.301161
 40
1.301161
 40
1.301161
 10
3.002851
 20
288.770825
 30
0.0
 10
3.012616
 20
288.779508
 30
0.0
 10
3.033845
 20
288.798387
 30
0.0
 10
3.065769
 20
288.838613
 30
0.0
 10
3.105777
 20
288.883020
 30
0.0
 10
3.157538
 20
288.926621
 30
0.0
 10
3.215936
 20
288.960812
 30
0.0
 10
3.272883
 20
288.985919
 30
0.0
 10
3.325466
 20
289.002689
 30
0.0
 10
3.373039
 20
289.013554
 30
0.0
 10
3.413042
 20
289.019872
 30
0.0
 10
3.444223
 20
289.023522
 30
0.0
 10
3.466695
 20
289.024817
 30
0.0
 10
3.499177
 20
289.025506
 30
0.0
 10
3.543932
 20
289.026163
 30
0.0
 10
3.599273
 20
289.023097
 30
0.0
 10
3.653202
 20
289.011602
 30
0.0
 10
3.701581
 20
288.987541
 30
0.0
 10
3.746387
 20
288.959106
 30
0.0
 10
3.793922
 20
288.921637
 30
0.0
 10
3.841676
 20
288.878300
 30
0.0
 10
3.884892
 20
288.822037
 30
0.0
 10
3.903875
 20
288.768040
 30
0.0
 10
3.913250
 20
288.723169
 30
0.0
 10
3.919377
 20
288.690819
 30
0.0
 10
3.923038
 20
288.656296
 30
0.0
 10
3.923526
 20
288.623642
 30
0.0
 10
3.923006
 20
288.591238
 30
0.0
 10
3.922776
 20
288.571557
 30
0.0
 10
3.922658
 20
288.561428
 30
0.0
 11
3.002851
 21
288.770825
 31
0.0
 11
3.031392
 21
288.797591
 31
0.0
 11
3.061348
 21
288.832424
 31
0.0
 11
3.107838
 21
288.882885
 31
0.0
 11
3.157440
 21
288.924222
 31
0.0
 11
3.216564
 21
288.959655
 31
0.0
 11
3.279543
 21
288.987292
 31
0.0
 11
3.325852
 21
289.002091
 31
0.0
 11
3.372579
 21
289.012902
 31
0.0
 11
3.421627
 21
289.020773
 31
0.0
 11
3.445276
 21
289.023393
 31
0.0
 11
3.465918
 21
289.024653
 31
0.0
 11
3.488932
 21
289.025273
 31
0.0
 11
3.542697
 21
289.025538
 31
0.0
 11
3.600016
 21
289.021530
 31
0.0
 11
3.653449
 21
289.009138
 31
0.0
 11
3.700219
 21
288.987248
 31
0.0
 11
3.746353
 21
288.958010
 31
0.0
 11
3.788056
 21
288.925612
 31
0.0
 11
3.841901
 21
288.874941
 31
0.0
 11
3.881145
 21
288.821319
 31
0.0
 11
3.905941
 21
288.755866
 31
0.0
 11
3.913023
 21
288.723767
 31
0.0
 11
3.919116
 21
288.689512
 31
0.0
 11
3.922366
 21
288.658647
 31
0.0
 11
3.923348
 21
288.620469
 31
0.0
 11
3.923036
 21
288.591814
 31
0.0
 11
3.922658
 21
288.561428
 31
0.0
  0
SPLINE
  5
142
100
AcDbEntity
  8
Layer_1
 62
1
100
AcDbSpline
 70
0
 71
3
 72
10
 73
6
 74
4
 40
0.000000
 40
0.000000
 40
0.000000
 40
0.000000
 40
0.041797
 40
0.082090
 40
0.130943
 40
0.130943
 40
0.130943
 40
0.130943
 10
8.132826
 20
288.942814
 30
0.0
 10
8.140154
 20
288.930916
 30
0.0
 10
8.154546
 20
288.907550
 30
0.0
 10
8.169311
 20
288.866301
 30
0.0
 10
8.179559
 20
288.838435
 30
0.0
 10
8.185175
 20
288.823164
 30
0.0
 11
8.132826
 21
288.942814
 31
0.0
 11
8.153478
 21
288.906476
 31
0.0
 11
8.168386
 21
288.869041
 31
0.0
 11
8.185175
 21
288.823164
 31
0.0
  0
SPLINE
  5
143
100
AcDbEntity
  8
Layer_1
 62
1
100
AcDbSpline
 70
0
 71
3
 72
10
 73
6
 74
4
 40
0.000000
 40
0.000000
 40
0.000000
 40
0.000000
 40
0.041100
 40
0.076620
 40
0.113831
 40
0.113831
 40
0.113831
 40
0.113831
 10
5.627663
 20
288.905426
 30
0.0
 10
5.641411
 20
288.904664
 30
0.0
 10
5.667042
 20
288.903244
 30
0.0
 10
5.704362
 20
288.911364
 30
0.0
 10
5.727829
 20
288.917330
 30
0.0
 10
5.739835
 20
288.920383
 30
0.0
 11
5.627663
 21
288.905426
 31
0.0
 11
5.668762
 21
288.905122
 31
0.0
 11
5.703717
 21
288.911429
 31
0.0
 11
5.739835
 21
288.920383
 31
0.0
  0
SPLINE
  5
144
100
AcDbEntity
  8
Layer_1
 62
1
100
AcDbSpline
 70
0
 71
3
 72
10
 73
6
 74
4
 40
0.000000
 40
0.000000
 40
0.000000
 40
0.000000
 40
0.026569
 40
0.058502
 40
0.100417
 40
0.100417
 40
0.100417
 40
0.100417
 10
4.371343
 20
288.770821
 30
0.0
 10
4.378999
 20
288.775273
 30
0.0
 10
4.395856
 20
288.785078
 30
0.0
 10
4.425623
 20
288.800444
 30
0.0
 10
4.448244
 20
288.810170
 30
0.0
 10
4.461083
 20
288.815691
 30
0.0
 11
4.371343
 21
288.770821
 31
0.0
 11
4.394411
 21
288.784003
 31
0.0
 11
4.422801
 21
288.798622
 31
0.0
 11
4.461083
 21
288.815691
 31
0.0
  0
LINE
  5
145
100
AcDbEntity
  8
Layer_1
 62
1
100
AcDbLine
 10
5.687524
 20
288.726013
 30
0.0
 11
5.732394
 21
288.726013
 31
0.0
  0
SPLINE
  5
146
100
AcDbEntity
  8
Layer_1
 62
1
100
AcDbSpline
 70
0
 71
3
 72
76
 73
72
 74
70
 40
0.000000
 40
0.000000
 40
0.000000
 40
0.000000
 40
0.030860
 40
0.049679
 40
0.069613
 40
0.091309
 40
0.120210
 40
0.148820
 40
0.270358
 40
0.405887
 40
0.527368
 40
0.568884
 40
0.611556
 40
0.652743
 40
0.677116
 40
0.695314
 40
0.713516
 40
0.732468
 40
0.754714
 40
0.775751
 40
0.873162
 40
0.972337
 40
1.069054
 40
1.239925
 40
1.411888
 40
1.581963
 40
1.642772
 40
1.707531
 40
1.766825
 40
1.816281
 40
1.864032
 40
1.917358
 40
1.963841
 40
1.997047
 40
2.035983
 40
2.094825
 40
2.167091
 40
2.231013
 40
2.255207
 40
2.276044
 40
2.298680
 40
2.377266
 40
2.458280
 40
2.539266
 40
2.599955
 40
2.662611
 40
2.712634
 40
2.787647
 40
2.870506
 40
2.953182
 40
2.999038
 40
3.048093
 40
3.092881
 40
3.136825
 40
3.171124
 40
3.195731
 40
3.204255
 40
3.214734
 40
3.232250
 40
3.249895
 40
3.266010
 40
3.274365
 40
3.296015
 40
3.330724
 40
3.393633
 40
3.424936
 40
3.457649
 40
3.482625
 40
3.514594
 40
3.541351
 40
3.580578
 40
3.580578
 40
3.580578
 40
3.580578
 10
3.743185
 20
286.490001
 30
0.0
 10
3.740865
 20
286.500026
 30
0.0
 10
3.737130
 20
286.516164
 30
0.0
 10
3.730629
 20
286.538443
 30
0.0
 10
3.725218
 20
286.557855
 30
0.0
 10
3.719555
 20
286.580667
 30
0.0
 10
3.712115
 20
286.606056
 30
0.0
 10
3.687337
 20
286.660527
 30
0.0
 10
3.632282
 20
286.738806
 30
0.0
 10
3.561078
 20
286.842739
 30
0.0
 10
3.504920
 20
286.924990
 30
0.0
 10
3.463666
 20
286.979725
 30
0.0
 10
3.438089
 20
287.012842
 30
0.0
 10
3.421313
 20
287.045117
 30
0.0
 10
3.414275
 20
287.072482
 30
0.0
 10
3.415169
 20
287.092924
 30
0.0
 10
3.419230
 20
287.110937
 30
0.0
 10
3.423443
 20
287.130281
 30
0.0
 10
3.428891
 20
287.150315
 30
0.0
 10
3.444233
 20
287.194671
 30
0.0
 10
3.478261
 20
287.259186
 30
0.0
 10
3.529819
 20
287.342151
 30
0.0
 10
3.595160
 20
287.445515
 30
0.0
 10
3.670089
 20
287.571432
 30
0.0
 10
3.761896
 20
287.715672
 30
0.0
 10
3.834419
 20
287.828711
 30
0.0
 10
3.890685
 20
287.909634
 30
0.0
 10
3.927265
 20
287.959223
 30
0.0
 10
3.962201
 20
288.005334
 30
0.0
 10
3.992826
 20
288.047516
 30
0.0
 10
4.022477
 20
288.088181
 30
0.0
 10
4.053145
 20
288.125950
 30
0.0
 10
4.084925
 20
288.159415
 30
0.0
 10
4.125093
 20
288.167420
 30
0.0
 10
4.168569
 20
288.164613
 30
0.0
 10
4.225228
 20
288.161605
 30
0.0
 10
4.289799
 20
288.153938
 30
0.0
 10
4.343158
 20
288.150305
 30
0.0
 10
4.379493
 20
288.149515
 30
0.0
 10
4.401906
 20
288.146808
 30
0.0
 10
4.442173
 20
288.141024
 30
0.0
 10
4.502366
 20
288.132905
 30
0.0
 10
4.582030
 20
288.123143
 30
0.0
 10
4.656312
 20
288.121231
 30
0.0
 10
4.724178
 20
288.115954
 30
0.0
 10
4.781757
 20
288.108978
 30
0.0
 10
4.845124
 20
288.128249
 30
0.0
 10
4.881370
 20
288.192345
 30
0.0
 10
4.916445
 20
288.262871
 30
0.0
 10
4.947197
 20
288.326702
 30
0.0
 10
4.976330
 20
288.378191
 30
0.0
 10
4.999155
 20
288.418781
 30
0.0
 10
5.024329
 20
288.457321
 30
0.0
 10
5.054655
 20
288.486028
 30
0.0
 10
5.085708
 20
288.501006
 30
0.0
 10
5.106411
 20
288.509820
 30
0.0
 10
5.120310
 20
288.514061
 30
0.0
 10
5.131569
 20
288.518955
 30
0.0
 10
5.142796
 20
288.529784
 30
0.0
 10
5.151424
 20
288.544762
 30
0.0
 10
5.155180
 20
288.558337
 30
0.0
 10
5.158816
 20
288.573334
 30
0.0
 10
5.156871
 20
288.595122
 30
0.0
 10
5.163087
 20
288.634673
 30
0.0
 10
5.183062
 20
288.674473
 30
0.0
 10
5.214717
 20
288.703424
 30
0.0
 10
5.242097
 20
288.715651
 30
0.0
 10
5.270834
 20
288.724225
 30
0.0
 10
5.298839
 20
288.726038
 30
0.0
 10
5.331541
 20
288.726123
 30
0.0
 10
5.353131
 20
288.730757
 30
0.0
 10
5.365965
 20
288.733513
 30
0.0
 11
3.743185
 21
286.490001
 31
0.0
 11
3.735876
 21
286.519983
 31
0.0
 11
3.730768
 21
286.538096
 31
0.0
 11
3.725464
 21
286.557311
 31
0.0
 11
3.720006
 21
286.578310
 31
0.0
 11
3.711442
 21
286.605912
 31
0.0
 11
3.699901
 21
286.632091
 31
0.0
 11
3.635244
 21
286.735003
 31
0.0
 11
3.558434
 21
286.846665
 31
0.0
 11
3.488749
 21
286.946172
 31
0.0
 11
3.463828
 21
286.979377
 31
0.0
 11
3.438850
 21
287.013974
 31
0.0
 11
3.420544
 21
287.050869
 31
0.0
 11
3.415134
 21
287.074634
 31
0.0
 11
3.415703
 21
287.092823
 31
0.0
 11
3.419154
 21
287.110696
 31
0.0
 11
3.423354
 21
287.129176
 31
0.0
 11
3.429243
 21
287.150629
 31
0.0
 11
3.436082
 21
287.170523
 31
0.0
 11
3.478923
 21
287.258007
 31
0.0
 11
3.530370
 21
287.342795
 31
0.0
 11
3.581680
 21
287.424779
 31
0.0
 11
3.670629
 21
287.570672
 31
0.0
 11
3.762323
 21
287.716149
 31
0.0
 11
3.855379
 21
287.858509
 31
0.0
 11
3.890156
 21
287.908392
 31
0.0
 11
3.928464
 21
287.960605
 31
0.0
 11
3.963998
 21
288.008070
 31
0.0
 11
3.993192
 21
288.047991
 31
0.0
 11
4.021624
 21
288.086355
 31
0.0
 11
4.055453
 21
288.127578
 31
0.0
 11
4.090800
 21
288.157764
 31
0.0
 11
4.123050
 21
288.165675
 31
0.0
 11
4.161983
 21
288.165098
 31
0.0
 11
4.220699
 21
288.161271
 31
0.0
 11
4.292623
 21
288.154249
 31
0.0
 11
4.356412
 21
288.150120
 31
0.0
 11
4.380583
 21
288.149065
 31
0.0
 11
4.401297
 21
288.146806
 31
0.0
 11
4.423717
 21
288.143689
 31
0.0
 11
4.501595
 21
288.133167
 31
0.0
 11
4.582138
 21
288.124438
 31
0.0
 11
4.663017
 21
288.120258
 31
0.0
 11
4.723524
 21
288.115574
 31
0.0
 11
4.786144
 21
288.113449
 31
0.0
 11
4.833420
 21
288.129798
 31
0.0
 11
4.878985
 21
288.189386
 31
0.0
 11
4.916458
 21
288.263288
 31
0.0
 11
4.953541
 21
288.337181
 31
0.0
 11
4.975791
 21
288.377278
 31
0.0
 11
5.000347
 21
288.419743
 31
0.0
 11
5.025925
 21
288.456509
 31
0.0
 11
5.058401
 21
288.486114
 31
0.0
 11
5.088736
 21
288.502119
 31
0.0
 11
5.111562
 21
288.511311
 31
0.0
 11
5.119647
 21
288.514011
 31
0.0
 11
5.129155
 21
288.518417
 31
0.0
 11
5.142086
 21
288.530232
 31
0.0
 11
5.150953
 21
288.545488
 31
0.0
 11
5.155762
 21
288.560868
 31
0.0
 11
5.157514
 21
288.569038
 31
0.0
 11
5.157947
 21
288.590683
 31
0.0
 11
5.162886
 21
288.625038
 31
0.0
 11
5.191927
 21
288.680844
 31
0.0
 11
5.215258
 21
288.701714
 31
0.0
 11
5.244716
 21
288.715939
 31
0.0
 11
5.268746
 21
288.722746
 31
0.0
 11
5.300570
 21
288.725789
 31
0.0
 11
5.327306
 21
288.726865
 31
0.0
 11
5.365965
 21
288.733513
 31
0.0
  0
SPLINE
  5
147
100
AcDbEntity
  8
Layer_1
 62
1
100
AcDbSpline
 70
0
 71
3
 72
70
 73
66
 74
64
 40
0.000000
 40
0.000000
 40
0.000000
 40
0.000000
 40
0.017853
 40
0.039470
 40
0.070537
 40
0.137728
 40
0.224866
 40
0.299811
 40
0.331962
 40
0.362103
 40
0.393471
 40
0.492740
 40
0.597019
 40
0.696142
 40
0.745724
 40
0.789868
 40
0.829297
 40
0.867540
 40
0.902947
 40
0.942595
 40
0.984816
 40
1.029137
 40
1.072394
 40
1.241308
 40
1.411355
 40
1.583223
 40
1.645728
 40
1.723530
 40
1.779358
 40
1.803108
 40
1.831397
 40
1.862373
 40
1.882307
 40
1.900820
 40
1.921884
 40
1.975287
 40
2.040610
 40
2.097317
 40
2.297389
 40
2.499239
 40
2.699502
 40
2.788602
 40
2.881064
 40
2.967530
 40
2.986323
 40
3.002505
 40
3.020279
 40
3.055187
 40
3.088628
 40
3.122117
 40
3.197927
 40
3.286058
 40
3.365516
 40
3.393275
 40
3.422643
 40
3.449226
 40
3.467555
 40
3.485966
 40
3.506279
 40
3.550651
 40
3.605216
 40
3.656445
 40
3.687233
 40
3.717233
 40
3.762058
 40
3.762058
 40
3.762058
 40
3.762058
 10
5.149099
 20
288.524100
 30
0.0
 10
5.153749
 20
288.520388
 30
0.0
 10
5.164030
 20
288.512183
 30
0.0
 10
5.180869
 20
288.495577
 30
0.0
 10
5.202090
 20
288.461451
 30
0.0
 10
5.231048
 20
288.406968
 30
0.0
 10
5.267807
 20
288.339914
 30
0.0
 10
5.297616
 20
288.282449
 30
0.0
 10
5.318995
 20
288.242001
 30
0.0
 10
5.334512
 20
288.214905
 30
0.0
 10
5.359771
 20
288.167635
 30
0.0
 10
5.395889
 20
288.098147
 30
0.0
 10
5.445971
 20
288.010549
 30
0.0
 10
5.490600
 20
287.938912
 30
0.0
 10
5.528778
 20
287.887130
 30
0.0
 10
5.560251
 20
287.855339
 30
0.0
 10
5.596647
 20
287.835585
 30
0.0
 10
5.634887
 20
287.830752
 30
0.0
 10
5.672248
 20
287.837129
 30
0.0
 10
5.710749
 20
287.843717
 30
0.0
 10
5.752549
 20
287.848640
 30
0.0
 10
5.795071
 20
287.856910
 30
0.0
 10
5.877528
 20
287.879642
 30
0.0
 10
5.998530
 20
287.919609
 30
0.0
 10
6.161051
 20
287.970411
 30
0.0
 10
6.288703
 20
288.013783
 30
0.0
 10
6.387098
 20
288.047639
 30
0.0
 10
6.449015
 20
288.068643
 30
0.0
 10
6.499744
 20
288.082313
 30
0.0
 10
6.534608
 20
288.090725
 30
0.0
 10
6.562246
 20
288.095511
 30
0.0
 10
6.588722
 20
288.087472
 30
0.0
 10
6.606718
 20
288.072387
 30
0.0
 10
6.617893
 20
288.055843
 30
0.0
 10
6.632532
 20
288.028544
 30
0.0
 10
6.654439
 20
287.987402
 30
0.0
 10
6.680416
 20
287.935007
 30
0.0
 10
6.726149
 20
287.837853
 30
0.0
 10
6.783612
 20
287.696087
 30
0.0
 10
6.855261
 20
287.508604
 30
0.0
 10
6.910819
 20
287.354548
 30
0.0
 10
6.957279
 20
287.236068
 30
0.0
 10
6.988749
 20
287.152400
 30
0.0
 10
7.004711
 20
287.088185
 30
0.0
 10
7.010889
 20
287.048201
 30
0.0
 10
7.012353
 20
287.030597
 30
0.0
 10
7.008935
 20
287.007725
 30
0.0
 10
6.996730
 20
286.980910
 30
0.0
 10
6.972156
 20
286.956784
 30
0.0
 10
6.932125
 20
286.930934
 30
0.0
 10
6.873704
 20
286.900505
 30
0.0
 10
6.800895
 20
286.864745
 30
0.0
 10
6.742529
 20
286.835868
 30
0.0
 10
6.701478
 20
286.816172
 30
0.0
 10
6.676377
 20
286.804001
 30
0.0
 10
6.654870
 20
286.791580
 30
0.0
 10
6.638574
 20
286.777968
 30
0.0
 10
6.626903
 20
286.762745
 30
0.0
 10
6.615678
 20
286.737055
 30
0.0
 10
6.613973
 20
286.696546
 30
0.0
 10
6.617948
 20
286.646853
 30
0.0
 10
6.622623
 20
286.601513
 30
0.0
 10
6.627283
 20
286.564464
 30
0.0
 10
6.633699
 20
286.529823
 30
0.0
 10
6.635914
 20
286.504962
 30
0.0
 10
6.637241
 20
286.490069
 30
0.0
 11
5.149099
 21
288.524100
 31
0.0
 11
5.162874
 21
288.512743
 31
0.0
 11
5.178066
 21
288.497365
 31
0.0
 11
5.195491
 21
288.471644
 31
0.0
 11
5.228054
 21
288.412871
 31
0.0
 11
5.269440
 21
288.336189
 31
0.0
 11
5.304304
 21
288.269847
 31
0.0
 11
5.319472
 21
288.241499
 31
0.0
 11
5.334182
 21
288.215191
 31
0.0
 11
5.349078
 21
288.187585
 31
0.0
 11
5.395686
 21
288.099938
 31
0.0
 11
5.447409
 21
288.009391
 31
0.0
 11
5.500764
 21
287.925852
 31
0.0
 11
5.530861
 21
287.886451
 31
0.0
 11
5.562821
 21
287.855999
 31
0.0
 11
5.597790
 21
287.837783
 31
0.0
 11
5.635679
 21
287.832597
 31
0.0
 11
5.670825
 21
287.836888
 31
0.0
 11
5.709961
 21
287.843243
 31
0.0
 11
5.751778
 21
287.849067
 31
0.0
 11
5.795282
 21
287.857536
 31
0.0
 11
5.837089
 21
287.868646
 31
0.0
 11
5.998304
 21
287.919060
 31
0.0
 11
6.160260
 21
287.970889
 31
0.0
 11
6.323165
 21
288.025664
 31
0.0
 11
6.382290
 21
288.045942
 31
0.0
 11
6.456253
 21
288.070080
 31
0.0
 11
6.510118
 21
288.084752
 31
0.0
 11
6.533246
 21
288.090151
 31
0.0
 11
6.561370
 21
288.093207
 31
0.0
 11
6.590998
 21
288.084169
 31
0.0
 11
6.606348
 21
288.071451
 31
0.0
 11
6.617152
 21
288.056417
 31
0.0
 11
6.627436
 21
288.038035
 31
0.0
 11
6.652363
 21
287.990806
 31
0.0
 11
6.681478
 21
287.932330
 31
0.0
 11
6.705584
 21
287.881002
 31
0.0
 11
6.782760
 21
287.696414
 31
0.0
 11
6.854854
 21
287.507879
 31
0.0
 11
6.924580
 21
287.320145
 31
0.0
 11
6.956683
 21
287.237030
 31
0.0
 11
6.987700
 21
287.149926
 31
0.0
 11
7.008053
 21
287.065889
 31
0.0
 11
7.010788
 21
287.047296
 31
0.0
 11
7.011712
 21
287.031141
 31
0.0
 11
7.009233
 21
287.013540
 31
0.0
 11
6.994746
 21
286.981781
 31
0.0
 11
6.971513
 21
286.957728
 31
0.0
 11
6.943835
 21
286.938875
 31
0.0
 11
6.877236
 21
286.902656
 31
0.0
 11
6.798317
 21
286.863429
 31
0.0
 11
6.726978
 21
286.828438
 31
0.0
 11
6.701971
 21
286.816388
 31
0.0
 11
6.675701
 21
286.803259
 31
0.0
 11
6.652987
 21
286.789448
 31
0.0
 11
6.639078
 21
286.777512
 31
0.0
 11
6.627901
 21
286.762882
 31
0.0
 11
6.619699
 21
286.744298
 31
0.0
 11
6.614930
 21
286.700184
 31
0.0
 11
6.618255
 21
286.645720
 31
0.0
 11
6.623559
 21
286.594766
 31
0.0
 11
6.627614
 21
286.564247
 31
0.0
 11
6.632424
 21
286.534634
 31
0.0
 11
6.637241
 21
286.490069
 31
0.0
  0
SPLINE
  5
148
100
AcDbEntity
  8
Layer_1
 62
1
100
AcDbSpline
 70
0
 71
3
 72
10
 73
6
 74
4
 40
0.000000
 40
0.000000
 40
0.000000
 40
0.000000
 40
0.108982
 40
0.235121
 40
0.330915
 40
0.330915
 40
0.330915
 40
0.330915
 10
1.761513
 20
288.494206
 30
0.0
 10
1.744356
 20
288.462206
 30
0.0
 10
1.707340
 20
288.393167
 30
0.0
 10
1.672973
 20
288.286425
 30
0.0
 10
1.672135
 20
288.212174
 30
0.0
 10
1.671773
 20
288.180125
 30
0.0
 11
1.761513
 21
288.494206
 31
0.0
 11
1.712748
 21
288.396743
 31
0.0
 11
1.676996
 21
288.275777
 31
0.0
 11
1.671773
 21
288.180125
 31
0.0
  0
SPLINE
  5
149
100
AcDbEntity
  8
Layer_1
 62
1
100
AcDbSpline
 70
0
 71
3
 72
10
 73
6
 74
4
 40
0.000000
 40
0.000000
 40
0.000000
 40
0.000000
 40
0.184588
 40
0.381997
 40
0.577052
 40
0.577052
 40
0.577052
 40
0.577052
 10
1.993331
 20
288.396990
 30
0.0
 10
1.965771
 20
288.342042
 30
0.0
 10
1.908737
 20
288.228329
 30
0.0
 10
1.839731
 20
288.046896
 30
0.0
 10
1.827442
 20
287.916097
 30
0.0
 10
1.821334
 20
287.851089
 30
0.0
 11
1.993331
 21
288.396990
 31
0.0
 11
1.913302
 21
288.230653
 31
0.0
 11
1.848215
 21
288.044283
 31
0.0
 11
1.821334
 21
287.851089
 31
0.0
  0
LINE
  5
14a
100
AcDbEntity
  8
Layer_1
 62
1
100
AcDbLine
 10
4.633100
 20
287.806221
 30
0.0
 11
4.558316
 21
287.694049
 31
0.0
  0
SPLINE
  5
14b
100
AcDbEntity
  8
Layer_1
 62
1
100
AcDbSpline
 70
0
 71
3
 72
10
 73
6
 74
4
 40
0.000000
 40
0.000000
 40
0.000000
 40
0.000000
 40
0.117625
 40
0.231101
 40
0.328697
 40
0.328697
 40
0.328697
 40
0.328697
 10
2.202718
 20
288.269862
 30
0.0
 10
2.177717
 20
288.239511
 30
0.0
 10
2.128597
 20
288.179880
 30
0.0
 10
2.082241
 20
288.078941
 30
0.0
 10
2.067466
 20
288.010064
 30
0.0
 10
2.060635
 20
287.978217
 30
0.0
 11
2.202718
 21
288.269862
 31
0.0
 11
2.131996
 21
288.175872
 31
0.0
 11
2.084335
 21
288.072891
 31
0.0
 11
2.060634
 21
287.978217
 31
0.0
  0
LINE
  5
14c
100
AcDbEntity
  8
Layer_1
 62
1
100
AcDbLine
 10
5.186477
 20
287.656660
 30
0.0
 11
5.149085
 21
287.559441
 31
0.0
  0
SPLINE
  5
14d
100
AcDbEntity
  8
Layer_1
 62
1
100
AcDbSpline
 70
0
 71
3
 72
10
 73
6
 74
4
 40
0.000000
 40
0.000000
 40
0.000000
 40
0.000000
 40
0.107690
 40
0.216763
 40
0.311078
 40
0.311078
 40
0.311078
 40
0.311078
 10
4.917265
 20
287.738919
 30
0.0
 10
4.900009
 20
287.707430
 30
0.0
 10
4.865274
 20
287.644049
 30
0.0
 10
4.821928
 20
287.549781
 30
0.0
 10
4.789991
 20
287.489966
 30
0.0
 10
4.775181
 20
287.462229
 30
0.0
 11
4.917265
 21
287.738919
 31
0.0
 11
4.866614
 21
287.643884
 31
0.0
 11
4.818837
 21
287.545832
 31
0.0
 11
4.775181
 21
287.462229
 31
0.0
  0
LINE
  5
14e
100
AcDbEntity
  8
Layer_1
 62
1
100
AcDbLine
 10
5.403342
 20
287.529528
 30
0.0
 11
5.380907
 21
287.379966
 31
0.0
  0
SPLINE
  5
14f
100
AcDbEntity
  8
Layer_1
 62
1
100
AcDbSpline
 70
0
 71
3
 72
10
 73
6
 74
4
 40
0.000000
 40
0.000000
 40
0.000000
 40
0.000000
 40
0.023940
 40
0.048571
 40
0.080556
 40
0.080556
 40
0.080556
 40
0.080556
 10
5.620206
 20
287.544484
 30
0.0
 10
5.622905
 20
287.536972
 30
0.0
 10
5.628383
 20
287.521732
 30
0.0
 10
5.639103
 20
287.497102
 30
0.0
 10
5.646143
 20
287.479592
 30
0.0
 10
5.650120
 20
287.469700
 30
0.0
 11
5.620206
 21
287.544484
 31
0.0
 11
5.628545
 21
287.522043
 31
0.0
 11
5.638031
 21
287.499312
 31
0.0
 11
5.650120
 21
287.469700
 31
0.0
  0
SPLINE
  5
150
100
AcDbEntity
  8
Layer_1
 62
1
100
AcDbSpline
 70
0
 71
3
 72
10
 73
6
 74
4
 40
0.000000
 40
0.000000
 40
0.000000
 40
0.000000
 40
0.160585
 40
0.307823
 40
0.412998
 40
0.412998
 40
0.412998
 40
0.412998
 10
6.218454
 20
287.163101
 30
0.0
 10
6.190542
 20
287.117305
 30
0.0
 10
6.137040
 20
287.029521
 30
0.0
 10
6.099621
 20
286.893684
 30
0.0
 10
6.104323
 20
286.809371
 30
0.0
 10
6.106282
 20
286.774240
 30
0.0
 11
6.218454
 21
287.163101
 31
0.0
 11
6.141690
 21
287.022051
 31
0.0
 11
6.105191
 21
286.879409
 31
0.0
 11
6.106282
 21
286.774240
 31
0.0
  0
SPLINE
  5
151
100
AcDbEntity
  8
Layer_1
 62
1
100
AcDbSpline
 70
0
 71
3
 72
13
 73
9
 74
7
 40
0.000000
 40
0.000000
 40
0.000000
 40
0.000000
 40
0.049317
 40
0.109858
 40
0.171601
 40
0.230122
 40
0.284768
 40
0.343304
 40
0.343304
 40
0.343304
 40
0.343304
 10
4.161976
 20
287.103276
 30
0.0
 10
4.159355
 20
287.087041
 30
0.0
 10
4.153517
 20
287.050876
 30
0.0
 10
4.138669
 20
286.995504
 30
0.0
 10
4.116734
 20
286.939204
 30
0.0
 10
4.089026
 20
286.887812
 30
0.0
 10
4.057725
 20
286.839720
 30
0.0
 10
4.032786
 20
286.811348
 30
0.0
 10
4.019888
 20
286.796674
 30
0.0
 11
4.161976
 21
287.103276
 31
0.0
 11
4.153374
 21
287.054716
 31
0.0
 11
4.137730
 21
286.996230
 31
0.0
 11
4.115167
 21
286.938758
 31
0.0
 11
4.087689
 21
286.887089
 31
0.0
 11
4.057430
 21
286.841586
 31
0.0
 11
4.019888
 21
286.796674
 31
0.0
  0
SPLINE
  5
152
100
AcDbEntity
  8
Layer_1
 62
1
100
AcDbSpline
 70
0
 71
3
 72
10
 73
6
 74
4
 40
0.000000
 40
0.000000
 40
0.000000
 40
0.000000
 40
0.056581
 40
0.105012
 40
0.155135
 40
0.155135
 40
0.155135
 40
0.155135
 10
3.945104
 20
287.088320
 30
0.0
 10
3.941041
 20
287.069829
 30
0.0
 10
3.933501
 20
287.035512
 30
0.0
 10
3.910652
 20
286.988767
 30
0.0
 10
3.893832
 20
286.960575
 30
0.0
 10
3.885277
 20
286.946236
 30
0.0
 11
3.945104
 21
287.088320
 31
0.0
 11
3.930615
 21
287.033625
 31
0.0
 11
3.910345
 21
286.989640
 31
0.0
 11
3.885277
 21
286.946236
 31
0.0
  0
SPLINE
  5
153
100
AcDbEntity
  8
Layer_1
 62
1
100
AcDbSpline
 70
0
 71
3
 72
10
 73
6
 74
4
 40
0.000000
 40
0.000000
 40
0.000000
 40
0.000000
 40
0.087539
 40
0.168352
 40
0.253323
 40
0.253323
 40
0.253323
 40
0.253323
 10
6.420353
 20
287.080841
 30
0.0
 10
6.402510
 20
287.057608
 30
0.0
 10
6.368194
 20
287.012928
 30
0.0
 10
6.337895
 20
286.932526
 30
0.0
 10
6.333081
 20
286.877317
 30
0.0
 10
6.330613
 20
286.849020
 30
0.0
 11
6.420353
 21
287.080841
 31
0.0
 11
6.370657
 21
287.008776
 31
0.0
 11
6.341960
 21
286.933230
 31
0.0
 11
6.330613
 21
286.849020
 31
0.0
  0
LINE
  5
154
100
AcDbEntity
  8
Layer_1
 62
1
100
AcDbLine
 10
1.320275
 20
286.706878
 30
0.0
 11
1.327775
 21
286.699378
 31
0.0
  0
LINE
  5
155
100
AcDbEntity
  8
Layer_1
 62
1
100
AcDbLine
 10
3.129997
 20
286.497469
 30
0.0
 11
3.117504
 21
286.485859
 31
0.0
  0
SPLINE
  5
156
100
AcDbEntity
  8
Layer_1
 62
1
100
AcDbSpline
 70
0
 71
3
 72
28
 73
24
 74
22
 40
0.000000
 40
0.000000
 40
0.000000
 40
0.000000
 40
0.029653
 40
0.049713
 40
0.082260
 40
0.102867
 40
0.122002
 40
0.142663
 40
0.174073
 40
0.204031
 40
0.246093
 40
0.333080
 40
0.434589
 40
0.521975
 40
0.569485
 40
0.608512
 40
0.650304
 40
0.682342
 40
0.716434
 40
0.751850
 40
0.812731
 40
0.854376
 40
0.896135
 40
0.896135
 40
0.896135
 40
0.896135
 10
7.295288
 20
286.490072
 30
0.0
 10
7.295282
 20
286.499957
 30
0.0
 10
7.295272
 20
286.516529
 30
0.0
 10
7.295105
 20
286.543944
 30
0.0
 10
7.295525
 20
286.568370
 30
0.0
 10
7.294860
 20
286.592408
 30
0.0
 10
7.295877
 20
286.612722
 30
0.0
 10
7.304662
 20
286.635027
 30
0.0
 10
7.322284
 20
286.657542
 30
0.0
 10
7.355633
 20
286.669337
 30
0.0
 10
7.407028
 20
286.680909
 30
0.0
 10
7.481197
 20
286.701762
 30
0.0
 10
7.570425
 20
286.724129
 30
0.0
 10
7.648501
 20
286.735572
 30
0.0
 10
7.706026
 20
286.742515
 30
0.0
 10
7.748292
 20
286.749682
 30
0.0
 10
7.786815
 20
286.743011
 30
0.0
 10
7.816134
 20
286.719696
 30
0.0
 10
7.829935
 20
286.688026
 30
0.0
 10
7.842141
 20
286.646498
 30
0.0
 10
7.853761
 20
286.601752
 30
0.0
 10
7.857774
 20
286.553757
 30
0.0
 10
7.861665
 20
286.526229
 30
0.0
 10
7.863613
 20
286.512447
 30
0.0
 11
7.295288
 21
286.490072
 31
0.0
 11
7.295238
 21
286.519725
 31
0.0
 11
7.295190
 21
286.539785
 31
0.0
 11
7.295295
 21
286.572332
 31
0.0
 11
7.295124
 21
286.592938
 31
0.0
 11
7.296832
 21
286.611996
 31
0.0
 11
7.304085
 21
286.631342
 31
0.0
 11
7.324326
 21
286.655361
 31
0.0
 11
7.351740
 21
286.667443
 31
0.0
 11
7.392486
 21
286.677882
 31
0.0
 11
7.476595
 21
286.700072
 31
0.0
 11
7.575365
 21
286.723492
 31
0.0
 11
7.661698
 21
286.737022
 31
0.0
 11
7.708795
 21
286.743269
 31
0.0
 11
7.747607
 21
286.747361
 31
0.0
 11
7.788497
 21
286.738722
 31
0.0
 11
7.813469
 21
286.718653
 31
0.0
 11
7.829048
 21
286.688328
 31
0.0
 11
7.839635
 21
286.654532
 31
0.0
 11
7.853342
 21
286.595214
 31
0.0
 11
7.858163
 21
286.553848
 31
0.0
 11
7.863613
 21
286.512447
 31
0.0
  0
SPLINE
  5
157
100
AcDbEntity
  8
Layer_1
 62
1
100
AcDbSpline
 70
0
 71
3
 72
13
 73
9
 74
7
 40
0.000000
 40
0.000000
 40
0.000000
 40
0.000000
 40
0.042912
 40
0.116121
 40
0.201080
 40
0.211649
 40
0.220532
 40
0.228475
 40
0.228475
 40
0.228475
 40
0.228475
 10
3.117504
 20
286.485859
 30
0.0
 10
3.104539
 20
286.479681
 30
0.0
 10
3.069455
 20
286.462964
 30
0.0
 10
3.002243
 20
286.453581
 30
0.0
 10
2.944531
 20
286.458554
 30
0.0
 10
2.912581
 20
286.472731
 30
0.0
 10
2.905031
 20
286.477905
 30
0.0
 10
2.900374
 20
286.481026
 30
0.0
 10
2.898175
 20
286.482499
 30
0.0
 11
3.117504
 21
286.485859
 31
0.0
 11
3.078100
 21
286.468869
 31
0.0
 11
3.005908
 21
286.456709
 31
0.0
 11
2.921810
 21
286.468779
 31
0.0
 11
2.912240
 21
286.473265
 31
0.0
 11
2.904767
 21
286.478066
 31
0.0
 11
2.898175
 21
286.482499
 31
0.0
  0
ENDSEC
  0
SECTION
  2
OBJECTS
  0
DICTIONARY
  5
C
330
0
100
AcDbDictionary
  3
ACAD_GROUP
350
D
  3
ACAD_MLINESTYLE
350
17
  0
DICTIONARY
  5
D
330
C
100
AcDbDictionary
  0
DICTIONARY
  5
1A
330
C
100
AcDbDictionary
  0
DICTIONARY
  5
17
330
C
100
AcDbDictionary
  3
STANDARD
350
18
  0
DICTIONARY
  5
19
330
C
100
AcDbDictionary
  0
ENDSEC
  0
EOF
