%TF.GenerationSoftware,KiCad,Pcbnew,9.0.1*%
%TF.CreationDate,2025-05-06T13:32:19+01:00*%
%TF.ProjectId,handy,68616e64-792e-46b6-9963-61645f706362,rev?*%
%TF.SameCoordinates,Original*%
%TF.FileFunction,Paste,Top*%
%TF.FilePolarity,Positive*%
%FSLAX46Y46*%
G04 Gerber Fmt 4.6, Leading zero omitted, Abs format (unit mm)*
G04 Created by KiCad (PCBNEW 9.0.1) date 2025-05-06 13:32:19*
%MOMM*%
%LPD*%
G01*
G04 APERTURE LIST*
G04 Aperture macros list*
%AMRoundRect*
0 Rectangle with rounded corners*
0 $1 Rounding radius*
0 $2 $3 $4 $5 $6 $7 $8 $9 X,Y pos of 4 corners*
0 Add a 4 corners polygon primitive as box body*
4,1,4,$2,$3,$4,$5,$6,$7,$8,$9,$2,$3,0*
0 Add four circle primitives for the rounded corners*
1,1,$1+$1,$2,$3*
1,1,$1+$1,$4,$5*
1,1,$1+$1,$6,$7*
1,1,$1+$1,$8,$9*
0 Add four rect primitives between the rounded corners*
20,1,$1+$1,$2,$3,$4,$5,0*
20,1,$1+$1,$4,$5,$6,$7,0*
20,1,$1+$1,$6,$7,$8,$9,0*
20,1,$1+$1,$8,$9,$2,$3,0*%
G04 Aperture macros list end*
%ADD10C,0.000000*%
%ADD11R,1.399800X0.558800*%
%ADD12RoundRect,0.200000X0.200000X0.275000X-0.200000X0.275000X-0.200000X-0.275000X0.200000X-0.275000X0*%
%ADD13RoundRect,0.200000X0.275000X-0.200000X0.275000X0.200000X-0.275000X0.200000X-0.275000X-0.200000X0*%
%ADD14RoundRect,0.225000X-0.250000X0.225000X-0.250000X-0.225000X0.250000X-0.225000X0.250000X0.225000X0*%
%ADD15RoundRect,0.225000X0.250000X-0.225000X0.250000X0.225000X-0.250000X0.225000X-0.250000X-0.225000X0*%
%ADD16RoundRect,0.212500X-0.212500X0.212500X-0.212500X-0.212500X0.212500X-0.212500X0.212500X0.212500X0*%
%ADD17RoundRect,0.062500X-0.062500X0.375000X-0.062500X-0.375000X0.062500X-0.375000X0.062500X0.375000X0*%
%ADD18RoundRect,0.062500X-0.375000X0.062500X-0.375000X-0.062500X0.375000X-0.062500X0.375000X0.062500X0*%
%ADD19R,1.411200X0.270000*%
%ADD20RoundRect,0.200000X-0.200000X-0.275000X0.200000X-0.275000X0.200000X0.275000X-0.200000X0.275000X0*%
%ADD21RoundRect,0.150000X0.625000X-0.150000X0.625000X0.150000X-0.625000X0.150000X-0.625000X-0.150000X0*%
%ADD22RoundRect,0.250000X0.650000X-0.350000X0.650000X0.350000X-0.650000X0.350000X-0.650000X-0.350000X0*%
G04 APERTURE END LIST*
D10*
%TO.C,U4*%
G36*
X155256300Y-97721179D02*
G01*
X155114879Y-97862600D01*
X154964930Y-97862600D01*
X154964930Y-97341230D01*
X155256300Y-97341230D01*
X155256300Y-97721179D01*
G37*
G36*
X155256300Y-98991421D02*
G01*
X155256300Y-99371370D01*
X154964930Y-99371370D01*
X154964930Y-98850000D01*
X155114879Y-98850000D01*
X155256300Y-98991421D01*
G37*
G36*
X156535070Y-97862600D02*
G01*
X156385121Y-97862600D01*
X156243700Y-97721179D01*
X156243700Y-97341230D01*
X156535070Y-97341230D01*
X156535070Y-97862600D01*
G37*
G36*
X156535070Y-99371370D02*
G01*
X156243700Y-99371370D01*
X156243700Y-98991421D01*
X156385121Y-98850000D01*
X156535070Y-98850000D01*
X156535070Y-99371370D01*
G37*
G36*
X155256300Y-98204021D02*
G01*
X155256300Y-98508579D01*
X155114879Y-98650000D01*
X154964930Y-98650000D01*
X154964930Y-98062600D01*
X155114879Y-98062600D01*
X155256300Y-98204021D01*
G37*
G36*
X156043700Y-97721179D02*
G01*
X155902279Y-97862600D01*
X155597721Y-97862600D01*
X155456300Y-97721179D01*
X155456300Y-97341230D01*
X156043700Y-97341230D01*
X156043700Y-97721179D01*
G37*
G36*
X156043700Y-98991421D02*
G01*
X156043700Y-99371370D01*
X155456300Y-99371370D01*
X155456300Y-98991421D01*
X155597721Y-98850000D01*
X155902279Y-98850000D01*
X156043700Y-98991421D01*
G37*
G36*
X156535070Y-98650000D02*
G01*
X156385121Y-98650000D01*
X156243700Y-98508579D01*
X156243700Y-98204021D01*
X156385121Y-98062600D01*
X156535070Y-98062600D01*
X156535070Y-98650000D01*
G37*
G36*
X156043700Y-98204021D02*
G01*
X156043700Y-98508579D01*
X155902279Y-98650000D01*
X155597721Y-98650000D01*
X155456300Y-98508579D01*
X155456300Y-98204021D01*
X155597721Y-98062600D01*
X155902279Y-98062600D01*
X156043700Y-98204021D01*
G37*
%TD*%
D11*
%TO.C,U2*%
X176844300Y-98095000D03*
X176844300Y-99365000D03*
X176844300Y-100635000D03*
X176844300Y-101905000D03*
X182155700Y-101905000D03*
X182155700Y-100635000D03*
X182155700Y-99365000D03*
X182155700Y-98095000D03*
%TD*%
D12*
%TO.C,R7*%
X143000000Y-99750000D03*
X141350000Y-99750000D03*
%TD*%
D13*
%TO.C,R4*%
X128000000Y-99650000D03*
X128000000Y-98000000D03*
%TD*%
D14*
%TO.C,C2*%
X174750000Y-99700000D03*
X174750000Y-101250000D03*
%TD*%
D13*
%TO.C,R1*%
X161750000Y-100000000D03*
X161750000Y-98350000D03*
%TD*%
D11*
%TO.C,U3*%
X122155700Y-101905000D03*
X122155700Y-100635000D03*
X122155700Y-99365000D03*
X122155700Y-98095000D03*
X116844300Y-98095000D03*
X116844300Y-99365000D03*
X116844300Y-100635000D03*
X116844300Y-101905000D03*
%TD*%
D13*
%TO.C,R2*%
X160000000Y-99000000D03*
X160000000Y-97350000D03*
%TD*%
D12*
%TO.C,R8*%
X143000000Y-98000000D03*
X141350000Y-98000000D03*
%TD*%
D15*
%TO.C,C3*%
X160250000Y-102050000D03*
X160250000Y-100500000D03*
%TD*%
D16*
%TO.C,U1*%
X138025000Y-99475000D03*
X136975000Y-99475000D03*
X138025000Y-100525000D03*
X136975000Y-100525000D03*
D17*
X138750000Y-98062500D03*
X138250000Y-98062500D03*
X137750000Y-98062500D03*
X137250000Y-98062500D03*
X136750000Y-98062500D03*
X136250000Y-98062500D03*
D18*
X135562500Y-98750000D03*
X135562500Y-99250000D03*
X135562500Y-99750000D03*
X135562500Y-100250000D03*
X135562500Y-100750000D03*
X135562500Y-101250000D03*
D17*
X136250000Y-101937500D03*
X136750000Y-101937500D03*
X137250000Y-101937500D03*
X137750000Y-101937500D03*
X138250000Y-101937500D03*
X138750000Y-101937500D03*
D18*
X139437500Y-101250000D03*
X139437500Y-100750000D03*
X139437500Y-100250000D03*
X139437500Y-99750000D03*
X139437500Y-99250000D03*
X139437500Y-98750000D03*
%TD*%
D12*
%TO.C,R9*%
X130500000Y-102250000D03*
X128850000Y-102250000D03*
%TD*%
D15*
%TO.C,C1*%
X124500000Y-99750000D03*
X124500000Y-98200000D03*
%TD*%
D19*
%TO.C,U4*%
X153575001Y-97356299D03*
X153575001Y-97856301D03*
X153575001Y-98356300D03*
X153575001Y-98856299D03*
X153575001Y-99356301D03*
X157924999Y-99356301D03*
X157924999Y-98856299D03*
X157924999Y-98356300D03*
X157924999Y-97856301D03*
X157924999Y-97356299D03*
%TD*%
D20*
%TO.C,R10*%
X131350000Y-97250000D03*
X133000000Y-97250000D03*
%TD*%
D21*
%TO.C,J1*%
X172250000Y-101500000D03*
X172250000Y-100500000D03*
X172250000Y-99500000D03*
X172250000Y-98500000D03*
D22*
X169725000Y-102800000D03*
X169725000Y-97200000D03*
%TD*%
D21*
%TO.C,J2*%
X166500000Y-101500000D03*
X166500000Y-100500000D03*
X166500000Y-99500000D03*
X166500000Y-98500000D03*
D22*
X163975000Y-102800000D03*
X163975000Y-97200000D03*
%TD*%
D13*
%TO.C,R3*%
X126250000Y-100650000D03*
X126250000Y-99000000D03*
%TD*%
M02*
