%TF.GenerationSoftware,KiCad,Pcbnew,9.0.1*%
%TF.CreationDate,2025-05-06T13:32:19+01:00*%
%TF.ProjectId,handy,68616e64-792e-46b6-9963-61645f706362,rev?*%
%TF.SameCoordinates,Original*%
%TF.FileFunction,Copper,L1,Top*%
%TF.FilePolarity,Positive*%
%FSLAX46Y46*%
G04 Gerber Fmt 4.6, Leading zero omitted, Abs format (unit mm)*
G04 Created by KiCad (PCBNEW 9.0.1) date 2025-05-06 13:32:19*
%MOMM*%
%LPD*%
G01*
G04 APERTURE LIST*
G04 Aperture macros list*
%AMRoundRect*
0 Rectangle with rounded corners*
0 $1 Rounding radius*
0 $2 $3 $4 $5 $6 $7 $8 $9 X,Y pos of 4 corners*
0 Add a 4 corners polygon primitive as box body*
4,1,4,$2,$3,$4,$5,$6,$7,$8,$9,$2,$3,0*
0 Add four circle primitives for the rounded corners*
1,1,$1+$1,$2,$3*
1,1,$1+$1,$4,$5*
1,1,$1+$1,$6,$7*
1,1,$1+$1,$8,$9*
0 Add four rect primitives between the rounded corners*
20,1,$1+$1,$2,$3,$4,$5,0*
20,1,$1+$1,$4,$5,$6,$7,0*
20,1,$1+$1,$6,$7,$8,$9,0*
20,1,$1+$1,$8,$9,$2,$3,0*%
%AMFreePoly0*
4,1,6,1.000000,0.000000,0.500000,-0.750000,-0.500000,-0.750000,-0.500000,0.750000,0.500000,0.750000,1.000000,0.000000,1.000000,0.000000,$1*%
%AMFreePoly1*
4,1,6,0.500000,-0.750000,-0.650000,-0.750000,-0.150000,0.000000,-0.650000,0.750000,0.500000,0.750000,0.500000,-0.750000,0.500000,-0.750000,$1*%
G04 Aperture macros list end*
%TA.AperFunction,ComponentPad*%
%ADD10C,3.800000*%
%TD*%
%TA.AperFunction,SMDPad,CuDef*%
%ADD11R,1.399800X0.558800*%
%TD*%
%TA.AperFunction,SMDPad,CuDef*%
%ADD12RoundRect,0.200000X0.200000X0.275000X-0.200000X0.275000X-0.200000X-0.275000X0.200000X-0.275000X0*%
%TD*%
%TA.AperFunction,SMDPad,CuDef*%
%ADD13RoundRect,0.200000X0.275000X-0.200000X0.275000X0.200000X-0.275000X0.200000X-0.275000X-0.200000X0*%
%TD*%
%TA.AperFunction,SMDPad,CuDef*%
%ADD14RoundRect,0.225000X-0.250000X0.225000X-0.250000X-0.225000X0.250000X-0.225000X0.250000X0.225000X0*%
%TD*%
%TA.AperFunction,SMDPad,CuDef*%
%ADD15RoundRect,0.225000X0.250000X-0.225000X0.250000X0.225000X-0.250000X0.225000X-0.250000X-0.225000X0*%
%TD*%
%TA.AperFunction,ComponentPad*%
%ADD16R,1.350000X1.350000*%
%TD*%
%TA.AperFunction,ComponentPad*%
%ADD17C,1.350000*%
%TD*%
%TA.AperFunction,SMDPad,CuDef*%
%ADD18RoundRect,0.062500X-0.062500X0.375000X-0.062500X-0.375000X0.062500X-0.375000X0.062500X0.375000X0*%
%TD*%
%TA.AperFunction,SMDPad,CuDef*%
%ADD19RoundRect,0.062500X-0.375000X0.062500X-0.375000X-0.062500X0.375000X-0.062500X0.375000X0.062500X0*%
%TD*%
%TA.AperFunction,HeatsinkPad*%
%ADD20R,2.100000X2.100000*%
%TD*%
%TA.AperFunction,SMDPad,CuDef*%
%ADD21FreePoly0,0.000000*%
%TD*%
%TA.AperFunction,SMDPad,CuDef*%
%ADD22FreePoly1,0.000000*%
%TD*%
%TA.AperFunction,SMDPad,CuDef*%
%ADD23R,1.411200X0.270000*%
%TD*%
%TA.AperFunction,SMDPad,CuDef*%
%ADD24R,1.720000X2.180000*%
%TD*%
%TA.AperFunction,ComponentPad*%
%ADD25C,0.508000*%
%TD*%
%TA.AperFunction,SMDPad,CuDef*%
%ADD26FreePoly0,270.000000*%
%TD*%
%TA.AperFunction,SMDPad,CuDef*%
%ADD27FreePoly1,270.000000*%
%TD*%
%TA.AperFunction,SMDPad,CuDef*%
%ADD28FreePoly0,180.000000*%
%TD*%
%TA.AperFunction,SMDPad,CuDef*%
%ADD29FreePoly1,180.000000*%
%TD*%
%TA.AperFunction,SMDPad,CuDef*%
%ADD30RoundRect,0.200000X-0.200000X-0.275000X0.200000X-0.275000X0.200000X0.275000X-0.200000X0.275000X0*%
%TD*%
%TA.AperFunction,SMDPad,CuDef*%
%ADD31RoundRect,0.150000X0.625000X-0.150000X0.625000X0.150000X-0.625000X0.150000X-0.625000X-0.150000X0*%
%TD*%
%TA.AperFunction,SMDPad,CuDef*%
%ADD32RoundRect,0.250000X0.650000X-0.350000X0.650000X0.350000X-0.650000X0.350000X-0.650000X-0.350000X0*%
%TD*%
%TA.AperFunction,ViaPad*%
%ADD33C,0.600000*%
%TD*%
%TA.AperFunction,Conductor*%
%ADD34C,0.200000*%
%TD*%
%TA.AperFunction,Conductor*%
%ADD35C,0.400000*%
%TD*%
G04 APERTURE END LIST*
D10*
%TO.P,H1,1*%
%TO.N,N/C*%
X149500000Y-100000000D03*
%TD*%
D11*
%TO.P,U2,1,VDD5V*%
%TO.N,+3.3V*%
X176844300Y-98095000D03*
%TO.P,U2,2,VDD3V3*%
X176844300Y-99365000D03*
%TO.P,U2,3,OUT*%
%TO.N,unconnected-(U2-OUT-Pad3)*%
X176844300Y-100635000D03*
%TO.P,U2,4,GND*%
%TO.N,GND*%
X176844300Y-101905000D03*
%TO.P,U2,5,PGO*%
%TO.N,unconnected-(U2-PGO-Pad5)*%
X182155700Y-101905000D03*
%TO.P,U2,6,SDA*%
%TO.N,/SDA0*%
X182155700Y-100635000D03*
%TO.P,U2,7,SCL*%
%TO.N,/SCL0*%
X182155700Y-99365000D03*
%TO.P,U2,8,DIR*%
%TO.N,GND*%
X182155700Y-98095000D03*
%TD*%
D12*
%TO.P,R7,1*%
%TO.N,/ADDR_0*%
X143000000Y-99750000D03*
%TO.P,R7,2*%
%TO.N,GND*%
X141350000Y-99750000D03*
%TD*%
D13*
%TO.P,R4,1*%
%TO.N,+3.3V*%
X128000000Y-99650000D03*
%TO.P,R4,2*%
%TO.N,/SDA1*%
X128000000Y-98000000D03*
%TD*%
D14*
%TO.P,C2,1*%
%TO.N,+3.3V*%
X174750000Y-99700000D03*
%TO.P,C2,2*%
%TO.N,GND*%
X174750000Y-101250000D03*
%TD*%
D13*
%TO.P,R1,1*%
%TO.N,+3.3V*%
X161750000Y-100000000D03*
%TO.P,R1,2*%
%TO.N,/SDA0*%
X161750000Y-98350000D03*
%TD*%
D11*
%TO.P,U3,1,VDD5V*%
%TO.N,+3.3V*%
X122155700Y-101905000D03*
%TO.P,U3,2,VDD3V3*%
X122155700Y-100635000D03*
%TO.P,U3,3,OUT*%
%TO.N,unconnected-(U3-OUT-Pad3)*%
X122155700Y-99365000D03*
%TO.P,U3,4,GND*%
%TO.N,GND*%
X122155700Y-98095000D03*
%TO.P,U3,5,PGO*%
%TO.N,unconnected-(U3-PGO-Pad5)*%
X116844300Y-98095000D03*
%TO.P,U3,6,SDA*%
%TO.N,/SDA1*%
X116844300Y-99365000D03*
%TO.P,U3,7,SCL*%
%TO.N,/SCL1*%
X116844300Y-100635000D03*
%TO.P,U3,8,DIR*%
%TO.N,GND*%
X116844300Y-101905000D03*
%TD*%
D13*
%TO.P,R2,1*%
%TO.N,+3.3V*%
X160000000Y-99000000D03*
%TO.P,R2,2*%
%TO.N,/SCL0*%
X160000000Y-97350000D03*
%TD*%
D12*
%TO.P,R8,1*%
%TO.N,/ADDR_1*%
X143000000Y-98000000D03*
%TO.P,R8,2*%
%TO.N,GND*%
X141350000Y-98000000D03*
%TD*%
D15*
%TO.P,C3,1*%
%TO.N,GND*%
X160250000Y-102050000D03*
%TO.P,C3,2*%
%TO.N,+3.3V*%
X160250000Y-100500000D03*
%TD*%
D16*
%TO.P,J3,1,Pin_1*%
%TO.N,GND*%
X158000000Y-101750000D03*
D17*
%TO.P,J3,2,Pin_2*%
%TO.N,/M1*%
X156000000Y-101750000D03*
%TO.P,J3,3,Pin_3*%
%TO.N,/M2*%
X154000000Y-101750000D03*
%TD*%
D18*
%TO.P,U1,1,SD0*%
%TO.N,/SDA0*%
X138750000Y-98062500D03*
%TO.P,U1,2,SC0*%
%TO.N,/SCL0*%
X138250000Y-98062500D03*
%TO.P,U1,3,SD1*%
%TO.N,unconnected-(U1-SD1-Pad3)*%
X137750000Y-98062500D03*
%TO.P,U1,4,SC1*%
%TO.N,unconnected-(U1-SC1-Pad4)*%
X137250000Y-98062500D03*
%TO.P,U1,5,SD2*%
%TO.N,unconnected-(U1-SD2-Pad5)*%
X136750000Y-98062500D03*
%TO.P,U1,6,SC2*%
%TO.N,unconnected-(U1-SC2-Pad6)*%
X136250000Y-98062500D03*
D19*
%TO.P,U1,7,SD3*%
%TO.N,unconnected-(U1-SD3-Pad7)*%
X135562500Y-98750000D03*
%TO.P,U1,8,SC3*%
%TO.N,unconnected-(U1-SC3-Pad8)*%
X135562500Y-99250000D03*
%TO.P,U1,9,GND*%
%TO.N,GND*%
X135562500Y-99750000D03*
%TO.P,U1,10,SD4*%
%TO.N,/SDA1*%
X135562500Y-100250000D03*
%TO.P,U1,11,SC4*%
%TO.N,/SCL1*%
X135562500Y-100750000D03*
%TO.P,U1,12,SD5*%
%TO.N,unconnected-(U1-SD5-Pad12)*%
X135562500Y-101250000D03*
D18*
%TO.P,U1,13,SC5*%
%TO.N,unconnected-(U1-SC5-Pad13)*%
X136250000Y-101937500D03*
%TO.P,U1,14,SD6*%
%TO.N,unconnected-(U1-SD6-Pad14)*%
X136750000Y-101937500D03*
%TO.P,U1,15,SC6*%
%TO.N,unconnected-(U1-SC6-Pad15)*%
X137250000Y-101937500D03*
%TO.P,U1,16,SD7*%
%TO.N,unconnected-(U1-SD7-Pad16)*%
X137750000Y-101937500D03*
%TO.P,U1,17,SC7*%
%TO.N,unconnected-(U1-SC7-Pad17)*%
X138250000Y-101937500D03*
%TO.P,U1,18,A2*%
%TO.N,/ADDR_2*%
X138750000Y-101937500D03*
D19*
%TO.P,U1,19,SCL*%
%TO.N,/SCL*%
X139437500Y-101250000D03*
%TO.P,U1,20,SDA*%
%TO.N,/SDA*%
X139437500Y-100750000D03*
%TO.P,U1,21,VCC*%
%TO.N,+3.3V*%
X139437500Y-100250000D03*
%TO.P,U1,22,A0*%
%TO.N,/ADDR_0*%
X139437500Y-99750000D03*
%TO.P,U1,23,A1*%
%TO.N,/ADDR_1*%
X139437500Y-99250000D03*
%TO.P,U1,24,~{RESET}*%
%TO.N,Net-(U1-~{RESET})*%
X139437500Y-98750000D03*
D20*
%TO.P,U1,25,1EP*%
%TO.N,unconnected-(U1-1EP-Pad25)*%
X137500000Y-100000000D03*
%TD*%
D12*
%TO.P,R9,1*%
%TO.N,/ADDR_2*%
X130500000Y-102250000D03*
%TO.P,R9,2*%
%TO.N,GND*%
X128850000Y-102250000D03*
%TD*%
D21*
%TO.P,JP1,1,A*%
%TO.N,/ADDR_0*%
X144750000Y-100750000D03*
D22*
%TO.P,JP1,2,B*%
%TO.N,+3.3V*%
X146200000Y-100750000D03*
%TD*%
D15*
%TO.P,C1,1*%
%TO.N,+3.3V*%
X124500000Y-99750000D03*
%TO.P,C1,2*%
%TO.N,GND*%
X124500000Y-98200000D03*
%TD*%
D23*
%TO.P,U4,1,OUT2*%
%TO.N,/M2*%
X153575001Y-97356299D03*
%TO.P,U4,2,ISENSE*%
%TO.N,GND*%
X153575001Y-97856301D03*
%TO.P,U4,3,OUT1*%
%TO.N,/M1*%
X153575001Y-98356300D03*
%TO.P,U4,4,VCC*%
%TO.N,+3.3V*%
X153575001Y-98856299D03*
%TO.P,U4,5,GND*%
%TO.N,GND*%
X153575001Y-99356301D03*
%TO.P,U4,6,FAULTN*%
%TO.N,unconnected-(U4-FAULTN-Pad6)*%
X157924999Y-99356301D03*
%TO.P,U4,7,A0*%
%TO.N,GND*%
X157924999Y-98856299D03*
%TO.P,U4,8,A1*%
X157924999Y-98356300D03*
%TO.P,U4,9,SDA*%
%TO.N,/SDA0*%
X157924999Y-97856301D03*
%TO.P,U4,10,SCL*%
%TO.N,/SCL0*%
X157924999Y-97356299D03*
D24*
%TO.P,U4,EPAD,EPAD*%
%TO.N,GND*%
X155750000Y-98356300D03*
D25*
%TO.P,U4,V*%
%TO.N,N/C*%
X155356300Y-97962600D03*
X155356300Y-98750000D03*
X156143700Y-97962600D03*
X156143700Y-98750000D03*
%TD*%
D26*
%TO.P,JP3,1,A*%
%TO.N,+3.3V*%
X132750000Y-100750000D03*
D27*
%TO.P,JP3,2,B*%
%TO.N,/ADDR_2*%
X132750000Y-102200000D03*
%TD*%
D28*
%TO.P,JP2,1,A*%
%TO.N,+3.3V*%
X146250000Y-98250000D03*
D29*
%TO.P,JP2,2,B*%
%TO.N,/ADDR_1*%
X144800000Y-98250000D03*
%TD*%
D30*
%TO.P,R10,1*%
%TO.N,+3.3V*%
X131350000Y-97250000D03*
%TO.P,R10,2*%
%TO.N,Net-(U1-~{RESET})*%
X133000000Y-97250000D03*
%TD*%
D31*
%TO.P,J1,1,Pin_1*%
%TO.N,/SCL*%
X172250000Y-101500000D03*
%TO.P,J1,2,Pin_2*%
%TO.N,/SDA*%
X172250000Y-100500000D03*
%TO.P,J1,3,Pin_3*%
%TO.N,+3.3V*%
X172250000Y-99500000D03*
%TO.P,J1,4,Pin_4*%
%TO.N,GND*%
X172250000Y-98500000D03*
D32*
%TO.P,J1,MP,MountPin*%
%TO.N,unconnected-(J1-MountPin-PadMP)*%
X169725000Y-102800000D03*
X169725000Y-97200000D03*
%TD*%
D31*
%TO.P,J2,1,Pin_1*%
%TO.N,/SCL*%
X166500000Y-101500000D03*
%TO.P,J2,2,Pin_2*%
%TO.N,/SDA*%
X166500000Y-100500000D03*
%TO.P,J2,3,Pin_3*%
%TO.N,+3.3V*%
X166500000Y-99500000D03*
%TO.P,J2,4,Pin_4*%
%TO.N,GND*%
X166500000Y-98500000D03*
D32*
%TO.P,J2,MP,MountPin*%
%TO.N,unconnected-(J2-MountPin-PadMP)*%
X163975000Y-102800000D03*
X163975000Y-97200000D03*
%TD*%
D13*
%TO.P,R3,1*%
%TO.N,+3.3V*%
X126250000Y-100650000D03*
%TO.P,R3,2*%
%TO.N,/SCL1*%
X126250000Y-99000000D03*
%TD*%
D33*
%TO.N,+3.3V*%
X135250000Y-102250000D03*
X142000000Y-102000000D03*
%TO.N,/SDA0*%
X162500000Y-97500000D03*
X171250000Y-97500000D03*
%TO.N,/SCL0*%
X171750000Y-96800000D03*
X162000000Y-96800000D03*
%TO.N,Net-(U1-~{RESET})*%
X135500000Y-98000000D03*
X139504881Y-98085437D03*
%TO.N,GND*%
X161500000Y-101250000D03*
X127500000Y-102250000D03*
X181000000Y-97000000D03*
X134250000Y-99000000D03*
X118250000Y-102000000D03*
X174000000Y-98250000D03*
X120750000Y-98000000D03*
X142172175Y-99300000D03*
X164750000Y-98750000D03*
X159002533Y-98550000D03*
X140250000Y-98000000D03*
X153500000Y-99950000D03*
X174750000Y-102250000D03*
%TD*%
D34*
%TO.N,+3.3V*%
X160750000Y-99000000D02*
X161750000Y-100000000D01*
X127250000Y-99650000D02*
X126250000Y-100650000D01*
X124500000Y-99750000D02*
X123615000Y-100635000D01*
X146250000Y-98500000D02*
X146250000Y-101000000D01*
X115893400Y-98834600D02*
X117795200Y-98834600D01*
X126250000Y-100650000D02*
X125400000Y-100650000D01*
X159257699Y-99742301D02*
X160000000Y-99000000D01*
X129750000Y-97250000D02*
X131350000Y-97250000D01*
X160000000Y-100250000D02*
X160250000Y-100500000D01*
X140000000Y-100250000D02*
X139437500Y-100250000D01*
X154639000Y-99014698D02*
X154639000Y-99697300D01*
X142000000Y-102000000D02*
X141750000Y-102000000D01*
X174750000Y-99700000D02*
X172450000Y-99700000D01*
X121625300Y-101374600D02*
X116229743Y-101374600D01*
X160000000Y-99000000D02*
X160000000Y-100250000D01*
X128000000Y-99650000D02*
X127250000Y-99650000D01*
X153575001Y-98856299D02*
X154480601Y-98856299D01*
X160250000Y-100500000D02*
X159250000Y-101500000D01*
X123615000Y-100635000D02*
X122155700Y-100635000D01*
X115893400Y-101038257D02*
X115893400Y-98834600D01*
X125400000Y-100650000D02*
X124500000Y-99750000D01*
X119629800Y-97000000D02*
X129500000Y-97000000D01*
X154684001Y-99742301D02*
X159257699Y-99742301D01*
D35*
X166500000Y-99500000D02*
X172250000Y-99500000D01*
D34*
X132750000Y-100750000D02*
X129100000Y-100750000D01*
X129100000Y-100750000D02*
X128000000Y-99650000D01*
X161750000Y-100000000D02*
X162250000Y-99500000D01*
X172450000Y-99700000D02*
X172250000Y-99500000D01*
X129500000Y-97000000D02*
X129750000Y-97250000D01*
X142676000Y-102676000D02*
X146500000Y-102676000D01*
X176844300Y-99365000D02*
X176844300Y-98095000D01*
X154639000Y-99697300D02*
X154684001Y-99742301D01*
X146250000Y-101000000D02*
X146250000Y-102429912D01*
X141750000Y-102000000D02*
X140000000Y-100250000D01*
X174750000Y-99700000D02*
X176509300Y-99700000D01*
X135250000Y-102250000D02*
X133750000Y-100750000D01*
X117795200Y-98834600D02*
X119629800Y-97000000D01*
X116229743Y-101374600D02*
X115893400Y-101038257D01*
X122155700Y-100635000D02*
X122155700Y-101905000D01*
X122155700Y-101905000D02*
X121625300Y-101374600D01*
X133750000Y-100750000D02*
X132750000Y-100750000D01*
X159250000Y-101500000D02*
X159250000Y-102676000D01*
X154480601Y-98856299D02*
X154639000Y-99014698D01*
X146496088Y-102676000D02*
X146250000Y-102429912D01*
X146500000Y-102676000D02*
X146496088Y-102676000D01*
X142000000Y-102000000D02*
X142676000Y-102676000D01*
X160000000Y-99000000D02*
X160750000Y-99000000D01*
X162250000Y-99500000D02*
X166500000Y-99500000D01*
X176509300Y-99700000D02*
X176844300Y-99365000D01*
X159250000Y-102676000D02*
X146500000Y-102676000D01*
%TO.N,/SDA*%
X172250000Y-100500000D02*
X166500000Y-100500000D01*
X165475001Y-100750000D02*
X163000000Y-100750000D01*
X166500000Y-100500000D02*
X165725001Y-100500000D01*
X160723000Y-103027000D02*
X142151999Y-103027000D01*
X139874999Y-100750000D02*
X139437500Y-100750000D01*
X142151999Y-103027000D02*
X139874999Y-100750000D01*
X163000000Y-100750000D02*
X160723000Y-103027000D01*
X165725001Y-100500000D02*
X165475001Y-100750000D01*
%TO.N,/SCL*%
X166500000Y-101500000D02*
X172250000Y-101500000D01*
X162875000Y-101500000D02*
X160976000Y-103399000D01*
X141586500Y-103399000D02*
X139437500Y-101250000D01*
X166500000Y-101500000D02*
X162875000Y-101500000D01*
X160976000Y-103399000D02*
X141586500Y-103399000D01*
%TO.N,/ADDR_0*%
X143000000Y-99750000D02*
X142274000Y-100476000D01*
X140726000Y-100476000D02*
X140000000Y-99750000D01*
X143750000Y-99750000D02*
X143000000Y-99750000D01*
X144750000Y-100750000D02*
X143750000Y-99750000D01*
X142274000Y-100476000D02*
X140726000Y-100476000D01*
X140000000Y-99750000D02*
X139437500Y-99750000D01*
%TO.N,/ADDR_1*%
X142500000Y-98750000D02*
X140374999Y-98750000D01*
X139874999Y-99250000D02*
X139437500Y-99250000D01*
X144800000Y-98250000D02*
X143000000Y-98250000D01*
X140374999Y-98750000D02*
X139874999Y-99250000D01*
X143000000Y-98250000D02*
X142500000Y-98750000D01*
%TO.N,/ADDR_2*%
X130550000Y-102200000D02*
X130500000Y-102250000D01*
X133550000Y-103000000D02*
X138124999Y-103000000D01*
X132750000Y-102200000D02*
X130550000Y-102200000D01*
X132750000Y-102200000D02*
X133550000Y-103000000D01*
X138124999Y-103000000D02*
X138750000Y-102374999D01*
X138750000Y-102374999D02*
X138750000Y-101937500D01*
%TO.N,/SDA0*%
X139842201Y-96970299D02*
X138750000Y-98062500D01*
X160750000Y-98000000D02*
X158974298Y-98000000D01*
X180865600Y-100635000D02*
X177730600Y-97500000D01*
X157924999Y-97856301D02*
X157082401Y-97856301D01*
X156861000Y-97634900D02*
X156861000Y-97015300D01*
X158830599Y-97856301D02*
X157924999Y-97856301D01*
X162500000Y-97500000D02*
X162500000Y-97600000D01*
X162500000Y-97600000D02*
X161750000Y-98350000D01*
X161750000Y-98350000D02*
X161100000Y-98350000D01*
X177730600Y-97500000D02*
X171250000Y-97500000D01*
X157082401Y-97856301D02*
X156861000Y-97634900D01*
X182155700Y-100635000D02*
X180865600Y-100635000D01*
X161100000Y-98350000D02*
X160750000Y-98000000D01*
X156815999Y-96970299D02*
X139842201Y-96970299D01*
X156861000Y-97015300D02*
X156815999Y-96970299D01*
X158974298Y-98000000D02*
X158830599Y-97856301D01*
%TO.N,/SCL0*%
X138250000Y-97625001D02*
X138250000Y-98062500D01*
X161450000Y-97350000D02*
X160000000Y-97350000D01*
X180091988Y-99365000D02*
X177526988Y-96800000D01*
X157169700Y-96601000D02*
X139274001Y-96601000D01*
X177526988Y-96800000D02*
X171750000Y-96800000D01*
X157931298Y-97350000D02*
X157924999Y-97356299D01*
X157924999Y-97356299D02*
X157169700Y-96601000D01*
X160000000Y-97350000D02*
X157931298Y-97350000D01*
X162000000Y-96800000D02*
X161450000Y-97350000D01*
X139274001Y-96601000D02*
X138250000Y-97625001D01*
X182155700Y-99365000D02*
X180091988Y-99365000D01*
%TO.N,/SCL1*%
X134500000Y-100750000D02*
X135562500Y-100750000D01*
X126500000Y-98750000D02*
X132500000Y-98750000D01*
X124145600Y-99000000D02*
X126250000Y-99000000D01*
X117814900Y-100635000D02*
X119821500Y-98628400D01*
X123774000Y-98628400D02*
X124145600Y-99000000D01*
X116844300Y-100635000D02*
X117814900Y-100635000D01*
X126250000Y-99000000D02*
X126500000Y-98750000D01*
X119821500Y-98628400D02*
X123774000Y-98628400D01*
X132500000Y-98750000D02*
X134500000Y-100750000D01*
%TO.N,/SDA1*%
X118385000Y-99365000D02*
X120301000Y-97449000D01*
X132645389Y-98399000D02*
X134496388Y-100250000D01*
X116844300Y-99365000D02*
X118385000Y-99365000D01*
X134496388Y-100250000D02*
X135562500Y-100250000D01*
X128399000Y-98399000D02*
X132645389Y-98399000D01*
X127449000Y-97449000D02*
X128000000Y-98000000D01*
X128000000Y-98000000D02*
X128399000Y-98399000D01*
X120301000Y-97449000D02*
X127449000Y-97449000D01*
%TO.N,Net-(U1-~{RESET})*%
X134750000Y-97250000D02*
X135500000Y-98000000D01*
X139437500Y-98152818D02*
X139504881Y-98085437D01*
X133000000Y-97250000D02*
X134750000Y-97250000D01*
X139437500Y-98750000D02*
X139437500Y-98152818D01*
%TO.N,GND*%
X157924999Y-98356300D02*
X157856300Y-98424999D01*
X158696234Y-98856299D02*
X159002533Y-98550000D01*
X157856300Y-98424999D02*
X156532877Y-98424999D01*
X135562500Y-99750000D02*
X135000000Y-99750000D01*
X160700000Y-102050000D02*
X161500000Y-101250000D01*
X182155700Y-98095000D02*
X182095000Y-98095000D01*
X122155700Y-98095000D02*
X124395000Y-98095000D01*
X157924999Y-98856299D02*
X158696234Y-98856299D01*
X120750000Y-98000000D02*
X122060700Y-98000000D01*
X154535823Y-97856301D02*
X155035822Y-98356300D01*
X116844300Y-101905000D02*
X118155000Y-101905000D01*
X141722175Y-99750000D02*
X142172175Y-99300000D01*
X124395000Y-98095000D02*
X124500000Y-98200000D01*
X172250000Y-98500000D02*
X173750000Y-98500000D01*
X153575001Y-99874999D02*
X153500000Y-99950000D01*
X141350000Y-99750000D02*
X141722175Y-99750000D01*
X122060700Y-98000000D02*
X122155700Y-98095000D01*
X153575001Y-99356301D02*
X153575001Y-99874999D01*
X118155000Y-101905000D02*
X118250000Y-102000000D01*
X174750000Y-101250000D02*
X176189300Y-101250000D01*
X141350000Y-98000000D02*
X140250000Y-98000000D01*
D35*
X172250000Y-98500000D02*
X166500000Y-98500000D01*
D34*
X173750000Y-98500000D02*
X174000000Y-98250000D01*
X166500000Y-98500000D02*
X165000000Y-98500000D01*
X176189300Y-101250000D02*
X176844300Y-101905000D01*
X135000000Y-99750000D02*
X134250000Y-99000000D01*
X160250000Y-102050000D02*
X160700000Y-102050000D01*
X157924999Y-98356300D02*
X157924999Y-98856299D01*
X128850000Y-102250000D02*
X127500000Y-102250000D01*
X153575001Y-97856301D02*
X154535823Y-97856301D01*
X165000000Y-98500000D02*
X164750000Y-98750000D01*
X156532877Y-98424999D02*
X156464178Y-98356300D01*
X174750000Y-101250000D02*
X174750000Y-102250000D01*
X182095000Y-98095000D02*
X181000000Y-97000000D01*
%TO.N,/M1*%
X152250000Y-100500000D02*
X154750000Y-100500000D01*
X153575001Y-98356300D02*
X152732400Y-98356300D01*
X152250000Y-98838700D02*
X152250000Y-100500000D01*
X152732400Y-98356300D02*
X152250000Y-98838700D01*
X154750000Y-100500000D02*
X156000000Y-101750000D01*
%TO.N,/M2*%
X151750000Y-101750000D02*
X154000000Y-101750000D01*
X152893701Y-97356299D02*
X152858701Y-97321299D01*
X151750000Y-97321299D02*
X151750000Y-101750000D01*
X153575001Y-97356299D02*
X152893701Y-97356299D01*
X152858701Y-97321299D02*
X151750000Y-97321299D01*
%TD*%
M02*
