999
"DXF R12 Output" (www.mydxf.blogspot.com)
 0 
SECTION
 2 
HEADER
 9 
$ACADVER
 1 
AC1009
 9 
$EXTMIN
 10 
 0 
 20 
 0 
 9 
$EXTMAX
 10 
 8.5 
 20 
 11 
 0 
ENDSEC
 0 
SECTION
 2 
ENTITIES
0
LINE
8
Layer 1
10
9.375365
20
74.865006
11
9.263236
21
74.874938
0
LINE
8
Layer 1
10
9.263236
20
74.874938
11
9.217842
21
74.986884
0
LINE
8
Layer 1
10
9.217842
20
74.986884
11
9.221746
21
75.307422
0
LINE
8
Layer 1
10
9.221746
20
75.307422
11
9.696633
21
76.137110
0
LINE
8
Layer 1
10
9.696633
20
76.137110
11
9.779936
21
76.283892
0
LINE
8
Layer 1
10
9.779936
20
76.283892
11
9.784614
21
76.634563
0
LINE
8
Layer 1
10
9.784614
20
76.634563
11
9.761297
21
76.938799
0
LINE
8
Layer 1
10
9.761297
20
76.938799
11
9.637758
21
77.024527
0
LINE
8
Layer 1
10
9.637758
20
77.024527
11
9.515265
21
77.097412
0
LINE
8
Layer 1
10
9.515265
20
77.097412
11
9.644552
21
77.058497
0
LINE
8
Layer 1
10
9.644552
20
77.058497
11
9.796053
21
76.940109
0
LINE
8
Layer 1
10
9.796053
20
76.940109
11
9.818353
21
76.588567
0
LINE
8
Layer 1
10
9.818353
20
76.588567
11
9.806213
21
76.247929
0
LINE
8
Layer 1
10
9.806213
20
76.247929
11
9.719159
21
76.110150
0
LINE
8
Layer 1
10
9.719159
20
76.110150
11
9.203652
21
75.150526
0
LINE
8
Layer 1
10
9.203652
20
75.150526
11
9.247080
21
75.013058
0
LINE
8
Layer 1
10
9.247080
20
75.013058
11
9.290507
21
74.900772
0
LINE
8
Layer 1
10
9.290507
20
74.900772
11
9.559306
21
74.902095
0
LINE
8
Layer 1
10
9.559306
20
74.902095
11
9.960352
21
74.961214
0
LINE
8
Layer 1
10
9.960352
20
74.961214
11
9.818758
21
75.058101
0
LINE
8
Layer 1
10
9.818758
20
75.058101
11
9.641580
21
75.158954
0
LINE
8
Layer 1
10
9.641580
20
75.158954
11
9.718622
21
75.272910
0
LINE
8
Layer 1
10
9.718622
20
75.272910
11
9.860544
21
75.494055
0
LINE
8
Layer 1
10
9.860544
20
75.494055
11
10.048786
21
75.752016
0
LINE
8
Layer 1
10
10.048786
20
75.752016
11
10.250943
21
76.218285
0
LINE
8
Layer 1
10
10.250943
20
76.218285
11
10.380422
21
76.724282
0
LINE
8
Layer 1
10
10.380422
20
76.724282
11
10.739394
21
76.890590
0
LINE
8
Layer 1
10
10.739394
20
76.890590
11
11.611196
21
77.139226
0
LINE
8
Layer 1
10
11.611196
20
77.139226
11
12.250792
21
77.337978
0
LINE
8
Layer 1
10
12.250792
20
77.337978
11
12.298180
21
77.326641
0
LINE
8
Layer 1
10
12.298180
20
77.326641
11
12.251654
21
77.297506
0
LINE
8
Layer 1
10
12.251654
20
77.297506
11
11.547375
21
77.079153
0
LINE
8
Layer 1
10
11.547375
20
77.079153
11
10.783153
21
76.863785
0
LINE
8
Layer 1
10
10.783153
20
76.863785
11
10.442429
21
76.735136
0
LINE
8
Layer 1
10
10.442429
20
76.735136
11
10.290437
21
76.229471
0
LINE
8
Layer 1
10
10.290437
20
76.229471
11
10.099297
21
75.756047
0
LINE
8
Layer 1
10
10.099297
20
75.756047
11
9.859367
21
75.426054
0
LINE
8
Layer 1
10
9.859367
20
75.426054
11
9.741818
21
75.248052
0
LINE
8
Layer 1
10
9.741818
20
75.248052
11
9.679663
21
75.147373
0
LINE
8
Layer 1
10
9.679663
20
75.147373
11
9.822901
21
75.097078
0
LINE
8
Layer 1
10
9.822901
20
75.097078
11
9.998410
21
74.968478
0
LINE
8
Layer 1
10
9.998410
20
74.968478
11
9.890651
21
74.885062
0
LINE
8
Layer 1
10
9.890651
20
74.885062
11
9.375365
21
74.865005
0
LINE
8
Layer 1
10
9.375365
20
74.865005
11
9.375365
21
74.865006
0
LINE
8
Layer 1
10
12.623203
20
76.266821
11
12.707756
21
76.449978
0
LINE
8
Layer 1
10
12.707756
20
76.449978
11
12.779334
21
76.632611
0
LINE
8
Layer 1
10
12.779334
20
76.632611
11
12.795381
21
76.648845
0
LINE
8
Layer 1
10
12.795381
20
76.648845
11
12.605823
21
76.226897
0
LINE
8
Layer 1
10
12.605823
20
76.226897
11
12.623203
21
76.266821
0
LINE
8
Layer 1
10
12.623203
20
76.266821
11
12.623203
21
76.266821
0
LINE
8
Layer 1
10
12.352938
20
76.360370
11
12.553619
21
76.749707
0
LINE
8
Layer 1
10
12.553619
20
76.749707
11
12.579154
21
76.822276
0
LINE
8
Layer 1
10
12.579154
20
76.822276
11
12.567750
21
76.725167
0
LINE
8
Layer 1
10
12.567750
20
76.725167
11
12.369805
21
76.343148
0
LINE
8
Layer 1
10
12.369805
20
76.343148
11
12.279450
21
76.261341
0
LINE
8
Layer 1
10
12.279450
20
76.261341
11
12.352938
21
76.360370
0
LINE
8
Layer 1
10
12.352938
20
76.360370
11
12.352938
21
76.360370
0
LINE
8
Layer 1
10
9.276640
20
77.134471
11
9.017967
21
77.255435
0
LINE
8
Layer 1
10
9.017967
20
77.255435
11
8.966907
21
77.377247
0
LINE
8
Layer 1
10
8.966907
20
77.377247
11
8.993596
21
78.109003
0
LINE
8
Layer 1
10
8.993596
20
78.109003
11
9.001400
21
78.095527
0
LINE
8
Layer 1
10
9.001400
20
78.095527
11
8.989330
21
77.708023
0
LINE
8
Layer 1
10
8.989330
20
77.708023
11
9.091172
21
77.238815
0
LINE
8
Layer 1
10
9.091172
20
77.238815
11
9.257003
21
77.180478
0
LINE
8
Layer 1
10
9.257003
20
77.180478
11
9.356361
21
77.137319
0
LINE
8
Layer 1
10
9.356361
20
77.137319
11
9.276640
21
77.134471
0
LINE
8
Layer 1
10
9.276640
20
77.134471
11
9.276640
21
77.134471
0
LINE
8
Layer 1
10
12.269144
20
77.249762
11
12.423230
21
77.304112
0
LINE
8
Layer 1
10
12.423230
20
77.304112
11
13.269118
21
77.538876
0
LINE
8
Layer 1
10
13.269118
20
77.538876
11
13.316791
21
78.340946
0
LINE
8
Layer 1
10
13.316791
20
78.340946
11
13.249844
21
78.448586
0
LINE
8
Layer 1
10
13.249844
20
78.448586
11
13.139931
21
78.244752
0
LINE
8
Layer 1
10
13.139931
20
78.244752
11
13.058000
21
78.018480
0
LINE
8
Layer 1
10
13.058000
20
78.018480
11
12.877374
21
77.931914
0
LINE
8
Layer 1
10
12.877374
20
77.931914
11
12.629770
21
77.850100
0
LINE
8
Layer 1
10
12.629770
20
77.850100
11
12.423944
21
77.790934
0
LINE
8
Layer 1
10
12.423944
20
77.790934
11
12.186122
21
77.741655
0
LINE
8
Layer 1
10
12.186122
20
77.741655
11
11.999545
21
77.690801
0
LINE
8
Layer 1
10
11.999545
20
77.690801
11
11.839327
21
77.656356
0
LINE
8
Layer 1
10
11.839327
20
77.656356
11
11.662721
21
77.628058
0
LINE
8
Layer 1
10
11.662721
20
77.628058
11
11.702856
21
77.717718
0
LINE
8
Layer 1
10
11.702856
20
77.717718
11
11.768951
21
77.799722
0
LINE
8
Layer 1
10
11.768951
20
77.799722
11
11.762356
21
78.435751
0
LINE
8
Layer 1
10
11.762356
20
78.435751
11
11.743394
21
78.534861
0
LINE
8
Layer 1
10
11.743394
20
78.534861
11
11.677824
21
78.468223
0
LINE
8
Layer 1
10
11.677824
20
78.468223
11
11.263533
21
78.299807
0
LINE
8
Layer 1
10
11.263533
20
78.299807
11
11.303838
21
78.315072
0
LINE
8
Layer 1
10
11.303838
20
78.315072
11
11.484025
21
78.381507
0
LINE
8
Layer 1
10
11.484025
20
78.381507
11
11.762326
21
78.654510
0
LINE
8
Layer 1
10
11.762326
20
78.654510
11
11.765990
21
79.070041
0
LINE
8
Layer 1
10
11.765990
20
79.070041
11
11.612479
21
79.483395
0
LINE
8
Layer 1
10
11.612479
20
79.483395
11
11.339427
21
79.704349
0
LINE
8
Layer 1
10
11.339427
20
79.704349
11
11.198655
21
79.800212
0
LINE
8
Layer 1
10
11.198655
20
79.800212
11
11.238532
21
79.785492
0
LINE
8
Layer 1
10
11.238532
20
79.785492
11
11.347028
21
79.722204
0
LINE
8
Layer 1
10
11.347028
20
79.722204
11
11.643236
21
79.501602
0
LINE
8
Layer 1
10
11.643236
20
79.501602
11
11.832427
21
78.861924
0
LINE
8
Layer 1
10
11.832427
20
78.861924
11
11.773806
21
78.586025
0
LINE
8
Layer 1
10
11.773806
20
78.586025
11
11.768314
21
78.491302
0
LINE
8
Layer 1
10
11.768314
20
78.491302
11
11.833094
21
78.018026
0
LINE
8
Layer 1
10
11.833094
20
78.018026
11
11.816425
21
77.906081
0
LINE
8
Layer 1
10
11.816425
20
77.906081
11
11.823013
21
77.887844
0
LINE
8
Layer 1
10
11.823013
20
77.887844
11
11.847436
21
77.904759
0
LINE
8
Layer 1
10
11.847436
20
77.904759
11
11.720492
21
77.703718
0
LINE
8
Layer 1
10
11.720492
20
77.703718
11
11.845485
21
77.689369
0
LINE
8
Layer 1
10
11.845485
20
77.689369
11
12.058290
21
77.742979
0
LINE
8
Layer 1
10
12.058290
20
77.742979
11
12.216708
21
77.795240
0
LINE
8
Layer 1
10
12.216708
20
77.795240
11
12.386792
21
77.819013
0
LINE
8
Layer 1
10
12.386792
20
77.819013
11
12.617642
21
77.879570
0
LINE
8
Layer 1
10
12.617642
20
77.879570
11
12.859451
21
77.966529
0
LINE
8
Layer 1
10
12.859451
20
77.966529
11
13.027097
21
78.025665
0
LINE
8
Layer 1
10
13.027097
20
78.025665
11
13.103966
21
78.243418
0
LINE
8
Layer 1
10
13.103966
20
78.243418
11
13.234375
21
78.493226
0
LINE
8
Layer 1
10
13.234375
20
78.493226
11
13.346382
21
78.385990
0
LINE
8
Layer 1
10
13.346382
20
78.385990
11
13.374362
21
77.818030
0
LINE
8
Layer 1
10
13.374362
20
77.818030
11
13.242316
21
77.472509
0
LINE
8
Layer 1
10
13.242316
20
77.472509
11
12.463779
21
77.259636
0
LINE
8
Layer 1
10
12.463779
20
77.259636
11
12.269144
21
77.249762
0
LINE
8
Layer 1
10
12.269144
20
77.249762
11
12.269144
21
77.249762
0
LINE
8
Layer 1
10
9.633470
20
77.906091
11
9.196134
21
78.068804
0
LINE
8
Layer 1
10
9.196134
20
78.068804
11
9.358329
21
78.016776
0
LINE
8
Layer 1
10
9.358329
20
78.016776
11
9.957861
21
77.907537
0
LINE
8
Layer 1
10
9.957861
20
77.907537
11
10.180879
21
77.942120
0
LINE
8
Layer 1
10
10.180879
20
77.942120
11
10.349980
21
78.051328
0
LINE
8
Layer 1
10
10.349980
20
78.051328
11
10.417361
21
78.048165
0
LINE
8
Layer 1
10
10.417361
20
78.048165
11
10.516230
21
78.018026
0
LINE
8
Layer 1
10
10.516230
20
78.018026
11
10.695849
21
78.121807
0
LINE
8
Layer 1
10
10.695849
20
78.121807
11
10.580986
21
78.155805
0
LINE
8
Layer 1
10
10.580986
20
78.155805
11
10.517435
21
78.173028
0
LINE
8
Layer 1
10
10.517435
20
78.173028
11
10.680696
21
78.172423
0
LINE
8
Layer 1
10
10.680696
20
78.172423
11
10.635906
21
78.034871
0
LINE
8
Layer 1
10
10.635906
20
78.034871
11
10.432154
21
78.008572
0
LINE
8
Layer 1
10
10.432154
20
78.008572
11
10.272801
21
77.963179
0
LINE
8
Layer 1
10
10.272801
20
77.963179
11
10.158181
21
77.893009
0
LINE
8
Layer 1
10
10.158181
20
77.893009
11
9.944484
21
77.887198
0
LINE
8
Layer 1
10
9.944484
20
77.887198
11
9.633470
21
77.906092
0
LINE
8
Layer 1
10
9.633470
20
77.906092
11
9.633470
21
77.906091
0
LINE
8
Layer 1
10
9.068962
20
78.120981
11
8.992798
21
78.183368
0
LINE
8
Layer 1
10
8.992798
20
78.183368
11
9.013136
21
78.176546
0
LINE
8
Layer 1
10
9.013136
20
78.176546
11
9.106398
21
78.114366
0
LINE
8
Layer 1
10
9.106398
20
78.114366
11
9.162224
21
78.069901
0
LINE
8
Layer 1
10
9.162224
20
78.069901
11
9.068962
21
78.120981
0
LINE
8
Layer 1
10
9.068962
20
78.120981
11
9.068962
21
78.120981
0
LINE
8
Layer 1
10
10.814387
20
78.176377
11
10.842490
21
78.313073
0
LINE
8
Layer 1
10
10.842490
20
78.313073
11
10.922923
21
78.424393
0
LINE
8
Layer 1
10
10.922923
20
78.424393
11
10.845880
21
78.474638
0
LINE
8
Layer 1
10
10.845880
20
78.474638
11
10.725385
21
78.500204
0
LINE
8
Layer 1
10
10.725385
20
78.500204
11
10.660507
21
78.481008
0
LINE
8
Layer 1
10
10.660507
20
78.481008
11
10.456658
21
78.397675
0
LINE
8
Layer 1
10
10.456658
20
78.397675
11
10.274142
21
78.239913
0
LINE
8
Layer 1
10
10.274142
20
78.239913
11
10.391733
21
78.205172
0
LINE
8
Layer 1
10
10.391733
20
78.205172
11
10.428286
21
78.190992
0
LINE
8
Layer 1
10
10.428286
20
78.190992
11
10.255921
21
78.211389
0
LINE
8
Layer 1
10
10.255921
20
78.211389
11
10.303674
21
78.342039
0
LINE
8
Layer 1
10
10.303674
20
78.342039
11
10.508944
21
78.438410
0
LINE
8
Layer 1
10
10.508944
20
78.438410
11
10.655301
21
78.545168
0
LINE
8
Layer 1
10
10.655301
20
78.545168
11
10.445084
21
78.550678
0
LINE
8
Layer 1
10
10.445084
20
78.550678
11
10.285835
21
78.538804
0
LINE
8
Layer 1
10
10.285835
20
78.538804
11
10.325871
21
78.652503
0
LINE
8
Layer 1
10
10.325871
20
78.652503
11
10.439632
21
78.860051
0
LINE
8
Layer 1
10
10.439632
20
78.860051
11
10.237959
21
78.752436
0
LINE
8
Layer 1
10
10.237959
20
78.752436
11
10.176824
21
78.710235
0
LINE
8
Layer 1
10
10.176824
20
78.710235
11
10.221428
21
78.778430
0
LINE
8
Layer 1
10
10.221428
20
78.778430
11
10.476178
21
78.873215
0
LINE
8
Layer 1
10
10.476178
20
78.873215
11
10.387821
21
78.672608
0
LINE
8
Layer 1
10
10.387821
20
78.672608
11
10.309585
21
78.555600
0
LINE
8
Layer 1
10
10.309585
20
78.555600
11
10.464945
21
78.589771
0
LINE
8
Layer 1
10
10.464945
20
78.589771
11
10.612948
21
78.610050
0
LINE
8
Layer 1
10
10.612948
20
78.610050
11
10.720674
21
78.634242
0
LINE
8
Layer 1
10
10.720674
20
78.634242
11
10.822028
21
78.666421
0
LINE
8
Layer 1
10
10.822028
20
78.666421
11
10.971582
21
78.705362
0
LINE
8
Layer 1
10
10.971582
20
78.705362
11
10.773096
21
78.799819
0
LINE
8
Layer 1
10
10.773096
20
78.799819
11
10.639285
21
78.821168
0
LINE
8
Layer 1
10
10.639285
20
78.821168
11
10.649796
21
78.939030
0
LINE
8
Layer 1
10
10.649796
20
78.939030
11
10.756634
21
78.977744
0
LINE
8
Layer 1
10
10.756634
20
78.977744
11
10.840936
21
78.954213
0
LINE
8
Layer 1
10
10.840936
20
78.954213
11
10.769970
21
78.945208
0
LINE
8
Layer 1
10
10.769970
20
78.945208
11
10.657345
21
78.911464
0
LINE
8
Layer 1
10
10.657345
20
78.911464
11
10.644575
21
78.857813
0
LINE
8
Layer 1
10
10.644575
20
78.857813
11
10.781148
21
78.829009
0
LINE
8
Layer 1
10
10.781148
20
78.829009
11
11.004021
21
78.706355
0
LINE
8
Layer 1
10
11.004021
20
78.706355
11
10.854101
21
78.638033
0
LINE
8
Layer 1
10
10.854101
20
78.638033
11
10.714569
21
78.559469
0
LINE
8
Layer 1
10
10.714569
20
78.559469
11
10.817628
21
78.511848
0
LINE
8
Layer 1
10
10.817628
20
78.511848
11
10.935011
21
78.479525
0
LINE
8
Layer 1
10
10.935011
20
78.479525
11
10.873563
21
78.304796
0
LINE
8
Layer 1
10
10.873563
20
78.304796
11
10.823838
21
78.208477
0
LINE
8
Layer 1
10
10.823838
20
78.208477
11
11.044233
21
78.225837
0
LINE
8
Layer 1
10
11.044233
20
78.225837
11
11.179752
21
78.311840
0
LINE
8
Layer 1
10
11.179752
20
78.311840
11
11.231094
21
78.353008
0
LINE
8
Layer 1
10
11.231094
20
78.353008
11
11.122730
21
78.219971
0
LINE
8
Layer 1
10
11.122730
20
78.219971
11
10.814387
21
78.176377
0
LINE
8
Layer 1
10
10.814387
20
78.176377
11
10.814387
21
78.176377
0
LINE
8
Layer 1
10
8.905785
20
78.232168
11
8.830603
21
78.540159
0
LINE
8
Layer 1
10
8.830603
20
78.540159
11
8.911701
21
78.837728
0
LINE
8
Layer 1
10
8.911701
20
78.837728
11
8.992798
21
79.028957
0
LINE
8
Layer 1
10
8.992798
20
79.028957
11
9.187433
21
79.247399
0
LINE
8
Layer 1
10
9.187433
20
79.247399
11
9.274885
21
79.324900
0
LINE
8
Layer 1
10
9.274885
20
79.324900
11
9.307324
21
79.341783
0
LINE
8
Layer 1
10
9.307324
20
79.341783
11
9.201449
21
79.234799
0
LINE
8
Layer 1
10
9.201449
20
79.234799
11
9.009018
21
79.010250
0
LINE
8
Layer 1
10
9.009018
20
79.010250
11
8.934246
21
78.823281
0
LINE
8
Layer 1
10
8.934246
20
78.823281
11
8.866103
21
78.499284
0
LINE
8
Layer 1
10
8.866103
20
78.499284
11
8.909778
21
78.288278
0
LINE
8
Layer 1
10
8.909778
20
78.288278
11
8.905785
21
78.232168
0
LINE
8
Layer 1
10
8.905785
20
78.232168
11
8.905785
21
78.232168
0
LINE
8
Layer 1
10
9.579409
20
78.391249
11
9.378504
21
78.567372
0
LINE
8
Layer 1
10
9.378504
20
78.567372
11
9.328297
21
78.660323
0
LINE
8
Layer 1
10
9.328297
20
78.660323
11
9.375457
21
78.805403
0
LINE
8
Layer 1
10
9.375457
20
78.805403
11
9.427730
21
78.924145
0
LINE
8
Layer 1
10
9.427730
20
78.924145
11
9.399346
21
78.817398
0
LINE
8
Layer 1
10
9.399346
20
78.817398
11
9.385335
21
78.604748
0
LINE
8
Layer 1
10
9.385335
20
78.604748
11
9.578533
21
78.425768
0
LINE
8
Layer 1
10
9.578533
20
78.425768
11
9.790738
21
78.351875
0
LINE
8
Layer 1
10
9.790738
20
78.351875
11
10.032654
21
78.542721
0
LINE
8
Layer 1
10
10.032654
20
78.542721
11
10.105608
21
78.661968
0
LINE
8
Layer 1
10
10.105608
20
78.661968
11
10.073496
21
78.575294
0
LINE
8
Layer 1
10
10.073496
20
78.575294
11
10.016411
21
78.444982
0
LINE
8
Layer 1
10
10.016411
20
78.444982
11
9.803054
21
78.319694
0
LINE
8
Layer 1
10
9.803054
20
78.319694
11
9.579409
21
78.391249
0
LINE
8
Layer 1
10
9.579409
20
78.391249
11
9.579409
21
78.391249
0
LINE
8
Layer 1
10
11.104679
20
78.864791
11
11.103490
21
78.886576
0
LINE
8
Layer 1
10
11.103490
20
78.886576
11
11.168119
21
78.881828
0
LINE
8
Layer 1
10
11.168119
20
78.881828
11
11.182186
21
78.875857
0
LINE
8
Layer 1
10
11.182186
20
78.875857
11
11.104679
21
78.864791
0
LINE
8
Layer 1
10
11.104679
20
78.864791
11
11.104679
21
78.864791
0
LINE
8
Layer 1
10
11.241361
20
78.924393
11
11.294397
21
79.157829
0
LINE
8
Layer 1
10
11.294397
20
79.157829
11
11.298210
21
79.185487
0
LINE
8
Layer 1
10
11.298210
20
79.185487
11
11.334191
21
79.124620
0
LINE
8
Layer 1
10
11.334191
20
79.124620
11
11.247314
21
78.917129
0
LINE
8
Layer 1
10
11.247314
20
78.917129
11
11.206765
21
78.892140
0
LINE
8
Layer 1
10
11.206765
20
78.892140
11
11.241361
21
78.924393
0
LINE
8
Layer 1
10
9.158687
20
79.423723
11
8.769780
21
79.674461
0
LINE
8
Layer 1
10
8.769780
20
79.674461
11
8.785014
21
80.014038
0
LINE
8
Layer 1
10
8.785014
20
80.014038
11
8.859480
21
80.145904
0
LINE
8
Layer 1
10
8.859480
20
80.145904
11
8.807795
21
80.028467
0
LINE
8
Layer 1
10
8.807795
20
80.028467
11
8.740101
21
79.842026
0
LINE
8
Layer 1
10
8.740101
20
79.842026
11
8.784662
21
79.691853
0
LINE
8
Layer 1
10
8.784662
20
79.691853
11
9.232052
21
79.439421
0
LINE
8
Layer 1
10
9.232052
20
79.439421
11
9.308137
21
79.411422
0
LINE
8
Layer 1
10
9.308137
20
79.411422
11
9.158687
21
79.423723
0
LINE
8
Layer 1
10
9.158687
20
79.423723
11
9.158687
21
79.423723
0
LINE
8
Layer 1
10
11.255880
20
80.009778
11
11.196030
21
80.568813
0
LINE
8
Layer 1
10
11.196030
20
80.568813
11
11.114618
21
80.671946
0
LINE
8
Layer 1
10
11.114618
20
80.671946
11
11.091903
21
80.700443
0
LINE
8
Layer 1
10
11.091903
20
80.700443
11
11.222405
21
80.566941
0
LINE
8
Layer 1
10
11.222405
20
80.566941
11
11.282909
21
80.002908
0
LINE
8
Layer 1
10
11.282909
20
80.002908
11
11.231221
21
79.929713
0
LINE
8
Layer 1
10
11.231221
20
79.929713
11
11.255880
21
80.009778
0
LINE
8
Layer 1
10
11.255880
20
80.009778
11
11.255880
21
80.009778
0
LINE
8
Layer 1
10
8.860482
20
80.198399
11
8.788150
21
80.245389
0
LINE
8
Layer 1
10
8.788150
20
80.245389
11
8.575519
21
80.420964
0
LINE
8
Layer 1
10
8.575519
20
80.420964
11
8.605032
21
80.745646
0
LINE
8
Layer 1
10
8.605032
20
80.745646
11
8.902947
21
81.093565
0
LINE
8
Layer 1
10
8.902947
20
81.093565
11
9.101865
21
81.146135
0
LINE
8
Layer 1
10
9.101865
20
81.146135
11
9.414506
21
80.995282
0
LINE
8
Layer 1
10
9.414506
20
80.995282
11
9.375636
21
81.023119
0
LINE
8
Layer 1
10
9.375636
20
81.023119
11
9.064200
21
81.124856
0
LINE
8
Layer 1
10
9.064200
20
81.124856
11
8.831085
21
81.024509
0
LINE
8
Layer 1
10
8.831085
20
81.024509
11
8.630252
21
80.744181
0
LINE
8
Layer 1
10
8.630252
20
80.744181
11
8.656549
21
80.348424
0
LINE
8
Layer 1
10
8.656549
20
80.348424
11
8.934395
21
80.256674
0
LINE
8
Layer 1
10
8.934395
20
80.256674
11
9.025237
21
80.239716
0
LINE
8
Layer 1
10
9.025237
20
80.239716
11
8.941274
21
80.222757
0
LINE
8
Layer 1
10
8.941274
20
80.222757
11
8.875740
21
80.192354
0
LINE
8
Layer 1
10
8.875740
20
80.192354
11
8.860482
21
80.198399
0
LINE
8
Layer 1
10
8.860482
20
80.198399
11
8.860482
21
80.198399
0
LINE
8
Layer 1
10
8.968469
20
80.419128
11
8.814237
21
80.601930
0
LINE
8
Layer 1
10
8.814237
20
80.601930
11
8.941026
21
80.887976
0
LINE
8
Layer 1
10
8.941026
20
80.887976
11
9.063782
21
80.950717
0
LINE
8
Layer 1
10
9.063782
20
80.950717
11
9.308834
21
80.756893
0
LINE
8
Layer 1
10
9.308834
20
80.756893
11
9.290819
21
80.515840
0
LINE
8
Layer 1
10
9.290819
20
80.515840
11
8.968469
21
80.419128
0
LINE
8
Layer 1
10
8.968469
20
80.419128
11
8.968469
21
80.419128
0
LINE
8
Layer 1
10
9.194185
20
80.469176
11
9.300930
21
80.696237
0
LINE
8
Layer 1
10
9.300930
20
80.696237
11
9.123875
21
80.891272
0
LINE
8
Layer 1
10
9.123875
20
80.891272
11
8.996485
21
80.892132
0
LINE
8
Layer 1
10
8.996485
20
80.892132
11
8.830911
21
80.646068
0
LINE
8
Layer 1
10
8.830911
20
80.646068
11
8.982806
21
80.444484
0
LINE
8
Layer 1
10
8.982806
20
80.444484
11
9.194185
21
80.469176
0
LINE
8
Layer 1
10
9.194185
20
80.469176
11
9.194185
21
80.469176
0
LINE
8
Layer 1
10
9.065277
20
80.704721
11
9.067294
21
80.632685
0
LINE
8
Layer 1
10
9.067294
20
80.632685
11
9.053029
21
80.785087
0
LINE
8
Layer 1
10
9.053029
20
80.785087
11
9.094889
21
80.658675
0
LINE
8
Layer 1
10
9.094889
20
80.658675
11
9.043572
21
80.661312
0
LINE
8
Layer 1
10
9.043572
20
80.661312
11
9.065277
21
80.704721
0
LINE
8
Layer 1
10
10.047068
20
80.619213
11
10.322800
21
80.652259
0
LINE
8
Layer 1
10
10.322800
20
80.652259
11
10.213318
21
80.629237
0
LINE
8
Layer 1
10
10.213318
20
80.629237
11
10.047068
21
80.609993
0
LINE
8
Layer 1
10
10.047068
20
80.609993
11
9.990300
21
80.602338
0
LINE
8
Layer 1
10
9.990300
20
80.602338
11
10.047068
21
80.619213
0
LINE
8
Layer 1
10
11.077009
20
80.739165
11
11.101932
21
80.756388
0
LINE
8
Layer 1
10
11.101932
20
80.756388
11
11.262508
21
80.921044
0
LINE
8
Layer 1
10
11.262508
20
80.921044
11
11.262892
21
81.239951
0
LINE
8
Layer 1
10
11.262892
20
81.239951
11
10.836658
21
81.467945
0
LINE
8
Layer 1
10
10.836658
20
81.467945
11
10.533655
21
81.208738
0
LINE
8
Layer 1
10
10.533655
20
81.208738
11
10.516326
21
81.181237
0
LINE
8
Layer 1
10
10.516326
20
81.181237
11
10.592481
21
81.362504
0
LINE
8
Layer 1
10
10.592481
20
81.362504
11
10.733860
21
81.454920
0
LINE
8
Layer 1
10
10.733860
20
81.454920
11
11.086854
21
81.437991
0
LINE
8
Layer 1
10
11.086854
20
81.437991
11
11.300238
21
81.233326
0
LINE
8
Layer 1
10
11.300238
20
81.233326
11
11.302383
21
80.945129
0
LINE
8
Layer 1
10
11.302383
20
80.945129
11
11.077010
21
80.739165
0
LINE
8
Layer 1
10
11.077010
20
80.739165
11
11.077009
21
80.739165
0
LINE
8
Layer 1
10
10.786499
20
80.964378
11
10.744508
21
81.116554
0
LINE
8
Layer 1
10
10.744508
20
81.116554
11
10.811836
21
81.279920
0
LINE
8
Layer 1
10
10.811836
20
81.279920
11
10.940701
21
81.333059
0
LINE
8
Layer 1
10
10.940701
20
81.333059
11
11.133777
21
81.120766
0
LINE
8
Layer 1
10
11.133777
20
81.120766
11
10.884462
21
80.911389
0
LINE
8
Layer 1
10
10.884462
20
80.911389
11
10.786499
21
80.964378
0
LINE
8
Layer 1
10
10.786499
20
80.964378
11
10.786499
21
80.964378
0
LINE
8
Layer 1
10
11.014718
20
80.981977
11
11.094451
21
81.068902
0
LINE
8
Layer 1
10
11.094451
20
81.068902
11
11.086471
21
81.176012
0
LINE
8
Layer 1
10
11.086471
20
81.176012
11
10.929914
21
81.299704
0
LINE
8
Layer 1
10
10.929914
20
81.299704
11
10.812746
21
81.259170
0
LINE
8
Layer 1
10
10.812746
20
81.259170
11
10.839466
21
81.132663
0
LINE
8
Layer 1
10
10.839466
20
81.132663
11
10.783537
21
81.024541
0
LINE
8
Layer 1
10
10.783537
20
81.024541
11
11.014718
21
80.981977
0
LINE
8
Layer 1
10
11.014718
20
80.981977
11
11.014718
21
80.981977
0
LINE
8
Layer 1
10
9.049718
20
80.980538
11
2.262430
21
81.496205
0
LINE
8
Layer 1
10
2.262430
20
81.496205
11
9.049718
21
80.980538
0
LINE
8
Layer 1
10
9.049718
20
80.980538
11
9.049718
21
80.980538
0
LINE
8
Layer 1
10
9.514437
20
81.099534
11
10.038924
21
81.215838
0
LINE
8
Layer 1
10
10.038924
20
81.215838
11
10.468776
21
81.153477
0
LINE
8
Layer 1
10
10.468776
20
81.153477
11
10.367404
21
81.162644
0
LINE
8
Layer 1
10
10.367404
20
81.162644
11
9.738897
21
81.145537
0
LINE
8
Layer 1
10
9.738897
20
81.145537
11
9.519933
21
81.092750
0
LINE
8
Layer 1
10
9.519933
20
81.092750
11
9.514437
21
81.099534
0
LINE
8
Layer 1
10
9.514437
20
81.099534
11
9.514437
21
81.099534
0
LINE
8
Layer 1
10
1.975878
20
74.869595
11
2.040110
21
74.994494
0
LINE
8
Layer 1
10
2.040110
20
74.994494
11
2.169866
21
75.116204
0
LINE
8
Layer 1
10
2.169866
20
75.116204
11
1.977927
21
75.367772
0
LINE
8
Layer 1
10
1.977927
20
75.367772
11
1.772438
21
75.489908
0
LINE
8
Layer 1
10
1.772438
20
75.489908
11
1.615202
21
75.579616
0
LINE
8
Layer 1
10
1.615202
20
75.579616
11
1.389167
21
75.448140
0
LINE
8
Layer 1
10
1.389167
20
75.448140
11
1.123706
21
75.206395
0
LINE
8
Layer 1
10
1.123706
20
75.206395
11
0.852927
21
75.018391
0
LINE
8
Layer 1
10
0.852927
20
75.018391
11
0.660869
21
74.973795
0
LINE
8
Layer 1
10
0.660869
20
74.973795
11
0.496727
21
75.081611
0
LINE
8
Layer 1
10
0.496727
20
75.081611
11
0.093766
21
75.577123
0
LINE
8
Layer 1
10
0.093766
20
75.577123
11
0.157538
21
75.654042
0
LINE
8
Layer 1
10
0.157538
20
75.654042
11
0.491455
21
75.538047
0
LINE
8
Layer 1
10
0.491455
20
75.538047
11
0.647537
21
75.475449
0
LINE
8
Layer 1
10
0.647537
20
75.475449
11
1.026103
21
75.692467
0
LINE
8
Layer 1
10
1.026103
20
75.692467
11
1.088611
21
75.791496
0
LINE
8
Layer 1
10
1.088611
20
75.791496
11
0.807503
21
75.957972
0
LINE
8
Layer 1
10
0.807503
20
75.957972
11
0.771438
21
76.181520
0
LINE
8
Layer 1
10
0.771438
20
76.181520
11
0.969095
21
76.505915
0
LINE
8
Layer 1
10
0.969095
20
76.505915
11
1.147551
21
76.771983
0
LINE
8
Layer 1
10
1.147551
20
76.771983
11
1.247695
21
76.945722
0
LINE
8
Layer 1
10
1.247695
20
76.945722
11
1.246750
21
76.928499
0
LINE
8
Layer 1
10
1.246750
20
76.928499
11
1.147960
21
76.739053
0
LINE
8
Layer 1
10
1.147960
20
76.739053
11
0.981425
21
76.486465
0
LINE
8
Layer 1
10
0.981425
20
76.486465
11
0.774986
21
76.102178
0
LINE
8
Layer 1
10
0.774986
20
76.102178
11
0.971861
21
75.870053
0
LINE
8
Layer 1
10
0.971861
20
75.870053
11
1.135347
21
75.833955
0
LINE
8
Layer 1
10
1.135347
20
75.833955
11
1.213901
21
75.887807
0
LINE
8
Layer 1
10
1.213901
20
75.887807
11
1.366695
21
76.020843
0
LINE
8
Layer 1
10
1.366695
20
76.020843
11
1.642731
21
76.282297
0
LINE
8
Layer 1
10
1.642731
20
76.282297
11
1.889113
21
76.495167
0
LINE
8
Layer 1
10
1.889113
20
76.495167
11
2.075638
21
76.651192
0
LINE
8
Layer 1
10
2.075638
20
76.651192
11
2.218525
21
76.801425
0
LINE
8
Layer 1
10
2.218525
20
76.801425
11
2.137427
21
76.690049
0
LINE
8
Layer 1
10
2.137427
20
76.690049
11
1.934683
21
76.493772
0
LINE
8
Layer 1
10
1.934683
20
76.493772
11
1.630356
21
76.230205
0
LINE
8
Layer 1
10
1.630356
20
76.230205
11
1.408415
21
76.016413
0
LINE
8
Layer 1
10
1.408415
20
76.016413
11
1.114951
21
75.737241
0
LINE
8
Layer 1
10
1.114951
20
75.737241
11
0.850662
21
75.482320
0
LINE
8
Layer 1
10
0.850662
20
75.482320
11
0.756032
21
75.406499
0
LINE
8
Layer 1
10
0.756032
20
75.406499
11
0.649291
21
75.436700
0
LINE
8
Layer 1
10
0.649291
20
75.436700
11
0.460982
21
75.510790
0
LINE
8
Layer 1
10
0.460982
20
75.510790
11
0.162699
21
75.619174
0
LINE
8
Layer 1
10
0.162699
20
75.619174
11
0.126205
21
75.593797
0
LINE
8
Layer 1
10
0.126205
20
75.593797
11
0.536434
21
75.090971
0
LINE
8
Layer 1
10
0.536434
20
75.090971
11
0.846477
21
75.052635
0
LINE
8
Layer 1
10
0.846477
20
75.052635
11
1.070821
21
75.201142
0
LINE
8
Layer 1
10
1.070821
20
75.201142
11
1.284902
21
75.400615
0
LINE
8
Layer 1
10
1.284902
20
75.400615
11
1.601183
21
75.672649
0
LINE
8
Layer 1
10
1.601183
20
75.672649
11
1.934683
21
75.941611
0
LINE
8
Layer 1
10
1.934683
20
75.941611
11
2.299622
21
76.238677
0
LINE
8
Layer 1
10
2.299622
20
76.238677
11
2.589427
21
76.476294
0
LINE
8
Layer 1
10
2.589427
20
76.476294
11
2.929478
21
76.593366
0
LINE
8
Layer 1
10
2.929478
20
76.593366
11
3.242127
21
76.721173
0
LINE
8
Layer 1
10
3.242127
20
76.721173
11
3.353892
21
76.998921
0
LINE
8
Layer 1
10
3.353892
20
76.998921
11
3.370112
21
77.031834
0
LINE
8
Layer 1
10
3.370112
20
77.031834
11
3.294676
21
76.738624
0
LINE
8
Layer 1
10
3.294676
20
76.738624
11
2.904041
21
76.548627
0
LINE
8
Layer 1
10
2.904041
20
76.548627
11
2.396940
21
76.282340
0
LINE
8
Layer 1
10
2.396940
20
76.282340
11
1.918464
21
75.887810
0
LINE
8
Layer 1
10
1.918464
20
75.887810
11
1.606450
21
75.614614
0
LINE
8
Layer 1
10
1.606450
20
75.614614
11
1.836217
21
75.480545
0
LINE
8
Layer 1
10
1.836217
20
75.480545
11
2.194513
21
75.086767
0
LINE
8
Layer 1
10
2.194513
20
75.086767
11
2.042444
21
74.965146
0
LINE
8
Layer 1
10
2.042444
20
74.965146
11
2.004562
21
74.892668
0
LINE
8
Layer 1
10
2.004562
20
74.892668
11
2.452300
21
74.895919
0
LINE
8
Layer 1
10
2.452300
20
74.895919
11
2.607794
21
75.057654
0
LINE
8
Layer 1
10
2.607794
20
75.057654
11
2.300744
21
75.481017
0
LINE
8
Layer 1
10
2.300744
20
75.481017
11
1.959012
21
75.877933
0
LINE
8
Layer 1
10
1.959012
20
75.877933
11
1.975232
21
75.863201
0
LINE
8
Layer 1
10
1.975232
20
75.863201
11
2.315381
21
75.516592
0
LINE
8
Layer 1
10
2.315381
20
75.516592
11
2.612950
21
75.174128
0
LINE
8
Layer 1
10
2.612950
20
75.174128
11
2.661985
21
75.062864
0
LINE
8
Layer 1
10
2.661985
20
75.062864
11
2.630834
21
75.002484
0
LINE
8
Layer 1
10
2.630834
20
75.002484
11
2.192127
21
74.845000
0
LINE
8
Layer 1
10
2.192127
20
74.845000
11
1.975878
21
74.869595
0
LINE
8
Layer 1
10
1.975878
20
74.869595
11
1.975878
21
74.869595
0
LINE
8
Layer 1
10
3.213501
20
75.150550
11
3.327534
21
75.163203
0
LINE
8
Layer 1
10
3.327534
20
75.163203
11
3.565242
21
75.218065
0
LINE
8
Layer 1
10
3.565242
20
75.218065
11
3.633014
21
75.240566
0
LINE
8
Layer 1
10
3.633014
20
75.240566
11
3.213501
21
75.150550
0
LINE
8
Layer 1
10
3.213501
20
75.150550
11
3.213501
21
75.150550
0
LINE
8
Layer 1
10
3.686392
20
75.292371
11
3.704527
21
75.309594
0
LINE
8
Layer 1
10
3.704527
20
75.309594
11
3.702612
21
75.292371
0
LINE
8
Layer 1
10
3.702612
20
75.292371
11
3.684478
21
75.275149
0
LINE
8
Layer 1
10
3.684478
20
75.275149
11
3.686393
21
75.292371
0
LINE
8
Layer 1
10
3.686393
20
75.292371
11
3.686392
21
75.292371
0
LINE
8
Layer 1
10
2.810538
20
75.459890
11
2.745660
21
75.484362
0
LINE
8
Layer 1
10
2.745660
20
75.484362
11
2.778099
21
75.487342
0
LINE
8
Layer 1
10
2.778099
20
75.487342
11
2.972733
21
75.473757
0
LINE
8
Layer 1
10
2.972733
20
75.473757
11
3.332178
21
75.552026
0
LINE
8
Layer 1
10
3.332178
20
75.552026
11
3.508523
21
75.766665
0
LINE
8
Layer 1
10
3.508523
20
75.766665
11
3.531212
21
75.808387
0
LINE
8
Layer 1
10
3.531212
20
75.808387
11
3.386331
21
75.564128
0
LINE
8
Layer 1
10
3.386331
20
75.564128
11
2.810538
21
75.459890
0
LINE
8
Layer 1
10
2.810538
20
75.459890
11
2.810538
21
75.459890
0
LINE
8
Layer 1
10
3.451209
20
75.929251
11
3.380336
21
76.015676
0
LINE
8
Layer 1
10
3.380336
20
76.015676
11
3.444431
21
75.960344
0
LINE
8
Layer 1
10
3.444431
20
75.960344
11
3.515305
21
75.873919
0
LINE
8
Layer 1
10
3.515305
20
75.873919
11
3.451209
21
75.929251
0
LINE
8
Layer 1
10
3.451209
20
75.929251
11
3.451209
21
75.929251
0
LINE
8
Layer 1
10
1.347395
20
76.226687
11
1.328707
21
76.498567
0
LINE
8
Layer 1
10
1.328707
20
76.498567
11
1.568277
21
76.811966
0
LINE
8
Layer 1
10
1.568277
20
76.811966
11
1.735025
21
76.924776
0
LINE
8
Layer 1
10
1.735025
20
76.924776
11
2.005930
21
76.915538
0
LINE
8
Layer 1
10
2.005930
20
76.915538
11
2.274217
21
76.891625
0
LINE
8
Layer 1
10
2.274217
20
76.891625
11
1.691767
21
76.896639
0
LINE
8
Layer 1
10
1.691767
20
76.896639
11
1.610669
21
76.820107
0
LINE
8
Layer 1
10
1.610669
20
76.820107
11
1.427823
21
76.574373
0
LINE
8
Layer 1
10
1.427823
20
76.574373
11
1.294011
21
76.383718
0
LINE
8
Layer 1
10
1.294011
20
76.383718
11
1.377725
21
76.232709
0
LINE
8
Layer 1
10
1.377725
20
76.232709
11
1.391329
21
76.214786
0
LINE
8
Layer 1
10
1.391329
20
76.214786
11
1.347395
21
76.226687
0
LINE
8
Layer 1
10
1.347395
20
76.226687
11
1.347395
21
76.226687
0
LINE
8
Layer 1
10
1.164827
20
77.086102
11
1.144097
21
77.146364
0
LINE
8
Layer 1
10
1.144097
20
77.146364
11
1.172367
21
77.221298
0
LINE
8
Layer 1
10
1.172367
20
77.221298
11
1.325350
21
77.733839
0
LINE
8
Layer 1
10
1.325350
20
77.733839
11
1.243828
21
77.425461
0
LINE
8
Layer 1
10
1.243828
20
77.425461
11
1.205007
21
77.236014
0
LINE
8
Layer 1
10
1.205007
20
77.236014
11
1.214568
21
77.044750
0
LINE
8
Layer 1
10
1.214568
20
77.044750
11
1.225807
21
77.014611
0
LINE
8
Layer 1
10
1.225807
20
77.014611
11
1.164827
21
77.086102
0
LINE
8
Layer 1
10
1.164827
20
77.086102
11
1.164827
21
77.086102
0
LINE
8
Layer 1
10
3.337673
20
77.102566
11
3.362002
21
77.111718
0
LINE
8
Layer 1
10
3.362002
20
77.111718
11
3.387580
21
77.234737
0
LINE
8
Layer 1
10
3.387580
20
77.234737
11
3.393663
21
77.419338
0
LINE
8
Layer 1
10
3.393663
20
77.419338
11
3.411324
21
77.642857
0
LINE
8
Layer 1
10
3.411324
20
77.642857
11
3.424150
21
77.814710
0
LINE
8
Layer 1
10
3.424150
20
77.814710
11
3.371557
21
77.767720
0
LINE
8
Layer 1
10
3.371557
20
77.767720
11
3.232192
21
77.745477
0
LINE
8
Layer 1
10
3.232192
20
77.745477
11
3.032195
21
77.760303
0
LINE
8
Layer 1
10
3.032195
20
77.760303
11
2.586888
21
77.818511
0
LINE
8
Layer 1
10
2.586888
20
77.818511
11
2.217368
21
77.833225
0
LINE
8
Layer 1
10
2.217368
20
77.833225
11
2.026973
21
77.907029
0
LINE
8
Layer 1
10
2.026973
20
77.907029
11
2.112539
21
77.981591
0
LINE
8
Layer 1
10
2.112539
20
77.981591
11
2.186898
21
78.056033
0
LINE
8
Layer 1
10
2.186898
20
78.056033
11
1.932978
21
78.100298
0
LINE
8
Layer 1
10
1.932978
20
78.100298
11
1.826197
21
78.114806
0
LINE
8
Layer 1
10
1.826197
20
78.114806
11
1.765191
21
78.117379
0
LINE
8
Layer 1
10
1.765191
20
78.117379
11
1.827359
21
78.074458
0
LINE
8
Layer 1
10
1.827359
20
78.074458
11
1.959012
21
77.949729
0
LINE
8
Layer 1
10
1.959012
20
77.949729
11
1.784998
21
77.925902
0
LINE
8
Layer 1
10
1.784998
20
77.925902
11
1.563659
21
77.962467
0
LINE
8
Layer 1
10
1.563659
20
77.962467
11
1.413589
21
77.949272
0
LINE
8
Layer 1
10
1.413589
20
77.949272
11
1.400316
21
77.946664
0
LINE
8
Layer 1
10
1.400316
20
77.946664
11
1.376026
21
77.983802
0
LINE
8
Layer 1
10
1.376026
20
77.983802
11
1.342670
21
78.008160
0
LINE
8
Layer 1
10
1.342670
20
78.008160
11
1.707609
21
77.969770
0
LINE
8
Layer 1
10
1.707609
20
77.969770
11
1.926573
21
77.970003
0
LINE
8
Layer 1
10
1.926573
20
77.970003
11
1.809341
21
78.047946
0
LINE
8
Layer 1
10
1.809341
20
78.047946
11
1.750994
21
78.075331
0
LINE
8
Layer 1
10
1.750994
20
78.075331
11
1.733592
21
78.127562
0
LINE
8
Layer 1
10
1.733592
20
78.127562
11
1.843847
21
78.141615
0
LINE
8
Layer 1
10
1.843847
20
78.141615
11
1.934683
21
78.130832
0
LINE
8
Layer 1
10
1.934683
20
78.130832
11
1.953744
21
78.196822
0
LINE
8
Layer 1
10
1.953744
20
78.196822
11
1.896203
21
78.306387
0
LINE
8
Layer 1
10
1.896203
20
78.306387
11
1.731939
21
78.351289
0
LINE
8
Layer 1
10
1.731939
20
78.351289
11
1.797524
21
78.444473
0
LINE
8
Layer 1
10
1.797524
20
78.444473
11
1.928050
21
78.442388
0
LINE
8
Layer 1
10
1.928050
20
78.442388
11
2.051444
21
78.448724
0
LINE
8
Layer 1
10
2.051444
20
78.448724
11
2.010400
21
78.511481
0
LINE
8
Layer 1
10
2.010400
20
78.511481
11
1.821532
21
78.519521
0
LINE
8
Layer 1
10
1.821532
20
78.519521
11
1.783905
21
78.503706
0
LINE
8
Layer 1
10
1.783905
20
78.503706
11
1.901914
21
78.564627
0
LINE
8
Layer 1
10
1.901914
20
78.564627
11
2.027374
21
78.532687
0
LINE
8
Layer 1
10
2.027374
20
78.532687
11
2.107847
21
78.515201
0
LINE
8
Layer 1
10
2.107847
20
78.515201
11
2.309367
21
78.514289
0
LINE
8
Layer 1
10
2.309367
20
78.514289
11
2.418391
21
78.487440
0
LINE
8
Layer 1
10
2.418391
20
78.487440
11
2.496304
21
78.430139
0
LINE
8
Layer 1
10
2.496304
20
78.430139
11
2.724422
21
78.229973
0
LINE
8
Layer 1
10
2.724422
20
78.229973
11
2.937861
21
78.201212
0
LINE
8
Layer 1
10
2.937861
20
78.201212
11
3.094380
21
78.382070
0
LINE
8
Layer 1
10
3.094380
20
78.382070
11
3.110599
21
78.444071
0
LINE
8
Layer 1
10
3.110599
20
78.444071
11
3.126819
21
78.381526
0
LINE
8
Layer 1
10
3.126819
20
78.381526
11
3.053866
21
78.241518
0
LINE
8
Layer 1
10
3.053866
20
78.241518
11
2.980913
21
78.164054
0
LINE
8
Layer 1
10
2.980913
20
78.164054
11
2.864154
21
78.176271
0
LINE
8
Layer 1
10
2.864154
20
78.176271
11
2.689759
21
78.219735
0
LINE
8
Layer 1
10
2.689759
20
78.219735
11
2.460854
21
78.436215
0
LINE
8
Layer 1
10
2.460854
20
78.436215
11
2.304458
21
78.493850
0
LINE
8
Layer 1
10
2.304458
20
78.493850
11
2.104988
21
78.468743
0
LINE
8
Layer 1
10
2.104988
20
78.468743
11
2.171114
21
78.444071
0
LINE
8
Layer 1
10
2.171114
20
78.444071
11
2.284651
21
78.393728
0
LINE
8
Layer 1
10
2.284651
20
78.393728
11
2.270626
21
78.221803
0
LINE
8
Layer 1
10
2.270626
20
78.221803
11
2.109174
21
78.249825
0
LINE
8
Layer 1
10
2.109174
20
78.249825
11
2.011406
21
78.217240
0
LINE
8
Layer 1
10
2.011406
20
78.217240
11
2.005323
21
78.153334
0
LINE
8
Layer 1
10
2.005323
20
78.153334
11
2.091319
21
78.109407
0
LINE
8
Layer 1
10
2.091319
20
78.109407
11
2.231637
21
78.038166
0
LINE
8
Layer 1
10
2.231637
20
78.038166
11
2.137309
21
77.960311
0
LINE
8
Layer 1
10
2.137309
20
77.960311
11
2.095715
21
77.860636
0
LINE
8
Layer 1
10
2.095715
20
77.860636
11
2.243561
21
77.856098
0
LINE
8
Layer 1
10
2.243561
20
77.856098
11
2.584941
21
77.849975
0
LINE
8
Layer 1
10
2.584941
20
77.849975
11
3.138833
21
77.808702
0
LINE
8
Layer 1
10
3.138833
20
77.808702
11
3.231025
21
77.788102
0
LINE
8
Layer 1
10
3.231025
20
77.788102
11
3.334745
21
77.779400
0
LINE
8
Layer 1
10
3.334745
20
77.779400
11
3.542555
21
78.025874
0
LINE
8
Layer 1
10
3.542555
20
78.025874
11
3.564746
21
78.249886
0
LINE
8
Layer 1
10
3.564746
20
78.249886
11
3.444784
21
78.814352
0
LINE
8
Layer 1
10
3.444784
20
78.814352
11
3.402936
21
78.971804
0
LINE
8
Layer 1
10
3.402936
20
78.971804
11
3.520142
21
79.054993
0
LINE
8
Layer 1
10
3.520142
20
79.054993
11
3.682412
21
79.102027
0
LINE
8
Layer 1
10
3.682412
20
79.102027
11
3.867190
21
79.327354
0
LINE
8
Layer 1
10
3.867190
20
79.327354
11
3.901479
21
79.684083
0
LINE
8
Layer 1
10
3.901479
20
79.684083
11
3.892897
21
79.951030
0
LINE
8
Layer 1
10
3.892897
20
79.951030
11
3.915838
21
79.770195
0
LINE
8
Layer 1
10
3.915838
20
79.770195
11
3.887491
21
79.306139
0
LINE
8
Layer 1
10
3.887491
20
79.306139
11
3.598069
21
79.040487
0
LINE
8
Layer 1
10
3.598069
20
79.040487
11
3.478541
21
79.010949
0
LINE
8
Layer 1
10
3.478541
20
79.010949
11
3.423640
21
78.935552
0
LINE
8
Layer 1
10
3.423640
20
78.935552
11
3.472942
21
78.786073
0
LINE
8
Layer 1
10
3.472942
20
78.786073
11
3.557191
21
78.543318
0
LINE
8
Layer 1
10
3.557191
20
78.543318
11
3.594710
21
78.215856
0
LINE
8
Layer 1
10
3.594710
20
78.215856
11
3.543958
21
77.958095
0
LINE
8
Layer 1
10
3.543958
20
77.958095
11
3.469532
21
77.854997
0
LINE
8
Layer 1
10
3.469532
20
77.854997
11
3.428846
21
77.591562
0
LINE
8
Layer 1
10
3.428846
20
77.591562
11
3.368017
21
77.083501
0
LINE
8
Layer 1
10
3.368017
20
77.083501
11
3.337673
21
77.102566
0
LINE
8
Layer 1
10
3.337673
20
77.102566
11
3.337673
21
77.102566
0
LINE
8
Layer 1
10
1.986045
20
78.214439
11
1.975232
21
78.202957
0
LINE
8
Layer 1
10
1.975232
20
78.202957
11
1.986045
21
78.191475
0
LINE
8
Layer 1
10
1.986045
20
78.191475
11
1.986045
21
78.214439
0
LINE
8
Layer 1
10
1.986045
20
78.214439
11
1.986045
21
78.214439
0
LINE
8
Layer 1
10
2.280159
20
78.258069
11
2.272811
21
78.377378
0
LINE
8
Layer 1
10
2.272811
20
78.377378
11
2.061780
21
78.422280
0
LINE
8
Layer 1
10
2.061780
20
78.422280
11
1.927832
21
78.418119
0
LINE
8
Layer 1
10
1.927832
20
78.418119
11
1.780741
21
78.401198
0
LINE
8
Layer 1
10
1.780741
20
78.401198
11
1.866816
21
78.341000
0
LINE
8
Layer 1
10
1.866816
20
78.341000
11
1.964134
21
78.320081
0
LINE
8
Layer 1
10
1.964134
20
78.320081
11
2.032000
21
78.303380
0
LINE
8
Layer 1
10
2.032000
20
78.303380
11
2.128692
21
78.272368
0
LINE
8
Layer 1
10
2.128692
20
78.272368
11
2.280159
21
78.258069
0
LINE
8
Layer 1
10
2.280159
20
78.258069
11
2.280159
21
78.258069
0
LINE
8
Layer 1
10
1.326450
20
77.772397
11
1.337263
21
77.783878
0
LINE
8
Layer 1
10
1.337263
20
77.783878
11
1.337263
21
77.760915
0
LINE
8
Layer 1
10
1.337263
20
77.760915
11
1.326450
21
77.772397
0
LINE
8
Layer 1
10
1.326450
20
77.772397
11
1.326450
21
77.772397
0
LINE
8
Layer 1
10
1.342670
20
77.824064
11
1.353483
21
77.835546
0
LINE
8
Layer 1
10
1.353483
20
77.835546
11
1.353483
21
77.812582
0
LINE
8
Layer 1
10
1.353483
20
77.812582
11
1.342670
21
77.824064
0
LINE
8
Layer 1
10
1.342670
20
77.824064
11
1.342670
21
77.824064
0
LINE
8
Layer 1
10
1.358890
20
77.867120
11
1.366999
21
77.875731
0
LINE
8
Layer 1
10
1.366999
20
77.875731
11
1.375109
21
77.867120
0
LINE
8
Layer 1
10
1.375109
20
77.867120
11
1.366999
21
77.858509
0
LINE
8
Layer 1
10
1.366999
20
77.858509
11
1.358890
21
77.867120
0
LINE
8
Layer 1
10
1.358890
20
77.867120
11
1.358890
21
77.867120
0
LINE
8
Layer 1
10
1.375109
20
77.901565
11
1.383219
21
77.910176
0
LINE
8
Layer 1
10
1.383219
20
77.910176
11
1.391329
21
77.901565
0
LINE
8
Layer 1
10
1.391329
20
77.901565
11
1.383219
21
77.892954
0
LINE
8
Layer 1
10
1.383219
20
77.892954
11
1.375109
21
77.901565
0
LINE
8
Layer 1
10
1.375109
20
77.901565
11
1.375109
21
77.901565
0
LINE
8
Layer 1
10
1.221023
20
77.951453
11
0.950116
21
78.125456
0
LINE
8
Layer 1
10
0.950116
20
78.125456
11
0.839864
21
78.451905
0
LINE
8
Layer 1
10
0.839864
20
78.451905
11
0.966155
21
78.711018
0
LINE
8
Layer 1
10
0.966155
20
78.711018
11
1.254944
21
79.020356
0
LINE
8
Layer 1
10
1.254944
20
79.020356
11
1.592573
21
79.303950
0
LINE
8
Layer 1
10
1.592573
20
79.303950
11
1.638783
21
79.331024
0
LINE
8
Layer 1
10
1.638783
20
79.331024
11
1.243595
21
78.981376
0
LINE
8
Layer 1
10
1.243595
20
78.981376
11
1.078357
21
78.830365
0
LINE
8
Layer 1
10
1.078357
20
78.830365
11
0.872513
21
78.448678
0
LINE
8
Layer 1
10
0.872513
20
78.448678
11
0.974044
21
78.137679
0
LINE
8
Layer 1
10
0.974044
20
78.137679
11
1.241491
21
77.977907
0
LINE
8
Layer 1
10
1.241491
20
77.977907
11
1.328629
21
77.933222
0
LINE
8
Layer 1
10
1.328629
20
77.933222
11
1.221023
21
77.951453
0
LINE
8
Layer 1
10
1.221023
20
77.951453
11
1.221023
21
77.951453
0
LINE
8
Layer 1
10
1.384455
20
78.518692
11
1.377895
21
78.697116
0
LINE
8
Layer 1
10
1.377895
20
78.697116
11
1.492404
21
78.822963
0
LINE
8
Layer 1
10
1.492404
20
78.822963
11
1.473088
21
78.777856
0
LINE
8
Layer 1
10
1.473088
20
78.777856
11
1.375109
21
78.622973
0
LINE
8
Layer 1
10
1.375109
20
78.622973
11
1.460262
21
78.710086
0
LINE
8
Layer 1
10
1.460262
20
78.710086
11
1.602183
21
78.812422
0
LINE
8
Layer 1
10
1.602183
20
78.812422
11
1.696114
21
78.892372
0
LINE
8
Layer 1
10
1.696114
20
78.892372
11
1.652157
21
78.714891
0
LINE
8
Layer 1
10
1.652157
20
78.714891
11
1.582590
21
78.539505
0
LINE
8
Layer 1
10
1.582590
20
78.539505
11
1.611919
21
78.655148
0
LINE
8
Layer 1
10
1.611919
20
78.655148
11
1.625484
21
78.795165
0
LINE
8
Layer 1
10
1.625484
20
78.795165
11
1.443914
21
78.670925
0
LINE
8
Layer 1
10
1.443914
20
78.670925
11
1.429321
21
78.519489
0
LINE
8
Layer 1
10
1.429321
20
78.519489
11
1.673089
21
78.521899
0
LINE
8
Layer 1
10
1.673089
20
78.521899
11
1.683103
21
78.515232
0
LINE
8
Layer 1
10
1.683103
20
78.515232
11
1.542419
21
78.486480
0
LINE
8
Layer 1
10
1.542419
20
78.486480
11
1.384455
21
78.518694
0
LINE
8
Layer 1
10
1.384455
20
78.518694
11
1.384455
21
78.518692
0
LINE
8
Layer 1
10
1.715719
20
78.538794
11
1.723829
21
78.547405
0
LINE
8
Layer 1
10
1.723829
20
78.547405
11
1.731939
21
78.538794
0
LINE
8
Layer 1
10
1.731939
20
78.538794
11
1.723829
21
78.530182
0
LINE
8
Layer 1
10
1.723829
20
78.530182
11
1.715719
21
78.538794
0
LINE
8
Layer 1
10
1.715719
20
78.538794
11
1.715719
21
78.538794
0
LINE
8
Layer 1
10
1.748158
20
78.556016
11
1.756268
21
78.564627
0
LINE
8
Layer 1
10
1.756268
20
78.564627
11
1.764378
21
78.556016
0
LINE
8
Layer 1
10
1.764378
20
78.556016
11
1.756268
21
78.547405
0
LINE
8
Layer 1
10
1.756268
20
78.547405
11
1.748158
21
78.556016
0
LINE
8
Layer 1
10
1.748158
20
78.556016
11
1.748158
21
78.556016
0
LINE
8
Layer 1
10
1.667061
20
79.399914
11
1.675170
21
79.408525
0
LINE
8
Layer 1
10
1.675170
20
79.408525
11
1.683280
21
79.399914
0
LINE
8
Layer 1
10
1.683280
20
79.399914
11
1.675170
21
79.391302
0
LINE
8
Layer 1
10
1.675170
20
79.391302
11
1.667061
21
79.399914
0
LINE
8
Layer 1
10
1.667061
20
79.399914
11
1.667061
21
79.399914
0
LINE
8
Layer 1
10
1.729991
20
79.516165
11
1.573341
21
79.916586
0
LINE
8
Layer 1
10
1.573341
20
79.916586
11
1.674898
21
80.349856
0
LINE
8
Layer 1
10
1.674898
20
80.349856
11
1.690058
21
80.364368
0
LINE
8
Layer 1
10
1.690058
20
80.364368
11
1.632774
21
79.744362
0
LINE
8
Layer 1
10
1.632774
20
79.744362
11
1.805682
21
79.477415
0
LINE
8
Layer 1
10
1.805682
20
79.477415
11
1.821146
21
79.460192
0
LINE
8
Layer 1
10
1.821146
20
79.460192
11
1.729991
21
79.516165
0
LINE
8
Layer 1
10
1.729991
20
79.516165
11
1.729991
21
79.516165
0
LINE
8
Layer 1
10
3.928369
20
79.957379
11
4.000792
21
79.983158
0
LINE
8
Layer 1
10
4.000792
20
79.983158
11
4.232105
21
80.179628
0
LINE
8
Layer 1
10
4.232105
20
80.179628
11
4.171642
21
80.466370
0
LINE
8
Layer 1
10
4.171642
20
80.466370
11
3.965763
21
80.630369
0
LINE
8
Layer 1
10
3.965763
20
80.630369
11
3.570991
21
80.520420
0
LINE
8
Layer 1
10
3.570991
20
80.520420
11
3.603545
21
80.431080
0
LINE
8
Layer 1
10
3.603545
20
80.431080
11
3.635531
21
80.356736
0
LINE
8
Layer 1
10
3.635531
20
80.356736
11
3.599467
21
80.389828
0
LINE
8
Layer 1
10
3.599467
20
80.389828
11
3.544472
21
80.463023
0
LINE
8
Layer 1
10
3.544472
20
80.463023
11
3.516087
21
80.508565
0
LINE
8
Layer 1
10
3.516087
20
80.508565
11
3.334726
21
80.689585
0
LINE
8
Layer 1
10
3.334726
20
80.689585
11
2.907855
21
80.859193
0
LINE
8
Layer 1
10
2.907855
20
80.859193
11
2.534806
21
80.924183
0
LINE
8
Layer 1
10
2.534806
20
80.924183
11
2.340171
21
80.935206
0
LINE
8
Layer 1
10
2.340171
20
80.935206
11
2.507370
21
80.938262
0
LINE
8
Layer 1
10
2.507370
20
80.938262
11
2.864512
21
80.890400
0
LINE
8
Layer 1
10
2.864512
20
80.890400
11
3.494663
21
80.574700
0
LINE
8
Layer 1
10
3.494663
20
80.574700
11
3.543149
21
80.516064
0
LINE
8
Layer 1
10
3.543149
20
80.516064
11
3.600676
21
80.572043
0
LINE
8
Layer 1
10
3.600676
20
80.572043
11
3.830936
21
80.663089
0
LINE
8
Layer 1
10
3.830936
20
80.663089
11
4.082999
21
80.597397
0
LINE
8
Layer 1
10
4.082999
20
80.597397
11
4.258306
21
80.271347
0
LINE
8
Layer 1
10
4.258306
20
80.271347
11
4.211568
21
80.089072
0
LINE
8
Layer 1
10
4.211568
20
80.089072
11
3.957113
21
79.942588
0
LINE
8
Layer 1
10
3.957113
20
79.942588
11
3.928369
21
79.957379
0
LINE
8
Layer 1
10
3.928369
20
79.957379
11
3.928369
21
79.957379
0
LINE
8
Layer 1
10
2.588540
20
80.011309
11
2.437489
21
80.045754
0
LINE
8
Layer 1
10
2.437489
20
80.045754
11
2.408147
21
80.029079
0
LINE
8
Layer 1
10
2.408147
20
80.029079
11
2.502367
21
80.080198
0
LINE
8
Layer 1
10
2.502367
20
80.080198
11
2.630967
21
79.998392
0
LINE
8
Layer 1
10
2.630967
20
79.998392
11
2.588540
21
80.011309
0
LINE
8
Layer 1
10
2.588540
20
80.011309
11
2.588540
21
80.011309
0
LINE
8
Layer 1
10
3.836967
20
80.179227
11
3.776695
21
80.341708
0
LINE
8
Layer 1
10
3.776695
20
80.341708
11
3.798287
21
80.317968
0
LINE
8
Layer 1
10
3.798287
20
80.317968
11
3.944985
21
80.221810
0
LINE
8
Layer 1
10
3.944985
20
80.221810
11
3.953444
21
80.182401
0
LINE
8
Layer 1
10
3.953444
20
80.182401
11
3.836967
21
80.179227
0
LINE
8
Layer 1
10
3.836967
20
80.179227
11
3.836967
21
80.179227
0
LINE
8
Layer 1
10
1.699500
20
80.416035
11
1.707609
21
80.424647
0
LINE
8
Layer 1
10
1.707609
20
80.424647
11
1.715719
21
80.416035
0
LINE
8
Layer 1
10
1.715719
20
80.416035
11
1.707609
21
80.407424
0
LINE
8
Layer 1
10
1.707609
20
80.407424
11
1.699500
21
80.416035
0
LINE
8
Layer 1
10
1.699500
20
80.416035
11
1.699500
21
80.416035
0
LINE
8
Layer 1
10
1.715719
20
80.450480
11
1.723829
21
80.459091
0
LINE
8
Layer 1
10
1.723829
20
80.459091
11
1.731939
21
80.450480
0
LINE
8
Layer 1
10
1.731939
20
80.450480
11
1.723829
21
80.441869
0
LINE
8
Layer 1
10
1.723829
20
80.441869
11
1.715719
21
80.450480
0
LINE
8
Layer 1
10
1.715719
20
80.450480
11
1.715719
21
80.450480
0
LINE
8
Layer 1
10
1.731939
20
80.484925
11
1.740049
21
80.493536
0
LINE
8
Layer 1
10
1.740049
20
80.493536
11
1.748158
21
80.484925
0
LINE
8
Layer 1
10
1.748158
20
80.484925
11
1.740049
21
80.476314
0
LINE
8
Layer 1
10
1.740049
20
80.476314
11
1.731939
21
80.484925
0
LINE
8
Layer 1
10
1.731939
20
80.484925
11
1.731939
21
80.484925
0
LINE
8
Layer 1
10
1.741576
20
80.570915
11
1.634712
21
80.796060
0
LINE
8
Layer 1
10
1.634712
20
80.796060
11
1.868872
21
81.156669
0
LINE
8
Layer 1
10
1.868872
20
81.156669
11
2.173259
21
81.201838
0
LINE
8
Layer 1
10
2.173259
20
81.201838
11
2.258059
21
81.118260
0
LINE
8
Layer 1
10
2.258059
20
81.118260
11
2.301650
21
80.941319
0
LINE
8
Layer 1
10
2.301650
20
80.941319
11
2.283403
21
80.986647
0
LINE
8
Layer 1
10
2.283403
20
80.986647
11
2.185702
21
81.165428
0
LINE
8
Layer 1
10
2.185702
20
81.165428
11
1.938705
21
81.157860
0
LINE
8
Layer 1
10
1.938705
20
81.157860
11
1.727913
21
80.982817
0
LINE
8
Layer 1
10
1.727913
20
80.982817
11
1.673187
21
80.745521
0
LINE
8
Layer 1
10
1.673187
20
80.745521
11
1.741154
21
80.622337
0
LINE
8
Layer 1
10
1.741154
20
80.622337
11
1.741576
21
80.570915
0
LINE
8
Layer 1
10
1.741576
20
80.570915
11
1.741576
21
80.570915
0
LINE
8
Layer 1
10
1.845476
20
80.889651
11
1.829997
21
81.027430
0
LINE
8
Layer 1
10
1.829997
20
81.027430
11
1.836070
21
81.005777
0
LINE
8
Layer 1
10
1.836070
20
81.005777
11
1.899583
21
80.872429
0
LINE
8
Layer 1
10
1.899583
20
80.872429
11
1.966960
21
80.923916
0
LINE
8
Layer 1
10
1.966960
20
80.923916
11
2.021526
21
80.966793
0
LINE
8
Layer 1
10
2.021526
20
80.966793
11
1.907319
21
80.855206
0
LINE
8
Layer 1
10
1.907319
20
80.855206
11
1.845476
21
80.889651
0
LINE
8
Layer 1
10
1.845476
20
80.889651
11
1.845476
21
80.889651
0
LINE
8
Layer 1
10
2.279348
20
80.918280
11
2.319897
21
80.918280
0
LINE
8
Layer 1
10
2.319897
20
80.918280
11
2.299622
21
80.909593
0
LINE
8
Layer 1
10
2.299622
20
80.909593
11
2.279348
21
80.918280
0
LINE
8
Layer 1
10
2.279348
20
80.918280
11
2.279348
21
80.918280
0
LINE
8
Layer 1
10
4.869222
20
74.841197
11
4.767750
21
74.929508
0
LINE
8
Layer 1
10
4.767750
20
74.929508
11
4.909671
21
75.032271
0
LINE
8
Layer 1
10
4.909671
20
75.032271
11
5.075458
21
75.114851
0
LINE
8
Layer 1
10
5.075458
20
75.114851
11
5.099787
21
76.047628
0
LINE
8
Layer 1
10
5.099787
20
76.047628
11
5.100249
21
76.967460
0
LINE
8
Layer 1
10
5.100249
20
76.967460
11
5.036081
21
77.031362
0
LINE
8
Layer 1
10
5.036081
20
77.031362
11
4.982248
21
77.106240
0
LINE
8
Layer 1
10
4.982248
20
77.106240
11
5.129142
21
76.984682
0
LINE
8
Layer 1
10
5.129142
20
76.984682
11
5.144575
21
76.024114
0
LINE
8
Layer 1
10
5.144575
20
76.024114
11
5.140241
21
75.097990
0
LINE
8
Layer 1
10
5.140241
20
75.097990
11
5.087806
21
75.073835
0
LINE
8
Layer 1
10
5.087806
20
75.073835
11
4.850969
21
74.890954
0
LINE
8
Layer 1
10
4.850969
20
74.890954
11
5.238074
21
74.932520
0
LINE
8
Layer 1
10
5.238074
20
74.932520
11
5.380990
21
75.038551
0
LINE
8
Layer 1
10
5.380990
20
75.038551
11
5.465286
21
75.566644
0
LINE
8
Layer 1
10
5.465286
20
75.566644
11
5.514969
21
75.959950
0
LINE
8
Layer 1
10
5.514969
20
75.959950
11
5.649260
21
76.706547
0
LINE
8
Layer 1
10
5.649260
20
76.706547
11
5.692118
21
76.881163
0
LINE
8
Layer 1
10
5.692118
20
76.881163
11
6.390561
21
76.992998
0
LINE
8
Layer 1
10
6.390561
20
76.992998
11
6.939920
21
76.986277
0
LINE
8
Layer 1
10
6.939920
20
76.986277
11
6.974858
21
76.697802
0
LINE
8
Layer 1
10
6.974858
20
76.697802
11
7.014837
21
76.175229
0
LINE
8
Layer 1
10
7.014837
20
76.175229
11
7.038653
21
75.595295
0
LINE
8
Layer 1
10
7.038653
20
75.595295
11
7.016430
21
75.256128
0
LINE
8
Layer 1
10
7.016430
20
75.256128
11
6.852316
21
75.099076
0
LINE
8
Layer 1
10
6.852316
20
75.099076
11
6.746532
21
75.002747
0
LINE
8
Layer 1
10
6.746532
20
75.002747
11
7.041189
21
74.955927
0
LINE
8
Layer 1
10
7.041189
20
74.955927
11
7.313200
21
75.096716
0
LINE
8
Layer 1
10
7.313200
20
75.096716
11
7.428671
21
75.959950
0
LINE
8
Layer 1
10
7.428671
20
75.959950
11
7.459471
21
76.648845
0
LINE
8
Layer 1
10
7.459471
20
76.648845
11
7.476130
21
76.912922
0
LINE
8
Layer 1
10
7.476130
20
76.912922
11
7.496685
21
77.006037
0
LINE
8
Layer 1
10
7.496685
20
77.006037
11
7.495014
21
76.614401
0
LINE
8
Layer 1
10
7.495014
20
76.614401
11
7.460781
21
75.873837
0
LINE
8
Layer 1
10
7.460781
20
75.873837
11
7.411809
21
75.270534
0
LINE
8
Layer 1
10
7.411809
20
75.270534
11
7.265558
21
74.975750
0
LINE
8
Layer 1
10
7.265558
20
74.975750
11
6.762752
21
74.939549
0
LINE
8
Layer 1
10
6.762752
20
74.939549
11
6.819520
21
75.120771
0
LINE
8
Layer 1
10
6.819520
20
75.120771
11
6.975787
21
75.271649
0
LINE
8
Layer 1
10
6.975787
20
75.271649
11
6.993282
21
75.651301
0
LINE
8
Layer 1
10
6.993282
20
75.651301
11
6.975986
21
76.192452
0
LINE
8
Layer 1
10
6.975986
20
76.192452
11
6.941569
21
76.632715
0
LINE
8
Layer 1
10
6.941569
20
76.632715
11
6.914930
21
76.949306
0
LINE
8
Layer 1
10
6.914930
20
76.949306
11
6.675039
21
76.970723
0
LINE
8
Layer 1
10
6.675039
20
76.970723
11
5.795099
21
76.881666
0
LINE
8
Layer 1
10
5.795099
20
76.881666
11
5.711411
21
76.855103
0
LINE
8
Layer 1
10
5.711411
20
76.855103
11
5.684475
21
76.687390
0
LINE
8
Layer 1
10
5.684475
20
76.687390
11
5.556398
21
75.974393
0
LINE
8
Layer 1
10
5.556398
20
75.974393
11
5.506043
21
75.595501
0
LINE
8
Layer 1
10
5.506043
20
75.595501
11
5.361993
21
74.935185
0
LINE
8
Layer 1
10
5.361993
20
74.935185
11
4.986713
21
74.836416
0
LINE
8
Layer 1
10
4.986713
20
74.836416
11
4.869222
21
74.841197
0
LINE
8
Layer 1
10
4.869222
20
74.841197
11
4.869222
21
74.841197
0
LINE
8
Layer 1
10
7.589949
20
77.136029
11
7.695376
21
77.191351
0
LINE
8
Layer 1
10
7.695376
20
77.191351
11
7.709274
21
77.446411
0
LINE
8
Layer 1
10
7.709274
20
77.446411
11
7.715895
21
77.709199
0
LINE
8
Layer 1
10
7.715895
20
77.709199
11
7.589231
21
77.664653
0
LINE
8
Layer 1
10
7.589231
20
77.664653
11
7.469845
21
77.612378
0
LINE
8
Layer 1
10
7.469845
20
77.612378
11
7.201452
21
77.625218
0
LINE
8
Layer 1
10
7.201452
20
77.625218
11
6.839796
21
77.633633
0
LINE
8
Layer 1
10
6.839796
20
77.633633
11
6.746533
21
77.647087
0
LINE
8
Layer 1
10
6.746533
20
77.647087
11
7.160131
21
77.665753
0
LINE
8
Layer 1
10
7.160131
20
77.665753
11
7.594004
21
77.708011
0
LINE
8
Layer 1
10
7.594004
20
77.708011
11
7.703734
21
77.791661
0
LINE
8
Layer 1
10
7.703734
20
77.791661
11
7.717816
21
77.805403
0
LINE
8
Layer 1
10
7.717816
20
77.805403
11
7.797271
21
77.826212
0
LINE
8
Layer 1
10
7.797271
20
77.826212
11
8.011841
21
78.078305
0
LINE
8
Layer 1
10
8.011841
20
78.078305
11
7.916356
21
78.719476
0
LINE
8
Layer 1
10
7.916356
20
78.719476
11
7.499087
21
79.110191
0
LINE
8
Layer 1
10
7.499087
20
79.110191
11
7.476412
21
79.116978
0
LINE
8
Layer 1
10
7.476412
20
79.116978
11
7.654714
21
79.232183
0
LINE
8
Layer 1
10
7.654714
20
79.232183
11
7.886507
21
79.373629
0
LINE
8
Layer 1
10
7.886507
20
79.373629
11
7.883912
21
79.664689
0
LINE
8
Layer 1
10
7.883912
20
79.664689
11
7.801643
21
79.937142
0
LINE
8
Layer 1
10
7.801643
20
79.937142
11
7.687498
21
80.239564
0
LINE
8
Layer 1
10
7.687498
20
80.239564
11
7.718900
21
80.257380
0
LINE
8
Layer 1
10
7.718900
20
80.257380
11
7.857988
21
80.257921
0
LINE
8
Layer 1
10
7.857988
20
80.257921
11
7.979782
21
80.463607
0
LINE
8
Layer 1
10
7.979782
20
80.463607
11
8.035432
21
80.782221
0
LINE
8
Layer 1
10
8.035432
20
80.782221
11
7.919021
21
81.165500
0
LINE
8
Layer 1
10
7.919021
20
81.165500
11
7.580414
21
81.367615
0
LINE
8
Layer 1
10
7.580414
20
81.367615
11
7.365384
21
81.324590
0
LINE
8
Layer 1
10
7.365384
20
81.324590
11
7.028900
21
80.997501
0
LINE
8
Layer 1
10
7.028900
20
80.997501
11
7.006681
21
80.973389
0
LINE
8
Layer 1
10
7.006681
20
80.973389
11
7.355921
21
81.351154
0
LINE
8
Layer 1
10
7.355921
20
81.351154
11
7.719705
21
81.385239
0
LINE
8
Layer 1
10
7.719705
20
81.385239
11
8.064295
21
80.891386
0
LINE
8
Layer 1
10
8.064295
20
80.891386
11
7.933514
21
80.305475
0
LINE
8
Layer 1
10
7.933514
20
80.305475
11
7.782673
21
80.200631
0
LINE
8
Layer 1
10
7.782673
20
80.200631
11
7.752388
21
80.178954
0
LINE
8
Layer 1
10
7.752388
20
80.178954
11
7.818150
21
79.953897
0
LINE
8
Layer 1
10
7.818150
20
79.953897
11
7.918150
21
79.641851
0
LINE
8
Layer 1
10
7.918150
20
79.641851
11
7.898763
21
79.339215
0
LINE
8
Layer 1
10
7.898763
20
79.339215
11
7.760664
21
79.233847
0
LINE
8
Layer 1
10
7.760664
20
79.233847
11
7.636933
21
79.197761
0
LINE
8
Layer 1
10
7.636933
20
79.197761
11
7.541291
21
79.147935
0
LINE
8
Layer 1
10
7.541291
20
79.147935
11
7.637562
21
79.070670
0
LINE
8
Layer 1
10
7.637562
20
79.070670
11
7.943797
21
78.726704
0
LINE
8
Layer 1
10
7.943797
20
78.726704
11
8.044540
21
78.061082
0
LINE
8
Layer 1
10
8.044540
20
78.061082
11
7.798964
21
77.782357
0
LINE
8
Layer 1
10
7.798964
20
77.782357
11
7.735925
21
77.744736
0
LINE
8
Layer 1
10
7.735925
20
77.744736
11
7.732638
21
77.571378
0
LINE
8
Layer 1
10
7.732638
20
77.571378
11
7.727036
21
77.264338
0
LINE
8
Layer 1
10
7.727036
20
77.264338
11
7.714103
21
77.119383
0
LINE
8
Layer 1
10
7.714103
20
77.119383
11
7.703486
21
77.135607
0
LINE
8
Layer 1
10
7.703486
20
77.135607
11
7.606491
21
77.121255
0
LINE
8
Layer 1
10
7.606491
20
77.121255
11
7.500619
21
77.082134
0
LINE
8
Layer 1
10
7.500619
20
77.082134
11
7.589949
21
77.136029
0
LINE
8
Layer 1
10
7.589949
20
77.136029
11
7.589949
21
77.136029
0
LINE
8
Layer 1
10
4.862022
20
77.144627
11
4.767750
21
77.304563
0
LINE
8
Layer 1
10
4.767750
20
77.304563
11
4.875932
21
77.751079
0
LINE
8
Layer 1
10
4.875932
20
77.751079
11
4.917178
21
77.929309
0
LINE
8
Layer 1
10
4.917178
20
77.929309
11
4.931777
21
77.953660
0
LINE
8
Layer 1
10
4.931777
20
77.953660
11
4.912613
21
77.818486
0
LINE
8
Layer 1
10
4.912613
20
77.818486
11
4.800189
21
77.316362
0
LINE
8
Layer 1
10
4.800189
20
77.316362
11
4.858113
21
77.189079
0
LINE
8
Layer 1
10
4.858113
20
77.189079
11
4.931100
21
77.131073
0
LINE
8
Layer 1
10
4.931100
20
77.131073
11
4.946165
21
77.113850
0
LINE
8
Layer 1
10
4.946165
20
77.113850
11
4.862022
21
77.144627
0
LINE
8
Layer 1
10
4.862022
20
77.144627
11
4.862022
21
77.144627
0
LINE
8
Layer 1
10
5.908301
20
77.619296
11
5.827203
21
77.654593
0
LINE
8
Layer 1
10
5.827203
20
77.654593
11
5.854459
21
77.658953
0
LINE
8
Layer 1
10
5.854459
20
77.658953
11
6.071065
21
77.643694
0
LINE
8
Layer 1
10
6.071065
20
77.643694
11
5.953772
21
77.751079
0
LINE
8
Layer 1
10
5.953772
20
77.751079
11
5.889357
21
77.873614
0
LINE
8
Layer 1
10
5.889357
20
77.873614
11
6.060301
21
77.888594
0
LINE
8
Layer 1
10
6.060301
20
77.888594
11
6.219968
21
77.907060
0
LINE
8
Layer 1
10
6.219968
20
77.907060
11
6.220615
21
77.967338
0
LINE
8
Layer 1
10
6.220615
20
77.967338
11
6.007755
21
77.989489
0
LINE
8
Layer 1
10
6.007755
20
77.989489
11
5.827167
21
78.002655
0
LINE
8
Layer 1
10
5.827167
20
78.002655
11
5.853653
21
78.086474
0
LINE
8
Layer 1
10
5.853653
20
78.086474
11
5.940440
21
78.112749
0
LINE
8
Layer 1
10
5.940440
20
78.112749
11
6.104667
21
78.166360
0
LINE
8
Layer 1
10
6.104667
20
78.166360
11
6.089988
21
78.215677
0
LINE
8
Layer 1
10
6.089988
20
78.215677
11
5.746170
21
78.146659
0
LINE
8
Layer 1
10
5.746170
20
78.146659
11
5.586097
21
78.078305
0
LINE
8
Layer 1
10
5.586097
20
78.078305
11
5.465189
21
78.167410
0
LINE
8
Layer 1
10
5.465189
20
78.167410
11
5.498805
21
78.140906
0
LINE
8
Layer 1
10
5.498805
20
78.140906
11
5.758109
21
78.173630
0
LINE
8
Layer 1
10
5.758109
20
78.173630
11
6.089132
21
78.243855
0
LINE
8
Layer 1
10
6.089132
20
78.243855
11
6.096903
21
78.129490
0
LINE
8
Layer 1
10
6.096903
20
78.129490
11
5.957419
21
78.086980
0
LINE
8
Layer 1
10
5.957419
20
78.086980
11
5.849066
21
78.025474
0
LINE
8
Layer 1
10
5.849066
20
78.025474
11
6.075683
21
78.019203
0
LINE
8
Layer 1
10
6.075683
20
78.019203
11
6.242326
21
77.994972
0
LINE
8
Layer 1
10
6.242326
20
77.994972
11
6.201635
21
77.864152
0
LINE
8
Layer 1
10
6.201635
20
77.864152
11
6.042495
21
77.856148
0
LINE
8
Layer 1
10
6.042495
20
77.856148
11
5.893058
21
77.838340
0
LINE
8
Layer 1
10
5.893058
20
77.838340
11
5.991999
21
77.760613
0
LINE
8
Layer 1
10
5.991999
20
77.760613
11
6.091826
21
77.670469
0
LINE
8
Layer 1
10
6.091826
20
77.670469
11
5.908300
21
77.619296
0
LINE
8
Layer 1
10
5.908300
20
77.619296
11
5.908301
21
77.619296
0
LINE
8
Layer 1
10
5.424641
20
77.642576
11
5.289672
21
77.675322
0
LINE
8
Layer 1
10
5.289672
20
77.675322
11
4.877656
21
78.069693
0
LINE
8
Layer 1
10
4.877656
20
78.069693
11
4.732386
21
78.615495
0
LINE
8
Layer 1
10
4.732386
20
78.615495
11
4.854129
21
78.976542
0
LINE
8
Layer 1
10
4.854129
20
78.976542
11
4.980562
21
79.097258
0
LINE
8
Layer 1
10
4.980562
20
79.097258
11
5.149435
21
79.252295
0
LINE
8
Layer 1
10
5.149435
20
79.252295
11
5.196760
21
79.290842
0
LINE
8
Layer 1
10
5.196760
20
79.290842
11
4.938316
21
79.036129
0
LINE
8
Layer 1
10
4.938316
20
79.036129
11
4.756607
21
78.465809
0
LINE
8
Layer 1
10
4.756607
20
78.465809
11
5.042037
21
77.939069
0
LINE
8
Layer 1
10
5.042037
20
77.939069
11
5.264649
21
77.705111
0
LINE
8
Layer 1
10
5.264649
20
77.705111
11
5.421776
21
77.673706
0
LINE
8
Layer 1
10
5.421776
20
77.673706
11
5.618785
21
77.661596
0
LINE
8
Layer 1
10
5.618785
20
77.661596
11
5.667336
21
77.665995
0
LINE
8
Layer 1
10
5.667336
20
77.665995
11
5.547922
21
77.615636
0
LINE
8
Layer 1
10
5.547922
20
77.615636
11
5.424641
21
77.642576
0
LINE
8
Layer 1
10
5.424641
20
77.642576
11
5.424641
21
77.642576
0
LINE
8
Layer 1
10
6.426297
20
77.646442
11
6.326047
21
77.725378
0
LINE
8
Layer 1
10
6.326047
20
77.725378
11
6.401829
21
77.839573
0
LINE
8
Layer 1
10
6.401829
20
77.839573
11
6.373379
21
77.886857
0
LINE
8
Layer 1
10
6.373379
20
77.886857
11
6.281708
21
77.950882
0
LINE
8
Layer 1
10
6.281708
20
77.950882
11
6.438843
21
78.058496
0
LINE
8
Layer 1
10
6.438843
20
78.058496
11
6.568119
21
78.068947
0
LINE
8
Layer 1
10
6.568119
20
78.068947
11
6.549909
21
78.128632
0
LINE
8
Layer 1
10
6.549909
20
78.128632
11
6.365374
21
78.198861
0
LINE
8
Layer 1
10
6.365374
20
78.198861
11
6.179836
21
78.248572
0
LINE
8
Layer 1
10
6.179836
20
78.248572
11
6.209686
21
78.369264
0
LINE
8
Layer 1
10
6.209686
20
78.369264
11
6.327278
21
78.422374
0
LINE
8
Layer 1
10
6.327278
20
78.422374
11
6.535431
21
78.333177
0
LINE
8
Layer 1
10
6.535431
20
78.333177
11
6.522698
21
78.331668
0
LINE
8
Layer 1
10
6.522698
20
78.331668
11
6.332719
21
78.405531
0
LINE
8
Layer 1
10
6.332719
20
78.405531
11
6.219517
21
78.233203
0
LINE
8
Layer 1
10
6.219517
20
78.233203
11
6.357649
21
78.223554
0
LINE
8
Layer 1
10
6.357649
20
78.223554
11
6.503685
21
78.224546
0
LINE
8
Layer 1
10
6.503685
20
78.224546
11
6.584338
21
78.081004
0
LINE
8
Layer 1
10
6.584338
20
78.081004
11
6.421773
21
78.026638
0
LINE
8
Layer 1
10
6.421773
20
78.026638
11
6.321935
21
77.953163
0
LINE
8
Layer 1
10
6.321935
20
77.953163
11
6.465825
21
77.906452
0
LINE
8
Layer 1
10
6.465825
20
77.906452
11
6.576228
21
77.895296
0
LINE
8
Layer 1
10
6.576228
20
77.895296
11
6.495131
21
77.856402
0
LINE
8
Layer 1
10
6.495131
20
77.856402
11
6.361545
21
77.756781
0
LINE
8
Layer 1
10
6.361545
20
77.756781
11
6.408343
21
77.683875
0
LINE
8
Layer 1
10
6.408343
20
77.683875
11
6.661968
21
77.697540
0
LINE
8
Layer 1
10
6.661968
20
77.697540
11
6.741824
21
77.709894
0
LINE
8
Layer 1
10
6.741824
20
77.709894
11
6.426297
21
77.646443
0
LINE
8
Layer 1
10
6.426297
20
77.646443
11
6.426297
21
77.646442
0
LINE
8
Layer 1
10
6.868180
20
78.146010
11
6.668004
21
78.250529
0
LINE
8
Layer 1
10
6.668004
20
78.250529
11
6.692044
21
78.246880
0
LINE
8
Layer 1
10
6.692044
20
78.246880
11
7.124586
21
78.183567
0
LINE
8
Layer 1
10
7.124586
20
78.183567
11
7.412191
21
78.375532
0
LINE
8
Layer 1
10
7.412191
20
78.375532
11
7.500675
21
78.506064
0
LINE
8
Layer 1
10
7.500675
20
78.506064
11
7.441471
21
78.372623
0
LINE
8
Layer 1
10
7.441471
20
78.372623
11
7.159249
21
78.167247
0
LINE
8
Layer 1
10
7.159249
20
78.167247
11
6.868180
21
78.146010
0
LINE
8
Layer 1
10
6.868180
20
78.146010
11
6.868180
21
78.146010
0
LINE
8
Layer 1
10
5.089485
20
79.426357
11
4.931591
21
79.563793
0
LINE
8
Layer 1
10
4.931591
20
79.563793
11
4.776261
21
79.795534
0
LINE
8
Layer 1
10
4.776261
20
79.795534
11
4.792659
21
80.036577
0
LINE
8
Layer 1
10
4.792659
20
80.036577
11
5.064091
21
80.451717
0
LINE
8
Layer 1
10
5.064091
20
80.451717
11
4.942216
21
80.236394
0
LINE
8
Layer 1
10
4.942216
20
80.236394
11
4.788106
21
79.921101
0
LINE
8
Layer 1
10
4.788106
20
79.921101
11
5.009504
21
79.538701
0
LINE
8
Layer 1
10
5.009504
20
79.538701
11
5.177293
21
79.353161
0
LINE
8
Layer 1
10
5.177293
20
79.353161
11
5.089485
21
79.426357
0
LINE
8
Layer 1
10
5.089485
20
79.426357
11
5.089485
21
79.426357
0
LINE
8
Layer 1
10
6.164069
20
80.396075
11
6.079171
21
80.495104
0
LINE
8
Layer 1
10
6.079171
20
80.495104
11
6.124138
21
80.467913
0
LINE
8
Layer 1
10
6.124138
20
80.467913
11
6.289883
21
80.417727
0
LINE
8
Layer 1
10
6.289883
20
80.417727
11
6.373484
21
80.457649
0
LINE
8
Layer 1
10
6.373484
20
80.457649
11
6.221810
21
80.351661
0
LINE
8
Layer 1
10
6.221810
20
80.351661
11
6.164069
21
80.396075
0
LINE
8
Layer 1
10
6.164069
20
80.396075
11
6.164069
21
80.396075
0
LINE
8
Layer 1
10
4.954275
20
80.522448
11
4.572936
21
80.868333
0
LINE
8
Layer 1
10
4.572936
20
80.868333
11
4.580021
21
81.211159
0
LINE
8
Layer 1
10
4.580021
20
81.211159
11
4.848848
21
81.523988
0
LINE
8
Layer 1
10
4.848848
20
81.523988
11
5.302022
21
81.515082
0
LINE
8
Layer 1
10
5.302022
20
81.515082
11
5.565268
21
81.373666
0
LINE
8
Layer 1
10
5.565268
20
81.373666
11
5.767370
21
81.011232
0
LINE
8
Layer 1
10
5.767370
20
81.011232
11
5.670480
21
81.165883
0
LINE
8
Layer 1
10
5.670480
20
81.165883
11
5.523236
21
81.381504
0
LINE
8
Layer 1
10
5.523236
20
81.381504
11
5.067812
21
81.513449
0
LINE
8
Layer 1
10
5.067812
20
81.513449
11
4.712789
21
81.401367
0
LINE
8
Layer 1
10
4.712789
20
81.401367
11
4.570760
21
81.078295
0
LINE
8
Layer 1
10
4.570760
20
81.078295
11
4.593173
21
80.900935
0
LINE
8
Layer 1
10
4.593173
20
80.900935
11
4.694656
21
80.734052
0
LINE
8
Layer 1
10
4.694656
20
80.734052
11
5.040911
21
80.530936
0
LINE
8
Layer 1
10
5.040911
20
80.530936
11
5.155123
21
80.577898
0
LINE
8
Layer 1
10
5.155123
20
80.577898
11
5.205202
21
80.608914
0
LINE
8
Layer 1
10
5.205202
20
80.608914
11
5.075034
21
80.490062
0
LINE
8
Layer 1
10
5.075034
20
80.490062
11
4.954275
21
80.522448
0
LINE
8
Layer 1
10
4.954275
20
80.522448
11
4.954275
21
80.522448
0
LINE
8
Layer 1
10
7.309693
20
80.626187
11
7.216812
21
80.893886
0
LINE
8
Layer 1
10
7.216812
20
80.893886
11
7.388286
21
81.057780
0
LINE
8
Layer 1
10
7.388286
20
81.057780
11
7.441208
21
81.104978
0
LINE
8
Layer 1
10
7.441208
20
81.104978
11
7.514513
21
81.131712
0
LINE
8
Layer 1
10
7.514513
20
81.131712
11
7.645878
21
81.061443
0
LINE
8
Layer 1
10
7.645878
20
81.061443
11
7.849461
21
80.850819
0
LINE
8
Layer 1
10
7.849461
20
80.850819
11
7.649865
21
80.641061
0
LINE
8
Layer 1
10
7.649865
20
80.641061
11
7.468075
21
80.578653
0
LINE
8
Layer 1
10
7.468075
20
80.578653
11
7.309693
21
80.626187
0
LINE
8
Layer 1
10
7.309693
20
80.626187
11
7.309693
21
80.626187
0
LINE
8
Layer 1
10
7.582709
20
80.635607
11
7.817023
21
80.867004
0
LINE
8
Layer 1
10
7.817023
20
80.867004
11
7.646685
21
81.025703
0
LINE
8
Layer 1
10
7.646685
20
81.025703
11
7.518758
21
81.089412
0
LINE
8
Layer 1
10
7.518758
20
81.089412
11
7.517209
21
81.074575
0
LINE
8
Layer 1
10
7.517209
20
81.074575
11
7.510580
21
81.065256
0
LINE
8
Layer 1
10
7.510580
20
81.065256
11
7.463470
21
81.065316
0
LINE
8
Layer 1
10
7.463470
20
81.065316
11
7.415827
21
81.048128
0
LINE
8
Layer 1
10
7.415827
20
81.048128
11
7.257290
21
80.925938
0
LINE
8
Layer 1
10
7.257290
20
80.925938
11
7.364027
21
80.622941
0
LINE
8
Layer 1
10
7.364027
20
80.622941
11
7.582708
21
80.635606
0
LINE
8
Layer 1
10
7.582708
20
80.635606
11
7.582709
21
80.635607
0
LINE
8
Layer 1
10
7.443973
20
80.825277
11
7.435863
21
80.833889
0
LINE
8
Layer 1
10
7.435863
20
80.833889
11
7.503758
21
80.997750
0
LINE
8
Layer 1
10
7.503758
20
80.997750
11
7.428674
21
80.941607
0
LINE
8
Layer 1
10
7.428674
20
80.941607
11
7.435863
21
80.816666
0
LINE
8
Layer 1
10
7.435863
20
80.816666
11
7.443973
21
80.825277
0
LINE
8
Layer 1
10
7.443973
20
80.825277
11
7.443973
21
80.825277
0
LINE
8
Layer 1
10
7.492632
20
81.100836
11
7.484522
21
81.109447
0
LINE
8
Layer 1
10
7.484522
20
81.109447
11
7.476412
21
81.100836
0
LINE
8
Layer 1
10
7.476412
20
81.100836
11
7.484522
21
81.092225
0
LINE
8
Layer 1
10
7.484522
20
81.092225
11
7.492632
21
81.100836
0
LINE
8
Layer 1
10
7.492632
20
81.100836
11
7.492632
21
81.100836
0
LINE
8
Layer 1
10
5.027263
20
80.832771
11
4.817942
21
80.964899
0
LINE
8
Layer 1
10
4.817942
20
80.964899
11
4.837139
21
81.221393
0
LINE
8
Layer 1
10
4.837139
20
81.221393
11
4.994824
21
81.362218
0
LINE
8
Layer 1
10
4.994824
20
81.362218
11
5.397577
21
81.310988
0
LINE
8
Layer 1
10
5.397577
20
81.310988
11
5.455561
21
81.030978
0
LINE
8
Layer 1
10
5.455561
20
81.030978
11
5.276507
21
80.848881
0
LINE
8
Layer 1
10
5.276507
20
80.848881
11
5.027263
21
80.832771
0
LINE
8
Layer 1
10
5.027263
20
80.832771
11
5.027263
21
80.832771
0
LINE
8
Layer 1
10
5.309004
20
80.904879
11
5.448971
21
81.145472
0
LINE
8
Layer 1
10
5.448971
20
81.145472
11
5.379662
21
81.273685
0
LINE
8
Layer 1
10
5.379662
20
81.273685
11
5.031387
21
81.337855
0
LINE
8
Layer 1
10
5.031387
20
81.337855
11
4.869204
21
81.236882
0
LINE
8
Layer 1
10
4.869204
20
81.236882
11
4.816185
21
81.035846
0
LINE
8
Layer 1
10
4.816185
20
81.035846
11
4.952656
21
80.902053
0
LINE
8
Layer 1
10
4.952656
20
80.902053
11
5.309004
21
80.904879
0
LINE
8
Layer 1
10
5.309004
20
80.904879
11
5.309004
21
80.904879
0
LINE
8
Layer 1
10
5.084031
20
81.161114
11
1.271008
21
81.541349
0
LINE
8
Layer 1
10
1.271008
20
81.541349
11
5.084031
21
81.161114
0
LINE
8
Layer 1
10
5.084031
20
81.161114
11
5.084031
21
81.161114
0
LINE
8
Layer 1
10
5.135393
20
81.172596
11
5.084634
21
81.289967
0
LINE
8
Layer 1
10
5.084634
20
81.289967
11
5.113767
21
81.172596
0
LINE
8
Layer 1
10
5.113767
20
81.172596
11
5.142119
21
81.137728
0
LINE
8
Layer 1
10
5.142119
20
81.137728
11
4.996775
21
81.176756
0
LINE
8
Layer 1
10
4.996775
20
81.176756
11
5.135393
21
81.172596
0
LINE
8
Layer 1
10
5.135393
20
81.172596
11
5.135393
21
81.172596
0
LINE
8
Layer 1
10
6.933058
20
80.912916
11
6.623645
21
81.031730
0
LINE
8
Layer 1
10
6.623645
20
81.031730
11
6.215547
21
81.040314
0
LINE
8
Layer 1
10
6.215547
20
81.040314
11
5.986444
21
81.030539
0
LINE
8
Layer 1
10
5.986444
20
81.030539
11
6.044497
21
81.046401
0
LINE
8
Layer 1
10
6.044497
20
81.046401
11
6.634458
21
81.054068
0
LINE
8
Layer 1
10
6.634458
20
81.054068
11
6.991478
21
80.901024
0
LINE
8
Layer 1
10
6.991478
20
80.901024
11
6.933058
21
80.912916
0
LINE
8
Layer 1
10
6.933058
20
80.912916
11
6.933058
21
80.912916
0
LINE
8
Layer 1
10
5.692264
20
80.945834
11
5.700373
21
80.954445
0
LINE
8
Layer 1
10
5.700373
20
80.954445
11
5.708483
21
80.945834
0
LINE
8
Layer 1
10
5.708483
20
80.945834
11
5.700373
21
80.937223
0
LINE
8
Layer 1
10
5.700373
20
80.937223
11
5.692264
21
80.945834
0
LINE
8
Layer 1
10
5.692264
20
80.945834
11
5.692264
21
80.945834
0
LINE
8
Layer 1
10
5.740922
20
80.971668
11
5.789581
21
80.987416
0
LINE
8
Layer 1
10
5.789581
20
80.987416
11
5.781471
21
80.971668
0
LINE
8
Layer 1
10
5.781471
20
80.971668
11
5.740922
21
80.971668
0
LINE
8
Layer 1
10
5.740922
20
80.971668
11
5.740922
21
80.971668
0
LINE
8
Layer 1
10
5.835198
20
81.000655
11
5.866286
21
80.999295
0
LINE
8
Layer 1
10
5.866286
20
80.999295
11
5.844997
21
80.990250
0
LINE
8
Layer 1
10
5.844997
20
80.990250
11
5.835198
21
81.000655
0
LINE
8
Layer 1
10
5.835198
20
81.000655
11
5.835198
21
81.000655
0
LINE
8
Layer 1
10
5.899063
20
81.017519
11
5.939611
21
81.017519
0
LINE
8
Layer 1
10
5.939611
20
81.017519
11
5.919337
21
81.008832
0
LINE
8
Layer 1
10
5.919337
20
81.008832
11
5.899063
21
81.017519
0
LINE
8
Layer 1
10
5.899063
20
81.017519
11
5.899063
21
81.017519
0
LINE
8
Image 1
10
12.892354
20
76.876170
11
12.808229
21
76.397303
0
LINE
8
Image 1
10
12.808229
20
76.397303
11
12.674394
21
76.184058
0
LINE
8
Image 1
10
12.552031
20
76.965957
11
12.360838
21
76.314998
0
LINE
8
Image 1
10
12.360838
20
76.314998
11
12.181116
21
76.135423
0
LINE
8
Image 1
10
11.691663
20
77.665629
11
11.817850
21
77.658147
0
LINE
8
Image 1
10
11.817850
20
77.658147
11
11.871384
21
77.671241
0
LINE
8
Image 1
10
11.871384
20
77.671241
11
12.031986
21
77.701170
0
LINE
8
Image 1
10
12.031986
20
77.701170
11
12.146702
21
77.710523
0
LINE
8
Image 1
10
12.146702
20
77.710523
11
12.215531
21
77.723617
0
LINE
8
Image 1
10
12.215531
20
77.723617
11
12.284361
21
77.729229
0
LINE
8
Image 1
10
12.284361
20
77.729229
11
12.502320
21
77.766641
0
LINE
8
Image 1
10
12.502320
20
77.766641
11
12.639979
21
77.787217
0
LINE
8
Image 1
10
12.639979
20
77.787217
11
12.846468
21
77.850817
0
LINE
8
Image 1
10
12.846468
20
77.850817
11
13.022365
21
77.934992
0
LINE
8
Image 1
10
13.022365
20
77.934992
11
13.037661
21
77.966792
0
LINE
8
Image 1
10
13.037661
20
77.966792
11
13.091195
21
78.110826
0
LINE
8
Image 1
10
13.091195
20
78.110826
11
13.106490
21
78.174426
0
LINE
8
Image 1
10
13.106490
20
78.174426
11
13.137081
21
78.355871
0
LINE
8
Image 1
10
13.137081
20
78.355871
11
13.137081
21
78.363354
0
LINE
8
Image 1
10
13.137081
20
78.363354
11
13.190615
21
78.411988
0
LINE
8
Image 1
10
13.190615
20
78.411988
11
13.209734
21
78.421341
0
LINE
8
Image 1
10
13.209734
20
78.421341
11
13.297682
21
78.309107
0
LINE
8
Image 1
10
13.297682
20
78.309107
11
13.370336
21
77.794700
0
LINE
8
Image 1
10
13.370336
20
77.794700
11
13.347394
21
77.639442
0
LINE
8
Image 1
10
13.347394
20
77.639442
11
13.309155
21
77.572101
0
LINE
8
Image 1
10
13.309155
20
77.572101
11
13.202087
21
77.512243
0
LINE
8
Image 1
10
13.202087
20
77.512243
11
13.098843
21
77.480444
0
LINE
8
Image 1
10
13.098843
20
77.480444
11
13.003246
21
77.443032
0
LINE
8
Image 1
10
13.003246
20
77.443032
11
12.846468
21
77.392527
0
LINE
8
Image 1
10
12.846468
20
77.392527
11
12.548207
21
77.308351
0
LINE
8
Image 1
10
12.548207
20
77.308351
11
12.288185
21
77.233528
0
LINE
8
Image 1
10
12.288185
20
77.233528
11
11.974629
21
77.164317
0
LINE
8
Image 1
10
11.974629
20
77.164317
11
11.802555
21
77.121294
0
LINE
8
Image 1
10
11.802555
20
77.121294
11
11.788766
21
77.122814
0
LINE
8
Image 1
10
11.788766
20
77.122814
11
11.645777
21
77.087623
0
LINE
8
Image 1
10
11.645777
20
77.087623
11
11.538709
21
77.055824
0
LINE
8
Image 1
10
11.538709
20
77.055824
11
11.118085
21
76.949201
0
LINE
8
Image 1
10
11.118085
20
76.949201
11
10.800704
21
76.850061
0
LINE
8
Image 1
10
10.800704
20
76.850061
11
10.387728
21
76.756532
0
LINE
8
Image 1
10
10.387728
20
76.756532
11
10.338017
21
76.743438
0
LINE
8
Image 1
10
10.338017
20
76.743438
11
10.295955
21
76.350539
0
LINE
8
Image 1
10
10.295955
20
76.350539
11
10.284482
21
76.197152
0
LINE
8
Image 1
10
10.284482
20
76.197152
11
10.273010
21
76.178446
0
LINE
8
Image 1
10
10.273010
20
76.178446
11
10.223300
21
75.997000
0
LINE
8
Image 1
10
10.223300
20
75.997000
11
10.211827
21
75.955847
0
LINE
8
Image 1
10
10.211827
20
75.955847
11
10.158293
21
75.866060
0
LINE
8
Image 1
10
10.158293
20
75.866060
11
10.112407
21
75.780014
0
LINE
8
Image 1
10
10.112407
20
75.780014
11
9.990044
21
75.624756
0
LINE
8
Image 1
10
9.990044
20
75.624756
11
9.867680
21
75.465757
0
LINE
8
Image 1
10
9.867680
20
75.465757
11
9.772084
21
75.336688
0
LINE
8
Image 1
10
9.772084
20
75.336688
11
9.668840
21
75.226324
0
LINE
8
Image 1
10
9.668840
20
75.226324
11
9.684135
21
75.200136
0
LINE
8
Image 1
10
9.684135
20
75.200136
11
9.707077
21
75.162724
0
LINE
8
Image 1
10
9.707077
20
75.162724
11
9.714724
21
75.138406
0
LINE
8
Image 1
10
9.714724
20
75.138406
11
9.932684
21
74.979408
0
LINE
8
Image 1
10
9.932684
20
74.979408
11
9.990042
21
74.938255
0
LINE
8
Image 1
10
9.990042
20
74.938255
11
10.020632
21
74.878397
0
LINE
8
Image 1
10
10.020632
20
74.878397
11
10.012983
21
74.861562
0
LINE
8
Image 1
10
10.012983
20
74.861562
11
9.573240
21
74.814797
0
LINE
8
Image 1
10
9.573240
20
74.814797
11
9.355280
21
74.818539
0
LINE
8
Image 1
10
9.355280
20
74.818539
11
9.221445
21
74.839115
0
LINE
8
Image 1
10
9.221445
20
74.839115
11
9.209973
21
74.869044
0
LINE
8
Image 1
10
9.209973
20
74.869044
11
9.187031
21
74.990632
0
LINE
8
Image 1
10
9.187031
20
74.990632
11
9.194677
21
75.276829
0
LINE
8
Image 1
10
9.194677
20
75.276829
11
9.209973
21
75.301147
0
LINE
8
Image 1
10
9.209973
20
75.301147
11
9.286450
21
75.411511
0
LINE
8
Image 1
10
9.286450
20
75.411511
11
9.328512
21
75.478851
0
LINE
8
Image 1
10
9.328512
20
75.478851
11
9.424109
21
75.619144
0
LINE
8
Image 1
10
9.424109
20
75.619144
11
9.458523
21
75.664038
0
LINE
8
Image 1
10
9.458523
20
75.664038
11
9.515881
21
75.789366
0
LINE
8
Image 1
10
9.515881
20
75.789366
11
9.573239
21
75.907212
0
LINE
8
Image 1
10
9.573239
20
75.907212
11
9.588535
21
75.955847
0
LINE
8
Image 1
10
9.588535
20
75.955847
11
9.634421
21
76.071823
0
LINE
8
Image 1
10
9.634421
20
76.071823
11
9.680307
21
76.200892
0
LINE
8
Image 1
10
9.680307
20
76.200892
11
9.680307
21
76.326221
0
LINE
8
Image 1
10
9.680307
20
76.326221
11
9.657363
21
76.747099
0
LINE
8
Image 1
10
9.657363
20
76.747099
11
9.630596
21
76.876169
0
LINE
8
Image 1
10
9.630596
20
76.876169
11
9.535000
21
76.902357
0
LINE
8
Image 1
10
9.535000
20
76.902357
11
9.512055
21
76.906099
0
LINE
8
Image 1
10
9.512055
20
76.906099
11
9.492936
21
76.906099
0
LINE
8
Image 1
10
9.492936
20
76.906099
11
9.508232
21
76.906099
0
LINE
8
Image 1
10
8.949957
20
78.148237
11
8.957606
21
78.073414
0
LINE
8
Image 1
10
8.957606
20
78.073414
11
8.938487
21
77.948086
0
LINE
8
Image 1
10
8.938487
20
77.948086
11
8.938487
21
77.884486
0
LINE
8
Image 1
10
8.938487
20
77.884486
11
8.927015
21
77.732970
0
LINE
8
Image 1
10
8.927015
20
77.732970
11
8.927015
21
77.661888
0
LINE
8
Image 1
10
8.927015
20
77.661888
11
8.923191
21
77.519724
0
LINE
8
Image 1
10
8.923191
20
77.519724
11
8.930840
21
77.454254
0
LINE
8
Image 1
10
8.930840
20
77.454254
11
8.930840
21
77.362596
0
LINE
8
Image 1
10
8.930840
20
77.362596
11
8.938487
21
77.328926
0
LINE
8
Image 1
10
8.938487
20
77.328926
11
8.961429
21
77.214821
0
LINE
8
Image 1
10
8.961429
20
77.214821
11
8.961429
21
77.203598
0
LINE
8
Image 1
10
8.961429
20
77.203598
11
8.976724
21
77.183021
0
LINE
8
Image 1
10
8.976724
20
77.183021
11
9.041730
21
77.138127
0
LINE
8
Image 1
10
9.041730
20
77.138127
11
9.252042
21
77.007187
0
LINE
8
Image 1
10
9.252042
20
77.007187
11
9.366758
21
76.966035
0
LINE
8
Image 1
10
9.366758
20
76.966035
11
9.477650
21
76.919270
0
LINE
8
Image 1
10
9.477650
20
76.919270
11
9.580894
21
76.885600
0
LINE
8
Image 1
10
11.706958
20
78.522351
11
11.710781
21
78.488681
0
LINE
8
Image 1
10
11.710781
20
78.488681
11
11.714604
21
78.337165
0
LINE
8
Image 1
10
11.714604
20
78.337165
11
11.714604
21
78.290400
0
LINE
8
Image 1
10
11.714604
20
78.290400
11
11.722254
21
78.195001
0
LINE
8
Image 1
10
11.722254
20
78.195001
11
11.729903
21
78.026650
0
LINE
8
Image 1
10
11.729903
20
78.026650
11
11.726079
21
77.856428
0
LINE
8
Image 1
10
11.726079
20
77.856428
11
11.726079
21
77.785346
0
LINE
8
Image 1
10
11.726079
20
77.785346
11
11.714607
21
77.695558
0
LINE
8
Image 1
10
11.714607
20
77.695558
11
11.691665
21
77.615124
0
LINE
8
Image 1
10
11.263391
20
79.741965
11
11.282509
21
79.717647
0
LINE
8
Image 1
10
11.282509
20
79.717647
11
11.313100
21
79.691459
0
LINE
8
Image 1
10
11.313100
20
79.691459
11
11.401049
21
79.605413
0
LINE
8
Image 1
10
11.401049
20
79.605413
11
11.557827
21
79.448285
0
LINE
8
Image 1
10
11.557827
20
79.448285
11
11.619009
21
79.380944
0
LINE
8
Image 1
10
11.619009
20
79.380944
11
11.680191
21
79.322956
0
LINE
8
Image 1
10
11.680191
20
79.322956
11
11.756668
21
79.220075
0
LINE
8
Image 1
10
11.756668
20
79.220075
11
11.794906
21
79.137770
0
LINE
8
Image 1
10
11.794906
20
79.137770
11
11.859912
21
78.930136
0
LINE
8
Image 1
10
11.859912
20
78.930136
11
11.859912
21
78.890854
0
LINE
8
Image 1
10
11.859912
20
78.890854
11
11.859912
21
78.744949
0
LINE
8
Image 1
10
11.859912
20
78.744949
11
11.840793
21
78.681350
0
LINE
8
Image 1
10
11.840793
20
78.681350
11
11.798731
21
78.621492
0
LINE
8
Image 1
10
11.798731
20
78.621492
11
11.722254
21
78.518610
0
LINE
8
Image 1
10
11.722254
20
78.518610
11
11.684015
21
78.484940
0
LINE
8
Image 1
10
11.684015
20
78.484940
11
11.630481
21
78.421340
0
LINE
8
Image 1
10
11.630481
20
78.421340
11
11.401049
21
78.286659
0
LINE
8
Image 1
10
11.401049
20
78.286659
11
11.171618
21
78.260471
0
LINE
8
Image 1
10
11.171618
20
78.260471
11
11.079845
21
78.202483
0
LINE
8
Image 1
10
11.079845
20
78.202483
11
10.793056
21
78.125790
0
LINE
8
Image 1
10
10.793056
20
78.125790
11
10.743346
21
78.170683
0
LINE
8
Image 1
10
10.743346
20
78.170683
11
10.750995
21
78.262341
0
LINE
8
Image 1
10
10.750995
20
78.262341
11
10.773937
21
78.297882
0
LINE
8
Image 1
10
10.773937
20
78.297882
11
10.831295
21
78.335293
0
LINE
8
Image 1
10
10.831295
20
78.335293
11
10.923068
21
78.395152
0
LINE
8
Image 1
10
10.923068
20
78.395152
11
11.037898
21
78.466292
0
LINE
8
Image 1
10
11.037898
20
78.466292
11
11.060726
21
78.585950
0
LINE
8
Image 1
10
11.060726
20
78.585950
11
10.972778
21
78.585950
0
LINE
8
Image 1
10
10.972778
20
78.585950
11
10.854238
21
78.524221
0
LINE
8
Image 1
10
10.854238
20
78.524221
11
10.816000
21
78.494292
0
LINE
8
Image 1
10
10.816000
20
78.494292
11
10.678340
21
78.505516
0
LINE
8
Image 1
10
10.678340
20
78.505516
11
10.655398
21
78.542927
0
LINE
8
Image 1
10
10.655398
20
78.542927
11
10.770114
21
78.683220
0
LINE
8
Image 1
10
10.770114
20
78.683220
11
10.858063
21
78.729985
0
LINE
8
Image 1
10
10.858063
20
78.729985
11
10.988074
21
78.763655
0
LINE
8
Image 1
10
10.988074
20
78.763655
11
11.018665
21
78.802937
0
LINE
8
Image 1
10
11.018665
20
78.802937
11
10.930716
21
78.874019
0
LINE
8
Image 1
10
10.930716
20
78.874019
11
10.785410
21
78.874019
0
LINE
8
Image 1
10
10.785410
20
78.874019
11
10.525387
21
78.898336
0
LINE
8
Image 1
10
10.525387
20
78.898336
11
10.502443
21
78.954453
0
LINE
8
Image 1
10
10.502443
20
78.954453
11
10.502443
21
78.976901
0
LINE
8
Image 1
10
10.502443
20
78.976901
11
10.666869
21
79.014312
0
LINE
8
Image 1
10
10.666869
20
79.014312
11
11.060726
21
78.961936
0
LINE
8
Image 1
10
11.060726
20
78.961936
11
11.313101
21
78.842219
0
LINE
8
Image 1
10
11.313101
20
78.842219
11
11.366635
21
78.881502
0
LINE
8
Image 1
10
11.366635
20
78.881502
11
11.401049
21
78.933878
0
LINE
8
Image 1
10
11.401049
20
78.933878
11
11.404873
21
78.980642
0
LINE
8
Image 1
10
11.404873
20
78.980642
11
11.347515
21
79.156476
0
LINE
8
Image 1
10
11.347515
20
79.156476
11
11.263390
21
79.216334
0
LINE
8
Image 1
10
9.049377
20
79.195758
11
9.011138
21
79.143382
0
LINE
8
Image 1
10
9.011138
20
79.143382
11
8.957604
21
79.074170
0
LINE
8
Image 1
10
8.957604
20
79.074170
11
8.892599
21
78.900207
0
LINE
8
Image 1
10
8.892599
20
78.900207
11
8.846713
21
78.795455
0
LINE
8
Image 1
10
8.846713
20
78.795455
11
8.839066
21
78.763655
0
LINE
8
Image 1
10
8.839066
20
78.763655
11
8.804651
21
78.619622
0
LINE
8
Image 1
10
8.804651
20
78.619622
11
8.781709
21
78.378318
0
LINE
8
Image 1
10
8.781709
20
78.378318
11
8.819948
21
78.309106
0
LINE
8
Image 1
10
8.819948
20
78.309106
11
8.827597
21
78.288530
0
LINE
8
Image 1
10
8.827597
20
78.288530
11
8.965256
21
78.150107
0
LINE
8
Image 1
10
8.965256
20
78.150107
11
9.194687
21
77.989238
0
LINE
8
Image 1
10
9.194687
20
77.989238
11
9.607664
21
77.852686
0
LINE
8
Image 1
10
9.607664
20
77.852686
11
9.879158
21
77.817145
0
LINE
8
Image 1
10
9.879158
20
77.817145
11
10.181242
21
77.934992
0
LINE
8
Image 1
10
10.181242
20
77.934992
11
10.349492
21
78.039744
0
LINE
8
Image 1
10
10.349492
20
78.039744
11
10.670696
21
78.080896
0
LINE
8
Image 1
10
10.670696
20
78.080896
11
10.705111
21
78.144496
0
LINE
8
Image 1
10
10.705111
20
78.144496
11
10.705111
21
78.161331
0
LINE
8
Image 1
10
10.705111
20
78.161331
11
10.636282
21
78.245507
0
LINE
8
Image 1
10
10.636282
20
78.245507
11
10.540685
21
78.251119
0
LINE
8
Image 1
10
10.540685
20
78.251119
11
10.483327
21
78.247378
0
LINE
8
Image 1
10
10.483327
20
78.247378
11
10.422146
21
78.230542
0
LINE
8
Image 1
10
10.422146
20
78.230542
11
10.288310
21
78.236154
0
LINE
8
Image 1
10
10.288310
20
78.236154
11
10.238600
21
78.266083
0
LINE
8
Image 1
10
10.238600
20
78.266083
11
10.292135
21
78.370835
0
LINE
8
Image 1
10
10.292135
20
78.370835
11
10.425969
21
78.453140
0
LINE
8
Image 1
10
10.425969
20
78.453140
11
10.578924
21
78.460623
0
LINE
8
Image 1
10
10.578924
20
78.460623
11
10.601868
21
78.460623
0
LINE
8
Image 1
10
10.601868
20
78.460623
11
10.609515
21
78.570986
0
LINE
8
Image 1
10
10.609515
20
78.570986
11
10.517742
21
78.593434
0
LINE
8
Image 1
10
10.517742
20
78.593434
11
10.349493
21
78.561634
0
LINE
8
Image 1
10
10.349493
20
78.561634
11
10.139180
21
78.486811
0
LINE
8
Image 1
10
10.139180
20
78.486811
11
10.112413
21
78.565375
0
LINE
8
Image 1
10
10.112413
20
78.565375
11
10.227129
21
78.729985
0
LINE
8
Image 1
10
10.227129
20
78.729985
11
10.303606
21
78.769268
0
LINE
8
Image 1
10
10.303606
20
78.769268
11
10.433617
21
78.844090
0
LINE
8
Image 1
10
10.433617
20
78.844090
11
10.399203
21
78.930137
0
LINE
8
Image 1
10
10.399203
20
78.930137
11
10.318902
21
78.937619
0
LINE
8
Image 1
10
10.318902
20
78.937619
11
10.261544
21
78.915172
0
LINE
8
Image 1
10
10.261544
20
78.915172
11
10.169771
21
78.836608
0
LINE
8
Image 1
10
10.169771
20
78.836608
11
10.112413
21
78.776749
0
LINE
8
Image 1
10
10.112413
20
78.776749
11
9.905925
21
78.402635
0
LINE
8
Image 1
10
9.905925
20
78.402635
11
9.860039
21
78.368965
0
LINE
8
Image 1
10
9.860039
20
78.368965
11
9.802681
21
78.331553
0
LINE
8
Image 1
10
9.802681
20
78.331553
11
9.630607
21
78.314718
0
LINE
8
Image 1
10
9.630607
20
78.314718
11
9.458534
21
78.324071
0
LINE
8
Image 1
10
9.458534
20
78.324071
11
9.336170
21
78.514869
0
LINE
8
Image 1
10
9.336170
20
78.514869
11
9.408820
21
78.774879
0
LINE
8
Image 1
10
9.408820
20
78.774879
11
9.439410
21
78.832867
0
LINE
8
Image 1
10
9.955631
20
80.505158
11
10.246244
21
80.578111
0
LINE
8
Image 1
10
10.246244
20
80.578111
11
10.341841
21
80.587464
0
LINE
8
Image 1
10
10.842766
20
81.088777
11
10.812175
21
81.103741
0
LINE
8
Image 1
10
10.812175
20
81.103741
11
10.773937
21
81.077553
0
LINE
8
Image 1
10
10.773937
20
81.077553
11
10.773937
21
81.064459
0
LINE
8
Image 1
10
10.773937
20
81.064459
11
10.773937
21
81.042012
0
LINE
8
Image 1
10
10.773937
20
81.042012
11
10.892477
21
80.985895
0
LINE
8
Image 1
10
10.892477
20
80.985895
11
10.930715
21
81.032660
0
LINE
8
Image 1
10
10.930715
20
81.032660
11
10.873357
21
81.105612
0
LINE
8
Image 1
10
10.873357
20
81.105612
11
10.842766
21
81.088777
0
LINE
8
Image 1
10
10.842766
20
81.088777
11
10.842766
21
81.088777
0
LINE
8
Image 1
10
8.961428
20
80.716533
11
8.930837
21
80.666027
0
LINE
8
Image 1
10
8.930837
20
80.666027
11
8.934660
21
80.636098
0
LINE
8
Image 1
10
8.934660
20
80.636098
11
9.041728
21
80.609910
0
LINE
8
Image 1
10
9.041728
20
80.609910
11
9.049375
21
80.690345
0
LINE
8
Image 1
10
9.049375
20
80.690345
11
9.014960
21
80.712792
0
LINE
8
Image 1
10
9.014960
20
80.712792
11
8.988193
21
80.725886
0
LINE
8
Image 1
10
8.988193
20
80.725886
11
8.961426
21
80.716533
0
LINE
8
Image 1
10
8.961426
20
80.716533
11
8.961428
21
80.716533
0
LINE
8
Image 1
10
10.789232
20
81.277705
11
10.647749
21
81.100000
0
LINE
8
Image 1
10
10.647749
20
81.100000
11
10.643926
21
81.008342
0
LINE
8
Image 1
10
10.643926
20
81.008342
11
10.655398
21
80.985895
0
LINE
8
Image 1
10
10.655398
20
80.985895
11
10.838944
21
80.770779
0
LINE
8
Image 1
10
10.838944
20
80.770779
11
11.007193
21
80.817544
0
LINE
8
Image 1
10
11.007193
20
80.817544
11
11.118085
21
80.963448
0
LINE
8
Image 1
10
11.118085
20
80.963448
11
11.125734
21
80.972801
0
LINE
8
Image 1
10
11.125734
20
80.972801
11
11.129558
21
81.023307
0
LINE
8
Image 1
10
11.129558
20
81.023307
11
11.118085
21
81.120576
0
LINE
8
Image 1
10
11.118085
20
81.120576
11
10.949835
21
81.292669
0
LINE
8
Image 1
10
10.949835
20
81.292669
11
10.789234
21
81.277705
0
LINE
8
Image 1
10
10.789234
20
81.277705
11
10.789232
21
81.277705
0
LINE
8
Image 1
10
8.988195
20
80.916684
11
8.747292
21
80.680992
0
LINE
8
Image 1
10
8.747292
20
80.680992
11
8.739646
21
80.591205
0
LINE
8
Image 1
10
8.739646
20
80.591205
11
8.890056
21
80.417847
0
LINE
8
Image 1
10
8.890056
20
80.417847
11
9.122031
21
80.377959
0
LINE
8
Image 1
10
9.122031
20
80.377959
11
9.187037
21
80.419112
0
LINE
8
Image 1
10
9.187037
20
80.419112
11
9.229099
21
80.464006
0
LINE
8
Image 1
10
9.229099
20
80.464006
11
9.164094
21
80.836250
0
LINE
8
Image 1
10
9.164094
20
80.836250
11
8.988196
21
80.916684
0
LINE
8
Image 1
10
8.988196
20
80.916684
11
8.988195
21
80.916684
0
LINE
8
Image 1
10
8.835241
20
80.127303
11
8.770235
21
80.044997
0
LINE
8
Image 1
10
8.770235
20
80.044997
11
8.743468
21
79.921540
0
LINE
8
Image 1
10
8.743468
20
79.921540
11
8.731996
21
79.880387
0
LINE
8
Image 1
10
8.731996
20
79.880387
11
8.720524
21
79.784988
0
LINE
8
Image 1
10
8.720524
20
79.784988
11
8.712875
21
79.743835
0
LINE
8
Image 1
10
8.712875
20
79.743835
11
8.758761
21
79.465120
0
LINE
8
Image 1
10
8.758761
20
79.465120
11
8.812295
21
79.352886
0
LINE
8
Image 1
10
8.812295
20
79.352886
11
8.961425
21
79.231298
0
LINE
8
Image 1
10
8.961425
20
79.231298
11
9.091436
21
79.178922
0
LINE
8
Image 1
10
9.045552
20
80.101115
11
8.640224
21
80.245149
0
LINE
8
Image 1
10
8.640224
20
80.245149
11
8.567570
21
80.319971
0
LINE
8
Image 1
10
8.567570
20
80.319971
11
8.548452
21
80.353642
0
LINE
8
Image 1
10
8.548452
20
80.353642
11
8.498741
21
80.454653
0
LINE
8
Image 1
10
8.498741
20
80.454653
11
8.494918
21
80.598687
0
LINE
8
Image 1
10
8.494918
20
80.598687
11
8.498741
21
80.658545
0
LINE
8
Image 1
10
8.498741
20
80.658545
11
8.552275
21
80.787615
0
LINE
8
Image 1
10
8.552275
20
80.787615
11
8.777883
21
81.079424
0
LINE
8
Image 1
10
8.777883
20
81.079424
11
9.076144
21
81.100000
0
LINE
8
Image 1
10
9.076144
20
81.100000
11
9.324695
21
81.055107
0
LINE
8
Image 1
10
9.324695
20
81.055107
11
9.382053
21
81.032660
0
LINE
8
Image 1
10
9.382053
20
81.032660
11
9.427939
21
80.970931
0
LINE
8
Image 1
10
9.427939
20
80.970931
11
9.588541
21
81.070071
0
LINE
8
Image 1
10
9.588541
20
81.070071
11
9.814148
21
81.144894
0
LINE
8
Image 1
10
9.814148
20
81.144894
11
9.978574
21
81.156117
0
LINE
8
Image 1
10
9.978574
20
81.156117
11
10.135352
21
81.159858
0
LINE
8
Image 1
10
10.135352
20
81.159858
11
10.215654
21
81.144894
0
LINE
8
Image 1
10
10.215654
20
81.144894
11
10.330369
21
81.126188
0
LINE
8
Image 1
10
10.330369
20
81.126188
11
10.403023
21
81.107482
0
LINE
8
Image 1
10
10.403023
20
81.107482
11
10.403023
21
81.120576
0
LINE
8
Image 1
10
10.403023
20
81.120576
11
10.425965
21
81.169211
0
LINE
8
Image 1
10
10.425965
20
81.169211
11
10.448907
21
81.229070
0
LINE
8
Image 1
10
10.448907
20
81.229070
11
10.533031
21
81.354398
0
LINE
8
Image 1
10
10.533031
20
81.354398
11
10.739520
21
81.438574
0
LINE
8
Image 1
10
10.739520
20
81.438574
11
11.244269
21
81.363751
0
LINE
8
Image 1
10
11.244269
20
81.363751
11
11.401047
21
81.122447
0
LINE
8
Image 1
10
11.401047
20
81.122447
11
11.416343
21
81.032659
0
LINE
8
Image 1
10
11.416343
20
81.032659
11
11.378104
21
80.884884
0
LINE
8
Image 1
10
11.378104
20
80.884884
11
11.362809
21
80.826896
0
LINE
8
Image 1
10
11.362809
20
80.826896
11
11.316922
21
80.759556
0
LINE
8
Image 1
10
11.316922
20
80.759556
11
11.271036
21
80.712792
0
LINE
8
Image 1
10
11.271036
20
80.712792
11
11.202206
21
80.641710
0
LINE
8
Image 1
10
11.202206
20
80.641710
11
11.179264
21
80.619263
0
LINE
8
Image 1
10
11.179264
20
80.619263
11
11.167792
21
80.626745
0
LINE
8
Image 1
10
11.167792
20
80.626745
11
11.118084
21
80.535087
0
LINE
8
Image 1
10
11.118084
20
80.535087
11
11.175442
21
80.458394
0
LINE
8
Image 1
10
11.175442
20
80.458394
11
11.225152
21
80.391053
0
LINE
8
Image 1
10
11.225152
20
80.391053
11
11.267214
21
80.325583
0
LINE
8
Image 1
10
11.267214
20
80.325583
11
11.293981
21
80.293783
0
LINE
8
Image 1
10
11.293981
20
80.293783
11
11.366635
21
79.919669
0
LINE
8
Image 1
10
11.366635
20
79.919669
11
11.355163
21
79.863552
0
LINE
8
Image 1
10
11.355163
20
79.863552
11
11.290157
21
79.755059
0
LINE
8
Image 1
10
11.290157
20
79.755059
11
11.251918
21
79.704553
0
LINE
8
Image 1
10
6.001498
20
80.493128
11
6.219457
21
80.251824
0
LINE
8
Image 1
10
6.219457
20
80.251824
11
6.261520
21
80.270530
0
LINE
8
Image 1
10
6.261520
20
80.270530
11
6.403003
21
80.393988
0
LINE
8
Image 1
10
6.403003
20
80.393988
11
6.429770
21
80.422046
0
LINE
8
Image 1
10
7.713036
20
77.651010
11
7.716860
21
77.136603
0
LINE
8
Image 1
10
7.716860
20
77.136603
11
7.701564
21
76.985086
0
LINE
8
Image 1
10
7.701564
20
76.985086
11
7.659501
21
76.958898
0
LINE
8
Image 1
10
7.659501
20
76.958898
11
7.613615
21
76.957020
0
LINE
8
Image 1
10
7.613615
20
76.957020
11
7.498899
21
76.940184
0
LINE
8
Image 1
10
7.498899
20
76.940184
11
7.441542
21
76.936443
0
LINE
8
Image 1
10
7.441542
20
76.936443
11
7.414775
21
76.928960
0
LINE
8
Image 1
10
4.799256
20
77.789433
11
4.676893
21
77.396613
0
LINE
8
Image 1
10
4.676893
20
77.396613
11
4.650126
21
77.286249
0
LINE
8
Image 1
10
4.650126
20
77.286249
11
4.852791
21
76.973863
0
LINE
8
Image 1
10
4.852791
20
76.973863
11
4.925444
21
76.928969
0
LINE
8
Image 1
10
4.925444
20
76.928969
11
4.982802
21
76.900911
0
LINE
8
Image 1
10
4.982802
20
76.900911
11
5.059279
21
76.867240
0
LINE
8
Image 1
10
5.059279
20
76.867240
11
5.055456
21
76.732559
0
LINE
8
Image 1
10
5.055456
20
76.732559
11
5.097518
21
76.364056
0
LINE
8
Image 1
10
5.097518
20
76.364056
11
5.101341
21
75.664462
0
LINE
8
Image 1
10
5.101341
20
75.664462
11
5.105164
21
75.391359
0
LINE
8
Image 1
10
5.105164
20
75.391359
11
5.074574
21
75.144443
0
LINE
8
Image 1
10
5.074574
20
75.144443
11
5.051632
21
75.121996
0
LINE
8
Image 1
10
5.051632
20
75.121996
11
4.929268
21
74.989185
0
LINE
8
Image 1
10
4.929268
20
74.989185
11
4.776314
21
74.880692
0
LINE
8
Image 1
10
4.776314
20
74.880692
11
4.761018
21
74.818963
0
LINE
8
Image 1
10
4.761018
20
74.818963
11
5.101341
21
74.772199
0
LINE
8
Image 1
10
5.101341
20
74.772199
11
5.208409
21
74.777811
0
LINE
8
Image 1
10
5.208409
20
74.777811
11
5.281063
21
74.790905
0
LINE
8
Image 1
10
5.281063
20
74.790905
11
5.380483
21
74.807740
0
LINE
8
Image 1
10
5.380483
20
74.807740
11
5.418721
21
74.888175
0
LINE
8
Image 1
10
5.418721
20
74.888175
11
5.491375
21
75.286607
0
LINE
8
Image 1
10
5.491375
20
75.286607
11
5.518142
21
75.600863
0
LINE
8
Image 1
10
5.518142
20
75.600863
11
5.533438
21
75.746768
0
LINE
8
Image 1
10
5.533438
20
75.746768
11
5.529614
21
75.885190
0
LINE
8
Image 1
10
5.529614
20
75.885190
11
5.529614
21
76.046059
0
LINE
8
Image 1
10
5.529614
20
76.046059
11
5.521968
21
76.197576
0
LINE
8
Image 1
10
5.521968
20
76.197576
11
5.525791
21
76.291104
0
LINE
8
Image 1
10
5.525791
20
76.291104
11
5.525791
21
76.470679
0
LINE
8
Image 1
10
5.525791
20
76.470679
11
5.556382
21
76.749395
0
LINE
8
Image 1
10
5.556382
20
76.749395
11
5.567854
21
76.786806
0
LINE
8
Image 1
10
5.567854
20
76.786806
11
5.854644
21
76.880335
0
LINE
8
Image 1
10
5.854644
20
76.880335
11
6.110842
21
76.917746
0
LINE
8
Image 1
10
6.110842
20
76.917746
11
6.187319
21
76.928970
0
LINE
8
Image 1
10
6.187319
20
76.928970
11
6.466461
21
76.945805
0
LINE
8
Image 1
10
6.466461
20
76.945805
11
6.684421
21
76.957029
0
LINE
8
Image 1
10
6.684421
20
76.957029
11
6.722660
21
76.957029
0
LINE
8
Image 1
10
6.722660
20
76.957029
11
6.795313
21
76.938323
0
LINE
8
Image 1
10
6.795313
20
76.938323
11
6.845023
21
76.921487
0
LINE
8
Image 1
10
6.845023
20
76.921487
11
6.867965
21
76.882205
0
LINE
8
Image 1
10
6.867965
20
76.882205
11
6.887084
21
76.786806
0
LINE
8
Image 1
10
6.887084
20
76.786806
11
6.913851
21
76.556725
0
LINE
8
Image 1
10
6.913851
20
76.556725
11
6.925323
21
76.319163
0
LINE
8
Image 1
10
6.925323
20
76.319163
11
6.952090
21
76.132106
0
LINE
8
Image 1
10
6.952090
20
76.132106
11
6.959737
21
75.937566
0
LINE
8
Image 1
10
6.959737
20
75.937566
11
6.952090
21
75.449346
0
LINE
8
Image 1
10
6.952090
20
75.449346
11
6.936795
21
75.237972
0
LINE
8
Image 1
10
6.936795
20
75.237972
11
6.929146
21
75.168760
0
LINE
8
Image 1
10
6.929146
20
75.168760
11
6.913850
21
75.165019
0
LINE
8
Image 1
10
6.913850
20
75.165019
11
6.871788
21
75.138831
0
LINE
8
Image 1
10
6.871788
20
75.138831
11
6.806782
21
75.088325
0
LINE
8
Image 1
10
6.806782
20
75.088325
11
6.757072
21
75.054655
0
LINE
8
Image 1
10
6.757072
20
75.054655
11
6.711186
21
75.000408
0
LINE
8
Image 1
10
6.711186
20
75.000408
11
6.684419
21
74.936809
0
LINE
8
Image 1
10
6.684419
20
74.936809
11
6.810606
21
74.854504
0
LINE
8
Image 1
10
6.810606
20
74.854504
11
6.929145
21
74.847021
0
LINE
8
Image 1
10
6.929145
20
74.847021
11
7.017094
21
74.854504
0
LINE
8
Image 1
10
7.017094
20
74.854504
11
7.342122
21
74.931197
0
LINE
8
Image 1
10
7.342122
20
74.931197
11
7.403304
21
75.105160
0
LINE
8
Image 1
10
7.403304
20
75.105160
11
7.441542
21
75.256677
0
LINE
8
Image 1
10
7.441542
20
75.256677
11
7.453015
21
75.352076
0
LINE
8
Image 1
10
7.453015
20
75.352076
11
7.472133
21
75.447475
0
LINE
8
Image 1
10
7.472133
20
75.447475
11
7.487429
21
75.610215
0
LINE
8
Image 1
10
7.487429
20
75.610215
11
7.502725
21
75.780437
0
LINE
8
Image 1
10
7.502725
20
75.780437
11
7.502725
21
75.995553
0
LINE
8
Image 1
10
7.502725
20
75.995553
11
7.491252
21
76.098435
0
LINE
8
Image 1
10
7.491252
20
76.098435
11
7.491252
21
76.246210
0
LINE
8
Image 1
10
7.491252
20
76.246210
11
7.464485
21
76.442620
0
LINE
8
Image 1
10
7.464485
20
76.442620
11
7.464485
21
76.506219
0
LINE
8
Image 1
10
7.464485
20
76.506219
11
7.441543
21
76.726947
0
LINE
8
Image 1
10
7.441543
20
76.726947
11
7.437720
21
76.872852
0
LINE
8
Image 1
10
7.437720
20
76.872852
11
7.437720
21
76.932710
0
LINE
8
Image 1
10
7.475956
20
78.562447
11
7.483603
21
78.562447
0
LINE
8
Image 1
10
7.483603
20
78.562447
11
7.483603
21
78.435248
0
LINE
8
Image 1
10
7.483603
20
78.435248
11
7.468307
21
78.395966
0
LINE
8
Image 1
10
7.468307
20
78.395966
11
7.449188
21
78.369777
0
LINE
8
Image 1
10
7.449188
20
78.369777
11
7.430070
21
78.337978
0
LINE
8
Image 1
10
7.430070
20
78.337978
11
7.105042
21
78.184591
0
LINE
8
Image 1
10
7.105042
20
78.184591
11
6.852667
21
78.304307
0
LINE
8
Image 1
10
6.852667
20
78.304307
11
6.768542
21
78.366036
0
LINE
8
Image 1
10
6.768542
20
78.366036
11
6.642355
21
78.495106
0
LINE
8
Image 1
10
6.642355
20
78.495106
11
6.542934
21
78.560576
0
LINE
8
Image 1
10
6.542934
20
78.560576
11
6.409100
21
78.607340
0
LINE
8
Image 1
10
6.409100
20
78.607340
11
6.324975
21
78.583022
0
LINE
8
Image 1
10
6.324975
20
78.583022
11
6.294384
21
78.508200
0
LINE
8
Image 1
10
6.294384
20
78.508200
11
6.527639
21
78.315530
0
LINE
8
Image 1
10
6.527639
20
78.315530
11
6.627059
21
78.216390
0
LINE
8
Image 1
10
6.627059
20
78.216390
11
6.642355
21
78.149050
0
LINE
8
Image 1
10
6.642355
20
78.149050
11
6.443514
21
78.102285
0
LINE
8
Image 1
10
6.443514
20
78.102285
11
6.336446
21
78.124732
0
LINE
8
Image 1
10
6.336446
20
78.124732
11
6.275265
21
78.113509
0
LINE
8
Image 1
10
6.275265
20
78.113509
11
6.282914
21
77.939546
0
LINE
8
Image 1
10
6.282914
20
77.939546
11
6.363215
21
77.894652
0
LINE
8
Image 1
10
6.363215
20
77.894652
11
6.619413
21
77.909617
0
LINE
8
Image 1
10
6.619413
20
77.909617
11
6.699714
21
77.909617
0
LINE
8
Image 1
10
6.699714
20
77.909617
11
6.676769
21
77.750618
0
LINE
8
Image 1
10
6.676769
20
77.750618
11
6.466457
21
77.664572
0
LINE
8
Image 1
10
6.466457
20
77.664572
11
6.313503
21
77.672054
0
LINE
8
Image 1
10
6.313503
20
77.672054
11
6.294384
21
77.582267
0
LINE
8
Image 1
10
6.294384
20
77.582267
11
6.458810
21
77.531761
0
LINE
8
Image 1
10
6.458810
20
77.531761
11
6.665298
21
77.535502
0
LINE
8
Image 1
10
6.665298
20
77.535502
11
6.829724
21
77.604714
0
LINE
8
Image 1
10
6.829724
20
77.604714
11
6.936792
21
77.595361
0
LINE
8
Image 1
10
6.936792
20
77.595361
11
7.124161
21
77.587878
0
LINE
8
Image 1
10
7.124161
20
77.587878
11
7.349769
21
77.599102
0
LINE
8
Image 1
10
7.349769
20
77.599102
11
7.414775
21
77.612196
0
LINE
8
Image 1
10
7.414775
20
77.612196
11
7.697740
21
77.664572
0
LINE
8
Image 1
10
7.697740
20
77.664572
11
7.961586
21
77.890911
0
LINE
8
Image 1
10
7.961586
20
77.890911
11
8.087774
21
78.098545
0
LINE
8
Image 1
10
8.087774
20
78.098545
11
8.099246
21
78.227614
0
LINE
8
Image 1
10
8.099246
20
78.227614
11
8.049536
21
78.444601
0
LINE
8
Image 1
10
8.049536
20
78.444601
11
8.007473
21
78.521294
0
LINE
8
Image 1
10
8.007473
20
78.521294
11
7.957763
21
78.581152
0
LINE
8
Image 1
10
7.957763
20
78.581152
11
7.885110
21
78.687775
0
LINE
8
Image 1
10
7.885110
20
78.687775
11
7.835400
21
78.740151
0
LINE
8
Image 1
10
7.835400
20
78.740151
11
7.479782
21
79.097431
0
LINE
8
Image 1
10
7.479782
20
79.097431
11
7.495077
21
79.082466
0
LINE
8
Image 1
10
7.495077
20
79.082466
11
7.479782
21
79.097431
0
LINE
8
Image 1
10
7.479782
20
79.097431
11
7.537139
21
79.123619
0
LINE
8
Image 1
10
7.537139
20
79.123619
11
7.648031
21
79.194701
0
LINE
8
Image 1
10
7.648031
20
79.194701
11
7.667150
21
79.204053
0
LINE
8
Image 1
10
7.667150
20
79.204053
11
7.720684
21
79.243335
0
LINE
8
Image 1
10
7.720684
20
79.243335
11
7.885110
21
79.411687
0
LINE
8
Image 1
10
7.885110
20
79.411687
11
7.969235
21
79.606226
0
LINE
8
Image 1
10
7.969235
20
79.606226
11
7.950116
21
79.759613
0
LINE
8
Image 1
10
7.950116
20
79.759613
11
7.927174
21
79.853142
0
LINE
8
Image 1
10
7.927174
20
79.853142
11
7.896583
21
79.922353
0
LINE
8
Image 1
10
7.896583
20
79.922353
11
7.873638
21
79.978470
0
LINE
8
Image 1
10
7.873638
20
79.978470
11
7.869815
21
79.999047
0
LINE
8
Image 1
10
7.869815
20
79.999047
11
7.850696
21
80.034588
0
LINE
8
Image 1
10
7.850696
20
80.034588
11
7.820106
21
80.111281
0
LINE
8
Image 1
10
7.820106
20
80.111281
11
7.804810
21
80.133728
0
LINE
8
Image 1
10
7.804810
20
80.133728
11
7.793338
21
80.161787
0
LINE
8
Image 1
10
7.793338
20
80.161787
11
7.739804
21
80.229127
0
LINE
8
Image 1
10
7.739804
20
80.229127
11
7.831576
21
80.272150
0
LINE
8
Image 1
10
7.831576
20
80.272150
11
7.999826
21
80.388126
0
LINE
8
Image 1
10
7.999826
20
80.388126
11
8.097828
21
80.630762
0
LINE
8
Image 1
10
8.097828
20
80.630762
11
8.076303
21
80.898792
0
LINE
8
Image 1
10
8.076303
20
80.898792
11
7.957764
21
81.237366
0
LINE
8
Image 1
10
7.957764
20
81.237366
11
7.820105
21
81.357082
0
LINE
8
Image 1
10
7.820105
20
81.357082
11
7.388009
21
81.385141
0
LINE
8
Image 1
10
7.388009
20
81.385141
11
7.185344
21
81.239236
0
LINE
8
Image 1
10
7.185344
20
81.239236
11
7.024742
21
81.080238
0
LINE
8
Image 1
10
7.024742
20
81.080238
11
6.944441
21
80.953039
0
LINE
8
Image 1
10
6.944441
20
80.953039
11
6.948265
21
80.887569
0
LINE
8
Image 1
10
6.948265
20
80.887569
11
6.883259
21
80.924980
0
LINE
8
Image 1
10
6.883259
20
80.924980
11
6.787663
21
80.938074
0
LINE
8
Image 1
10
6.787663
20
80.938074
11
6.672947
21
80.964262
0
LINE
8
Image 1
10
6.672947
20
80.964262
11
6.256147
21
80.992321
0
LINE
8
Image 1
10
6.256147
20
80.992321
11
5.946414
21
80.986709
0
LINE
8
Image 1
10
5.946414
20
80.986709
11
5.751397
21
80.954909
0
LINE
8
Image 1
10
5.751397
20
80.954909
11
5.747574
21
81.039085
0
LINE
8
Image 1
10
5.747574
20
81.039085
11
5.487551
21
81.409458
0
LINE
8
Image 1
10
5.487551
20
81.409458
11
5.380483
21
81.465575
0
LINE
8
Image 1
10
5.380483
20
81.465575
11
5.173995
21
81.510469
0
LINE
8
Image 1
10
5.173995
20
81.510469
11
4.936916
21
81.514210
0
LINE
8
Image 1
10
4.936916
20
81.514210
11
4.684541
21
81.373917
0
LINE
8
Image 1
10
4.684541
20
81.373917
11
4.638655
21
81.325283
0
LINE
8
Image 1
10
4.638655
20
81.325283
11
4.516291
21
81.175637
0
LINE
8
Image 1
10
4.516291
20
81.175637
11
4.470405
21
81.037214
0
LINE
8
Image 1
10
4.470405
20
81.037214
11
4.462756
21
80.956780
0
LINE
8
Image 1
10
4.462756
20
80.956780
11
4.558352
21
80.644394
0
LINE
8
Image 1
10
4.558352
20
80.644394
11
4.684540
21
80.526548
0
LINE
8
Image 1
10
4.684540
20
80.526548
11
4.860437
21
80.425537
0
LINE
8
Image 1
10
4.860437
20
80.425537
11
4.959857
21
80.393737
0
LINE
8
Image 1
10
4.959857
20
80.393737
11
4.986624
21
80.382514
0
LINE
8
Image 1
10
4.986624
20
80.382514
11
4.998097
21
80.378773
0
LINE
8
Image 1
10
4.998097
20
80.378773
11
4.936915
21
80.350714
0
LINE
8
Image 1
10
4.936915
20
80.350714
11
4.799256
21
80.096316
0
LINE
8
Image 1
10
4.799256
20
80.096316
11
4.688364
21
79.716590
0
LINE
8
Image 1
10
4.688364
20
79.716590
11
4.715131
21
79.606226
0
LINE
8
Image 1
10
4.715131
20
79.606226
11
4.848966
21
79.320029
0
LINE
8
Image 1
10
4.848966
20
79.320029
11
4.963682
21
79.232112
0
LINE
8
Image 1
10
4.963682
20
79.232112
11
5.005744
21
79.213406
0
LINE
8
Image 1
10
5.005744
20
79.213406
11
4.963683
21
79.187218
0
LINE
8
Image 1
10
4.963683
20
79.187218
11
4.906325
21
79.103042
0
LINE
8
Image 1
10
4.906325
20
79.103042
11
4.722780
21
78.816845
0
LINE
8
Image 1
10
4.722780
20
78.816845
11
4.566001
21
78.289344
0
LINE
8
Image 1
10
4.566001
20
78.289344
11
4.600416
21
78.158403
0
LINE
8
Image 1
10
4.600416
20
78.158403
11
4.852791
21
77.771195
0
LINE
8
Image 1
10
4.852791
20
77.771195
11
4.917796
21
77.698243
0
LINE
8
Image 1
10
4.917796
20
77.698243
11
5.307830
21
77.511185
0
LINE
8
Image 1
10
5.307830
20
77.511185
11
5.391955
21
77.486868
0
LINE
8
Image 1
10
5.391955
20
77.486868
11
5.541085
21
77.471903
0
LINE
8
Image 1
10
5.541085
20
77.471903
11
5.632858
21
77.466291
0
LINE
8
Image 1
10
5.632858
20
77.466291
11
5.713159
21
77.486868
0
LINE
8
Image 1
10
5.713159
20
77.486868
11
5.766693
21
77.520538
0
LINE
8
Image 1
10
5.766693
20
77.520538
11
5.816403
21
77.546726
0
LINE
8
Image 1
10
5.816403
20
77.546726
11
5.869937
21
77.548605
0
LINE
8
Image 1
10
5.869937
20
77.548605
11
5.961709
21
77.546726
0
LINE
8
Image 1
10
5.961709
20
77.546726
11
6.080249
21
77.531762
0
LINE
8
Image 1
10
6.080249
20
77.531762
11
6.133783
21
77.552338
0
LINE
8
Image 1
10
6.133783
20
77.552338
11
6.210260
21
77.606585
0
LINE
8
Image 1
10
6.210260
20
77.606585
11
6.229379
21
77.657090
0
LINE
8
Image 1
10
6.229379
20
77.657090
11
6.191140
21
77.675796
0
LINE
8
Image 1
10
6.191140
20
77.675796
11
6.126135
21
77.694502
0
LINE
8
Image 1
10
6.126135
20
77.694502
11
5.961709
21
77.700114
0
LINE
8
Image 1
10
5.961709
20
77.700114
11
5.785811
21
77.838537
0
LINE
8
Image 1
10
5.785811
20
77.838537
11
5.797284
21
77.913360
0
LINE
8
Image 1
10
5.797284
20
77.913360
11
5.896704
21
77.963865
0
LINE
8
Image 1
10
5.896704
20
77.963865
11
6.141431
21
77.984442
0
LINE
8
Image 1
10
6.141431
20
77.984442
11
6.187317
21
78.085453
0
LINE
8
Image 1
10
6.187317
20
78.085453
11
6.126135
21
78.152793
0
LINE
8
Image 1
10
6.126135
20
78.152793
11
5.996124
21
78.197687
0
LINE
8
Image 1
10
5.996124
20
78.197687
11
5.881409
21
78.150923
0
LINE
8
Image 1
10
5.881409
20
78.150923
11
5.785812
21
78.143440
0
LINE
8
Image 1
10
5.785812
20
78.143440
11
5.762870
21
78.182722
0
LINE
8
Image 1
10
5.762870
20
78.182722
11
5.797285
21
78.294956
0
LINE
8
Image 1
10
5.797285
20
78.294956
11
5.877586
21
78.386615
0
LINE
8
Image 1
10
5.877586
20
78.386615
11
6.168199
21
78.496978
0
LINE
8
Image 1
10
6.168199
20
78.496978
11
6.214085
21
78.526908
0
LINE
8
Image 1
10
6.214085
20
78.526908
11
6.191143
21
78.618566
0
LINE
8
Image 1
10
6.191143
20
78.618566
11
6.034365
21
78.655977
0
LINE
8
Image 1
10
6.034365
20
78.655977
11
5.915826
21
78.644753
0
LINE
8
Image 1
10
5.915826
20
78.644753
11
5.674922
21
78.487625
0
LINE
8
Image 1
10
5.674922
20
78.487625
11
5.479906
21
78.296827
0
LINE
8
Image 1
10
5.479906
20
78.296827
11
5.422548
21
78.293086
0
LINE
8
Image 1
10
5.422548
20
78.293086
11
5.304008
21
78.328627
0
LINE
8
Image 1
10
5.304008
20
78.328627
11
5.154878
21
78.390356
0
LINE
8
Image 1
10
5.154878
20
78.390356
11
5.074577
21
78.513813
0
LINE
8
Image 1
10
5.074577
20
78.513813
11
5.101344
21
78.558707
0
LINE
8
Image 1
10
7.487429
20
80.887569
11
7.403304
21
80.878216
0
LINE
8
Image 1
10
7.403304
20
80.878216
11
7.399481
21
80.809004
0
LINE
8
Image 1
10
7.399481
20
80.809004
11
7.472134
21
80.769722
0
LINE
8
Image 1
10
7.472134
20
80.769722
11
7.529492
21
80.853898
0
LINE
8
Image 1
10
7.529492
20
80.853898
11
7.521845
21
80.885698
0
LINE
8
Image 1
10
7.521845
20
80.885698
11
7.487431
21
80.887568
0
LINE
8
Image 1
10
7.487431
20
80.887568
11
7.487429
21
80.887569
0
LINE
8
Image 1
10
7.475956
20
81.085849
11
7.200639
21
80.861381
0
LINE
8
Image 1
10
7.200639
20
80.861381
11
7.192990
21
80.683676
0
LINE
8
Image 1
10
7.192990
20
80.683676
11
7.269467
21
80.590147
0
LINE
8
Image 1
10
7.269467
20
80.590147
11
7.486047
21
80.513713
0
LINE
8
Image 1
10
7.486047
20
80.513713
11
7.709210
21
80.582665
0
LINE
8
Image 1
10
7.709210
20
80.582665
11
7.781864
21
80.887568
0
LINE
8
Image 1
10
7.781864
20
80.887568
11
7.747450
21
80.975485
0
LINE
8
Image 1
10
7.747450
20
80.975485
11
7.663325
21
81.069014
0
LINE
8
Image 1
10
7.663325
20
81.069014
11
7.625086
21
81.083978
0
LINE
8
Image 1
10
7.625086
20
81.083978
11
7.475956
21
81.085849
0
LINE
8
Image 1
10
7.475956
20
81.085849
11
7.475956
21
81.085849
0
LINE
8
Image 1
10
5.036336
20
81.117649
11
5.059278
21
80.958650
0
LINE
8
Image 1
10
5.059278
20
80.958650
11
5.093693
21
81.003544
0
LINE
8
Image 1
10
5.093693
20
81.003544
11
5.036335
21
81.117649
0
LINE
8
Image 1
10
5.036335
20
81.117649
11
5.036336
21
81.117649
0
LINE
8
Image 1
10
4.906324
20
81.269165
11
4.730427
21
80.932462
0
LINE
8
Image 1
10
4.730427
20
80.932462
11
4.799256
21
80.809004
0
LINE
8
Image 1
10
4.799256
20
80.809004
11
4.852791
21
80.745405
0
LINE
8
Image 1
10
4.852791
20
80.745405
11
5.296358
21
80.704252
0
LINE
8
Image 1
10
5.296358
20
80.704252
11
5.430193
21
80.878216
0
LINE
8
Image 1
10
5.430193
20
80.878216
11
5.407251
21
81.110167
0
LINE
8
Image 1
10
5.407251
20
81.110167
11
5.185467
21
81.312189
0
LINE
8
Image 1
10
5.185467
20
81.312189
11
5.135757
21
81.317800
0
LINE
8
Image 1
10
5.135757
20
81.317800
11
4.906326
21
81.269165
0
LINE
8
Image 1
10
4.906326
20
81.269165
11
4.906324
21
81.269165
0
LINE
8
Image 1
10
2.264011
20
79.909714
11
2.302249
21
79.954608
0
LINE
8
Image 1
10
2.302249
20
79.954608
11
2.344312
21
79.975184
0
LINE
8
Image 1
10
2.344312
20
79.975184
11
2.566095
21
79.971443
0
LINE
8
Image 1
10
2.566095
20
79.971443
11
2.646396
21
79.876044
0
LINE
8
Image 1
10
2.646396
20
79.876044
11
2.654046
21
79.864820
0
LINE
8
Image 1
10
2.654046
20
79.864820
11
2.657869
21
79.853597
0
LINE
8
Image 1
10
2.657869
20
79.853597
11
2.650222
21
79.866691
0
LINE
8
Image 1
10
3.770611
20
75.315588
11
3.659719
21
75.136013
0
LINE
8
Image 1
10
3.659719
20
75.136013
11
3.372929
21
75.016296
0
LINE
8
Image 1
10
3.372929
20
75.016296
11
3.239094
21
74.999461
0
LINE
8
Image 1
10
3.239094
20
74.999461
11
3.170265
21
75.003202
0
LINE
8
Image 1
10
3.353810
20
75.987123
11
3.432072
21
75.796654
0
LINE
8
Image 1
10
3.432072
20
75.796654
11
3.388225
21
75.596174
0
LINE
8
Image 1
10
3.388225
20
75.596174
11
2.910243
21
75.425952
0
LINE
8
Image 1
10
1.824267
20
75.747690
11
1.851034
21
75.745812
0
LINE
8
Image 1
10
1.851034
20
75.745812
11
1.912216
21
75.719623
0
LINE
8
Image 1
10
1.912216
20
75.719623
11
2.046051
21
75.661636
0
LINE
8
Image 1
10
2.046051
20
75.661636
11
2.241067
21
75.555013
0
LINE
8
Image 1
10
2.241067
20
75.555013
11
2.554624
21
75.143487
0
LINE
8
Image 1
10
2.554624
20
75.143487
11
2.611982
21
74.965783
0
LINE
8
Image 1
10
2.611982
20
74.965783
11
2.554624
21
74.935853
0
LINE
8
Image 1
10
2.554624
20
74.935853
11
2.428437
21
74.892830
0
LINE
8
Image 1
10
2.428437
20
74.892830
11
2.271658
21
74.862901
0
LINE
8
Image 1
10
2.271658
20
74.862901
11
2.026931
21
74.791819
0
LINE
8
Image 1
10
2.026931
20
74.791819
11
1.824267
21
74.767502
0
LINE
8
Image 1
10
1.824267
20
74.767502
11
1.724847
21
74.760019
0
LINE
8
Image 1
10
1.724847
20
74.760019
11
1.633074
21
74.812395
0
LINE
8
Image 1
10
1.633074
20
74.812395
11
1.652193
21
74.842324
0
LINE
8
Image 1
10
1.652193
20
74.842324
11
1.885449
21
75.029390
0
LINE
8
Image 1
10
1.885449
20
75.029390
11
1.996341
21
75.070543
0
LINE
8
Image 1
10
1.996341
20
75.070543
11
1.938983
21
75.158460
0
LINE
8
Image 1
10
1.938983
20
75.158460
11
1.793676
21
75.308105
0
LINE
8
Image 1
10
1.793676
20
75.308105
11
1.717199
21
75.362352
0
LINE
8
Image 1
10
1.717199
20
75.362352
11
1.633074
21
75.424081
0
LINE
8
Image 1
10
1.633074
20
75.424081
11
1.606307
21
75.437175
0
LINE
8
Image 1
10
1.606307
20
75.437175
11
1.552773
21
75.478328
0
LINE
8
Image 1
10
1.552773
20
75.478328
11
1.526006
21
75.495163
0
LINE
8
Image 1
10
1.526006
20
75.495163
11
1.514535
21
75.502646
0
LINE
8
Image 1
10
1.514535
20
75.502646
11
1.529830
21
75.483940
0
LINE
8
Image 1
10
1.529830
20
75.483940
11
1.514535
21
75.502646
0
LINE
8
Image 1
10
1.644546
20
76.804564
11
1.388347
21
76.436061
0
LINE
8
Image 1
10
1.388347
20
76.436061
11
1.319518
21
76.320086
0
LINE
8
Image 1
10
1.319518
20
76.320086
11
1.265984
21
76.226557
0
LINE
8
Image 1
10
1.265984
20
76.226557
11
1.365404
21
76.108711
0
LINE
8
Image 1
10
1.365404
20
76.108711
11
1.453353
21
76.028276
0
LINE
8
Image 1
10
3.407344
20
77.754970
11
3.395872
21
77.698853
0
LINE
8
Image 1
10
3.395872
20
77.698853
11
3.403518
21
77.607195
0
LINE
8
Image 1
10
3.403518
20
77.607195
11
3.403518
21
77.412656
0
LINE
8
Image 1
10
3.403518
20
77.412656
11
3.403518
21
77.251786
0
LINE
8
Image 1
10
3.403518
20
77.251786
11
3.380576
21
77.068470
0
LINE
8
Image 1
10
3.380576
20
77.068470
11
3.365281
21
76.922566
0
LINE
8
Image 1
10
3.365281
20
76.922566
11
3.334690
21
76.819684
0
LINE
8
Image 1
10
3.334690
20
76.819684
11
3.311748
21
76.724285
0
LINE
8
Image 1
10
3.311748
20
76.724285
11
3.296452
21
76.694356
0
LINE
8
Image 1
10
3.296452
20
76.694356
11
3.292629
21
76.679391
0
LINE
8
Image 1
10
3.292629
20
76.679391
11
3.250566
21
76.634497
0
LINE
8
Image 1
10
3.250566
20
76.634497
11
3.219976
21
76.597086
0
LINE
8
Image 1
10
3.219976
20
76.597086
11
3.078493
21
76.499816
0
LINE
8
Image 1
10
3.078493
20
76.499816
11
3.002016
21
76.477369
0
LINE
8
Image 1
10
3.002016
20
76.477369
11
2.860533
21
76.441828
0
LINE
8
Image 1
10
2.860533
20
76.441828
11
2.661692
21
76.402546
0
LINE
8
Image 1
10
2.661692
20
76.402546
11
2.501090
21
76.312759
0
LINE
8
Image 1
10
2.501090
20
76.312759
11
2.340488
21
76.174336
0
LINE
8
Image 1
10
2.340488
20
76.174336
11
2.248715
21
76.103255
0
LINE
8
Image 1
10
2.248715
20
76.103255
11
2.099585
21
75.970444
0
LINE
8
Image 1
10
2.099585
20
75.970444
11
1.854858
21
75.764681
0
LINE
8
Image 1
10
1.854858
20
75.764681
11
1.591012
21
75.532730
0
LINE
8
Image 1
10
1.591012
20
75.532730
11
1.415114
21
75.398049
0
LINE
8
Image 1
10
1.415114
20
75.398049
11
1.258336
21
75.259627
0
LINE
8
Image 1
10
1.258336
20
75.259627
11
1.074791
21
75.124945
0
LINE
8
Image 1
10
1.074791
20
75.124945
11
1.021257
21
75.072569
0
LINE
8
Image 1
10
1.021257
20
75.072569
11
0.956251
21
75.022064
0
LINE
8
Image 1
10
0.956251
20
75.022064
11
0.891246
21
74.967817
0
LINE
8
Image 1
10
0.891246
20
74.967817
11
0.872126
21
74.952852
0
LINE
8
Image 1
10
0.872126
20
74.952852
11
0.742115
21
74.960335
0
LINE
8
Image 1
10
0.742115
20
74.960335
11
0.654166
21
74.979041
0
LINE
8
Image 1
10
0.654166
20
74.979041
11
0.428559
21
75.149263
0
LINE
8
Image 1
10
0.428559
20
75.149263
11
0.371201
21
75.225956
0
LINE
8
Image 1
10
0.371201
20
75.225956
11
0.298548
21
75.315744
0
LINE
8
Image 1
10
0.298548
20
75.315744
11
0.241190
21
75.386825
0
LINE
8
Image 1
10
0.241190
20
75.386825
11
0.199127
21
75.480354
0
LINE
8
Image 1
10
0.199127
20
75.480354
11
0.160889
21
75.598200
0
LINE
8
Image 1
10
0.160889
20
75.598200
11
0.160889
21
75.613165
0
LINE
8
Image 1
10
0.160889
20
75.613165
11
0.271781
21
75.658059
0
LINE
8
Image 1
10
0.271781
20
75.658059
11
0.405616
21
75.618777
0
LINE
8
Image 1
10
0.405616
20
75.618777
11
0.482093
21
75.575754
0
LINE
8
Image 1
10
0.482093
20
75.575754
11
0.604456
21
75.485966
0
LINE
8
Image 1
10
0.604456
20
75.485966
11
0.642695
21
75.471001
0
LINE
8
Image 1
10
0.642695
20
75.471001
11
0.833888
21
75.514024
0
LINE
8
Image 1
10
0.833888
20
75.514024
11
1.151268
21
75.673023
0
LINE
8
Image 1
10
1.151268
20
75.673023
11
1.178035
21
75.702952
0
LINE
8
Image 1
10
1.178035
20
75.702952
11
1.319518
21
75.865692
0
LINE
8
Image 1
10
1.319518
20
75.865692
11
1.487767
21
76.024691
0
LINE
8
Image 1
10
1.487767
20
76.024691
11
1.629250
21
76.183689
0
LINE
8
Image 1
10
1.629250
20
76.183689
11
1.808972
21
76.376359
0
LINE
8
Image 1
10
1.808972
20
76.376359
11
1.954278
21
76.559675
0
LINE
8
Image 1
10
1.954278
20
76.559675
11
2.065170
21
76.698097
0
LINE
8
Image 1
10
2.065170
20
76.698097
11
2.137823
21
76.789755
0
LINE
8
Image 1
10
2.137823
20
76.789755
11
2.156943
21
76.823425
0
LINE
8
Image 1
10
2.156943
20
76.823425
11
2.179886
21
76.870189
0
LINE
8
Image 1
10
2.179886
20
76.870189
11
2.195181
21
76.847742
0
LINE
8
Image 1
10
2.195181
20
76.847742
11
2.183710
21
76.875801
0
LINE
8
Image 1
10
1.529830
20
76.832778
11
1.625426
21
76.836519
0
LINE
8
Image 1
10
1.625426
20
76.836519
11
1.816619
21
76.847743
0
LINE
8
Image 1
10
1.816619
20
76.847743
11
1.938983
21
76.847743
0
LINE
8
Image 1
10
1.938983
20
76.847743
11
2.088113
21
76.851484
0
LINE
8
Image 1
10
2.088113
20
76.851484
11
2.160766
21
76.838390
0
LINE
8
Image 1
10
2.160766
20
76.838390
11
2.179886
21
76.830908
0
LINE
8
Image 1
10
2.179886
20
76.830908
11
2.168414
21
76.817813
0
LINE
8
Image 1
10
2.168414
20
76.817813
11
2.179886
21
76.829037
0
LINE
8
Image 1
10
1.223921
20
77.848499
11
1.189507
21
77.792382
0
LINE
8
Image 1
10
1.189507
20
77.792382
11
1.155092
21
77.620289
0
LINE
8
Image 1
10
1.155092
20
77.620289
11
1.120677
21
77.465032
0
LINE
8
Image 1
10
1.120677
20
77.465032
11
1.093910
21
77.347186
0
LINE
8
Image 1
10
1.093910
20
77.347186
11
1.067143
21
77.233081
0
LINE
8
Image 1
10
1.067143
20
77.233081
11
1.063319
21
77.169481
0
LINE
8
Image 1
10
1.063319
20
77.169481
11
1.055672
21
77.064729
0
LINE
8
Image 1
10
1.055672
20
77.064729
11
1.120677
21
76.900119
0
LINE
8
Image 1
10
1.120677
20
76.900119
11
1.116853
21
76.872060
0
LINE
8
Image 1
10
1.116853
20
76.872060
11
1.078615
21
76.731767
0
LINE
8
Image 1
10
1.078615
20
76.731767
11
1.009785
21
76.606439
0
LINE
8
Image 1
10
1.009785
20
76.606439
11
0.921837
21
76.469887
0
LINE
8
Image 1
10
0.921837
20
76.469887
11
0.730644
21
76.226712
0
LINE
8
Image 1
10
0.730644
20
76.226712
11
0.711524
21
76.168725
0
LINE
8
Image 1
10
0.711524
20
76.168725
11
0.719172
21
76.073326
0
LINE
8
Image 1
10
0.719172
20
76.073326
11
0.757411
21
76.009726
0
LINE
8
Image 1
10
0.757411
20
76.009726
11
0.784178
21
75.985408
0
LINE
8
Image 1
10
0.784178
20
75.985408
11
0.791826
21
75.968573
0
LINE
8
Image 1
10
0.791826
20
75.968573
11
0.940956
21
75.832021
0
LINE
8
Image 1
10
0.940956
20
75.832021
11
1.093910
21
75.732881
0
LINE
8
Image 1
10
1.093910
20
75.732881
11
1.155092
21
75.704822
0
LINE
8
Image 1
10
1.155092
20
75.704822
11
1.178035
21
75.689857
0
LINE
8
Image 1
10
1.178035
20
75.689857
11
1.166564
21
75.697340
0
LINE
8
Image 1
10
1.633074
20
79.421650
11
1.541301
21
79.292581
0
LINE
8
Image 1
10
1.541301
20
79.292581
11
1.445705
21
79.163511
0
LINE
8
Image 1
10
1.445705
20
79.163511
11
1.426586
21
79.150417
0
LINE
8
Image 1
10
1.426586
20
79.150417
11
1.342461
21
79.071853
0
LINE
8
Image 1
10
1.342461
20
79.071853
11
1.208626
21
78.985807
0
LINE
8
Image 1
10
1.208626
20
78.985807
11
0.856831
21
78.682774
0
LINE
8
Image 1
10
0.856831
20
78.682774
11
0.788001
21
78.521905
0
LINE
8
Image 1
10
0.788001
20
78.521905
11
0.772706
21
78.477011
0
LINE
8
Image 1
10
0.772706
20
78.477011
11
0.807121
21
78.217002
0
LINE
8
Image 1
10
0.807121
20
78.217002
11
0.826240
21
78.164626
0
LINE
8
Image 1
10
0.826240
20
78.164626
11
0.864479
21
78.110379
0
LINE
8
Image 1
10
0.864479
20
78.110379
11
0.883598
21
78.074838
0
LINE
8
Image 1
10
0.883598
20
78.074838
11
1.009785
21
77.960733
0
LINE
8
Image 1
10
1.009785
20
77.960733
11
1.193330
21
77.893393
0
LINE
8
Image 1
10
1.193330
20
77.893393
11
1.262160
21
77.889652
0
LINE
8
Image 1
10
1.262160
20
77.889652
11
1.342461
21
77.818570
0
LINE
8
Image 1
10
1.342461
20
77.818570
11
1.682784
21
77.726912
0
LINE
8
Image 1
10
1.682784
20
77.726912
11
1.759261
21
77.794252
0
LINE
8
Image 1
10
1.759261
20
77.794252
11
1.724847
21
77.831664
0
LINE
8
Image 1
10
1.724847
20
77.831664
11
1.640722
21
77.902746
0
LINE
8
Image 1
10
1.640722
20
77.902746
11
1.533654
21
77.956992
0
LINE
8
Image 1
10
1.533654
20
77.956992
11
1.476296
21
78.000015
0
LINE
8
Image 1
10
1.476296
20
78.000015
11
1.445705
21
78.044909
0
LINE
8
Image 1
10
1.445705
20
78.044909
11
1.709551
21
78.059874
0
LINE
8
Image 1
10
1.709551
20
78.059874
11
1.805148
21
78.108509
0
LINE
8
Image 1
10
1.805148
20
78.108509
11
1.786028
21
78.170238
0
LINE
8
Image 1
10
1.786028
20
78.170238
11
1.626470
21
78.241587
0
LINE
8
Image 1
10
1.626470
20
78.241587
11
1.537478
21
78.370389
0
LINE
8
Image 1
10
1.537478
20
78.370389
11
1.571892
21
78.420895
0
LINE
8
Image 1
10
1.571892
20
78.420895
11
1.812795
21
78.456435
0
LINE
8
Image 1
10
1.812795
20
78.456435
11
1.893096
21
78.559317
0
LINE
8
Image 1
10
1.893096
20
78.559317
11
1.698080
21
78.690257
0
LINE
8
Image 1
10
1.698080
20
78.690257
11
1.606307
21
78.667810
0
LINE
8
Image 1
10
1.606307
20
78.667810
11
1.533654
21
78.609822
0
LINE
8
Image 1
10
1.533654
20
78.609822
11
1.499239
21
78.572411
0
LINE
8
Image 1
10
1.499239
20
78.572411
11
1.441881
21
78.529387
0
LINE
8
Image 1
10
1.441881
20
78.529387
11
1.350108
21
78.499458
0
LINE
8
Image 1
10
1.350108
20
78.499458
11
1.350108
21
78.514423
0
LINE
8
Image 1
10
1.350108
20
78.514423
11
1.407466
21
78.705222
0
LINE
8
Image 1
10
1.407466
20
78.705222
11
1.441881
21
78.753856
0
LINE
8
Image 1
10
1.441881
20
78.753856
11
1.453353
21
78.768821
0
LINE
8
Image 1
10
3.154969
20
78.462047
11
3.132027
21
78.319883
0
LINE
8
Image 1
10
3.132027
20
78.319883
11
3.097613
21
78.235708
0
LINE
8
Image 1
10
3.097613
20
78.235708
11
3.047902
21
78.151532
0
LINE
8
Image 1
10
3.047902
20
78.151532
11
3.024961
21
78.132826
0
LINE
8
Image 1
10
3.024961
20
78.132826
11
2.948483
21
78.078579
0
LINE
8
Image 1
10
2.948483
20
78.078579
11
2.481971
21
78.237578
0
LINE
8
Image 1
10
2.481971
20
78.237578
11
2.397846
21
78.318013
0
LINE
8
Image 1
10
2.397846
20
78.318013
11
2.386374
21
78.426506
0
LINE
8
Image 1
10
2.386374
20
78.426506
11
2.133999
21
78.591116
0
LINE
8
Image 1
10
2.133999
20
78.591116
11
2.057522
21
78.591116
0
LINE
8
Image 1
10
2.057522
20
78.591116
11
1.908392
21
78.559317
0
LINE
8
Image 1
10
1.908392
20
78.559317
11
2.019284
21
78.433988
0
LINE
8
Image 1
10
2.019284
20
78.433988
11
2.126352
21
78.377871
0
LINE
8
Image 1
10
2.126352
20
78.377871
11
2.153119
21
78.323624
0
LINE
8
Image 1
10
2.153119
20
78.323624
11
2.153119
21
78.284342
0
LINE
8
Image 1
10
2.153119
20
78.284342
11
2.153119
21
78.267507
0
LINE
8
Image 1
10
2.153119
20
78.267507
11
2.049875
21
78.220743
0
LINE
8
Image 1
10
2.049875
20
78.220743
11
1.847210
21
78.145920
0
LINE
8
Image 1
10
1.847210
20
78.145920
11
1.831915
21
78.110379
0
LINE
8
Image 1
10
1.831915
20
78.110379
11
1.831915
21
78.067356
0
LINE
8
Image 1
10
1.831915
20
78.067356
11
2.061346
21
78.031815
0
LINE
8
Image 1
10
2.061346
20
78.031815
11
2.114880
21
78.024333
0
LINE
8
Image 1
10
2.114880
20
78.024333
11
2.080465
21
77.964474
0
LINE
8
Image 1
10
2.080465
20
77.964474
11
2.057522
21
77.945768
0
LINE
8
Image 1
10
2.057522
20
77.945768
11
1.870153
21
77.891522
0
LINE
8
Image 1
10
1.870153
20
77.891522
11
1.812795
21
77.749358
0
LINE
8
Image 1
10
1.812795
20
77.749358
11
1.862506
21
77.711947
0
LINE
8
Image 1
10
1.862506
20
77.711947
11
2.168414
21
77.700723
0
LINE
8
Image 1
10
2.168414
20
77.700723
11
2.302249
21
77.786770
0
LINE
8
Image 1
10
2.302249
20
77.786770
11
2.524033
21
77.841016
0
LINE
8
Image 1
10
2.524033
20
77.841016
11
2.604334
21
77.807346
0
LINE
8
Image 1
10
3.361458
20
78.910984
11
3.464702
21
78.862349
0
LINE
8
Image 1
10
3.464702
20
78.862349
11
3.575594
21
78.523776
0
LINE
8
Image 1
10
3.575594
20
78.523776
11
3.579417
21
78.439600
0
LINE
8
Image 1
10
3.579417
20
78.439600
11
3.587064
21
78.385353
0
LINE
8
Image 1
10
3.587064
20
78.385353
11
3.587064
21
78.237578
0
LINE
8
Image 1
10
3.587064
20
78.237578
11
3.506763
21
77.928934
0
LINE
8
Image 1
10
3.506763
20
77.928934
11
3.472348
21
77.854111
0
LINE
8
Image 1
10
3.472348
20
77.854111
11
3.395871
21
77.762453
0
LINE
8
Image 1
10
3.395871
20
77.762453
11
3.288803
21
77.693242
0
LINE
8
Image 1
10
3.288803
20
77.693242
11
3.021133
21
77.644607
0
LINE
8
Image 1
10
3.021133
20
77.644607
11
2.860531
21
77.689500
0
LINE
8
Image 1
10
2.860531
20
77.689500
11
2.642571
21
77.775547
0
LINE
8
Image 1
10
2.642571
20
77.775547
11
2.569917
21
77.814829
0
LINE
8
Image 1
10
2.569917
20
77.814829
11
2.554622
21
77.826052
0
LINE
8
Image 1
10
2.554622
20
77.826052
11
2.550798
21
77.822311
0
LINE
8
Image 1
10
2.550798
20
77.822311
11
2.554622
21
77.826052
0
LINE
8
Image 1
10
3.889150
20
79.859364
11
3.927389
21
79.739648
0
LINE
8
Image 1
10
3.927389
20
79.739648
11
3.942684
21
79.599355
0
LINE
8
Image 1
10
3.942684
20
79.599355
11
3.923566
21
79.487121
0
LINE
8
Image 1
10
3.923566
20
79.487121
11
3.877679
21
79.365533
0
LINE
8
Image 1
10
3.877679
20
79.365533
11
3.747668
21
79.118618
0
LINE
8
Image 1
10
3.747668
20
79.118618
11
3.686486
21
79.060630
0
LINE
8
Image 1
10
3.686486
20
79.060630
11
3.479998
21
78.948396
0
LINE
8
Image 1
10
3.479998
20
78.948396
11
3.418816
21
78.931560
0
LINE
8
Image 1
10
3.418816
20
78.931560
11
3.392049
21
78.927819
0
LINE
8
Image 1
10
3.392049
20
78.927819
11
3.403522
21
78.927819
0
LINE
8
Image 1
10
3.743844
20
80.347584
11
3.743844
21
80.283984
0
LINE
8
Image 1
10
3.743844
20
80.283984
11
3.850912
21
80.171750
0
LINE
8
Image 1
10
3.850912
20
80.171750
11
3.977099
21
80.186714
0
LINE
8
Image 1
10
3.977099
20
80.186714
11
4.011514
21
80.209161
0
LINE
8
Image 1
10
4.011514
20
80.209161
11
4.019160
21
80.214773
0
LINE
8
Image 1
10
4.019160
20
80.214773
11
4.015337
21
80.220385
0
LINE
8
Image 1
10
4.015337
20
80.220385
11
4.019160
21
80.214773
0
LINE
8
Image 1
10
2.309897
20
80.848897
11
2.543152
21
80.878827
0
LINE
8
Image 1
10
2.543152
20
80.878827
11
2.715226
21
80.854509
0
LINE
8
Image 1
10
2.715226
20
80.854509
11
3.296452
21
80.725439
0
LINE
8
Image 1
10
3.296452
20
80.725439
11
3.479997
21
80.577664
0
LINE
8
Image 1
10
3.479997
20
80.577664
11
3.537355
21
80.502841
0
LINE
8
Image 1
10
3.537355
20
80.502841
11
3.556474
21
80.476653
0
LINE
8
Image 1
10
3.556474
20
80.476653
11
3.560297
21
80.469171
0
LINE
8
Image 1
10
3.560297
20
80.469171
11
3.552651
21
80.476653
0
LINE
8
Image 1
10
3.552651
20
80.476653
11
3.602361
21
80.523418
0
LINE
8
Image 1
10
3.602361
20
80.523418
11
3.655895
21
80.551476
0
LINE
8
Image 1
10
3.655895
20
80.551476
11
3.759139
21
80.601982
0
LINE
8
Image 1
10
3.759139
20
80.601982
11
3.866207
21
80.616946
0
LINE
8
Image 1
10
3.866207
20
80.616946
11
4.149173
21
80.568311
0
LINE
8
Image 1
10
4.149173
20
80.568311
11
4.294479
21
80.349454
0
LINE
8
Image 1
10
4.294479
20
80.349454
11
4.244769
21
80.076351
0
LINE
8
Image 1
10
4.244769
20
80.076351
11
4.233297
21
80.046422
0
LINE
8
Image 1
10
4.233297
20
80.046422
11
4.187410
21
79.999657
0
LINE
8
Image 1
10
4.187410
20
79.999657
11
4.164468
21
79.971599
0
LINE
8
Image 1
10
4.164468
20
79.971599
11
4.068872
21
79.887423
0
LINE
8
Image 1
10
4.068872
20
79.887423
11
3.954156
21
79.821953
0
LINE
8
Image 1
10
3.954156
20
79.821953
11
3.889150
21
79.812600
0
LINE
8
Image 1
10
3.889150
20
79.812600
11
3.889150
21
79.812600
0
LINE
8
Image 1
10
1.663665
20
79.354310
11
1.552773
21
79.558202
0
LINE
8
Image 1
10
1.552773
20
79.558202
11
1.503063
21
79.713460
0
LINE
8
Image 1
10
1.503063
20
79.713460
11
1.499239
21
79.797636
0
LINE
8
Image 1
10
1.499239
20
79.797636
11
1.487767
21
79.893035
0
LINE
8
Image 1
10
1.487767
20
79.893035
11
1.506887
21
80.104409
0
LINE
8
Image 1
10
1.506887
20
80.104409
11
1.537478
21
80.190456
0
LINE
8
Image 1
10
1.537478
20
80.190456
11
1.560421
21
80.261538
0
LINE
8
Image 1
10
1.560421
20
80.261538
11
1.686608
21
80.433630
0
LINE
8
Image 1
10
1.686608
20
80.433630
11
1.717199
21
80.457948
0
LINE
8
Image 1
10
1.717199
20
80.457948
11
1.709551
21
80.444854
0
LINE
8
Image 1
10
1.709551
20
80.444854
11
1.717199
21
80.457948
0
LINE
8
Image 1
10
2.332840
20
80.841415
11
2.309897
21
81.045307
0
LINE
8
Image 1
10
2.309897
20
81.045307
11
2.286954
21
81.084589
0
LINE
8
Image 1
10
2.286954
20
81.084589
11
2.267835
21
81.103295
0
LINE
8
Image 1
10
2.267835
20
81.103295
11
2.252539
21
81.129483
0
LINE
8
Image 1
10
2.252539
20
81.129483
11
2.137823
21
81.211788
0
LINE
8
Image 1
10
2.137823
20
81.211788
11
1.984869
21
81.269776
0
LINE
8
Image 1
10
1.984869
20
81.269776
11
1.854858
21
81.262294
0
LINE
8
Image 1
10
1.854858
20
81.262294
11
1.770733
21
81.230494
0
LINE
8
Image 1
10
1.770733
20
81.230494
11
1.656017
21
81.135095
0
LINE
8
Image 1
10
1.656017
20
81.135095
11
1.579540
21
81.064013
0
LINE
8
Image 1
10
1.579540
20
81.064013
11
1.487767
21
80.783427
0
LINE
8
Image 1
10
1.487767
20
80.783427
11
1.533654
21
80.650617
0
LINE
8
Image 1
10
1.533654
20
80.650617
11
1.552773
21
80.626299
0
LINE
8
Image 1
10
1.552773
20
80.626299
11
1.579540
21
80.583276
0
LINE
8
Image 1
10
1.579540
20
80.583276
11
1.656017
21
80.502841
0
LINE
8
Image 1
10
1.656017
20
80.502841
11
1.701904
21
80.463559
0
LINE
8
Image 1
10
1.766909
20
81.004155
11
1.732494
21
80.905015
0
LINE
8
Image 1
10
1.732494
20
80.905015
11
1.736318
21
80.858250
0
LINE
8
Image 1
10
1.736318
20
80.858250
11
1.797500
21
80.738534
0
LINE
8
Image 1
10
1.797500
20
80.738534
11
1.835738
21
80.716087
0
LINE
8
Image 1
10
1.835738
20
80.716087
11
1.916039
21
80.719828
0
LINE
8
Image 1
10
1.916039
20
80.719828
11
2.076642
21
80.884438
 0 
ENDSEC
 0 
EOF