%TF.GenerationSoftware,KiCad,Pcbnew,9.0.1*%
%TF.CreationDate,2025-05-06T13:54:33+01:00*%
%TF.ProjectId,handy,68616e64-792e-46b6-9963-61645f706362,rev?*%
%TF.SameCoordinates,Original*%
%TF.FileFunction,Copper,L2,Bot*%
%TF.FilePolarity,Positive*%
%FSLAX46Y46*%
G04 Gerber Fmt 4.6, Leading zero omitted, Abs format (unit mm)*
G04 Created by KiCad (PCBNEW 9.0.1) date 2025-05-06 13:54:33*
%MOMM*%
%LPD*%
G01*
G04 APERTURE LIST*
%TA.AperFunction,ComponentPad*%
%ADD10C,3.800000*%
%TD*%
%TA.AperFunction,ComponentPad*%
%ADD11R,1.350000X1.350000*%
%TD*%
%TA.AperFunction,ComponentPad*%
%ADD12C,1.350000*%
%TD*%
%TA.AperFunction,ComponentPad*%
%ADD13C,0.508000*%
%TD*%
%TA.AperFunction,ViaPad*%
%ADD14C,0.600000*%
%TD*%
%TA.AperFunction,Conductor*%
%ADD15C,0.200000*%
%TD*%
G04 APERTURE END LIST*
D10*
%TO.P,H1,1*%
%TO.N,N/C*%
X149500000Y-100000000D03*
%TD*%
D11*
%TO.P,J3,1,Pin_1*%
%TO.N,GND*%
X158000000Y-101750000D03*
D12*
%TO.P,J3,2,Pin_2*%
%TO.N,/M1*%
X156000000Y-101750000D03*
%TO.P,J3,3,Pin_3*%
%TO.N,/M2*%
X154000000Y-101750000D03*
%TD*%
D13*
%TO.P,U4,V*%
%TO.N,N/C*%
X155356300Y-97962600D03*
X155356300Y-98750000D03*
X156143700Y-97962600D03*
X156143700Y-98750000D03*
%TD*%
D14*
%TO.N,GND*%
X159002533Y-98550000D03*
%TO.N,+3.3V*%
X135250000Y-102250000D03*
X142000000Y-102000000D03*
%TO.N,/SDA0*%
X162500000Y-97500000D03*
X171250000Y-97500000D03*
%TO.N,/SCL0*%
X171750000Y-96800000D03*
X162000000Y-96800000D03*
%TO.N,Net-(U1-~{RESET})*%
X135500000Y-98000000D03*
X139504881Y-98085437D03*
%TO.N,GND*%
X161500000Y-101250000D03*
X127500000Y-102250000D03*
X181000000Y-97000000D03*
X134250000Y-99000000D03*
X118250000Y-102000000D03*
X174000000Y-98250000D03*
X120750000Y-98000000D03*
X142172175Y-99300000D03*
X164750000Y-98750000D03*
X140500000Y-97520299D03*
X153500000Y-99950000D03*
X174750000Y-102250000D03*
%TD*%
D15*
%TO.N,+3.3V*%
X137250000Y-100250000D02*
X135250000Y-102250000D01*
X135250000Y-102250000D02*
X136097386Y-101402614D01*
X139250000Y-100250000D02*
X137250000Y-100250000D01*
X140250000Y-100250000D02*
X139250000Y-100250000D01*
X142000000Y-102000000D02*
X140250000Y-100250000D01*
%TO.N,/SDA0*%
X171250000Y-97500000D02*
X162500000Y-97500000D01*
%TO.N,/SCL0*%
X161750000Y-96800000D02*
X162000000Y-96800000D01*
X171750000Y-96800000D02*
X161750000Y-96800000D01*
%TO.N,Net-(U1-~{RESET})*%
X136500000Y-99000000D02*
X135500000Y-98000000D01*
X139504881Y-98085437D02*
X138590318Y-99000000D01*
X138590318Y-99000000D02*
X136500000Y-99000000D01*
%TD*%
%TA.AperFunction,Conductor*%
%TO.N,GND*%
G36*
X121760192Y-96423894D02*
G01*
X122132025Y-96474932D01*
X122506473Y-96500510D01*
X122694133Y-96500500D01*
X122760025Y-96500500D01*
X161361155Y-96500500D01*
X161428194Y-96520185D01*
X161473949Y-96572989D01*
X161483893Y-96642147D01*
X161472139Y-96676107D01*
X161473090Y-96676501D01*
X161469979Y-96684009D01*
X161456555Y-96734108D01*
X161449500Y-96760438D01*
X161449500Y-96839562D01*
X161463152Y-96890513D01*
X161469979Y-96915990D01*
X161469982Y-96915995D01*
X161509535Y-96984504D01*
X161509541Y-96984512D01*
X161543091Y-97018062D01*
X161562797Y-97043743D01*
X161599500Y-97107314D01*
X161692686Y-97200500D01*
X161806814Y-97266392D01*
X161909224Y-97293832D01*
X161968882Y-97330195D01*
X161999412Y-97393042D01*
X162000068Y-97429789D01*
X161999500Y-97434103D01*
X161999500Y-97565891D01*
X162033608Y-97693187D01*
X162058042Y-97735507D01*
X162099500Y-97807314D01*
X162192686Y-97900500D01*
X162306814Y-97966392D01*
X162434108Y-98000500D01*
X162434110Y-98000500D01*
X162565890Y-98000500D01*
X162565892Y-98000500D01*
X162693186Y-97966392D01*
X162807314Y-97900500D01*
X162870995Y-97836819D01*
X162932318Y-97803334D01*
X162958676Y-97800500D01*
X170791324Y-97800500D01*
X170858363Y-97820185D01*
X170879005Y-97836819D01*
X170942686Y-97900500D01*
X171056814Y-97966392D01*
X171184108Y-98000500D01*
X171184110Y-98000500D01*
X171315890Y-98000500D01*
X171315892Y-98000500D01*
X171443186Y-97966392D01*
X171557314Y-97900500D01*
X171650500Y-97807314D01*
X171716392Y-97693186D01*
X171750500Y-97565892D01*
X171750500Y-97434108D01*
X171750499Y-97434103D01*
X171749932Y-97429799D01*
X171750500Y-97426155D01*
X171750500Y-97425981D01*
X171750527Y-97425981D01*
X171760693Y-97360763D01*
X171807070Y-97308504D01*
X171840772Y-97293833D01*
X171943186Y-97266392D01*
X172057314Y-97200500D01*
X172150500Y-97107314D01*
X172216392Y-96993186D01*
X172250500Y-96865892D01*
X172250500Y-96734108D01*
X172229730Y-96656592D01*
X172231393Y-96586743D01*
X172270556Y-96528881D01*
X172334784Y-96501377D01*
X172349505Y-96500500D01*
X176380484Y-96500500D01*
X176380596Y-96500491D01*
X176493527Y-96500498D01*
X176867973Y-96474920D01*
X177000000Y-96456797D01*
X177000000Y-103543188D01*
X176867977Y-103525067D01*
X176618341Y-103508015D01*
X176493525Y-103499490D01*
X176493523Y-103499490D01*
X176305865Y-103499500D01*
X122620693Y-103499500D01*
X122620569Y-103499507D01*
X122506476Y-103499502D01*
X122506475Y-103499502D01*
X122444067Y-103503764D01*
X122132023Y-103525079D01*
X121760203Y-103576115D01*
X121760196Y-103576116D01*
X121500000Y-103630112D01*
X121500000Y-102184108D01*
X134749500Y-102184108D01*
X134749500Y-102315892D01*
X134765291Y-102374826D01*
X134783608Y-102443187D01*
X134794763Y-102462507D01*
X134849500Y-102557314D01*
X134942686Y-102650500D01*
X135056814Y-102716392D01*
X135184108Y-102750500D01*
X135184110Y-102750500D01*
X135315890Y-102750500D01*
X135315892Y-102750500D01*
X135443186Y-102716392D01*
X135557314Y-102650500D01*
X135650500Y-102557314D01*
X135716392Y-102443186D01*
X135750500Y-102315892D01*
X135750500Y-102225832D01*
X135770185Y-102158793D01*
X135786819Y-102138151D01*
X136337846Y-101587125D01*
X137338152Y-100586819D01*
X137399475Y-100553334D01*
X137425833Y-100550500D01*
X139210438Y-100550500D01*
X140074167Y-100550500D01*
X140141206Y-100570185D01*
X140161848Y-100586819D01*
X141463181Y-101888152D01*
X141496666Y-101949475D01*
X141499500Y-101975833D01*
X141499500Y-102065892D01*
X141516554Y-102129539D01*
X141533608Y-102193187D01*
X141552456Y-102225832D01*
X141599500Y-102307314D01*
X141692686Y-102400500D01*
X141806814Y-102466392D01*
X141934108Y-102500500D01*
X141934110Y-102500500D01*
X142065890Y-102500500D01*
X142065892Y-102500500D01*
X142193186Y-102466392D01*
X142307314Y-102400500D01*
X142400500Y-102307314D01*
X142466392Y-102193186D01*
X142500500Y-102065892D01*
X142500500Y-101934108D01*
X142466392Y-101806814D01*
X142400500Y-101692686D01*
X142307314Y-101599500D01*
X142250250Y-101566554D01*
X142193187Y-101533608D01*
X142120015Y-101514002D01*
X142065892Y-101499500D01*
X141975833Y-101499500D01*
X141908794Y-101479815D01*
X141888152Y-101463181D01*
X140434512Y-100009541D01*
X140434504Y-100009535D01*
X140365995Y-99969981D01*
X140365990Y-99969979D01*
X140340513Y-99963152D01*
X140289562Y-99949500D01*
X139289562Y-99949500D01*
X137210438Y-99949500D01*
X137172224Y-99959739D01*
X137134009Y-99969979D01*
X137134004Y-99969982D01*
X137065495Y-100009535D01*
X137065487Y-100009541D01*
X135912875Y-101162154D01*
X135361847Y-101713181D01*
X135300524Y-101746666D01*
X135274166Y-101749500D01*
X135184108Y-101749500D01*
X135056812Y-101783608D01*
X134942686Y-101849500D01*
X134942683Y-101849502D01*
X134849502Y-101942683D01*
X134849500Y-101942686D01*
X134783608Y-102056812D01*
X134780053Y-102070080D01*
X134749500Y-102184108D01*
X121500000Y-102184108D01*
X121500000Y-99862332D01*
X147399500Y-99862332D01*
X147399500Y-100137667D01*
X147399501Y-100137684D01*
X147435438Y-100410655D01*
X147435439Y-100410660D01*
X147435440Y-100410666D01*
X147435441Y-100410668D01*
X147506704Y-100676630D01*
X147612075Y-100931017D01*
X147612080Y-100931028D01*
X147692290Y-101069954D01*
X147749751Y-101169479D01*
X147749753Y-101169482D01*
X147749754Y-101169483D01*
X147917370Y-101387926D01*
X147917376Y-101387933D01*
X148112066Y-101582623D01*
X148112073Y-101582629D01*
X148217814Y-101663766D01*
X148330521Y-101750249D01*
X148479443Y-101836229D01*
X148568971Y-101887919D01*
X148568976Y-101887921D01*
X148568979Y-101887923D01*
X148823368Y-101993295D01*
X149089334Y-102064560D01*
X149362326Y-102100500D01*
X149362333Y-102100500D01*
X149637667Y-102100500D01*
X149637674Y-102100500D01*
X149910666Y-102064560D01*
X150176632Y-101993295D01*
X150431021Y-101887923D01*
X150669479Y-101750249D01*
X150782186Y-101663766D01*
X153124500Y-101663766D01*
X153124500Y-101836233D01*
X153158143Y-102005366D01*
X153158146Y-102005378D01*
X153224138Y-102164698D01*
X153224145Y-102164711D01*
X153319954Y-102308098D01*
X153319957Y-102308102D01*
X153441897Y-102430042D01*
X153441901Y-102430045D01*
X153585288Y-102525854D01*
X153585301Y-102525861D01*
X153661241Y-102557316D01*
X153744626Y-102591855D01*
X153913766Y-102625499D01*
X153913769Y-102625500D01*
X153913771Y-102625500D01*
X154086231Y-102625500D01*
X154086232Y-102625499D01*
X154255374Y-102591855D01*
X154414705Y-102525858D01*
X154558099Y-102430045D01*
X154680045Y-102308099D01*
X154775858Y-102164705D01*
X154841855Y-102005374D01*
X154875500Y-101836229D01*
X154875500Y-101663771D01*
X154875500Y-101663768D01*
X154875499Y-101663766D01*
X155124500Y-101663766D01*
X155124500Y-101836233D01*
X155158143Y-102005366D01*
X155158146Y-102005378D01*
X155224138Y-102164698D01*
X155224145Y-102164711D01*
X155319954Y-102308098D01*
X155319957Y-102308102D01*
X155441897Y-102430042D01*
X155441901Y-102430045D01*
X155585288Y-102525854D01*
X155585301Y-102525861D01*
X155661241Y-102557316D01*
X155744626Y-102591855D01*
X155913766Y-102625499D01*
X155913769Y-102625500D01*
X155913771Y-102625500D01*
X156086231Y-102625500D01*
X156086232Y-102625499D01*
X156255374Y-102591855D01*
X156414705Y-102525858D01*
X156558099Y-102430045D01*
X156578653Y-102409491D01*
X156613319Y-102374826D01*
X156674642Y-102341341D01*
X156744334Y-102346325D01*
X156800267Y-102388197D01*
X156824684Y-102453661D01*
X156825000Y-102462507D01*
X156825000Y-102472844D01*
X156831401Y-102532372D01*
X156831403Y-102532379D01*
X156881645Y-102667086D01*
X156881649Y-102667093D01*
X156967809Y-102782187D01*
X156967812Y-102782190D01*
X157082906Y-102868350D01*
X157082913Y-102868354D01*
X157217620Y-102918596D01*
X157217627Y-102918598D01*
X157277155Y-102924999D01*
X157277172Y-102925000D01*
X157750000Y-102925000D01*
X157750000Y-102065686D01*
X157754394Y-102070080D01*
X157845606Y-102122741D01*
X157947339Y-102150000D01*
X158052661Y-102150000D01*
X158154394Y-102122741D01*
X158245606Y-102070080D01*
X158250000Y-102065686D01*
X158250000Y-102925000D01*
X158722828Y-102925000D01*
X158722844Y-102924999D01*
X158782372Y-102918598D01*
X158782379Y-102918596D01*
X158917086Y-102868354D01*
X158917093Y-102868350D01*
X159032187Y-102782190D01*
X159032190Y-102782187D01*
X159118350Y-102667093D01*
X159118354Y-102667086D01*
X159168596Y-102532379D01*
X159168598Y-102532372D01*
X159174999Y-102472844D01*
X159175000Y-102472827D01*
X159175000Y-102000000D01*
X158315686Y-102000000D01*
X158320080Y-101995606D01*
X158372741Y-101904394D01*
X158400000Y-101802661D01*
X158400000Y-101697339D01*
X158372741Y-101595606D01*
X158320080Y-101504394D01*
X158315686Y-101500000D01*
X159175000Y-101500000D01*
X159175000Y-101027172D01*
X159174999Y-101027155D01*
X159168598Y-100967627D01*
X159168596Y-100967620D01*
X159118354Y-100832913D01*
X159118350Y-100832906D01*
X159032190Y-100717812D01*
X159032187Y-100717809D01*
X158917093Y-100631649D01*
X158917086Y-100631645D01*
X158782379Y-100581403D01*
X158782372Y-100581401D01*
X158722844Y-100575000D01*
X158250000Y-100575000D01*
X158250000Y-101434314D01*
X158245606Y-101429920D01*
X158154394Y-101377259D01*
X158052661Y-101350000D01*
X157947339Y-101350000D01*
X157845606Y-101377259D01*
X157754394Y-101429920D01*
X157750000Y-101434314D01*
X157750000Y-100575000D01*
X157277155Y-100575000D01*
X157217627Y-100581401D01*
X157217620Y-100581403D01*
X157082913Y-100631645D01*
X157082906Y-100631649D01*
X156967812Y-100717809D01*
X156967809Y-100717812D01*
X156881649Y-100832906D01*
X156881645Y-100832913D01*
X156831403Y-100967620D01*
X156831401Y-100967627D01*
X156825000Y-101027155D01*
X156825000Y-101037493D01*
X156805315Y-101104532D01*
X156752511Y-101150287D01*
X156683353Y-101160231D01*
X156619797Y-101131206D01*
X156613319Y-101125174D01*
X156558102Y-101069957D01*
X156558098Y-101069954D01*
X156414711Y-100974145D01*
X156414698Y-100974138D01*
X156255378Y-100908146D01*
X156255366Y-100908143D01*
X156086232Y-100874500D01*
X156086229Y-100874500D01*
X155913771Y-100874500D01*
X155913768Y-100874500D01*
X155744633Y-100908143D01*
X155744621Y-100908146D01*
X155585301Y-100974138D01*
X155585288Y-100974145D01*
X155441901Y-101069954D01*
X155441897Y-101069957D01*
X155319957Y-101191897D01*
X155319954Y-101191901D01*
X155224145Y-101335288D01*
X155224138Y-101335301D01*
X155158146Y-101494621D01*
X155158143Y-101494633D01*
X155124500Y-101663766D01*
X154875499Y-101663766D01*
X154859360Y-101582629D01*
X154841855Y-101494626D01*
X154815053Y-101429920D01*
X154775861Y-101335301D01*
X154775854Y-101335288D01*
X154680045Y-101191901D01*
X154680042Y-101191897D01*
X154558102Y-101069957D01*
X154558098Y-101069954D01*
X154414711Y-100974145D01*
X154414698Y-100974138D01*
X154255378Y-100908146D01*
X154255366Y-100908143D01*
X154086232Y-100874500D01*
X154086229Y-100874500D01*
X153913771Y-100874500D01*
X153913768Y-100874500D01*
X153744633Y-100908143D01*
X153744621Y-100908146D01*
X153585301Y-100974138D01*
X153585288Y-100974145D01*
X153441901Y-101069954D01*
X153441897Y-101069957D01*
X153319957Y-101191897D01*
X153319954Y-101191901D01*
X153224145Y-101335288D01*
X153224138Y-101335301D01*
X153158146Y-101494621D01*
X153158143Y-101494633D01*
X153124500Y-101663766D01*
X150782186Y-101663766D01*
X150887928Y-101582628D01*
X150887933Y-101582623D01*
X150900559Y-101569998D01*
X151082623Y-101387933D01*
X151082628Y-101387928D01*
X151250249Y-101169479D01*
X151387923Y-100931021D01*
X151493295Y-100676632D01*
X151564560Y-100410666D01*
X151600500Y-100137674D01*
X151600500Y-99862326D01*
X151564560Y-99589334D01*
X151493295Y-99323368D01*
X151387923Y-99068979D01*
X151387921Y-99068976D01*
X151387919Y-99068971D01*
X151334872Y-98977092D01*
X151250249Y-98830521D01*
X151102160Y-98637527D01*
X151082629Y-98612073D01*
X151082623Y-98612066D01*
X150887933Y-98417376D01*
X150887926Y-98417370D01*
X150669483Y-98249754D01*
X150669482Y-98249753D01*
X150669479Y-98249751D01*
X150542851Y-98176642D01*
X150431028Y-98112080D01*
X150431017Y-98112075D01*
X150282422Y-98050525D01*
X150181711Y-98008808D01*
X150176633Y-98006705D01*
X150079283Y-97980620D01*
X149910666Y-97935440D01*
X149910660Y-97935439D01*
X149910655Y-97935438D01*
X149662469Y-97902764D01*
X154901800Y-97902764D01*
X154901800Y-98022436D01*
X154932773Y-98138031D01*
X154992609Y-98241670D01*
X154992611Y-98241672D01*
X155019558Y-98268619D01*
X155053043Y-98329942D01*
X155048059Y-98399634D01*
X155019558Y-98443981D01*
X154992611Y-98470927D01*
X154992607Y-98470933D01*
X154932774Y-98574566D01*
X154932773Y-98574569D01*
X154901800Y-98690164D01*
X154901800Y-98809836D01*
X154932773Y-98925431D01*
X154992609Y-99029070D01*
X155077230Y-99113691D01*
X155180869Y-99173527D01*
X155296464Y-99204500D01*
X155296466Y-99204500D01*
X155416134Y-99204500D01*
X155416136Y-99204500D01*
X155531731Y-99173527D01*
X155635370Y-99113691D01*
X155662319Y-99086742D01*
X155723642Y-99053257D01*
X155793334Y-99058241D01*
X155837681Y-99086742D01*
X155864630Y-99113691D01*
X155968269Y-99173527D01*
X156083864Y-99204500D01*
X156083866Y-99204500D01*
X156203534Y-99204500D01*
X156203536Y-99204500D01*
X156319131Y-99173527D01*
X156422770Y-99113691D01*
X156507391Y-99029070D01*
X156567227Y-98925431D01*
X156598200Y-98809836D01*
X156598200Y-98690164D01*
X156567227Y-98574569D01*
X156507391Y-98470930D01*
X156480442Y-98443981D01*
X156446957Y-98382658D01*
X156451941Y-98312966D01*
X156480442Y-98268619D01*
X156507391Y-98241670D01*
X156567227Y-98138031D01*
X156598200Y-98022436D01*
X156598200Y-97902764D01*
X156567227Y-97787169D01*
X156507391Y-97683530D01*
X156422770Y-97598909D01*
X156319131Y-97539073D01*
X156203536Y-97508100D01*
X156083864Y-97508100D01*
X155968269Y-97539073D01*
X155968266Y-97539074D01*
X155864633Y-97598907D01*
X155864627Y-97598911D01*
X155837681Y-97625858D01*
X155776358Y-97659343D01*
X155706666Y-97654359D01*
X155662319Y-97625858D01*
X155635372Y-97598911D01*
X155635370Y-97598909D01*
X155531731Y-97539073D01*
X155416136Y-97508100D01*
X155296464Y-97508100D01*
X155180869Y-97539073D01*
X155180866Y-97539074D01*
X155077233Y-97598907D01*
X155077227Y-97598911D01*
X154992611Y-97683527D01*
X154992607Y-97683533D01*
X154932774Y-97787166D01*
X154932773Y-97787169D01*
X154901800Y-97902764D01*
X149662469Y-97902764D01*
X149637684Y-97899501D01*
X149637679Y-97899500D01*
X149637674Y-97899500D01*
X149362326Y-97899500D01*
X149362320Y-97899500D01*
X149362315Y-97899501D01*
X149089344Y-97935438D01*
X149089337Y-97935439D01*
X149089334Y-97935440D01*
X149033125Y-97950500D01*
X148823369Y-98006704D01*
X148568982Y-98112075D01*
X148568971Y-98112080D01*
X148330516Y-98249754D01*
X148112073Y-98417370D01*
X148112066Y-98417376D01*
X147917376Y-98612066D01*
X147917370Y-98612073D01*
X147749754Y-98830516D01*
X147612080Y-99068971D01*
X147612075Y-99068982D01*
X147506704Y-99323369D01*
X147435441Y-99589331D01*
X147435438Y-99589344D01*
X147399501Y-99862315D01*
X147399500Y-99862332D01*
X121500000Y-99862332D01*
X121500000Y-97934108D01*
X134999500Y-97934108D01*
X134999500Y-98065892D01*
X135011212Y-98109603D01*
X135033608Y-98193187D01*
X135061598Y-98241666D01*
X135099500Y-98307314D01*
X135192686Y-98400500D01*
X135306814Y-98466392D01*
X135434108Y-98500500D01*
X135434110Y-98500500D01*
X135524167Y-98500500D01*
X135591206Y-98520185D01*
X135611848Y-98536819D01*
X136315489Y-99240460D01*
X136374829Y-99274720D01*
X136384008Y-99280020D01*
X136384012Y-99280022D01*
X136460438Y-99300500D01*
X136460440Y-99300500D01*
X138629878Y-99300500D01*
X138629880Y-99300500D01*
X138706307Y-99280021D01*
X138774829Y-99240460D01*
X138830778Y-99184511D01*
X139393032Y-98622255D01*
X139454355Y-98588771D01*
X139480713Y-98585937D01*
X139570771Y-98585937D01*
X139570773Y-98585937D01*
X139698067Y-98551829D01*
X139812195Y-98485937D01*
X139905381Y-98392751D01*
X139971273Y-98278623D01*
X140005381Y-98151329D01*
X140005381Y-98019545D01*
X139971273Y-97892251D01*
X139905381Y-97778123D01*
X139812195Y-97684937D01*
X139755131Y-97651991D01*
X139698068Y-97619045D01*
X139591568Y-97590509D01*
X139570773Y-97584937D01*
X139438989Y-97584937D01*
X139311693Y-97619045D01*
X139197567Y-97684937D01*
X139197564Y-97684939D01*
X139104383Y-97778120D01*
X139104381Y-97778123D01*
X139038489Y-97892249D01*
X139004381Y-98019545D01*
X139004381Y-98109603D01*
X138984696Y-98176642D01*
X138968062Y-98197284D01*
X138502166Y-98663181D01*
X138440843Y-98696666D01*
X138414485Y-98699500D01*
X136675833Y-98699500D01*
X136608794Y-98679815D01*
X136588152Y-98663181D01*
X136036819Y-98111848D01*
X136003334Y-98050525D01*
X136000500Y-98024167D01*
X136000500Y-97934110D01*
X136000500Y-97934108D01*
X135966392Y-97806814D01*
X135900500Y-97692686D01*
X135807314Y-97599500D01*
X135749100Y-97565890D01*
X135693187Y-97533608D01*
X135629539Y-97516554D01*
X135565892Y-97499500D01*
X135434108Y-97499500D01*
X135306812Y-97533608D01*
X135192686Y-97599500D01*
X135192683Y-97599502D01*
X135099502Y-97692683D01*
X135099500Y-97692686D01*
X135033608Y-97806812D01*
X135007898Y-97902766D01*
X134999500Y-97934108D01*
X121500000Y-97934108D01*
X121500000Y-96369899D01*
X121760192Y-96423894D01*
G37*
%TD.AperFunction*%
%TD*%
%TA.AperFunction,Conductor*%
%TO.N,GND*%
G36*
X119695926Y-95955536D02*
G01*
X120078893Y-95992387D01*
X120090886Y-95994138D01*
X120468383Y-96068296D01*
X120480154Y-96071213D01*
X120851332Y-96182792D01*
X120857044Y-96184662D01*
X121031263Y-96246502D01*
X121031267Y-96246503D01*
X121392704Y-96347634D01*
X121392709Y-96347635D01*
X121760187Y-96423893D01*
X121760192Y-96423894D01*
X122132025Y-96474932D01*
X122307354Y-96486908D01*
X122540156Y-96682252D01*
X122817748Y-96959844D01*
X123070090Y-97260574D01*
X123295262Y-97582152D01*
X123491549Y-97922131D01*
X123657458Y-98277925D01*
X123791726Y-98646824D01*
X123893332Y-99026022D01*
X123961502Y-99412632D01*
X123995717Y-99803713D01*
X123995717Y-100196287D01*
X123961502Y-100587368D01*
X123893332Y-100973978D01*
X123791726Y-101353176D01*
X123657458Y-101722075D01*
X123491549Y-102077869D01*
X123295262Y-102417848D01*
X123070090Y-102739426D01*
X122817748Y-103040156D01*
X122540156Y-103317748D01*
X122307339Y-103513104D01*
X122132023Y-103525079D01*
X121760203Y-103576115D01*
X121760196Y-103576116D01*
X121392712Y-103652376D01*
X121031266Y-103753508D01*
X120857301Y-103815258D01*
X120851532Y-103817147D01*
X120672205Y-103871054D01*
X120480166Y-103928783D01*
X120468371Y-103931706D01*
X120090902Y-104005858D01*
X120078877Y-104007614D01*
X119695944Y-104044462D01*
X119683805Y-104045032D01*
X119299108Y-104044218D01*
X119286972Y-104043597D01*
X118904191Y-104005131D01*
X118892173Y-104003324D01*
X118515023Y-103927579D01*
X118503240Y-103924606D01*
X118135290Y-103812300D01*
X118123855Y-103808187D01*
X117768672Y-103660405D01*
X117757694Y-103655192D01*
X117418690Y-103473357D01*
X117408275Y-103467095D01*
X117088695Y-103252948D01*
X117078943Y-103245697D01*
X116781854Y-103001291D01*
X116772859Y-102993120D01*
X116501120Y-102720807D01*
X116492968Y-102711794D01*
X116249199Y-102414199D01*
X116241968Y-102404432D01*
X116028493Y-102084396D01*
X116022253Y-102073968D01*
X115943774Y-101926911D01*
X115841129Y-101734570D01*
X115835941Y-101723582D01*
X115688914Y-101368096D01*
X115684825Y-101356652D01*
X115573299Y-100988474D01*
X115570350Y-100976685D01*
X115506869Y-100657107D01*
X115495396Y-100599347D01*
X115493618Y-100587351D01*
X115455961Y-100204480D01*
X115455366Y-100192343D01*
X115455366Y-99807656D01*
X115455961Y-99795519D01*
X115457868Y-99776121D01*
X115493619Y-99412645D01*
X115495395Y-99400655D01*
X115570350Y-99023311D01*
X115573299Y-99011525D01*
X115684825Y-98643347D01*
X115688914Y-98631903D01*
X115835945Y-98276408D01*
X115841125Y-98265437D01*
X116022260Y-97926018D01*
X116028485Y-97915615D01*
X116241979Y-97595551D01*
X116249186Y-97585816D01*
X116492977Y-97288194D01*
X116501110Y-97279201D01*
X116772870Y-97006868D01*
X116781843Y-96998717D01*
X117078948Y-96754297D01*
X117088689Y-96747054D01*
X117408288Y-96532895D01*
X117418675Y-96526650D01*
X117757705Y-96344801D01*
X117768661Y-96339598D01*
X118123871Y-96191806D01*
X118135274Y-96187704D01*
X118503252Y-96075389D01*
X118515011Y-96072423D01*
X118892188Y-95996672D01*
X118904178Y-95994869D01*
X119286973Y-95956401D01*
X119299105Y-95955781D01*
X119683822Y-95954967D01*
X119695926Y-95955536D01*
G37*
%TD.AperFunction*%
%TD*%
%TA.AperFunction,Conductor*%
%TO.N,GND*%
G36*
X179700893Y-95955781D02*
G01*
X179713027Y-95956402D01*
X180095818Y-95994869D01*
X180107814Y-95996673D01*
X180484984Y-96072422D01*
X180496752Y-96075391D01*
X180864718Y-96187702D01*
X180876135Y-96191808D01*
X181153744Y-96307314D01*
X181231327Y-96339594D01*
X181242302Y-96344805D01*
X181581315Y-96526645D01*
X181591719Y-96532901D01*
X181745860Y-96636189D01*
X181911304Y-96747051D01*
X181921056Y-96754302D01*
X182218145Y-96998708D01*
X182227140Y-97006879D01*
X182498879Y-97279192D01*
X182507031Y-97288205D01*
X182750800Y-97585800D01*
X182758031Y-97595567D01*
X182971506Y-97915603D01*
X182977746Y-97926031D01*
X183158869Y-98265428D01*
X183164058Y-98276417D01*
X183311085Y-98631903D01*
X183315174Y-98643347D01*
X183426700Y-99011525D01*
X183429649Y-99023314D01*
X183504601Y-99400638D01*
X183506382Y-99412659D01*
X183544039Y-99795518D01*
X183544634Y-99807656D01*
X183544634Y-100192343D01*
X183544039Y-100204481D01*
X183506382Y-100587340D01*
X183504601Y-100599361D01*
X183429649Y-100976685D01*
X183426700Y-100988474D01*
X183315174Y-101356652D01*
X183311085Y-101368096D01*
X183164058Y-101723582D01*
X183158869Y-101734571D01*
X182977746Y-102073968D01*
X182971506Y-102084396D01*
X182758031Y-102404432D01*
X182750800Y-102414199D01*
X182507031Y-102711794D01*
X182498879Y-102720807D01*
X182227140Y-102993120D01*
X182218145Y-103001291D01*
X181921056Y-103245697D01*
X181911304Y-103252948D01*
X181591724Y-103467095D01*
X181581309Y-103473357D01*
X181242305Y-103655192D01*
X181231327Y-103660405D01*
X180876144Y-103808187D01*
X180864709Y-103812300D01*
X180496759Y-103924606D01*
X180484976Y-103927579D01*
X180107826Y-104003324D01*
X180095808Y-104005131D01*
X179713027Y-104043597D01*
X179700891Y-104044218D01*
X179316194Y-104045032D01*
X179304055Y-104044462D01*
X178921122Y-104007614D01*
X178909097Y-104005858D01*
X178531628Y-103931706D01*
X178519833Y-103928783D01*
X178148705Y-103817219D01*
X178142924Y-103815325D01*
X177968736Y-103753497D01*
X177607294Y-103652365D01*
X177607289Y-103652364D01*
X177239811Y-103576106D01*
X177239798Y-103576104D01*
X176867977Y-103525067D01*
X176692645Y-103513090D01*
X176459844Y-103317748D01*
X176182252Y-103040156D01*
X175929910Y-102739426D01*
X175704738Y-102417848D01*
X175508451Y-102077869D01*
X175342542Y-101722075D01*
X175208274Y-101353176D01*
X175106668Y-100973978D01*
X175038498Y-100587368D01*
X175004283Y-100196287D01*
X175004283Y-99803713D01*
X175038498Y-99412632D01*
X175106668Y-99026022D01*
X175208274Y-98646824D01*
X175342542Y-98277925D01*
X175508451Y-97922131D01*
X175704738Y-97582152D01*
X175929910Y-97260574D01*
X176182252Y-96959844D01*
X176459844Y-96682252D01*
X176692660Y-96486895D01*
X176867973Y-96474920D01*
X177239806Y-96423882D01*
X177607296Y-96347621D01*
X177968734Y-96246491D01*
X178094143Y-96201976D01*
X178095243Y-96201594D01*
X178158825Y-96179830D01*
X178160386Y-96179760D01*
X178163276Y-96178400D01*
X178519850Y-96071211D01*
X178531611Y-96068297D01*
X178909115Y-95994138D01*
X178921103Y-95992387D01*
X179304073Y-95955536D01*
X179316176Y-95954967D01*
X179700893Y-95955781D01*
G37*
%TD.AperFunction*%
%TD*%
M02*
